<?xml version="1.0" encoding="UTF-8"?><svg xmlns="http://www.w3.org/2000/svg" viewBox="0 0 256 256"><path d="M169.08,96.25c-.37,0-.73.02-1.09.03,2.93-5.94,4.59-12.63,4.59-19.7,0-24.62-19.96-44.58-44.58-44.58s-44.58,19.96-44.58,44.58c0,7.07,1.65,13.76,4.59,19.7-.36,0-.73-.03-1.09-.03-24.62,0-44.58,19.96-44.58,44.58s19.96,44.58,44.58,44.58c11.98,0,22.84-4.73,30.85-12.41-11.7,36.87-29.26,51.01-29.26,51.01h78.99s-16.73-15.03-28.42-50.21c7.92,7.21,18.45,11.61,30.01,11.61,24.62,0,44.58-19.96,44.58-44.58s-19.96-44.58-44.58-44.58ZM126.91,121.13c.11,0,.22,0,.34,0-.01.2-.03.39-.04.59-.1-.2-.19-.4-.29-.6ZM128.88,121.55c-.01-.14-.02-.28-.03-.42.08,0,.16,0,.25,0-.07.14-.15.28-.21.42Z" fill="currentcolor"/></svg>