<?xml version="1.0" encoding="UTF-8"?><svg xmlns="http://www.w3.org/2000/svg" viewBox="0 0 1024 1024"><title>aspen logo</title><desc>Copyright &#xa9; 2026 Pearlpuppy. All rights reserved.</desc><metadata><rdf:RDF xmlns:rdf="http://www.w3.org" xmlns:dc="http://purl.org"><rdf:Description rdf:about=""><dc:title>aspen logo</dc:title><dc:creator>Pierre Pearlpuppy</dc:creator><dc:rights>Copyright &#xa9; 2026 Pearlpuppy. All rights reserved.</dc:rights><dc:date>2026-03-20</dc:date><dc:format>image/svg+xml</dc:format></rdf:Description></rdf:RDF></metadata><g isolation="isolate"><g id="logo-aspen"><g id="aspen"><g data-fc="#35b291"><path d="M154.01,560.21l53.4,141.2h-38.2l-6.6-18.79h-52.61l-6.4,18.79h-35.61l50.81-141.2h35.2ZM119.41,656.41h34.01l-17.01-49.81-17,49.81Z" fill="currentcolor"/><path d="M319.65,645.81c-12.39-2.2-26.6-4.79-36.8-13.59-8.6-7.4-12.99-18.6-12.99-30,0-31.41,26.2-44.4,55.8-44.4,21.4,0,44.99,7,59.6,26.8l-24.6,19.6c-5.4-6.2-15.8-18.4-35-18.4-10.2,0-19.81,3.99-19.81,12.2,0,2.8,1.41,5.6,3.41,7.4,3.4,2.99,10,4.2,24.2,6.4,21.2,3.2,23.2,3.6,29,5.39,6.4,2.01,27.81,8.61,27.81,39.01,0,34.99-31.61,47.59-61.41,47.59-19.79,0-48.4-5.99-63.81-28l26.8-21.2c5.6,7.4,15.41,19.8,38.41,19.8,4.4,0,13.2-.4,18.6-4.2,3.39-2.4,5.39-5.8,5.39-9.61,0-2.2-.59-4.2-1.59-5.6-3.41-5-8.01-5.6-23.61-7.8l-9.4-1.4Z" fill="currentcolor"/><path d="M514.65,589.41h-14v39.01h14.39c8.4,0,13.81-.2,18.22-2.01,6.99-2.79,10.4-8.99,10.4-17.59,0-19.6-14.8-19.4-29-19.4ZM591.62,512.32c-53,32.39-115.66,11.56-157.24,52.43-50.94,50.05,24.52,159.98,24.52,159.98,0,0,131.86,19.62,154.54-48.11,18.51-55.28-27.69-102.46-21.81-164.3ZM566.25,647.01c-11.78,10.4-24.59,11.39-45.4,12.2h-20.19v42.2h-36v-141.2h55.99c13.61,0,28.42-.2,41.22,8.6,18.79,12.8,18.79,34.8,18.79,40.21,0,24.8-10.4,34.4-14.41,38Z" fill="currentcolor" fill-rule="evenodd"/><path d="M762.26,671.62v29.79h-112.4v-141.4h106.41v28.4h-70.82v22.79h56.01v27.8h-56.01v32.61h76.8Z" fill="currentcolor"/><path d="M956,560.21v141.2h-35.2l-51-84.6v84.6h-33.79v-141.2h34.59l51.41,84.4v-84.4h33.99Z" fill="currentcolor"/></g><g data-fc="#868687"><path d="M481.39,364.14c0,1.01-.27,2-.83,3.01-5.59,10.39-10.61,19.57-15.08,27.55-4.46,7.99-8.7,15.37-12.72,22.11-4.02,6.75-7.99,13.28-11.89,19.6-3.92,6.32-8.05,13.04-12.4,20.18-3.57,5.69-7.46,11.02-11.65,15.99-4.19,4.97-8.83,9.27-13.9,12.91-5.08,3.63-10.61,6.47-16.59,8.54-5.97,2.07-12.52,3.1-19.67,3.1-5.25,0-9.58-.69-12.99-2.09-3.41-1.4-6.08-3.27-8.03-5.61-1.95-2.34-3.32-5.04-4.11-8.04-.77-3.01-1.17-6.13-1.17-9.38,0-1.34.12-2.76.33-4.26.23-1.51.5-2.72.85-3.6.11-.45.33-.68.66-.68s.51.29.51.84c-.22.78-.46,1.71-.67,2.76-.23,1.07-.33,2.21-.33,3.44,0,3.91.83,7.28,2.5,10.13,1.68,2.84,3.99,5.19,6.96,7.03,2.96,1.84,6.44,3.23,10.47,4.19,4.02.94,8.31,1.42,12.89,1.42,4.81,0,9.64-.78,14.5-2.34,4.86-1.57,9.68-4.15,14.49-7.78,4.8-3.64,9.51-8.35,14.16-14.16,4.62-5.79,9.18-12.96,13.65-21.44,2.89-5.36,5.97-11.05,9.2-17.08,3.24-6.03,6.37-11.81,9.39-17.34,3.01-5.53,5.72-10.49,8.12-14.91,2.39-4.41,4.16-7.62,5.27-9.63-2.24,3.02-4.41,5.86-6.53,8.54-2.13,2.68-4.1,5.03-5.95,7.03-1.84,2.02-3.6,3.6-5.27,4.77-1.68,1.17-3.19,1.76-4.53,1.76-1.01,0-1.84-.33-2.52-1-.66-.67-1.01-1.74-1.01-3.19,0-1.67.7-4.04,2.11-7.12,1.39-3.06,3.23-6.27,5.53-9.63,2.29-3.35,4.88-6.53,7.78-9.55,2.9-3.01,5.86-5.24,8.88-6.69,2.68-1.35,5.35-2.02,8.04-2.02.78,0,1.39.07,1.84.17.89-1.56,1.81-3.12,2.76-4.69.95-1.56,1.93-3.24,2.93-5.04.78-1.45,1.52-2.17,2.18-2.17.44,0,.87.5,1.26,1.5.39,1.01.58,1.96.58,2.86ZM470.67,374.02c-.33-.11-.78-.17-1.33-.17h-1.17c-1.56,0-3.05.14-4.45.42-1.39.29-2.6.87-3.6,1.77-2.79,2.34-5.19,4.96-7.2,7.86-2,2.91-3.69,5.75-5.02,8.55-1.35,2.79-2.32,5.34-2.93,7.62-.61,2.29-.93,3.94-.93,4.95,0,1.23.35,1.84,1.01,1.84s2-.96,4.02-2.86c2.01-1.9,4.28-4.41,6.79-7.54,2.5-3.12,5.11-6.64,7.78-10.55,2.68-3.91,5.03-7.88,7.03-11.89Z" fill="currentcolor"/><path d="M530.7,385.91c-2.56,3.12-5.38,6.28-8.46,9.46-3.07,3.18-6.17,6.06-9.3,8.62-3.13,2.58-6.23,4.64-9.3,6.2-3.07,1.56-5.9,2.34-8.46,2.34-2.24,0-3.8-.56-4.69-1.67-.9-1.11-1.35-2.52-1.35-4.19,0-1.56.48-3.65,1.43-6.29.94-2.62,2.37-5.43,4.27-8.45-1.45,1.89-3.13,3.91-5.02,6.02-1.9,2.13-3.86,4.05-5.86,5.79-2.02,1.74-4.02,3.18-6.03,4.35-2.02,1.17-3.8,1.77-5.36,1.77-2.34,0-3.52-1.19-3.52-3.53,0-2.57,1-5.8,3.02-9.71,2.01-3.91,4.71-7.68,8.12-11.31,3.41-3.62,7.29-6.76,11.65-9.38,4.35-2.63,8.87-3.95,13.57-3.95.55-1.11,1.06-1.89,1.5-2.34.46-.43.89-.78,1.35-1l4.69-1.35.34.17c-.56.56-1.1,1.26-1.6,2.09-.5.84-1.03,1.71-1.58,2.6.55,0,1.39.05,2.5.17,1.12.11,1.95.22,2.52.33.56.23.84.5.84.85,0,.33-.17.5-.5.5-.67-.23-1.69-.39-3.02-.5-1.35-.12-2.34-.17-3.02-.17-5.14,9.05-8.91,16.23-11.31,21.53-2.41,5.3-3.6,9.25-3.6,11.81,0,1,.25,1.84.76,2.52.5.67,1.53,1,3.09,1,1.79,0,3.91-.64,6.37-1.93,2.45-1.28,5.08-3.06,7.86-5.35,2.79-2.29,5.68-4.93,8.63-7.95,2.96-3.02,5.78-6.21,8.47-9.55.22-.34.43-.43.67-.26.22.17.33.43.33.76ZM504.56,373.17c-3.8,0-7.42,1.35-10.89,4.03-3.46,2.68-6.53,5.83-9.21,9.47-2.68,3.62-4.83,7.23-6.45,10.8-1.63,3.57-2.43,6.19-2.43,7.86,0,.9.33,1.35,1,1.35s1.71-.44,3.1-1.35c1.39-.89,2.99-2.08,4.77-3.6,1.78-1.5,3.6-3.26,5.45-5.27,1.84-2.01,3.54-4.19,5.1-6.53,1.79-2.67,3.52-5.52,5.2-8.54,1.66-3.01,3.18-5.69,4.52-8.04l-.17-.17Z" fill="currentcolor"/><path d="M599.58,299.65c0,1.56-.61,3.86-1.84,6.87-1.24,3.02-2.99,6.5-5.27,10.47-2.3,3.96-5.08,8.2-8.38,12.73-3.3,4.52-7.03,9.01-11.22,13.48-4.19,4.46-8.79,8.74-13.82,12.8-5.04,4.08-10.4,7.68-16.08,10.81-1,1.79-2.41,4.19-4.19,7.21-1.78,3.02-3.54,6.19-5.27,9.55-1.74,3.34-3.23,6.64-4.51,9.87-1.3,3.25-1.93,5.98-1.93,8.21,0,3.57,1.61,5.37,4.86,5.37,2.78,0,5.69-.78,8.7-2.34,3.02-1.56,5.88-3.47,8.62-5.7,2.73-2.24,5.32-4.6,7.7-7.12,2.41-2.52,4.45-4.77,6.12-6.79.78-.79,1.24-.98,1.35-.59.11.41-.07.81-.5,1.26-2.02,2.46-4.38,5.08-7.12,7.88-2.73,2.79-5.64,5.36-8.72,7.7-3.06,2.34-6.27,4.3-9.61,5.86-3.36,1.56-6.71,2.34-10.07,2.34-2.89,0-4.98-.69-6.28-2.08-1.28-1.4-1.92-3.1-1.92-5.11s.85-4.9,2.59-8.63c1.74-3.74,3.78-7.68,6.13-11.81,2.34-4.15,4.69-8.05,7.03-11.73,2.34-3.69,4.08-6.48,5.19-8.38,1.91-3.25,3.88-6.63,5.95-10.14,2.06-3.52,4.1-6.95,6.12-10.29,2-3.35,3.93-6.56,5.77-9.64,1.84-3.07,3.54-5.77,5.12-8.12,1.89-2.91,3.84-5.64,5.86-8.21,2-2.58,4.58-5.14,7.7-7.71,4.23-3.57,8.14-6.3,11.72-8.21,3.58-1.89,5.97-2.84,7.21-2.84.89,0,1.61.25,2.17.76.56.5.85,1.25.85,2.26ZM592.05,303.99c0-1.79-.74-2.68-2.19-2.68-.56,0-1.17.17-1.84.5-.67.35-1.54,1.04-2.58,2.1-1.06,1.06-2.34,2.54-3.86,4.43-1.5,1.91-3.43,4.36-5.77,7.38-.89,1.23-2.15,3.02-3.78,5.36-1.63,2.34-3.69,5.45-6.19,9.29-2.52,3.86-5.53,8.6-9.05,14.24-3.52,5.64-7.68,12.32-12.48,20.03,6.68-3.8,12.98-8.41,18.84-13.82,5.86-5.42,10.92-10.97,15.17-16.67,4.23-5.69,7.57-11.22,10.05-16.58,2.45-5.36,3.69-9.89,3.69-13.58Z" fill="currentcolor"/><path d="M632.98,299.65c0,1.56-.61,3.86-1.84,6.87-1.22,3.02-2.97,6.5-5.27,10.47-2.28,3.96-5.08,8.2-8.38,12.73-3.3,4.52-7.03,9.01-11.22,13.48-4.19,4.46-8.79,8.74-13.82,12.8-5.01,4.08-10.37,7.68-16.08,10.81-1,1.79-2.39,4.19-4.19,7.21-1.78,3.02-3.54,6.19-5.27,9.55-1.74,3.34-3.23,6.64-4.51,9.87-1.28,3.25-1.93,5.98-1.93,8.21,0,3.57,1.63,5.37,4.86,5.37,2.8,0,5.69-.78,8.7-2.34,3.02-1.56,5.9-3.47,8.64-5.7,2.73-2.24,5.3-4.6,7.7-7.12,2.39-2.52,4.43-4.77,6.12-6.79.78-.79,1.22-.98,1.32-.59.11.41-.04.81-.5,1.26-2.02,2.46-4.38,5.08-7.12,7.88-2.73,2.79-5.64,5.36-8.7,7.7-3.08,2.34-6.29,4.3-9.64,5.86-3.34,1.56-6.71,2.34-10.05,2.34-2.91,0-4.99-.69-6.29-2.08-1.28-1.4-1.91-3.1-1.91-5.11s.87-4.9,2.58-8.63c1.74-3.74,3.78-7.68,6.12-11.81,2.34-4.15,4.69-8.05,7.03-11.73,2.34-3.69,4.08-6.48,5.19-8.38,1.91-3.25,3.88-6.63,5.95-10.14,2.08-3.52,4.1-6.95,6.12-10.29,2.02-3.35,3.93-6.56,5.77-9.64,1.84-3.07,3.56-5.77,5.12-8.12,1.89-2.91,3.84-5.64,5.86-8.21,2.02-2.58,4.58-5.14,7.7-7.71,4.25-3.57,8.16-6.3,11.72-8.21,3.58-1.89,5.99-2.84,7.21-2.84.89,0,1.63.25,2.19.76.54.5.82,1.25.82,2.26ZM625.45,303.99c0-1.79-.74-2.68-2.19-2.68-.54,0-1.17.17-1.82.5-.67.35-1.54,1.04-2.6,2.1-1.06,1.06-2.34,2.54-3.86,4.43-1.5,1.91-3.43,4.36-5.77,7.38-.89,1.23-2.15,3.02-3.78,5.36-1.61,2.34-3.67,5.45-6.19,9.29-2.52,3.86-5.53,8.6-9.05,14.24-3.52,5.64-7.68,12.32-12.48,20.03,6.71-3.8,12.98-8.41,18.84-13.82,5.88-5.42,10.92-10.97,15.17-16.67,4.23-5.69,7.6-11.22,10.05-16.58,2.45-5.36,3.69-9.89,3.69-13.58Z" fill="currentcolor"/><path d="M629.38,388.93c-1.89,2.34-4.17,4.77-6.79,7.28-2.63,2.52-5.47,4.8-8.53,6.87-3.08,2.06-6.25,3.74-9.55,5.03-3.3,1.29-6.58,1.92-9.81,1.92-5.25,0-7.86-2.35-7.86-7.04,0-3.13.8-6.5,2.41-10.13,1.63-3.62,3.73-6.97,6.29-10.05,2.56-3.07,5.38-5.64,8.46-7.7,3.06-2.06,5.99-3.1,8.79-3.1,1.56,0,2.65.28,3.26.85.63.55.93,1.28.93,2.17,0,1.35-.41,2.8-1.26,4.36-.85,1.56-2.1,3.04-3.78,4.43-1.67,1.4-3.8,2.58-6.36,3.52-2.56.95-5.64,1.42-9.22,1.42-.54,1.01-1.17,2.6-1.82,4.77-.67,2.18-1.02,4.38-1.02,6.62,0,4.58,2.06,6.87,6.21,6.87,2.56,0,5.21-.62,7.94-1.85,2.76-1.22,5.4-2.76,7.96-4.61,2.56-1.83,4.95-3.84,7.12-6.03,2.17-2.18,3.99-4.22,5.45-6.11.22-.23.48-.28.76-.17.28.11.41.33.41.67ZM611.8,375.86c0-1.45-.74-2.18-2.19-2.18-1.11,0-2.26.42-3.43,1.26-1.17.83-2.32,1.92-3.43,3.26-1.13,1.34-2.19,2.78-3.19,4.35-1,1.56-1.84,3.07-2.52,4.53.24.11.63.2,1.17.25.56.06,1.02.09,1.35.09,3.23,0,6.1-1.14,8.55-3.44,2.45-2.28,3.69-4.99,3.69-8.12Z" fill="currentcolor"/><path d="M657.83,374.69c-.67.78-1.37,1.73-2.1,2.84-.72,1.11-1.19,1.95-1.41,2.52-.11.33-.35.5-.67.5-.11,0-.28-.17-.5-.5-.24-.33-.54-.71-.93-1.1-.39-.39-.91-.75-1.58-1.09-.67-.33-1.63-.51-2.84-.51-1.45,0-3.08.51-4.86,1.52-1.78,1-3.34,2.11-4.69,3.34-2.13,1.79-3.99,3.75-5.62,5.86-1.61,2.13-3.15,4.34-4.6,6.62-1.45,2.3-2.84,4.64-4.19,7.03-1.35,2.41-2.8,4.84-4.36,7.29-.11.34-.43.5-1,.5-.22,0-.69-.33-1.43-1-.72-.67-1.09-1.17-1.09-1.5,0-.68.39-1.69,1.17-3.02,1.8-3.13,3.6-6.28,5.45-9.46,1.84-3.18,3.58-6.17,5.19-8.96,1.63-2.79,3.06-5.22,4.28-7.28,1.24-2.08,2.06-3.6,2.52-4.61.56-1.01.95-1.51,1.17-1.51s.78.28,1.67.83c.89.56,1.35,1.35,1.35,2.36,0,.33-.2.89-.59,1.67-.39.78-.85,1.58-1.35,2.43-.5.83-.98,1.65-1.41,2.43-.46.78-.78,1.34-1.02,1.67-.33.55-.39.84-.15.84.22,0,.5-.17.82-.51,1.13-1.11,2.5-2.34,4.1-3.68,1.63-1.33,3.32-2.59,5.12-3.76,1.78-1.17,3.54-2.15,5.27-2.93,1.74-.78,3.26-1.17,4.6-1.17,1,0,1.87.24,2.6.75.72.51,1.08,1.03,1.08,1.6Z" fill="currentcolor"/><path d="M650.32,407.02c-1.56,0-2.78-.34-3.67-1.01-.91-.67-1.35-1.67-1.35-3.02,0-2.24,1.37-5.56,4.1-9.96,2.73-4.41,6.06-9.64,9.96-15.67.46-.55.8-.98,1.09-1.24.28-.29.59-.54.93-.75.56-.12,1.3-.26,2.26-.42.96-.17,1.54-.25,1.76-.25.46,0,.67.17.67.5-4.02,7.03-7.4,12.76-10.13,17.17-2.73,4.42-4.1,7.85-4.1,10.31,0,1.33.61,2.01,1.84,2.01.54,0,1.28-.17,2.17-.51.89-.33,1.84-.78,2.84-1.34,1.02-.55,1.95-1.14,2.84-1.75.91-.62,1.58-1.21,2.02-1.77,1-1.01,2.5-3.37,4.45-7.12,1.95-3.74,4.32-8.12,7.12-13.15,1.32-2.46,2.58-4.52,3.75-6.19,1.17-1.67,2.15-2.52,2.93-2.52.46.23.87.78,1.26,1.67.39.9.59,1.79.59,2.69,0,.44-.5,1.48-1.5,3.09-1,1.62-2.3,3.53-3.86,5.7-1.56,2.18-3.26,4.49-5.1,6.94-1.84,2.46-3.6,4.75-5.27,6.88-4.01,6.14-8.07,12.48-12.15,19.01-4.08,6.53-8.18,12.84-12.31,18.92-4.12,6.08-8.38,11.84-12.74,17.25-4.34,5.41-8.83,10.13-13.48,14.15-4.64,4.02-9.44,7.21-14.41,9.55-4.97,2.34-10.18,3.52-15.65,3.52-3.26,0-6.14-.78-8.72-2.34-2.56-1.56-3.84-4.3-3.84-8.2,0-.89.09-1.82.24-2.76.17-.95.37-1.71.59-2.26.11-.34.28-.56.5-.68.24-.1.35.06.35.51,0,3,1.11,5.75,3.34,8.2,2.24,2.45,6.21,3.69,11.89,3.69,4.58,0,9.14-1.15,13.65-3.44,4.54-2.29,8.94-5.33,13.24-9.13,4.3-3.8,8.46-8.22,12.48-13.24,4.02-5.02,7.9-10.27,11.63-15.74,3.75-5.47,7.29-10.97,10.66-16.51,3.34-5.53,6.4-10.74,9.2-15.65.22-.45.22-.62,0-.51-.22.12-.39.23-.5.34-1.24,1-2.91,2.09-5.03,3.26-2.11,1.17-4.3,1.77-6.53,1.77Z" fill="currentcolor"/></g></g></g></g></svg>