<?xml version="1.0" encoding="UTF-8"?><svg xmlns="http://www.w3.org/2000/svg" viewBox="0 0 1024 1024"><title>rosyposy logo</title><desc>Copyright &#xa9; 2026 Pearlpuppy. All rights reserved.</desc><metadata><rdf:RDF xmlns:rdf="http://www.w3.org" xmlns:dc="http://purl.org"><rdf:Description rdf:about=""><dc:title>rosyposy logo</dc:title><dc:creator>Pierre Pearlpuppy</dc:creator><dc:rights>Copyright &#xa9; 2026 Pearlpuppy. All rights reserved.</dc:rights><dc:date>2026-03-20</dc:date><dc:format>image/svg+xml</dc:format></rdf:Description></rdf:RDF></metadata><g isolation="isolate"><g id="logo-rosyposy"><g data-fc="#e8648f"><path id="rosyposy" d="M916.65,407.83l-50.33,79.49-27.19-44.17h-39.54l7.92,12.26c-13.47-10.55-30.6-14.58-46.49-14.58-17.11,0-32.99,4.55-43.01,14.68-3.2-34.68-27.49-62.9-67.5-62.9-12.34,0-28.93,2.51-44.36,15.43-16.5,13.97-21.64,31.25-23.13,44.27-.4-.29-.75-.6-1.16-.88-12.34-8.48-26.62-8.29-39.73-8.29h-69.69l-31.63,55.93-31.05-55.93h-31.44l7.18,12.08c-2.21-1.88-4.89-3.84-8.34-5.91-12.34-7.33-26.62-10.23-38.38-10.23-34.71,0-52.85,22.37-52.85,43.78,0,10.23,4.44,19.87,12.54,26.62,8.48,6.94,19.29,9.45,29.12,11.76l18.9,3.85c8.68,1.74,22.37,4.44,22.37,16.01,0,9.06-9.25,17.74-28.73,17.74-25.07,0-33.56-14.46-37.41-20.83l-11.34,7.93c-5.14-37.03-32.16-58.65-62.91-58.65-36.84,0-65.58,30.28-65.58,72.33,0,1.97.1,3.92.23,5.86l-18.55-40.96c4.82-1.54,10.8-3.47,17.17-10.61,6.56-7.52,9.84-16.97,9.84-27.39,0-14.27-6.36-27-15.24-33.94-12.34-9.64-28.35-9.45-40.5-9.45h-47.83v136.16h27.97v-51.88h19.86l26.51,62.45h25.99c9.28,24.34,30.09,41.51,59.18,41.51,20.83,0,37.03-8.68,47.25-20.44,8.73-9.91,15.26-24.65,17.06-42.55,9.41,7.56,24.17,14.97,46.78,14.97,16.39,0,30.86-4.05,40.89-11.18,11.19-8.1,17.55-20.64,17.55-35.1,0-5.4-.77-16.78-10.99-26.42-9.26-8.48-21.02-10.8-30.86-12.73l-18.32-3.47c-9.26-1.93-23.15-4.63-23.15-15.62,0-6.56,7.71-16.39,25.27-16.39,21.41,0,31.44,13.89,34.91,18.9l18.12-15.16,34.33,57.78v55.35h27.97v-55.35l33.82-56.23v111.58h34.71v-40.69h19.49c20.05-.78,32.4-1.74,43.77-11.77,2.64-2.37,8.16-7.46,11.39-18.08,1.16,1.5,2.35,2.98,3.66,4.39,17.36,18.51,38.38,20.25,49.38,20.25,12.53,0,29.12-2.5,44.36-15.43,6.94-5.93,11.83-12.46,15.29-18.98,2.1,5.19,5.28,9.88,9.58,13.58,9.84,8.48,23.53,10.99,35.49,13.11l9.06,1.35c15.04,2.12,19.48,2.7,22.76,7.52.97,1.35,1.55,3.28,1.55,5.4,0,3.66-1.93,6.94-5.21,9.25-5.2,3.66-13.69,4.05-17.93,4.05-22.19,0-31.63-11.96-37.03-19.09l-25.84,20.44c14.85,21.22,42.43,27,61.53,27,28.74,0,59.21-12.15,59.21-45.9,0-29.32-20.64-35.68-26.81-37.61-5.6-1.74-7.53-2.13-27.97-5.21-13.69-2.12-20.06-3.28-23.34-6.17-1.93-1.74-3.28-4.44-3.28-7.14,0-7.9,9.26-11.76,19.09-11.76,18.52,0,28.55,11.76,33.75,17.74l21.27-16.94,32.35,50.12v60.56h35.1v-59.6l72.51-111.88h-39.35ZM131.64,502.93c-5.01,2.12-10.8,2.31-20.64,2.51h-15.04v-40.11h18.9c6.75.19,14.27.38,20.06,4.24,6.56,4.24,7.91,10.61,7.91,15.04,0,10.42-5.6,15.82-11.19,18.32ZM227.69,605.15c-10.99,0-20.25-5.21-26.03-12.34-6.75-8.49-10.03-21.41-10.03-32.6,0-22.95,11.57-47.44,36.64-47.44,10.99,0,20.26,5.01,26.23,12.92,5.4,6.95,9.26,17.55,9.45,32.21.39,30.47-15.81,47.26-36.26,47.26ZM554.27,506.98c-4.24,1.73-9.45,1.93-17.55,1.93h-13.89v-37.61h13.51c13.69,0,27.96-.19,27.96,18.71,0,8.29-3.28,14.27-10.03,16.97ZM660.22,482.44s-37.14-18.64-37.14-37.97,21.18-34.36,37.14-7c15.71-27.36,37.14-12.34,37.14,7s-37.14,37.97-37.14,37.97Z" fill="currentcolor"/></g></g></g></svg>