<?xml version="1.0" encoding="UTF-8"?><svg xmlns="http://www.w3.org/2000/svg" viewBox="0 0 1024 1024"><title>vscovid-ib logo</title><desc>Copyright &#xa9; 2026 Pearlpuppy. All rights reserved.</desc><metadata><rdf:RDF xmlns:rdf="http://www.w3.org" xmlns:dc="http://purl.org"><rdf:Description rdf:about=""><dc:title>vscovid-ib logo</dc:title><dc:creator>Pierre Pearlpuppy</dc:creator><dc:rights>Copyright &#xa9; 2026 Pearlpuppy. All rights reserved.</dc:rights><dc:date>2026-03-20</dc:date><dc:format>image/svg+xml</dc:format></rdf:Description></rdf:RDF></metadata><g isolation="isolate"><g id="logo-vscovid-ib"><g id="vscovid-ib"><g data-fc="#39b34a"><path d="M431.03,371.6l-22.26,108.56h-13.72l-22.11-108.56h16.47l12.35,75.78h.3l12.5-75.78h16.47Z" fill="currentcolor"/><path d="M490.17,402.86h-15.55v-3.51c0-3.56-.84-6.63-2.52-9.22-1.68-2.59-4.5-3.89-8.46-3.89-2.13,0-3.86.41-5.18,1.22-1.32.81-2.39,1.83-3.2,3.05-.81,1.32-1.37,2.82-1.68,4.5-.3,1.68-.46,3.43-.46,5.26,0,2.13.08,3.91.23,5.34.15,1.42.53,2.69,1.14,3.81.61,1.12,1.5,2.08,2.67,2.9,1.17.81,2.77,1.63,4.8,2.44l11.89,4.73c3.45,1.32,6.25,2.87,8.39,4.65,2.13,1.78,3.81,3.84,5.03,6.18,1.12,2.44,1.88,5.21,2.29,8.31.41,3.1.61,6.63.61,10.6,0,4.57-.46,8.82-1.37,12.73-.91,3.91-2.39,7.24-4.42,9.99-2.13,2.85-4.93,5.08-8.39,6.71-3.46,1.62-7.68,2.44-12.65,2.44-3.76,0-7.27-.66-10.52-1.98-3.25-1.32-6.05-3.15-8.39-5.49-2.34-2.34-4.19-5.06-5.56-8.16-1.37-3.1-2.06-6.48-2.06-10.14v-5.79h15.55v4.88c0,2.85.84,5.41,2.52,7.7,1.68,2.29,4.5,3.43,8.46,3.43,2.64,0,4.7-.38,6.17-1.14,1.47-.76,2.62-1.85,3.43-3.28.81-1.42,1.3-3.13,1.45-5.11.15-1.98.23-4.19.23-6.63,0-2.84-.1-5.18-.3-7.01-.2-1.83-.61-3.3-1.22-4.42-.71-1.12-1.65-2.03-2.82-2.74-1.17-.71-2.72-1.47-4.65-2.29l-11.13-4.57c-6.71-2.74-11.21-6.38-13.49-10.9-2.29-4.52-3.43-10.19-3.43-17,0-4.06.56-7.93,1.68-11.59,1.12-3.66,2.79-6.81,5.03-9.45,2.13-2.64,4.85-4.75,8.16-6.33,3.3-1.57,7.24-2.36,11.82-2.36,3.86,0,7.39.71,10.6,2.13,3.2,1.42,5.97,3.3,8.31,5.64,4.67,4.88,7.01,10.47,7.01,16.77v7.62Z" fill="currentcolor"/><path d="M582.57,449.21v6.71c0,3.35-.64,6.53-1.91,9.53-1.27,3-3.03,5.67-5.26,8-2.24,2.34-4.85,4.19-7.85,5.57-3,1.37-6.23,2.06-9.68,2.06-2.95,0-5.95-.41-9-1.22-3.05-.81-5.79-2.23-8.23-4.27-2.44-2.03-4.45-4.65-6.02-7.85-1.58-3.2-2.36-7.29-2.36-12.27v-59.77c0-3.56.61-6.86,1.83-9.91,1.22-3.05,2.95-5.69,5.18-7.93,2.23-2.23,4.9-3.99,8-5.26,3.1-1.27,6.53-1.91,10.29-1.91,7.32,0,13.26,2.39,17.84,7.17,2.23,2.34,3.99,5.11,5.26,8.31,1.27,3.2,1.91,6.68,1.91,10.44v6.1h-15.55v-5.18c0-3.05-.86-5.69-2.59-7.93-1.73-2.23-4.07-3.35-7.01-3.35-3.86,0-6.43,1.2-7.7,3.58-1.27,2.39-1.91,5.41-1.91,9.07v55.5c0,3.15.69,5.79,2.06,7.93,1.37,2.13,3.84,3.2,7.39,3.2,1.01,0,2.11-.18,3.28-.53,1.17-.36,2.26-.94,3.28-1.75.91-.81,1.68-1.93,2.29-3.35.61-1.42.91-3.2.91-5.34v-5.34h15.55Z" fill="currentcolor"/><path d="M593.59,397.22c0-4.37.76-8.23,2.29-11.59,1.52-3.35,3.56-6.15,6.1-8.39,2.44-2.13,5.21-3.76,8.31-4.88,3.1-1.12,6.22-1.68,9.38-1.68s6.27.56,9.38,1.68c3.1,1.12,5.92,2.74,8.46,4.88,2.44,2.24,4.42,5.03,5.95,8.39,1.52,3.35,2.29,7.22,2.29,11.59v57.33c0,4.57-.76,8.49-2.29,11.74-1.52,3.25-3.51,5.95-5.95,8.08-2.54,2.24-5.36,3.91-8.46,5.03-3.1,1.12-6.23,1.68-9.38,1.68s-6.28-.56-9.38-1.68c-3.1-1.12-5.87-2.79-8.31-5.03-2.54-2.13-4.57-4.83-6.1-8.08-1.52-3.25-2.29-7.17-2.29-11.74v-57.33ZM609.14,454.55c0,3.76,1.04,6.53,3.13,8.31,2.08,1.78,4.55,2.67,7.39,2.67s5.31-.89,7.39-2.67c2.08-1.78,3.13-4.55,3.13-8.31v-57.33c0-3.76-1.04-6.53-3.13-8.31-2.08-1.78-4.55-2.67-7.39-2.67s-5.31.89-7.39,2.67c-2.08,1.78-3.13,4.55-3.13,8.31v57.33Z" fill="currentcolor"/><path d="M711.32,371.6l-22.26,108.56h-13.72l-22.11-108.56h16.47l12.35,75.78h.3l12.5-75.78h16.47Z" fill="currentcolor"/><path d="M721.52,480.16v-108.56h15.55v108.56h-15.55Z" fill="currentcolor"/><path d="M750.17,480.16v-108.56h23.02c8.94,0,15.73,2.44,20.35,7.32,4.62,4.88,6.94,11.79,6.94,20.74v50.77c0,10.16-2.47,17.66-7.39,22.49-4.93,4.83-12.02,7.24-21.27,7.24h-21.65ZM765.72,386.24v79.28h7.17c4.37,0,7.47-1.09,9.3-3.28,1.83-2.18,2.74-5.61,2.74-10.29v-52.3c0-4.27-.87-7.57-2.59-9.91-1.73-2.34-4.88-3.51-9.45-3.51h-7.17Z" fill="currentcolor"/><path d="M812.76,445.7v-15.55h45.89v15.55h-45.89Z" fill="currentcolor"/><path d="M878.14,480.16v-92.09l-15.55,11.43v-16.47l15.55-11.44h15.55v108.56h-15.55Z" fill="currentcolor"/><path d="M915.29,480.16l17.69-45.59-.3-.3c-.51.41-1.3.74-2.36.99-1.07.25-2.47.38-4.19.38-2.74,0-5.29-.66-7.62-1.98-2.34-1.32-4.17-3-5.49-5.03-.71-1.01-1.27-2.11-1.68-3.28-.41-1.17-.71-2.67-.91-4.5-.3-1.83-.51-4.14-.61-6.94-.1-2.79-.15-6.33-.15-10.6,0-3.56.05-6.48.15-8.77.1-2.29.3-4.24.61-5.87.2-1.52.53-2.84.99-3.96.46-1.12,1.04-2.29,1.75-3.51,2.03-3.35,4.75-5.95,8.16-7.78,3.4-1.83,7.24-2.74,11.51-2.74s8.08.94,11.43,2.82c3.35,1.88,6.05,4.45,8.08,7.7.71,1.22,1.32,2.39,1.83,3.51.51,1.12.91,2.44,1.22,3.96.2,1.63.36,3.58.46,5.87.1,2.29.15,5.21.15,8.77,0,3.35-.05,6.13-.15,8.31-.1,2.19-.25,4.04-.46,5.56-.3,1.63-.64,3.08-.99,4.35-.36,1.27-.79,2.62-1.3,4.04l-20.43,54.58h-17.38ZM925.2,414.14c0,2.34.76,4.22,2.29,5.64,1.52,1.42,3.3,2.13,5.34,2.13s3.81-.71,5.34-2.13c1.52-1.42,2.29-3.3,2.29-5.64v-20.13c0-2.34-.76-4.22-2.29-5.64-1.52-1.42-3.3-2.13-5.34-2.13s-3.81.71-5.34,2.13c-1.52,1.42-2.29,3.3-2.29,5.64v20.13Z" fill="currentcolor"/><path d="M570.87,652.4v-108.56h22.72c4.98,0,9.22.76,12.73,2.29,3.51,1.52,6.38,3.56,8.61,6.1,2.23,2.54,3.84,5.46,4.8,8.77.96,3.3,1.45,6.73,1.45,10.29v3.96c0,2.95-.23,5.44-.69,7.47-.46,2.03-1.14,3.81-2.06,5.34-1.73,2.85-4.37,5.29-7.93,7.32,3.66,1.73,6.35,4.27,8.08,7.62,1.73,3.35,2.59,7.93,2.59,13.72v6.1c0,9.55-2.31,16.87-6.94,21.95-4.63,5.08-12.02,7.62-22.18,7.62h-21.19ZM586.42,558.48v29.88h7.01c5.18,0,8.66-1.3,10.44-3.89,1.78-2.59,2.67-6.38,2.67-11.36s-.99-8.54-2.97-10.98c-1.98-2.44-5.56-3.66-10.75-3.66h-6.4ZM586.42,602.08v34.76h6.71c3.15,0,5.62-.46,7.4-1.37,1.78-.91,3.13-2.19,4.04-3.81.91-1.62,1.47-3.56,1.68-5.79.2-2.23.3-4.67.3-7.32s-.15-5.13-.46-7.17c-.3-2.03-.91-3.76-1.83-5.18-1.02-1.42-2.39-2.46-4.12-3.13-1.73-.66-4.02-.99-6.86-.99h-6.86Z" fill="currentcolor"/><path d="M631.93,601.01c0-3.15.2-6.05.61-8.69.4-2.64,1.17-4.98,2.29-7.01,1.83-3.35,4.45-6.05,7.85-8.08,3.4-2.03,7.55-3.05,12.43-3.05s9.02,1.02,12.43,3.05c3.4,2.03,6.02,4.73,7.85,8.08,1.12,2.03,1.88,4.37,2.29,7.01.4,2.64.61,5.54.61,8.69v25.46c0,3.15-.21,6.05-.61,8.69-.41,2.64-1.17,4.98-2.29,7.01-1.83,3.35-4.45,6.05-7.85,8.08-3.41,2.04-7.55,3.05-12.43,3.05s-9.02-1.01-12.43-3.05c-3.41-2.03-6.02-4.73-7.85-8.08-1.12-2.03-1.88-4.37-2.29-7.01-.41-2.64-.61-5.54-.61-8.69v-25.46ZM647.48,628.92c0,2.95.69,5.16,2.06,6.63,1.37,1.47,3.23,2.21,5.57,2.21s4.19-.74,5.56-2.21c1.37-1.47,2.06-3.68,2.06-6.63v-30.34c0-2.95-.69-5.16-2.06-6.63-1.37-1.47-3.23-2.21-5.56-2.21s-4.19.74-5.57,2.21c-1.37,1.47-2.06,3.69-2.06,6.63v30.34Z" fill="currentcolor"/><path d="M680.94,652.4l19.06-39.49-18.14-37.81h16.47l9.6,21.96,9.61-21.96h16.47l-18.45,37.81,19.36,39.49h-16.47l-10.52-23.63-10.52,23.63h-16.47Z" fill="currentcolor"/></g><g data-fc="#026838"><path d="M372.94,652.4v-108.56h15.55v108.56h-15.55Z" fill="currentcolor"/><path d="M431.59,652.4v-7.01c-1.02,1.12-1.98,2.16-2.9,3.13-.91.97-1.93,1.81-3.05,2.52-1.12.71-2.39,1.27-3.81,1.68-1.43.4-3.1.61-5.03.61-6.51,0-11.03-2.44-13.57-7.32-.91-1.73-1.58-3.86-1.98-6.4-.41-2.54-.61-5.95-.61-10.21v-29.43c0-5.59.15-9.71.46-12.35.61-5.08,3-8.89,7.17-11.43,1.93-1.32,4.83-1.98,8.69-1.98,3.05,0,5.77.69,8.16,2.06,2.39,1.37,4.45,3.33,6.17,5.87h.3v-38.27h15.55v108.56h-15.55ZM416.2,627.24c0,3.15.61,5.69,1.83,7.62,1.22,1.93,3.15,2.9,5.79,2.9,2.34,0,4.22-.89,5.64-2.67,1.42-1.78,2.13-4.09,2.13-6.94v-30.04c0-2.44-.74-4.45-2.21-6.02-1.47-1.57-3.33-2.36-5.57-2.36-2.95,0-4.95.91-6.02,2.74-1.07,1.83-1.6,3.96-1.6,6.4v28.36Z" fill="currentcolor"/><path d="M503.56,619.62h-30.8v10.52c0,2.44.69,4.32,2.06,5.64,1.37,1.32,3.23,1.98,5.57,1.98,2.95,0,4.9-.86,5.87-2.59.97-1.73,1.55-3.45,1.75-5.18h15.55c0,6.81-2.08,12.3-6.25,16.47-2.03,2.13-4.47,3.81-7.32,5.03-2.85,1.22-6.05,1.83-9.6,1.83-4.88,0-9.02-1.01-12.43-3.05-3.41-2.03-6.02-4.73-7.85-8.08-1.12-2.03-1.88-4.37-2.29-7.01-.41-2.64-.61-5.54-.61-8.69v-25.46c0-3.15.2-6.05.61-8.69.4-2.64,1.17-4.98,2.29-7.01,1.83-3.35,4.45-6.05,7.85-8.08,3.4-2.03,7.55-3.05,12.43-3.05,3.56,0,6.78.61,9.68,1.83,2.9,1.22,5.36,2.9,7.39,5.03,4.06,4.57,6.1,10.32,6.1,17.23v21.34ZM472.76,607.42h15.25v-8.84c0-2.95-.69-5.16-2.06-6.63-1.37-1.47-3.23-2.21-5.56-2.21s-4.19.74-5.57,2.21c-1.37,1.47-2.06,3.69-2.06,6.63v8.84Z" fill="currentcolor"/><path d="M544.04,652.4v-7.93h-.3c-2.03,2.85-4.09,5.03-6.17,6.56-2.08,1.52-5.01,2.29-8.77,2.29-1.83,0-3.69-.28-5.57-.84-1.88-.56-3.69-1.6-5.41-3.13-1.73-1.42-3.13-3.48-4.19-6.17-1.07-2.69-1.6-6.18-1.6-10.44s.36-8.21,1.07-11.51c.71-3.3,2.03-6.07,3.96-8.31,1.83-2.13,4.32-3.74,7.47-4.8,3.15-1.07,7.17-1.6,12.05-1.6h1.68c.61,0,1.17.05,1.68.15.51.1,1.12.15,1.83.15s1.47.05,2.29.15v-8.08c0-2.64-.56-4.83-1.68-6.56-1.12-1.73-3.15-2.59-6.1-2.59-2.04,0-3.89.66-5.57,1.98-1.68,1.32-2.77,3.25-3.28,5.79h-15.09c.41-6.91,2.74-12.5,7.01-16.77,2.03-2.03,4.47-3.63,7.32-4.8,2.84-1.17,6.05-1.75,9.61-1.75,3.25,0,6.3.51,9.15,1.52,2.84,1.02,5.34,2.54,7.47,4.57,2.03,2.03,3.66,4.57,4.88,7.62,1.22,3.05,1.83,6.61,1.83,10.67v53.82h-15.55ZM544.04,619.16c-1.73-.3-3.15-.46-4.27-.46-3.35,0-6.23.79-8.61,2.36-2.39,1.58-3.58,4.45-3.58,8.62,0,2.95.71,5.34,2.13,7.16,1.42,1.83,3.4,2.74,5.95,2.74s4.7-.86,6.17-2.59c1.47-1.73,2.21-4.17,2.21-7.32v-10.52Z" fill="currentcolor"/><path d="M284.81,480.34c-2.78-1.06-5.57-2.16-8.37-3.28,9.4-8.53,15.3-20.84,15.3-34.5,0-25.7-20.91-46.61-46.61-46.61-16.06,0-30.24,8.16-38.63,20.56-6.77-6.92-16.2-11.23-26.63-11.23s-19.85,4.31-26.63,11.23c-8.39-12.39-22.57-20.56-38.63-20.56-25.7,0-46.61,20.91-46.61,46.61,0,13.55,5.82,25.77,15.08,34.29-2.72,1.08-5.43,2.15-8.14,3.17-3.47,1.32-5.45,5-4.63,8.62,6.44,28.53,13.42,60.62,21.33,98.06.25,1.18.76,2.26,1.47,3.15.11.19.25,1.44.41,1.71,22.92,38.35,53.62,55.58,86.46,61.75h.36c32.83-6.18,63.46-23.38,86.26-61.5.16-.26.29-1.1.4-1.28.71-.89,1.23-2.2,1.48-3.38,7.9-38,14.56-69.26,20.97-98.11.8-3.61-1.17-7.39-4.63-8.71ZM245.13,414.59c15.42,0,27.97,12.55,27.97,27.97s-12.55,27.97-27.97,27.97-27.97-12.55-27.97-27.97,12.55-27.97,27.97-27.97ZM179.87,423.92c9.87,0,17.95,7.71,18.59,17.43-5.21-2.58-10.36-5.14-15.38-7.64-2.09-1.04-4.55-1.04-6.64,0-4.94,2.45-10.02,4.96-15.14,7.49.71-9.64,8.76-17.27,18.58-17.27ZM114.61,414.59c15.42,0,27.97,12.55,27.97,27.97s-12.54,27.97-27.97,27.97-27.97-12.55-27.97-27.97,12.55-27.97,27.97-27.97ZM254.16,582.45c-.13.21-.25.41-.37.62-11.6,19.41-36.6,52.1-73.65,53.15-37.05-.98-62.15-33.87-73.82-53.4-.12-.2-.25-.42-.39-.63-7.23-34.19-13.68-63.91-19.66-90.55,4.23-1.66,8.46-3.39,12.7-5.16,4.89,1.75,10.15,2.71,15.64,2.71,19.78,0,36.7-12.39,43.46-29.8,7.38-3.6,14.63-7.18,21.67-10.67,7.14,3.56,14.51,7.21,22.01,10.88,6.81,17.3,23.68,29.59,43.38,29.59,5.35,0,10.47-.92,15.26-2.58,4.37,1.84,8.73,3.63,13.1,5.35-5.92,26.8-12.11,55.79-19.33,90.5Z" fill="currentcolor"/><path d="M179.87,571.84c-6.18,0-11.19,5.01-11.19,11.19s5.01,11.19,11.19,11.19,11.19-5.01,11.19-11.19-5.01-11.19-11.19-11.19Z" fill="currentcolor"/><polygon points="179.87 563.96 191.06 496.83 168.69 496.83 179.87 563.96" fill="currentcolor"/></g></g></g></g></svg>