<?xml version="1.0" encoding="UTF-8"?><svg xmlns="http://www.w3.org/2000/svg" viewBox="0 0 1024 1024"><title>eika logo</title><desc>Copyright &#xa9; 2026 Pearlpuppy. All rights reserved.</desc><metadata><rdf:RDF xmlns:rdf="http://www.w3.org" xmlns:dc="http://purl.org"><rdf:Description rdf:about=""><dc:title>eika logo</dc:title><dc:creator>Pierre Pearlpuppy</dc:creator><dc:rights>Copyright &#xa9; 2026 Pearlpuppy. All rights reserved.</dc:rights><dc:date>2026-03-20</dc:date><dc:format>image/svg+xml</dc:format></rdf:Description></rdf:RDF></metadata><g isolation="isolate"><g id="logo-eika"><g id="eika"><g data-fc="#672d8f"><path d="M582.48,377.72c5.78-9.02,10.21-21.59,7.87-39.73,23.77-23,57.96-31.79,57.96-31.79,1.92,19.39-4.81,44.42-13.81,57.49-17.59.45-39.27,7.1-52.03,14.03ZM560.33,343.39l-25.37,16.01s14.78,17.36,14.78,45.76-19.91,55.69-19.91,55.69c0,0,43.99-28.86,43.99-70.11,0-31.79-13.49-47.35-13.49-47.35ZM461.02,334.77c11.8,4.06,28.18,16.57,28.18,16.57,0,0,4.66-5.69,11.72-12.22-5.14-31.11-29.54-51.86-29.54-51.86,0,0-12.85,10.59-24.41,30.88-11.56,20.29-.64,44.64-.64,44.64,0,0,3.45-17.64,14.69-28.01ZM534.8,351.34s16.38-12.51,28.18-16.57c11.23,10.37,14.69,28.01,14.69,28.01,0,0,10.92-24.36-.64-44.64-11.56-20.29-24.41-30.88-24.41-30.88,0,0-24.4,20.74-29.53,51.86,7.05,6.54,11.72,12.22,11.72,12.22ZM639.32,370c.64,15.78-6.41,43.06-33.39,67.85,25.05-5.4,54.6-19.38,64.55-32.69,12.42-16.6,20.88-36.29,16.38-58.84,0,0-29.55,4.73-47.54,23.67ZM594.05,439.44c32.75-25.25,35.32-50.62,36.61-68.65-30.84,3.16-49.14,14.37-49.14,14.37,0,0,3.38,16.07-11.56,41.43-16.12,27.37-49.13,45.66-49.13,45.66,0,0,40.47-7.56,73.22-32.8ZM593.08,446.88c-5.3,4.74-18.57,13.05-30.35,18.6-13.25,6.25-31.31,11.16-43.84,12.85,59.09,7.66,108.87,17.25,202.64-30.11,0,0-62.94-17.58-128.45-1.35ZM418.07,437.85c-26.98-24.79-34.04-52.08-33.4-67.85-17.98-18.94-47.53-23.67-47.53-23.67-4.5,22.55,3.95,42.24,16.37,58.84,9.96,13.3,39.5,27.28,64.55,32.69ZM430.92,446.88c-65.52-16.23-128.46,1.35-128.46,1.35,93.78,47.36,143.55,37.76,202.64,30.11-12.53-1.69-30.58-6.6-43.84-12.85-11.77-5.55-25.05-13.87-30.34-18.6ZM511.84,340.01s-29.86,27.73-29.86,66.95,32.76,62.91,32.76,62.91c0,0,28.9-24.57,28.9-61.78s-31.8-68.09-31.8-68.09ZM441.51,377.72c-5.78-9.02-10.2-21.59-7.87-39.73-23.77-23-57.96-31.79-57.96-31.79-1.92,19.39,4.81,44.42,13.81,57.49,17.59.45,39.26,7.1,52.02,14.03ZM489.04,359.41l-25.37-16.01s-13.48,15.55-13.48,47.35c0,41.25,46.56,70.11,46.56,70.11,0,0-22.48-30.43-22.48-55.69,0-28.4,14.77-45.76,14.77-45.76ZM393.34,370.79c1.28,18.03,3.85,43.4,36.61,68.65,32.75,25.24,73.22,32.8,73.22,32.8,0,0-33.01-18.28-49.14-45.66-14.93-25.36-11.55-41.43-11.55-41.43,0,0-18.31-11.21-49.14-14.37Z" fill="currentcolor"/><path d="M172.51,668.74c6.79-1.06,13.72-2.11,20.66-3.01,6.94-.91,13.72-1.81,20.66-2.72l-.75-9.65c-.9-.45-1.66-.9-2.26-1.5-.75-.61-1.36-1.21-1.96-2.11.9-.9,2.11-1.81,3.47-2.41,1.21-.45,2.71-.75,4.37-.75l8.74,1.66c1.21.3,2.26,1.05,2.86,2.11.61,1.21.75,2.41.3,3.62-.6,1.51-1.05,2.87-1.36,4.37-.3,1.5-.6,3.01-.91,4.37l14.47-.3c.9-.6,1.96-.9,3.02-1.21,1.05,0,2.11,0,3.32.31,3.32.76,6.48,1.96,9.5,3.47,3.01,1.51,5.73,3.32,8.29,5.43.75,1.06,1.36,2.26,1.66,3.62.3,1.36.45,2.72.3,3.92l-4.52,1.36c-5.43-1.96-11.16-3.31-16.89-3.92-5.73-.45-11.46-.3-17.04.61,3.47,4.52,7.54,8.44,12.06,11.91,4.52,3.62,9.35,6.94,14.62,9.65,6.94,3.62,13.87,7.54,20.81,11.46,6.78,4.22,13.42,8.44,20.05,12.97-5.88,1.21-11.76,1.81-17.64,1.96-6.03,0-11.91-.45-17.64-1.36-1.06-.3-1.96-.6-2.72-1.06-.9-.6-1.81-1.21-2.41-1.96-4.52-5.58-9.35-11.16-14.32-16.59-5.13-5.28-10.25-10.4-15.68-15.53l-.45,29.25c-.15,3.02-.76,5.88-1.66,8.6-1.21,2.71-2.71,5.28-4.67,7.54l-4.67.9c-2.71-2.87-5.13-5.88-7.39-8.9-2.26-3.16-4.37-6.33-6.18-9.65,1.51.61,3.02,1.06,4.67,1.21,1.51.3,3.01.3,4.67.15,1.21-.6,2.11-1.66,3.01-3.01.61-1.21.9-2.57.9-4.07v-20.05c-6.33,5.73-12.81,11.16-19.6,16.13-6.79,4.98-13.72,9.65-20.96,14.02-3.32,1.51-6.79,2.57-10.4,3.02-3.77.45-7.39.3-10.86-.6,10.55-5.88,20.81-12.51,30.61-19.75,9.65-7.23,18.7-15.23,27.29-23.82l-1.21-1.81c-2.26.45-4.52.9-6.64,1.36-2.26.45-4.52,1.05-6.78,1.66-1.21.15-2.41.15-3.47,0-1.21,0-2.41-.45-3.47-1.21l-15.83-9.65ZM171.15,609.03c3.01,0,6.18.45,9.2,1.36,3.02.91,5.88,2.41,8.59,4.22,2.71,2.11,4.98,4.52,6.79,7.39,1.66,3.02,2.71,6.33,3.02,9.8l-2.41,4.82c4.82-.75,9.8-1.36,14.93-1.81,4.82-.3,9.8-.45,14.93-.45l25.33-30.61c-.9-.9-1.51-1.81-2.11-2.71-.6-.9-1.05-1.96-1.36-3.01,4.83.91,9.2,2.87,13.27,5.58,3.92,2.86,7.24,6.33,9.8,10.55.3,1.05.45,2.11.15,3.17-.3,1.06-.9,1.96-1.81,2.56l-24.58,13.57c3.77-.15,7.54-.15,11.46,0,3.62.15,7.54.45,11.46.9,1.21-.45,2.41-.6,3.77-.6,1.36.15,2.56.6,3.62,1.21,4.22,3.01,7.84,6.78,10.86,11.16,2.87,4.52,4.98,9.19,6.18,14.33-1.96-.31-3.92-.45-5.73-.45-2.11.15-4.07.45-5.88,1.06l-7.24,1.66c-.9.3-1.66.3-2.41.3-.9,0-1.66-.3-2.26-.6-2.26-.6-4.37-1.51-6.48-2.57-2.11-.9-4.22-1.96-6.33-3.16l9.8-11.46c-13.87-1.81-27.74-2.26-41.61-1.66-14.02.9-27.74,3.01-41.31,6.33-1.36.3-2.56.91-3.62,1.51-1.21.75-2.11,1.66-3.02,2.56l-1.81-.45-9.35,24.13c-1.51.75-2.86.9-4.37.45-1.51-.15-2.71-.9-3.62-2.11-1.51-1.96-2.56-4.22-3.47-6.64-.9-2.26-1.36-4.68-1.36-7.39,0-.9.3-1.66.9-2.56.6-.61,1.21-1.06,2.11-1.36l5.88-14.77-.3-2.26,1.06-1.96c.9-.3,1.96-.45,3.17-.45,1.06.15,2.11.45,3.02.9l21.71-2.41c-1.66-.9-3.02-2.11-3.92-3.62-1.21-1.51-1.96-3.02-2.56-4.83-1.66-3.47-3.47-6.94-5.43-10.25-2.11-3.32-4.22-6.33-6.63-9.35ZM206.73,590.48l10.55,6.79c2.41,3.62,4.22,7.54,5.43,11.76,1.05,4.37,1.51,8.74,1.36,13.12-.15.6-.3,1.06-.61,1.36-.3.45-.6.75-.9.9l-3.92,2.11-5.12-1.81c-2.71-5.13-4.53-10.7-5.58-16.58-1.21-5.88-1.66-11.76-1.21-17.64Z" fill="currentcolor"/><path d="M329.71,637.23l72.52-6.48c.61,0,1.36,0,2.11.15.75.15,1.36.45,1.96.75,1.66,1.06,3.17,2.26,4.67,3.62,1.21,1.36,2.41,2.86,3.47,4.52-1.81.75-3.47,1.21-5.12,1.21-1.81.3-3.62.15-5.28-.45h-3.17l2.26,3.02c.3.6.6,1.36.75,1.96,0,.61.15,1.36.15,1.96l-.3,3.47c3.77-.3,7.54-.3,11.46-.15,3.92.15,7.69.45,11.61,1.06.9-.61,1.81-.91,3.01-1.06.91-.15,1.96,0,3.17.45,2.71,1.06,5.28,2.56,7.69,4.68,2.11,2.11,3.92,4.67,5.13,7.39.15.75.15,1.5,0,2.11-.3.9-.75,1.36-1.36,1.66-.6.6-1.36,1.05-1.96,1.05-.75.15-1.51,0-2.11-.45-6.03-2.71-12.06-4.82-18.4-6.03-6.48-1.2-12.97-1.81-19.3-1.51l-2.71,9.35,1.66,1.51c.3.75.45,1.51.45,2.26-.15.91-.45,1.81-.9,2.41-.6.6-1.36,1.06-1.96,1.36-.75.45-1.51.45-2.41.15-2.41-.6-5.13-1.06-7.84-1.51-2.56-.45-5.28-.75-8.14-.9l.45,8.59c5.13,0,10.56.15,15.98.45,5.43.45,10.71,1.06,15.98,1.96,1.06-.45,2.11-.75,3.17-.75s2.11.3,3.02.9c2.71,1.05,5.28,2.71,7.39,4.82,2.11,2.11,3.62,4.67,4.82,7.39.15.9.15,1.66,0,2.26-.3.75-.76,1.36-1.21,1.96-.75.6-1.51.9-2.26.9-.91.15-1.66,0-2.41-.45-7.09-2.86-14.32-5.13-21.86-6.94-7.39-1.66-14.93-2.71-22.62-3.17v16.59c0,5.13-1.05,9.95-2.86,14.78-2.11,4.67-4.83,8.9-8.44,12.66l-.61-44.03c-6.33.3-12.51,1.06-18.54,2.11-6.18,1.21-12.21,2.86-18.09,4.82-.9.3-1.81.61-2.56.61-.9,0-1.81-.15-2.71-.45-2.41-.6-4.52-1.66-6.64-3.17-2.11-1.36-3.77-3.02-5.13-5.13,8.74-2.26,17.49-4.07,26.53-5.43,8.9-1.21,17.94-1.96,26.99-2.56l-.15-7.84c-3.92-.15-7.69.15-11.31.75-3.92.45-7.54,1.21-11.16,2.26-.75.3-1.36.45-1.96.15-.75,0-1.36,0-1.96-.31-1.66-.45-3.17-1.21-4.52-2.26-1.51-1.06-2.71-2.26-3.92-3.47,1.81-.6,3.62-1.21,5.73-1.81,1.96-.6,4.07-1.05,6.18-1.36l-.45-7.69c-4.82,0-9.5.76-14.02,1.96-4.67,1.51-9.05,3.47-12.97,5.88-.6.3-1.06.45-1.51.45-.6,0-1.05,0-1.66-.15-2.72-1.21-5.28-3.01-7.54-5.13-2.26-1.96-4.22-4.22-5.73-6.94l21.41-2.41,21.26-2.86-.75-4.82-4.83-4.67c-1.81-.45-3.62-1.21-5.28-2.41-1.66-.91-3.17-2.11-4.37-3.62ZM344.33,592.6c3.01,0,5.88.45,8.74,1.06,2.71.9,5.43,2.11,8.14,3.62.6.6,1.06,1.36,1.51,2.11.3.9.45,1.96.45,2.86l-.3,7.84,23.22-2.71,5.43-15.68-1.51-4.22c2.26.75,4.52,1.81,6.78,3.32,2.11,1.51,3.92,3.47,5.43,5.58.3.9.61,1.81.61,2.71s-.3,1.81-.76,2.56l-3.32,5.58,12.51-1.21c.6,0,1.36,0,2.26.3.76.3,1.51.6,2.11,1.21,1.05,1.21,1.96,2.41,2.71,3.77.6,1.35,1.21,2.71,1.66,4.22l-27.14,3.02-4.22,7.39c-.15.45-.3.75-.3,1.06-.3.3-.75.6-1.21.76-1.36.6-2.86,1.2-4.37,1.51-1.51.45-3.16.75-4.67.75l2.11-10.4-15.98,1.66.6,4.22-3.92,4.52c-1.36-.91-2.41-2.11-3.32-3.47-1.05-1.36-1.81-2.71-2.41-4.22l-11.61,1.66c-.45.3-.9.3-1.21.15-.45,0-.91,0-1.21-.3-2.71-1.06-5.28-2.56-7.39-4.37-2.41-1.81-4.37-3.92-6.03-6.33l2.86-1.36,3.32,1.06,17.94-1.66c-1.06-2.11-1.81-4.22-2.11-6.33-.45-2.11-.76-4.37-.76-6.48l-4.67-5.73ZM351.72,642.95c.6.61,1.36,1.06,2.26,1.51.75.61,1.51.91,2.26,1.21l.45,5.58h11.76l.76-6.33-1.51-3.01-15.98,1.05ZM357.3,660.59v7.69l11.91-1.21-.3-7.54c-1.96.15-3.92.3-5.88.45-1.96.3-3.92.45-5.73.6ZM380.67,658.79l.45,8.3,7.99-.3,1.36-7.84-9.8-.15ZM382.93,641.15l-1.81,3.62-.3,6.03h10.1l.45-10.25-8.44.6Z" fill="currentcolor"/><path d="M566.91,713.37c-7.24-.76-14.33-1.06-21.41-.76-7.39.3-14.63,1.06-21.56,2.26-3.32.6-6.63,1.51-9.8,2.71-3.32,1.06-6.33,2.56-9.05,4.37-3.01-1.21-5.88-2.71-8.59-4.37-2.87-1.81-5.43-3.77-7.54-6.18-.3-.15-.6-.45-.6-.9,0-.3,0-.75.3-1.21.15-.3.45-.45.9-.6.3-.15.6-.15.9-.15,1.21.15,2.26.3,3.47.6,1.21.3,2.26.76,3.32,1.05,3.62-.9,7.09-1.66,10.7-2.41,3.62-.76,7.24-1.51,10.86-2.11l-3.77-21.56c-.3-.91-.9-1.66-1.51-2.56-.75-.6-1.66-1.21-2.56-1.51l-3.92-1.51,5.28-1.66-2.71-4.97c-2.26,1.21-4.52,2.26-6.94,2.87-2.41.75-4.83,1.21-7.24,1.51l-.3,10.55,6.48-3.47c.3,1.36.6,2.56.91,3.77.15,1.36.15,2.71,0,4.07-.15.91-.45,1.66-.75,2.26-.3.75-.76,1.36-1.36,1.81-4.07,3.92-8.29,7.69-12.51,11.31-4.22,3.77-8.59,7.24-13.12,10.4-1.36,1.06-2.41,2.27-3.17,3.77-.9,1.36-1.66,2.87-1.96,4.37-3.17-.6-6.03-1.81-8.74-3.62-2.71-1.96-4.98-4.22-6.79-6.63-.3-.76-.6-1.51-.9-2.26-.3-.6-.75-1.36-1.06-2.11.45-.45,1.06-.9,1.66-1.51.6-.3,1.06-.75,1.66-1.36l1.96,1.51c4.68-3.02,9.5-6.03,14.33-8.9,4.83-2.72,9.95-5.27,15.08-7.69l-.15-33.32c-1.36.3-2.56.6-3.62.9-1.21.31-2.57.75-3.77,1.21-.91.3-1.96.46-3.01.3-1.06,0-1.96-.3-2.86-.9-1.51-.91-3.02-1.96-4.23-3.16-1.35-1.21-2.56-2.42-3.62-3.77l.6-.6,3.17.75c2.86-.6,5.73-1.21,8.75-2.11,3.02-.91,5.88-1.66,8.89-2.57v-3.47l-1.06-2.11c-1.51,0-3.02-.3-4.52-.6-1.51-.3-3.02-.91-4.22-1.81-1.36,1.51-2.71,2.86-4.22,4.07-1.51,1.2-3.17,2.41-4.68,3.32-1.05.6-2.11.9-3.01,1.21-1.21.3-2.26.45-3.47.45-2.11,0-4.07-.15-6.03-.45-2.11-.15-4.07-.3-6.18-.6,2.11-.91,3.92-2.26,5.73-3.77,1.66-1.51,3.17-3.16,4.52-4.97,3.92-5.43,7.69-10.86,11.61-16.28,3.77-5.43,7.39-10.86,11-16.59.6-.9,1.06-1.81,1.36-2.71.3-.9.45-1.96.45-3.17,0-.45.3-.91.6-1.51.3-.45.6-.76,1.2-1.05.45-.15,1.06-.3,1.66-.3s1.06.15,1.66.3c1.51,1.05,3.17,2.26,4.82,3.47,1.51,1.51,3.02,2.86,4.22,4.37.9.6,1.81,1.05,2.86,1.36.9.45,1.96.75,3.02,1.06,1.51.6,2.86,1.51,4.07,2.56,1.06,1.21,1.96,2.56,2.71,4.07.15.6.3,1.06.45,1.66,0,.6-.15,1.06-.3,1.51,3.62-.9,7.24-1.81,10.86-2.71,3.62-.75,7.24-1.51,10.85-2.41l1.36-1.66c.15-.3.45-.6.75-.76h1.36c1.21.3,2.41.45,3.62.76,1.06.3,2.26.6,3.77.75,1.05,1.21,1.96,2.56,2.71,3.77.76,1.21,1.36,2.56,1.96,4.07-1.66.6-3.31.9-4.97,1.2-1.81.3-3.47.61-5.13.76l1.66,1.96-2.11,5.58c1.21.15,2.41.45,3.62.75,1.21.3,2.41.76,3.62,1.21,1.81-3.02,3.31-6.18,4.82-9.65,1.36-3.32,2.41-6.94,3.17-10.71-1.51-1.51-2.71-3.31-3.32-5.43-.75-1.96-.9-4.07-.6-6.33,3.02.6,5.88,1.51,8.74,2.71,2.71,1.51,5.28,3.01,7.69,4.82.91.91,1.51,1.81,1.81,3.02.3,1.2.15,2.26-.15,3.32-.3,1.21-.75,2.26-1.06,3.16-.45,1.06-.9,2.11-1.36,3.02,1.66,0,3.32-.3,5.13-.9,1.66-.45,3.32-1.06,4.98-1.81,3.01-.45,5.88-.15,8.74.91,2.71,1.2,5.13,2.86,7.09,5.28.3.3.45.75.61,1.2v1.36c-.3.6-.45.91-.61,1.21-.3.45-.75.75-1.2.9-4.22.9-8.29,1.66-12.51,2.11-4.22.6-8.44,1.21-12.66,1.51-1.51.15-2.87.15-4.07-.15-1.36-.15-2.56-.45-3.77-.9-1.21,1.21-2.41,2.26-3.77,2.87-1.51.75-3.02,1.05-4.52,1.05.3.45.6.9.6,1.36,0,.6-.3,1.06-.6,1.36-.6.6-1.21,1.21-1.51,1.81-.45.6-.75,1.36-.9,2.11l-.45,5.13c3.47.3,7.09.15,10.7-.6,3.47-.76,6.94-1.96,10.25-3.47l6.33,2.41,6.18,2.72c.3.3.61.45.91.75,0,.45.15.76.15,1.06l-1.21,4.52c-3.32.9-6.63,1.51-9.95,1.96-3.47.61-6.94,1.21-10.25,1.51-.45,0-.9,0-1.21-.15-.45,0-.75-.15-1.06-.45-2.11-1.36-4.07-2.87-5.88-4.53-1.96-1.51-3.77-3.02-5.58-4.52-.15.76-.45,1.36-.9,1.81-.45.61-1.06,1.06-1.66,1.21-.91.15-1.51.3-2.11.45-.61.15-1.36.3-2.11.3l2.71,1.36c0,.15.15.3.3.6v1.06l-1.81,4.97,1.81-.3c1.05.3,2.11.6,3.01,1.21.91.6,1.66,1.36,2.11,2.11l-4.53,5.43c-2.41.6-4.67,1.21-6.78,1.96-2.26.75-4.52,1.66-6.63,2.56,4.22-1.21,8.44-1.96,12.82-2.56,4.22-.61,8.59-.76,12.97-.61,1.05,0,2.11-.15,3.17-.45.9-.3,1.81-.91,2.71-1.51,3.47.45,6.78,1.36,9.95,2.72,3.02,1.51,5.88,3.47,8.59,5.58.6.6.9,1.51.9,2.41-.15,1.06-.6,1.96-1.2,2.56-.76.6-1.36,1.51-1.81,2.41-.45,1.06-.75,2.11-.75,3.02l-3.17,17.94c1.21.3,2.56.45,3.92.45,1.21,0,2.56-.15,3.92-.6,2.71,1.21,5.28,2.71,7.69,4.52,2.26,1.96,4.22,4.22,5.88,6.78l-.76,2.56-4.82,2.11c-3.32-1.81-6.78-3.32-10.4-4.52-3.62-1.06-7.39-1.81-11.01-2.26ZM461.67,664.51c2.56.61,5.13,1.51,7.69,2.57,2.41,1.05,4.98,2.26,7.54,3.62.91.6,1.66,1.51,2.41,2.41.6,1.06,1.06,2.11,1.2,3.17,0,1.51.3,3.01.61,4.52.15,1.51.45,2.86.9,4.37,0,.75-.15,1.36-.6,1.81-.45.45-.9.61-1.51.61-1.21,0-2.11,0-3.02-.15-1.05-.3-1.96-.6-2.86-1.06-.9-.3-1.66-.75-2.26-1.66-.6-.6-1.2-1.36-1.51-2.26-1.36-3.02-2.71-6.03-4.07-9.2-1.51-3.01-3.01-5.88-4.52-8.75ZM482.48,634.97c2.11-1.06,4.37-1.96,6.79-2.57,2.26-.6,4.67-.9,7.24-.9.6,0,1.36.15,2.26.45.6.3,1.36.75,1.96,1.21.6.6,1.2,1.36,1.81,1.96.45.75.9,1.51,1.36,2.11.3.6.3,1.36,0,1.96-.3.61-.76,1.06-1.36,1.21l-5.73,1.66v4.52c.61,0,1.21,0,1.96.15.6.3,1.06.6,1.66.9.6.75,1.21,1.51,1.81,2.26.6.91,1.06,1.66,1.36,2.56.15.6.15,1.21,0,1.66-.3.61-.75,1.06-1.21,1.06l-6.63,1.81v9.5c1.05-.3,2.11-.9,3.17-1.66.9-.75,1.66-1.66,2.41-2.71l-.15-.76,2.72-1.66,4.07,4.68,3.92,4.37-1.66-41.31c-.9-1.21-1.96-2.26-3.01-3.32-1.06-1.06-2.11-2.11-3.32-3.17-1.81-.45-3.47-1.06-4.97-1.66-1.66-.6-3.32-1.36-4.83-2.11-1.81,3.01-3.77,6.03-5.58,9.04-2.11,3.02-4.07,5.88-6.03,8.75ZM521.08,655.62v11.01l6.94-2.87.9-10.1c-1.51.3-2.71.45-3.92.75-1.36.45-2.71.9-3.92,1.21ZM521.53,641.9l-.15,4.82c1.81-.45,3.62-.9,5.73-1.21,1.81-.3,3.77-.6,5.73-.9l.45-4.37c-1.96,0-3.92,0-5.88.3-2.11.3-4.07.75-5.88,1.36ZM521.98,625.16c-.15,1.66-.3,3.17-.3,4.67s0,3.01.15,4.52c.91-.3,1.81-.6,3.02-.9,1.05-.3,2.11-.45,3.32-.61,0-1.05,0-2.11.15-3.16.3-1.06.6-2.11.9-3.32l-1.96-1.96-5.28.75ZM526.66,680.95l1.66,23.52,4.83-.3-2.56-23.83-3.92.61ZM540.98,678.54l.45,25.18,4.53-.3-.3-25.33-4.67.45ZM555.76,677.18l-1.06,26.08h5.58l-.15-26.38-4.37.3Z" fill="currentcolor"/><path d="M609.19,643.11c2.41,1.05,4.67,2.41,6.79,4.07,1.96,1.81,3.62,3.77,5.13,6.03.6,1.06,1.05,2.11,1.35,3.16,0,1.21,0,2.41-.3,3.62-.45,1.06-.75,2.11-1.05,3.01-.3,1.21-.6,2.27-.6,3.32l-4.22,26.84c-.3,1.06-.45,2.11-.45,3.16,0,1.2,0,2.26.15,3.17,0,.75,0,1.36-.15,1.96-.3.6-.76,1.21-1.21,1.51-.75.45-1.51.76-2.11.91-.9.3-1.66.3-2.26,0-.91-.15-1.51-.45-2.11-1.06-.61-.3-1.06-.9-1.36-1.66-1.81-3.01-3.47-6.18-4.97-9.5-1.51-3.02-3.02-6.33-4.37-9.65-.3-.45-.3-.9,0-1.51,0-.45.3-.9.6-1.21.3-.45.76-.75,1.36-1.05.45,0,.9,0,1.36.15l9.65-29.7c.3-.91.45-1.96.15-3.02-.3-.9-.76-1.81-1.36-2.56ZM622.46,624.56c3.32,1.21,6.64,2.72,9.65,4.67,3.02,2.11,5.73,4.52,8.14,7.24.45.75.9,1.51,1.36,2.41.3.9.6,1.66.9,2.56.6,5.73,1.51,11.46,2.71,17.19,1.21,5.73,2.71,11.31,4.52,16.73.75,2.26,1.96,4.22,3.77,5.73,1.66,1.51,3.62,2.71,5.73,3.47,5.58,1.96,11.31,3.02,17.04,3.02,6.03.3,11.76-.3,17.49-1.66.61-.3,1.21-.75,1.81-1.5.3-.61.45-1.21.45-1.96-1.21-5.13-2.56-10.4-4.22-15.53-1.81-5.13-3.62-10.1-5.58-15.08,5.13,4.37,9.95,9.04,14.47,14.02,4.37,4.97,8.44,10.25,12.06,15.98.3.6.45,1.21.76,1.51.15.6.3,1.21.6,1.51.15.45.45.76.75,1.06.15.45.45.75.91.9.6.6,1.05,1.2,1.66,1.81.6.61,1.05,1.36,1.51,2.11l-6.48,10.85c-6.63,2.72-13.27,4.22-20.05,4.68-6.79.6-13.57.15-20.35-1.21-3.62-.9-7.09-2.11-10.41-3.77-3.32-1.51-6.48-3.47-9.35-5.88-3.02-1.96-5.43-4.37-7.54-7.39-2.26-2.71-3.92-5.88-5.13-9.19-2.72-7.84-5.28-15.68-7.54-23.53-2.41-7.84-4.37-15.83-6.18-23.97-.3-1.21-.76-2.41-1.36-3.62-.6-1.06-1.36-2.11-2.11-3.17ZM645.08,622.75c3.17,0,6.33,0,9.35.15,3.01.3,6.18.75,9.2,1.36,1.2.45,2.56,1.06,3.77,1.66,1.21.6,2.41,1.36,3.47,2.26,2.11,2.11,3.77,4.37,5.13,7.08,1.05,2.71,1.81,5.43,2.11,8.14,0,.91-.15,1.66-.3,2.41-.3.9-.76,1.51-1.36,2.11-.3.45-.91.75-1.51,1.06-.45.3-1.05.45-1.81.45-.75.3-1.51.45-2.26.15-.9-.15-1.51-.6-2.11-1.36-3.62-4.52-7.39-9.05-11.31-13.27-3.92-4.22-8.14-8.29-12.36-12.22ZM691.82,618.83c1.51-.45,3.02-.75,4.53-1.06,1.51-.15,3.16-.15,4.83.15,1.21.15,2.56.45,3.92.9,1.36.6,2.71,1.21,3.92,1.81.76.6,1.66,1.05,2.56,1.36.9.45,1.96.6,2.87.6s1.96.3,2.86.6c.9.45,1.66.9,2.41,1.36,2.11,2.26,3.92,4.67,5.58,7.09,1.51,2.71,2.72,5.43,3.77,8.14.3,1.06.45,2.11.45,3.01s-.15,1.96-.45,2.86c-.45.9-1.05,1.66-1.66,2.26-.75.75-1.5,1.2-2.26,1.51-.91.3-1.66.3-2.57.15-.9,0-1.81-.45-2.41-1.06-5.13-4.52-9.95-9.2-14.78-14.17-4.83-4.83-9.35-10.1-13.57-15.53Z" fill="currentcolor"/><path d="M738.49,657.88l10.1-10.7-.9-2.11,5.58-2.57,1.81,1.21,41.91-4.53-1.66-32.87c-.3-2.11-.6-4.07-1.21-6.18-.6-1.96-1.36-3.92-2.26-5.88-.76-.3-1.36-.75-1.81-1.36-.6-.45-.9-1.05-1.2-1.81l3.92.45c3.62,1.06,7.09,2.41,10.55,3.92,3.32,1.66,6.64,3.47,9.95,5.28.76.6,1.21,1.51,1.51,2.41,0,1.06,0,1.96-.3,2.71-.6,1.06-1.21,1.96-1.51,2.87-.76,1.06-1.36,1.96-1.81,2.86-.9,3.02-1.66,5.88-2.26,8.9-.6,3.02-1.06,6.18-1.06,9.2,3.47-1.81,6.79-4.22,9.8-6.94,2.71-2.71,5.28-5.88,7.54-9.2l.6-1.66c0-.3.15-.6.45-1.06.3-.3.6-.45,1.21-.75.3-.15.6-.3,1.06-.3.45.15.9.3,1.36.45,1.66.9,3.32,1.96,4.97,3.17,1.51,1.21,2.86,2.56,4.37,4.07.6.6.9,1.21,1.06,1.96,0,.9-.15,1.66-.45,2.26-.45.9-.9,1.51-1.36,2.11-.6.6-1.21,1.06-1.81,1.51-.6,0-1.06.15-1.51.15-.6.15-1.06.3-1.51.45-2.11,1.51-4.07,2.86-6.18,4.07-2.11,1.21-4.07,2.41-6.18,3.32-1.21.6-2.41.9-3.47,1.06-1.21.3-2.41.45-3.62.45s-2.26-.15-3.17-.45c-1.05,0-2.11-.3-3.17-.6l-.15,5.13,33.93-.45c.75-.9,1.81-1.51,3.02-1.66,1.21,0,2.41.3,3.47.9,3.77,2.72,7.54,5.58,11.16,8.29,3.62,2.72,7.24,5.73,10.86,8.75.75.9,1.36,2.11,1.66,3.47.3,1.36.3,2.56,0,3.77-.76.45-1.51.76-2.26.76-.9.15-1.65.15-2.41,0-2.11-.45-4.22-.6-6.33-.45-2.26.15-4.37.6-6.18,1.35-2.26-1.35-4.52-2.56-6.94-3.47-2.56-.9-5.13-1.5-7.69-1.8l9.35-10.1c-14.02-1.21-28.04-1.66-42.07-1.21-14.17.6-28.19,1.96-42.22,4.07.15.6.3,1.21.3,1.66,0,.6-.15,1.21-.3,1.81l-2.71.3c-.6.15-1.2.3-1.51.6-.6.3-1.05.6-1.36,1.06-1.81,3.17-3.77,6.18-5.58,8.9-2.11,3.17-4.07,6.18-6.18,9.05-2.11-1.06-3.92-2.41-5.43-4.22-1.66-1.51-3.02-3.32-3.92-5.43l1.06-1.66-.9-5.28ZM781.16,653.96l31.96-3.62c1.51-.3,3.16-.3,4.82,0,1.36.3,2.87.75,4.37,1.36l7.84,4.82c.6.6,1.06,1.21,1.51,1.81.3.75.45,1.5.3,2.26,0,.6-.3,1.21-.6,1.51-.45.45-.9.76-1.36.76-.6.3-1.05.6-1.36.9-.3.3-.6.75-.6,1.06l-5.58,15.99-15.38.45c.9.3,1.66.9,2.26,1.51.61.6,1.06,1.21,1.66,1.96,0,.45.15.91.15,1.21,0,.45-.15.75-.3,1.05l-1.36,4.22,8.74-.3c1.51,0,3.02.3,4.52.75,1.21.6,2.57,1.21,3.77,2.11,1.66,1.21,3.02,2.71,4.22,4.22,1.21,1.66,2.11,3.47,3.02,5.28l-24.73,1.36-.6,8.44h17.19c.9,0,1.81-.15,2.87-.45.9-.15,1.81-.3,2.71-.6,3.02,1.06,5.88,2.26,8.75,3.62,2.71,1.35,5.43,2.87,8.14,4.67.9.6,1.81,1.51,2.71,2.56.75,1.06,1.36,2.11,1.81,3.32.3.76.3,1.51.15,2.41-.3.9-.76,1.66-1.36,2.26-1.21.45-2.26.75-3.47.91-1.21,0-2.41-.3-3.47-.76-2.71-1.36-5.28-2.56-7.99-3.47-2.86-1.21-5.73-1.96-8.44-2.56-9.04-1.21-18.09-1.36-27.14-.45-9.2.75-18.09,2.71-26.69,5.88l-4.67,2.57-20.96-12.97c1.36-.3,2.87-.3,4.37-.3,1.51-.15,3.01-.15,4.67,0,6.48-1.36,12.97-2.56,19.45-3.62,6.48-1.06,13.12-1.96,19.75-2.56v-8.14l-12.66.6-19.45-9.04c.9-.6,1.81-1.06,2.86-1.36.9-.3,1.96-.45,3.17-.6l25.93-2.72c-.15-1.81-.61-3.47-1.36-5.13-.9-1.51-1.96-3.01-3.17-4.22-1.2.3-2.26.6-3.31.6-1.21,0-2.41,0-3.32-.15-1.21,0-2.26-.45-3.02-1.21-.91-.6-1.66-1.51-1.96-2.56l-6.78-26.84c1.21.15,2.41.3,3.62.3,1.21.3,2.56.61,3.77.91ZM764.57,613.25c1.36,0,2.71,0,3.92.3,1.21.3,2.56.75,3.77,1.36l11.91,6.03c.9.6,1.81,1.21,2.56,2.11.75.91,1.36,1.81,1.66,2.87l1.51,6.48c0,.91-.15,1.81-.6,2.57-.6.9-1.2,1.51-1.96,1.81-1.06.45-2.11.75-3.32.9-1.21.15-2.41,0-3.62-.3l-3.62-1.51c-.9-.6-1.66-1.36-2.11-2.26-.61-.91-.91-1.96-.91-3.02-.45-3.32-1.5-6.48-3.01-9.5-1.81-2.86-3.77-5.43-6.18-7.84ZM789.6,672.96c3.77-.75,7.69-1.21,11.61-1.51,3.92-.15,7.84,0,11.76.3l.9-11.01c-4.22-.3-8.44-.3-12.66-.15-4.37.3-8.59.91-12.67,1.51l1.06,10.86Z" fill="currentcolor"/></g></g></g></g></svg>