<?xml version="1.0" encoding="UTF-8"?><svg xmlns="http://www.w3.org/2000/svg" viewBox="0 0 1024 1024"><title>b19n logo</title><desc>Copyright &#xa9; 2026 Pearlpuppy. All rights reserved.</desc><metadata><rdf:RDF xmlns:rdf="http://www.w3.org" xmlns:dc="http://purl.org"><rdf:Description rdf:about=""><dc:title>b19n logo</dc:title><dc:creator>Pierre Pearlpuppy</dc:creator><dc:rights>Copyright &#xa9; 2026 Pearlpuppy. All rights reserved.</dc:rights><dc:date>2026-03-20</dc:date><dc:format>image/svg+xml</dc:format></rdf:Description></rdf:RDF></metadata><g isolation="isolate"><g id="logo-b19n"><g id="b19n"><g data-fc="#19449b"><path d="M155.39,736.74h13.38v-33.81c.5-.98,1.11-1.84,1.8-2.59-5.17.48-10.23.97-15.18,1.47v34.94Z" fill="currentcolor"/><path d="M205.11,698.95c0,4.61-6.15,9.58-9.76,11.84-.54-2.26-.81-4.07-.81-6.42,0-2.57.46-4.83,1.83-6.28-5.24.42-10.41.86-15.49,1.3-.11,1.35-.18,2.76-.18,4.25,0,13.92,8.32,33.09,24.59,33.09h8.23l3.25-14.37c-3.71,0-9.58.36-13.2-1.09,8.41-6.15,15.28-13.38,15.28-24.5,0-.13-.01-.24-.01-.37-4.83.34-9.6.69-14.32,1.05.36.37.6.84.6,1.5Z" fill="currentcolor"/><path d="M221.38,703.66c0,14.01,8.23,33.09,24.59,33.09h13.56v-42.73c-12.73.61-25.21,1.35-37.36,2.18-.53,2.3-.79,4.81-.79,7.47ZM241,697.69h5.15v24.68c-7.41-1.72-10.94-10.3-10.94-17.27,0-4.25.9-7.41,5.79-7.41Z" fill="currentcolor"/><path d="M280.95,707.18l10.13,29.56h14.92l-10.67-30.1,5.27-14.13c-4.89.12-9.76.26-14.61.42l-5.04,14.25Z" fill="currentcolor"/><path d="M267.39,736.74h13.47v-43.64c-4.52.16-9.01.34-13.47.54v43.1Z" fill="currentcolor"/><path d="M306.98,697.15h2.98v23.14c0,8.95,2.44,16.45,12.84,16.45h6.06l3.44-14.37c-5.79,0-8.77,1.54-8.77-4.88v-20.34h6.87v-5.09c-7.84.04-15.65.15-23.41.31v4.78Z" fill="currentcolor"/><path d="M336.09,692.03v44.71h13.47v-39.05c8.59,0,9.04,0,9.04,8.59v30.46h13.56l-.18-34.26c-.03-3.68-.25-7.02-.97-9.86-10.59-.37-21.36-.6-32.38-.6-.85,0-1.69,0-2.53,0Z" fill="currentcolor"/><path d="M379.92,736.74h13.38v-33.81c1.81-3.52,4.88-5.69,8.95-5.69v-3.01c-7.35-.49-14.79-.92-22.33-1.26v43.78Z" fill="currentcolor"/><path d="M405.32,702.3c0,11.66,5.15,36.07,20.34,36.07s20.25-24.5,20.25-36.07c0-1.48-.09-2.92-.26-4.31-12.9-1.35-26.02-2.55-39.45-3.5-.6,2.4-.88,5.03-.88,7.81ZM425.66,696.42c4.7,0,6.51,2.98,6.51,7.41,0,3.52-1.81,19.07-6.69,19.07-4.61,0-6.42-15.64-6.42-19.07,0-4.52,1.81-7.41,6.6-7.41Z" fill="currentcolor"/><path d="M473.84,722.37c-7.59,0-10.85-.63-10.85-9.22,0-4.12.76-8.58,1.83-13.02-4.56-.54-9.14-1.06-13.75-1.56-1.34,5.15-2.26,10.39-2.26,15.85,0,11.66,3.53,22.33,17,22.33h21.42v-33.82c-4.44-.58-8.9-1.14-13.38-1.7v21.15Z" fill="currentcolor"/><path d="M516.96,722.37c-7.2-1.33-10.81-10.35-10.93-16.93-4.59-.63-9.21-1.26-13.84-1.87,0,.03,0,.06,0,.08,0,14.1,8.41,33.09,24.77,33.09,0,4.61-2.26,4.52-6.15,4.52h-15.19l3.52,14.28h14.92c14.46,0,16.27-5.7,16.27-18.8v-27.9c-4.45-.63-8.91-1.26-13.38-1.89v15.41Z" fill="currentcolor"/><path d="M560.53,736.74h13.56l-.12-21.79c-4.5-.61-8.98-1.22-13.44-1.84v23.63Z" fill="currentcolor"/><path d="M538.02,736.74h13.47v-24.9c-4.5-.63-8.99-1.27-13.47-1.91v26.81Z" fill="currentcolor"/><path d="M613.77,736.74h15.1l3.14-14.81c-4.95-.5-9.87-1.03-14.75-1.58l-3.49,16.39Z" fill="currentcolor"/><path d="M582.76,736.74h15.01l3.96-18.22c-4.93-.6-9.84-1.22-14.71-1.85l-4.25,20.07Z" fill="currentcolor"/><path d="M659.96,736.74h13.56l2.38-11.21c-11.16-.7-22.12-1.55-32.88-2.54,2.42,7.59,7.73,13.75,16.94,13.75Z" fill="currentcolor"/><path d="M689.33,736.74h15.46l4.46-9.66c-6.87-.2-13.63-.49-20.33-.82l.41,10.48Z" fill="currentcolor"/><path d="M720.61,736.74h13.38l1.97-9.27c-4.49,0-8.95-.03-13.36-.1l-1.99,9.37Z" fill="currentcolor"/><path d="M748.86,727.39c3.2,5.77,8.28,9.35,15.22,9.35-.99,4.61-2.98,4.52-7.14,4.52h-15.19l.54,14.28h14.92c14.92,0,17.54-6.06,20.34-19.35l2.07-9.73c-3.97.18-7.96.35-11.98.49-6.34.21-12.6.35-18.78.43Z" fill="currentcolor"/><path d="M807.38,736.74h13.56l2.84-13.35c-10.49.98-21.24,1.8-32.25,2.45,2.77,6.22,7.83,10.9,15.85,10.9Z" fill="currentcolor"/><path d="M831.97,727.16c0,6.51,3.44,9.58,9.85,9.58h6.33l6.51-14.37c-.78,0-7.58.83-8.09-1.37-4.67.55-9.4,1.06-14.19,1.55-.24,1.51-.41,3.04-.41,4.6Z" fill="currentcolor"/><path d="M876.26,722.91c-1.64,0-2.5-2.75-2.94-5.42-4.59.67-9.26,1.31-13.99,1.93.88,8.45,4.37,18.95,13.77,18.95,10.34,0,19.3-12.29,24.38-24.7-4.9.84-9.89,1.66-14.98,2.44-1.93,3.81-4.17,6.8-6.24,6.8Z" fill="currentcolor"/><path d="M130.47,716.47c.93,6.07-3.7,6.17-7.51,6.17h-9.95l.35-16.21c-6.05.72-11.82,1.44-17.27,2.14l-.68,32.28h31.92c13.6,0,25.06-6.88,22.18-25.69-.68-4.44-2.71-8.57-5.31-12.2-7.16.75-14.06,1.52-20.67,2.27,3.41,3.23,6.31,7.08,6.95,11.24Z" fill="currentcolor"/><path d="M902.57,712.78l-4.88,23.78h16.13l5.49-26.89c-5.44,1.06-11.02,2.1-16.74,3.11Z" fill="currentcolor"/></g><g data-fc="#1cb7a8"><path d="M733.46,408.8c-41.12-14.59-95.27-11.8-109.24-6.85l.12-.21c-.09.02-.19.08-.27.09-19.62,3.41-40.01,7.06-60.52,12.67,4.48-5.44,8.26-11.75,10.98-19.36,11.3-31.62-14.71-47.66-39.69-56.52l-195.05-70.16s46.06,51.34,86.31,74.65c28.51,16.51,56.37,29.01,69.03,38.22,7.85,5.21,31.1,19.73,65.9,33.87-.48.14-.97.26-1.45.4l.3-.49s-49.26,12.16-75.85,15.42c-26.59,3.27-80.36,1.97-80.36,1.97l64.19,21.93h0c24.97,4.03,48.08,4.51,65.01,3.97l-34.8,57.47c-28.2,8.93-59.94,8.45-86.86,5.03-24.78,10.31-97.29,45.45-120.65,37.16l31.36,11.29c4.42,1.88,9.01,4.12,13.52,5.73,54.81,19.45,123.39-10.99,167.33-57.31,30.34-24.66,66.25-51.93,94.84-67.96,39.83-26.83,135.88-41.01,135.88-41.01Z" fill="currentcolor"/><path d="M176.53,697.32c.4-.04.8-.07,1.2-.11v-15.34c-3.8,0-6.96,1.54-9.49,4.34v-3.07h-12.84v16.19c6.74-.67,13.68-1.34,20.8-1.98.11-.02.22-.02.33-.03Z" fill="currentcolor"/><path d="M200.14,681.87c-12.22,0-17.49,5.36-18.97,15.03,12.05-1.06,24.59-2.06,37.52-2.95-1.11-10.22-8.4-12.08-18.55-12.08Z" fill="currentcolor"/><path d="M259.53,683.14h-20.61c-8.79,0-13.77,4.16-16.03,10.53,11.92-.8,24.16-1.52,36.64-2.12v-8.4Z" fill="currentcolor"/><path d="M304.09,683.14h-14.64l-2.58,7.3c4.86-.16,9.75-.3,14.66-.42l2.57-6.88Z" fill="currentcolor"/><path d="M280.86,664.24h-13.47v26.94c4.46-.2,8.95-.38,13.47-.54v-26.4Z" fill="currentcolor"/><path d="M330.39,683.14h-6.87v-15.46l-13.56,5.06v10.4h-2.98v6.76c7.76-.16,15.57-.27,23.41-.31v-6.45Z" fill="currentcolor"/><path d="M370.16,690.13c-1.89-4.34-5.68-6.99-13.19-6.99h-7.41v-18.89h-13.47v25.33c.84,0,1.69,0,2.53,0,10.73,0,21.22.21,31.54.57Z" fill="currentcolor"/><path d="M402.25,681.87c-3.8,0-6.96,1.54-9.49,4.34v-3.07h-12.84v7.36c7.54.34,14.98.76,22.33,1.25v-9.88Z" fill="currentcolor"/><path d="M428.56,681.87h-5.97c-8.49,0-13.35,4.08-15.64,10.21,13.02.93,25.75,2.08,38.27,3.39-1.71-7.92-6.77-13.59-16.66-13.59Z" fill="currentcolor"/><path d="M487.22,683.14h-13.38v15.6c4.48.55,8.94,1.12,13.38,1.7v-17.3Z" fill="currentcolor"/><path d="M469.77,683.14h-13.92c-1.41,4.36-2.89,8.67-4.13,13.02,4.59.5,9.16,1.02,13.7,1.56,1.36-5.17,3.05-10.22,4.35-14.58Z" fill="currentcolor"/><path d="M512.62,697.69h4.34v6.78c4.47.63,8.93,1.26,13.38,1.89v-23.22h-20.61c-11.79,0-16.76,7.66-17.44,17.96,4.64.62,9.26,1.24,13.86,1.87.41-3.48,2.07-5.28,6.48-5.28Z" fill="currentcolor"/><path d="M551.49,697.69c8.59,0,9.04,0,9.04,8.59v4.34c4.46.62,8.94,1.24,13.43,1.84l-.05-9.98c-.09-11.21-1.81-19.35-15.01-19.35h-7.41v-18.89h-13.47v43.2c4.48.64,8.97,1.27,13.47,1.91v-11.66Z" fill="currentcolor"/><path d="M607.71,691l10.58,24.5-.52,2.43c4.88.55,9.8,1.07,14.75,1.57l11.71-55.26h-15.1l-5.24,24.77-11.48-24.77h-14.28l-10.6,50.02c4.88.63,9.79,1.25,14.73,1.85l5.46-25.11Z" fill="currentcolor"/><path d="M655.43,711.16c0-5.51.63-13.47,7.87-13.47h5.15l-5.21,24.52c4.36.33,8.74.63,13.17.9l8.49-39.98h-20.61c-16.18,0-22.87,14.92-22.87,29.11,0,2.71.29,5.51.91,8.21,6.64.62,13.36,1.19,20.15,1.7-4.44-1.49-7.05-6.36-7.05-10.99Z" fill="currentcolor"/><path d="M729.56,683.14h-14.19l-14.28,34.35.54-34.35h-14.37l1.58,40.68c7.08.35,14.27.63,21.55.83l19.18-41.51Z" fill="currentcolor"/><polygon points="749.35 664.24 735.97 664.24 732.9 678.79 746.28 678.79 749.35 664.24" fill="currentcolor"/><path d="M736.48,725.01l8.9-41.87h-13.38l-8.88,41.78c4.41.06,8.86.1,13.36.1Z" fill="currentcolor"/><path d="M780.16,723.98l8.7-40.84h-20.61c-12.93,0-19.26,8.95-21.88,20.52-.27,1.36-.72,2.89-.81,4.34-.18,2.53-.09,5.24-.09,7.78s1.07,6.39,2.22,9.17c6.54-.08,13.16-.22,19.88-.45,4.23-.14,8.43-.32,12.6-.51ZM759.38,711.07c0-6.33.72-13.38,8.68-13.38h4.34l-5.24,24.68c-4.97-.9-7.77-6.6-7.77-11.3Z" fill="currentcolor"/><path d="M802.86,711.16c0-5.51.63-13.47,7.87-13.47h5.15l-5.18,24.36c4.59-.36,9.12-.76,13.61-1.18l8.02-37.73h-20.61c-16.18,0-22.87,14.92-22.87,29.11,0,3.73.55,7.63,1.75,11.19,6.49-.38,12.88-.82,19.2-1.32-4.37-1.53-6.93-6.36-6.93-10.96Z" fill="currentcolor"/><path d="M846.88,717.49l4.34-20.34h6.87l2.98-14.01h-6.87l3.25-15.46-14.64,5.06-2.17,10.4h-2.98l-2.98,14.01h2.98l-4.83,22.89c4.68-.48,9.31-.99,13.87-1.53.05-.34.09-.68.18-1.02Z" fill="currentcolor"/><path d="M872.91,712.97c0-6.51.54-16.54,9.13-16.54,3.16,0,5.24,1.45,5.24,4.79,0,2.13-1.46,7.4-3.54,12.21,5.01-.79,9.94-1.6,14.77-2.43,2.18-5.98,3.41-11.77,3.41-16.02,0-8.59-5.51-13.11-13.92-13.11h-5.97c-17.99,0-22.96,18.17-22.96,33,0,.66.02,1.37.06,2.1,4.69-.61,9.32-1.25,13.88-1.91-.08-.9-.11-1.65-.11-2.08Z" fill="currentcolor"/><path d="M113.93,680.47h-17.24l-.54,25.6c5.45-.7,11.23-1.41,17.27-2.14l.51-23.46Z" fill="currentcolor"/><path d="M138.9,696.85c5.63-5.97,10.43-12.54,8.79-23.26-1.78-11.63-10.91-13.85-18.7-13.85l-60.99-.31s19.58,11.43,33.48,14.37c13.9,2.95,26.29,3.43,26.82,6.87.4,2.63-.79,4.55-2.04,6.17-3.4,4.35-7.91,7.89-11.84,11.43,1.91,1.23,4.28,2.85,6.62,4.77,6.82-.79,13.96-1.59,21.39-2.37-1.13-1.36-2.32-2.64-3.52-3.81Z" fill="currentcolor"/><path d="M920.68,702.98c8.81-11.87,35.32-25.86,35.32-25.86-13.5,0-28.99,6.38-32.54,9.25l.61-3.05h-15.44l-5.52,26.87c5.72-1.02,11.3-2.06,16.74-3.13l.83-4.08Z" fill="currentcolor"/></g></g></g></g></svg>