<?xml version="1.0" encoding="UTF-8"?><svg xmlns="http://www.w3.org/2000/svg" viewBox="0 0 1024 1024"><title>aodc20jp logo</title><desc>Copyright &#xa9; 2026 Pearlpuppy. All rights reserved.</desc><metadata><rdf:RDF xmlns:rdf="http://www.w3.org" xmlns:dc="http://purl.org"><rdf:Description rdf:about=""><dc:title>aodc20jp logo</dc:title><dc:creator>Pierre Pearlpuppy</dc:creator><dc:rights>Copyright &#xa9; 2026 Pearlpuppy. All rights reserved.</dc:rights><dc:date>2026-03-20</dc:date><dc:format>image/svg+xml</dc:format></rdf:Description></rdf:RDF></metadata><g isolation="isolate"><g id="logo-aodc20jp"><g id="aodc20jp"><g data-fc="#979797"><path d="M226.42,688.65c-1.73,6.63-3.46,13.25-5.18,19.88,11.15-9.42,22.27-16.37,33-20.86l2.89-23.84c-10.47,5.08-20.77,13.34-30.71,24.83Z" fill="currentcolor"/><path d="M210.72,748.83v-108.51l-7.94-5.5v-7.82l-50.79-36.74v138.02l41.79,11.69v75.29h16.93v-58.14c12.16-5.45,24.44-9.54,36.59-12.23l2.77-22.89c-12.09,3.52-24.41,8.96-36.62,16.35-.91,3.5-1.82,6.99-2.74,10.49ZM193.79,720.06l-24.86-8.79v-32.63l24.86,11.55v29.87ZM193.79,670.28l-24.86-13.39v-32.63l24.86,16.15v29.87Z" fill="currentcolor"/><path d="M338.15,688.65c-9.91-11.4-20.17-19.85-30.58-24.95l2.91,24.02c10.71,4.49,21.82,11.43,32.96,20.81-1.76-6.63-3.52-13.25-5.28-19.87Z" fill="currentcolor"/><path d="M362.12,627v7.82l-7.94,5.5v108.58c-.94-3.54-1.89-7.07-2.83-10.62-12.26-7.39-24.62-12.8-36.74-16.32l2.74,22.65c12.22,2.7,24.58,6.9,36.83,12.39v58.26h16.93v-75.29l41.79-11.69v-138.02l-50.79,36.74ZM395.98,711.27l-24.86,8.79v-29.87l24.86-11.55v32.63ZM395.98,656.89l-24.86,13.39v-29.87l24.86-16.15v32.63Z" fill="currentcolor"/></g><g data-fc="#d10515"><path d="M257.88,663.45l-11.48,97.54c-1.99,18.01-3.96,35.94-5.88,53.79h24.02c1.07-23.21,2.15-48.87,3.27-73.43,9.72-.92,19.49-1.04,29.21-.12,1.24,24.56,2.45,50.33,3.63,73.55h23.98l-17.81-151.45c-16.21-7.68-32.77-7.48-48.94.12ZM268.92,718c.57-11.8,1.14-23.6,1.72-35.4,7.74-1.44,15.53-1.44,23.27,0,.63,11.8,1.26,23.6,1.89,35.4-8.94-1.13-17.94-1.13-26.87,0Z" fill="currentcolor"/><path d="M152,208.73h120v200h-40v-80h-40v80h-40v-200ZM232,288.73v-40h-40v40h40Z" fill="currentcolor"/><path d="M472,208.73v200h-120v-200h120ZM432,368.73v-120h-40v120h40Z" fill="currentcolor"/><path d="M632,248.09l.64.64h39.36v120h-39.36l-.64.64v39.36h-80v-200h80v39.36ZM632,249.37l-.64-.64h-39.36v120h39.36l.64-.64v-118.72Z" fill="currentcolor"/><path d="M872,248.73h-80v120h80v40h-120v-200h120v40Z" fill="currentcolor"/><path d="M182.64,467.17h-30.64v-15.32h45.96v45.96h-30.64v15.32h30.64v15.32h-45.96v-45.96h30.64v-15.32Z" fill="currentcolor"/><path d="M274.55,451.86v76.6h-45.96v-76.6h45.96ZM259.23,513.13v-45.96h-15.32v45.96h15.32Z" fill="currentcolor"/><path d="M335.83,467.17h-30.64v-15.32h45.96v45.96h-30.64v15.32h30.64v15.32h-45.96v-45.96h30.64v-15.32Z" fill="currentcolor"/><path d="M427.74,451.86v76.6h-45.96v-76.6h45.96ZM412.43,513.13v-45.96h-15.32v45.96h15.32Z" fill="currentcolor"/><path d="M550.3,451.86h15.32v76.6h-45.96v-15.32h30.64v-61.28Z" fill="currentcolor"/><path d="M596.26,451.86h45.96v76.6h-15.32v-30.64h-15.32v30.64h-15.32v-76.6ZM626.89,482.49v-15.32h-15.32v15.32h15.32Z" fill="currentcolor"/><path d="M672.85,451.86h45.96v45.96h-30.64v30.64h-15.32v-76.6ZM703.49,482.49v-15.32h-15.32v15.32h15.32Z" fill="currentcolor"/><path d="M749.45,451.86h45.96v76.6h-15.32v-30.64h-15.32v30.64h-15.32v-76.6ZM780.09,482.49v-15.32h-15.32v15.32h15.32Z" fill="currentcolor"/><path d="M826.04,451.86h45.96v76.6h-15.32v-61.28h-15.32v61.28h-15.32v-76.6Z" fill="currentcolor"/></g><g data-fc="#000"><path d="M502.17,619.66h25.8v43h-8.6v-17.2h-8.6v17.2h-8.6v-43ZM519.37,636.86v-8.6h-8.6v8.6h8.6Z"/><path d="M553.77,628.26v8.6h17.2v25.8h-25.8v-8.6h17.2v-8.6h-17.2v-25.8h25.8v8.6h-17.2Z"/><path d="M588.18,619.66h8.6v43h-8.6v-43Z"/><path d="M613.98,619.66h25.8v43h-8.6v-17.2h-8.6v17.2h-8.6v-43ZM631.18,636.86v-8.6h-8.6v8.6h8.6Z"/><path d="M527.97,695.96v43h-25.8v-43h25.8ZM519.37,730.36v-25.8h-8.6v25.8h8.6Z"/><path d="M545.17,695.96h25.8v25.8h-17.2v17.2h-8.6v-43ZM562.37,713.16v-8.6h-8.6v8.6h8.6Z"/><path d="M613.98,704.56h-17.2v8.6h8.6v8.6h-8.6v8.6h17.2v8.6h-25.8v-43h25.8v8.6Z"/><path d="M631.18,695.96h25.8v43h-8.6v-34.4h-8.6v34.4h-8.6v-43Z"/><path d="M725.79,704.42l.14.14h8.46v25.8h-8.46l-.14.14v8.46h-17.2v-43h17.2v8.46ZM725.79,704.7l-.14-.14h-8.46v25.8h8.46l.14-.14v-25.53Z"/><path d="M751.59,695.96h25.8v43h-8.6v-17.2h-8.6v17.2h-8.6v-43ZM768.79,713.16v-8.6h-8.6v8.6h8.6Z"/><path d="M820.39,695.96v8.6h-8.6v34.4h-8.6v-34.4h-8.6v-8.6h25.8Z"/><path d="M837.6,695.96h25.8v43h-8.6v-17.2h-8.6v17.2h-8.6v-43ZM854.8,713.16v-8.6h-8.6v8.6h8.6Z"/><path d="M527.97,780.86h-17.2v25.8h17.2v8.6h-25.8v-43h25.8v8.6Z"/><path d="M562.37,772.26h8.6v43h-8.6v-17.2h-8.6v17.2h-8.6v-43h8.6v17.2h8.6v-17.2Z"/><path d="M588.18,772.26h25.8v43h-8.6v-17.2h-8.6v17.2h-8.6v-43ZM605.38,789.46v-8.6h-8.6v8.6h8.6Z"/><path d="M639.78,806.67h17.2v8.6h-25.8v-43h8.6v34.4Z"/><path d="M682.78,806.67h17.2v8.6h-25.8v-43h8.6v34.4Z"/><path d="M742.99,780.86h-17.2v8.6h8.6v8.6h-8.6v8.6h17.2v8.6h-25.8v-43h25.8v8.6Z"/><path d="M760.19,772.26h25.8v43h-8.6v-34.4h-8.6v34.4h-8.6v-43Z"/><path d="M829,789.46v25.8h-25.8v-43h25.8v8.6h-17.2v25.8h8.6v-17.2h8.6Z"/><path d="M872,780.86h-17.2v8.6h8.6v8.6h-8.6v8.6h17.2v8.6h-25.8v-43h25.8v8.6Z"/></g></g></g></g></svg>