<?xml version="1.0" encoding="UTF-8"?><svg xmlns="http://www.w3.org/2000/svg" viewBox="0 0 1024 1024"><title>locoico logo</title><desc>Copyright &#xa9; 2026 Pearlpuppy. All rights reserved.</desc><metadata><rdf:RDF xmlns:rdf="http://www.w3.org" xmlns:dc="http://purl.org"><rdf:Description rdf:about=""><dc:title>locoico logo</dc:title><dc:creator>Pierre Pearlpuppy</dc:creator><dc:rights>Copyright &#xa9; 2026 Pearlpuppy. All rights reserved.</dc:rights><dc:date>2026-03-20</dc:date><dc:format>image/svg+xml</dc:format></rdf:Description></rdf:RDF></metadata><g isolation="isolate"><g id="logo-locoico"><g id="locoico"><g data-fc="#bcc03f"><path d="M297.69,743.54c-1.47,20.89-2.37,41.12-2.72,60.73-32.37,1.93-64.73,2.47-97.1.97-2.52-16.1-4.47-32.81-5.87-50.13,35.23-2.01,70.46-6.1,105.69-11.56ZM260.76,757.65c-10.59,1.18-21.19,2.21-31.78,3.08.4,12.77,1.06,25.24,2,37.41,9.99-.11,19.97-.4,29.96-.83-.33-12.91-.4-26.13-.19-39.65Z" fill="currentcolor"/><path d="M396.01,794.48c-30.52,3.87-61.03,7.12-91.54,9.19.09-3.04.2-6.09.32-9.16,19.52-1.62,39.04-3.72,58.55-6.14,1.74-15.45,3.74-31.22,6.03-47.3-20.7,3.86-41.4,7.41-62.1,10.49.24-3.2.49-6.42.76-9.66,33.21-5.44,66.44-12.04,99.66-19.19-4.46,24.58-8.35,48.5-11.68,71.77Z" fill="currentcolor"/><path d="M482.1,739.77c4.84-.94,9.68-1.89,14.52-2.84-3.7,15.15-7.22,30.1-10.57,44.85-11.26,1.68-22.51,3.35-33.77,4.99,1.53-7.73,3.11-15.51,4.74-23.36-5.34,5.01-10.6,9.92-15.78,14.73-11.4,1.76-22.79,3.48-34.19,5.12,26.02-23.63,54.15-50.1,84.4-79,12.31-2.86,24.63-5.74,36.94-8.59-15.99,15.32-31.42,30.04-46.3,44.11Z" fill="currentcolor"/><path d="M607.97,764.45c-30.51,3.79-61.03,8.23-91.54,12.79,1.05-4.17,2.11-8.35,3.18-12.55,19.52-3.16,39.03-6.27,58.55-9.19,6.08-20.42,12.43-41.13,19.05-62.13-20.7,4.14-41.4,8.51-62.1,12.98,1.19-4.33,2.4-8.67,3.62-13.03,33.23-7.57,66.46-14.91,99.7-21.41-10.72,31.44-20.87,62.29-30.46,92.55Z" fill="currentcolor"/><path d="M722.6,639.91c-10.31,26.55-20.27,52.77-29.86,78.64-11.7,1.25-23.4,2.67-35.09,4.21,8.81-25.16,17.97-50.68,27.48-76.55,12.49-2.27,24.98-4.38,37.47-6.31ZM651.1,741.57c11.5-1.36,23-2.59,34.5-3.68-2.35,6.43-4.69,12.83-7,19.22-11.3.9-22.6,1.96-33.9,3.13,2.11-6.2,4.25-12.42,6.41-18.67Z" fill="currentcolor"/><path d="M768.51,692.92c-2.83,6.81-5.63,13.61-8.41,20.39-11.7.53-23.4,1.28-35.1,2.21,5.17-13.24,10.42-26.57,15.76-39.98,12.1-1.25,24.19-2.3,36.28-3.12,2.87-6.85,5.76-13.72,8.67-20.62-18.44,1.44-36.88,3.42-55.32,5.84,2.62-6.67,5.25-13.35,7.92-20.06,31.23-4.42,62.45-7.6,93.68-9.05-9.47,21.18-18.74,42.2-27.81,63.06-11.89.2-23.79.65-35.69,1.33ZM709.77,755.01c2.49-6.54,5.01-13.1,7.55-19.68,11.5-.77,23-1.36,34.5-1.75-2.73,6.74-5.45,13.46-8.14,20.16-11.3.23-22.6.66-33.9,1.27Z" fill="currentcolor"/><path d="M496.49,217.9c-50.66,0-96.91,18.87-132.12,49.95-14.64,4.19-37.4,7.35-71.49,4.57-73.57-6.02-98.32-50.83-98.32-50.83,0,0,30.28,63.91,59.62,88.81,15.89,13.49,39.06,24.96,56.97,32.65-9.3,23.06-14.42,48.25-14.42,74.63,0,110.33,89.44,199.77,199.77,199.77s332.95-199.77,332.95-199.77c0,0-222.62-199.77-332.95-199.77ZM441.51,476.86c-32.69,0-59.19-26.5-59.19-59.19s26.5-59.19,59.19-59.19,59.19,26.5,59.19,59.19-26.5,59.19-59.19,59.19Z" fill="currentcolor"/></g></g></g></g></svg>