<?xml version="1.0" encoding="UTF-8"?><svg xmlns="http://www.w3.org/2000/svg" viewBox="0 0 1024 1024"><title>pod logo</title><desc>Copyright &#xa9; 2026 Pearlpuppy. All rights reserved.</desc><metadata><rdf:RDF xmlns:rdf="http://www.w3.org" xmlns:dc="http://purl.org"><rdf:Description rdf:about=""><dc:title>pod logo</dc:title><dc:creator>Pierre Pearlpuppy</dc:creator><dc:rights>Copyright &#xa9; 2026 Pearlpuppy. All rights reserved.</dc:rights><dc:date>2026-03-20</dc:date><dc:format>image/svg+xml</dc:format></rdf:Description></rdf:RDF></metadata><g isolation="isolate"><g id="logo-pod"><g id="pod"><g data-fc="#006"><path d="M141.9,587.99c13.19,7.59,24.78.15,28.69-6.59,4.39-7.6,3.59-21.05-8.63-28.09-10.94-6.3-23.49-2.4-28.57,6.38-5.14,8.88-2.96,21.69,8.51,28.3Z" fill="currentcolor"/><path d="M188.63,394.36l78.79,45.39-7.55,13.05-7.29-4.2-.12.21c2.74,5.15,4.08,14.19-1.74,24.25-6.75,11.67-20.99,19.08-35.98,16.73,9.61,11.84,10.16,27.9,2.79,40.63-7.67,13.27-22.41,19.73-36.49,17.96,8.91,11.03,10.97,26.13,3.68,38.74-5.82,10.06-12.49,12.21-18.2,13.91l25.52,14.7-8.05,13.92c41.4.64,81.9-20.5,104.07-58.82,32.57-56.28,13.24-128.24-43.16-160.73-17.77-10.24-37.1-15.32-56.27-15.74Z" fill="currentcolor"/><path d="M304.55,460.44l2.31-.29c4.53-.48,4.53-1.83,4.53-11.36v-35.14c0-9.43,0-10.88-4.53-11.46l-2.31-.29v-2.5h25.6c11.84,0,25.7,2.12,25.7,17.04,0,16.27-15.79,20.41-25.89,20.7v-3.66c7.12-.96,13.38-4.04,13.38-15.69,0-10.11-6.64-14.73-14.73-14.73-1.63,0-3.18.29-4.72.67v45.05c0,9.53.1,10.88,4.62,11.36l3.66.29v2.5h-27.63v-2.5Z" fill="currentcolor"/><path d="M363.46,510.34c0-15.31,6.07-28.49,19.45-28.49,14.92,0,20.7,14.73,20.7,30.61s-6.07,28.49-19.54,28.49c-14.83,0-20.6-14.73-20.6-30.61ZM383,544.61c18.58,0,34.65-12.32,34.65-34.46s-15.11-31.96-33.69-31.96-34.56,12.32-34.56,34.46,15.11,31.96,33.59,31.96Z" fill="currentcolor"/><path d="M323.71,564.37c2.6-.48,5.2-.86,7.89-.86,15.79,0,25.8,8.85,25.8,27.63s-8.86,28.59-24.26,28.59c-3.18,0-6.35-.67-9.43-1.54v-53.81ZM304.36,623.37h23.01c42.07,0,44.09-25.7,44.09-32.15,0-29.84-23.49-31.38-36.96-31.38h-30.13v2.5l2.31.29c4.52.87,4.52,1.16,4.52,11.46v35.04c0,9.82,0,10.78-4.52,11.46l-2.31.29v2.5Z" fill="currentcolor"/></g><g data-fc="#09c"><path d="M201.19,442.53c-6.13,10.59-.29,23.24,8.07,28.05,11.04,6.37,23.86,2.76,29.24-6.55,6.2-10.69.5-23.1-8.51-28.29-9.76-5.62-22.99-3.26-28.81,6.79Z" fill="currentcolor"/><path d="M104.46,584.25l7.56-13.06,6.97,4.02.12-.21c-4.92-12.25.53-21.67,2.14-24.45,8.22-14.22,22.58-18.33,35.44-16.24-8.82-11.56-10.07-27.62-2.63-40.46,7.48-12.92,22.15-19.97,36.82-17.77-9.9-12.14-10.06-28.47-3.63-39.58,5.01-8.67,10.88-12.13,17.69-13.78l-25.1-14.45,8.05-13.91c-41.39-.64-81.89,20.51-104.06,58.82-32.56,56.27-13.23,128.24,43.16,160.73,17.78,10.24,37.11,15.32,56.28,15.75l-78.8-45.39Z" fill="currentcolor"/><path d="M371,461.18l2.89-.24c3.13-.32,3.13-.72,3.13-10.51v-27.91c0-9.79,0-10.19-3.13-10.51l-2.89-.24v-1.76h19.49v1.76l-2.89.24c-3.13.32-3.13.72-3.13,10.51v11.39h28.56v-11.39c0-9.79,0-10.19-3.13-10.51l-2.89-.24v-1.76h19.49v1.76l-2.89.24c-3.13.32-3.13.72-3.13,10.51v27.91c0,9.79,0,10.19,3.13,10.51l2.89.24v1.77h-19.49v-1.77l2.89-.24c3.13-.32,3.13-.72,3.13-10.51v-14.28h-28.56v14.28c0,9.79,0,10.19,3.13,10.51l2.89.24v1.77h-19.49v-1.77Z" fill="currentcolor"/><path d="M450.33,461.18l2.89-.24c3.13-.32,3.13-.72,3.13-10.51v-27.91c0-9.79,0-10.19-3.13-10.51l-2.89-.24v-1.76h19.49v1.76l-2.89.24c-3.13.32-3.13.72-3.13,10.51v27.91c0,9.79,0,10.19,3.13,10.51l2.89.24v1.77h-19.49v-1.77Z" fill="currentcolor"/><path d="M493.24,461.18l2.89-.24c3.13-.32,3.13-.72,3.13-10.51v-27.91c0-9.79,0-10.19-3.13-10.51l-2.89-.24v-1.76h19.49v1.76l-2.89.24c-3.13.32-3.13.72-3.13,10.51v37.22c2.89.48,5.85.96,8.74.96,11.87,0,12.67-4.81,14.28-11.39l2.01.32c-.24,5.13-1.28,8.9-2.65,13.31h-35.86v-1.77Z" fill="currentcolor"/><path d="M560.22,435.35c0-13.88,7.06-23.9,19.09-23.9s20.13,11.47,20.13,26.63c0,11.71-5.13,23.42-18.77,23.42-12.11,0-20.46-9.79-20.46-26.15ZM579.15,464.15c15.88,0,28.72-10.51,28.72-28.16s-12.43-27.19-27.19-27.19c-15.48,0-28.88,10.75-28.88,28.08s11.47,27.28,27.35,27.28Z" fill="currentcolor"/><path d="M652.47,432.55c6.33,3.61,12.91,6.98,12.91,16.6,0,10.83-10.03,15-18.53,15-6.26,0-10.11-1.69-12.6-3.21-1.44-3.13-2.57-9.06-2.57-14.12l2.57-.64c.88,5.78,3.85,15.32,14.84,15.32,5.53,0,9.62-3.61,9.62-9.87,0-5.86-4.89-9.87-11.15-12.67l-5.13-2.81c-4.57-2.49-8.83-7.46-8.83-13.48,0-9.79,8.18-13.88,16.69-13.88,4.97,0,8.99,1.28,11.07,2.57.64,2.56.8,9.06.8,11.07h-2.01c-.8-4.01-2.09-10.99-11.15-10.99-4.65,0-8.74,3.37-8.74,8.74,0,4.73,3.45,7.3,7.78,9.87l4.41,2.49Z" fill="currentcolor"/><path d="M697.79,435.35c0-13.88,7.06-23.9,19.09-23.9s20.13,11.47,20.13,26.63c0,11.71-5.13,23.42-18.77,23.42-12.11,0-20.46-9.79-20.46-26.15ZM716.72,464.15c15.88,0,28.72-10.51,28.72-28.16s-12.43-27.19-27.19-27.19c-15.48,0-28.88,10.75-28.88,28.08s11.47,27.28,27.35,27.28Z" fill="currentcolor"/><path d="M769.98,461.18l2.89-.24c3.13-.32,3.13-.72,3.13-10.51v-27.91c0-9.79,0-10.19-3.13-10.51l-2.89-.24v-1.76h20.94c7.62,0,19.49,1.2,19.49,14.44,0,10.91-12.19,15.96-19.73,15.96h-1.36v-1.76c3.45,0,12.67-1.6,12.67-13.72,0-9.38-6.34-12.27-13.56-12.27-1.69,0-3.37.32-4.97.64v37.14c0,9.79,0,10.19,4.41,10.51l2.89.24v1.77h-20.77v-1.77Z" fill="currentcolor"/><path d="M832.39,461.18l2.89-.24c3.13-.32,3.13-.72,3.13-10.51v-27.91c0-9.79,0-10.19-3.13-10.51l-2.89-.24v-1.76h19.49v1.76l-2.89.24c-3.13.32-3.13.72-3.13,10.51v11.39h28.56v-11.39c0-9.79,0-10.19-3.13-10.51l-2.89-.24v-1.76h19.49v1.76l-2.89.24c-3.13.32-3.13.72-3.13,10.51v27.91c0,9.79,0,10.19,3.13,10.51l2.89.24v1.77h-19.49v-1.77l2.89-.24c3.13-.32,3.13-.72,3.13-10.51v-14.28h-28.56v14.28c0,9.79,0,10.19,3.13,10.51l2.89.24v1.77h-19.49v-1.77Z" fill="currentcolor"/><path d="M920.3,461.18l3.45-.24c3.93-.08,3.93-2.4,3.93-4.89v-10.27c0-2.89-1.92-6.5-3.69-9.87l-10.67-19.98c-1.12-2.08-2.08-3.69-4.25-3.93l-2.33-.24v-1.76h20.37v1.76l-2.97.24c-1.28.16-3.61.4-3.61,2.01,0,1.76,10.67,21.18,12.76,24.55,2.01-3.21,12.11-22.86,12.11-24.06,0-1.61-1.6-2.01-3.13-2.25l-3.61-.48v-1.76h17.33v1.76l-2.09.48c-.88.16-1.77.64-2.41,1.28-3.21,3.05-5.86,7.86-9.87,15.56l-3.61,6.82c-1.84,3.37-2.89,6.82-2.89,9.87v10.27c0,2.49,0,4.82,3.93,4.89l3.45.24v1.77h-22.22v-1.77Z" fill="currentcolor"/><path d="M426.04,541.39l2.89-.24c3.13-.32,3.13-.72,3.13-10.51v-27.91c0-9.79,0-10.19-3.13-10.51l-2.89-.24v-1.76h35.38c.32,1.76.88,4.81.88,8.5,0,1.84-.16,2.49-.16,3.21l-1.93.32c-1.76-8.58-1.92-9.78-13.23-9.78h-7.46v23.34h7.94c6.26,0,7.7-.08,8.18-3.37l.4-2.73h2.09v14.44h-2.09l-.4-2.73c-.48-3.29-1.93-3.37-8.18-3.37h-7.94v12.59c0,9.79,0,10.19,4.41,10.51l2.89.24v1.77h-20.77v-1.77Z" fill="currentcolor"/><path d="M390.14,621.61l2.89-.24c3.13-.32,3.13-.72,3.13-10.51v-27.91c0-9.79,0-10.19-3.13-10.51l-2.89-.24v-1.76h34.57c.32,1.76.88,4.81.88,8.5,0,1.84-.16,2.49-.16,3.21l-1.92.32c-1.76-8.58-1.93-9.78-13.24-9.78h-6.66v22.06h7.14c6.26,0,7.7-.08,8.18-3.37l.4-2.73h2.09v14.44h-2.09l-.4-2.73c-.48-3.29-1.92-3.37-8.18-3.37h-7.14v23.1c2.89.56,5.86,1.04,8.74,1.04,12.75,0,13.56-4.81,15.16-11.39l2.01.32c-.24,5.13-1.28,8.9-2.65,13.31h-36.74v-1.77Z" fill="currentcolor"/><path d="M470.91,592.98c6.34,3.61,12.91,6.98,12.91,16.6,0,10.83-10.03,15-18.53,15-6.26,0-10.11-1.69-12.59-3.21-1.45-3.13-2.57-9.06-2.57-14.12l2.57-.64c.88,5.78,3.85,15.32,14.84,15.32,5.53,0,9.63-3.61,9.63-9.87,0-5.86-4.89-9.87-11.15-12.67l-5.14-2.81c-4.57-2.49-8.82-7.46-8.82-13.48,0-9.79,8.18-13.88,16.69-13.88,4.97,0,8.98,1.28,11.07,2.57.64,2.56.8,9.06.8,11.07h-2.01c-.8-4.01-2.08-10.99-11.15-10.99-4.65,0-8.74,3.37-8.74,8.74,0,4.73,3.45,7.3,7.78,9.87l4.41,2.49Z" fill="currentcolor"/><path d="M506.77,621.61l2.89-.24c3.13-.32,3.13-.72,3.13-10.51v-27.91c0-9.79,0-10.19-3.13-10.51l-2.89-.24v-1.76h19.49v1.76l-2.89.24c-3.13.32-3.13.72-3.13,10.51v27.91c0,9.79,0,10.19,3.13,10.51l2.89.24v1.77h-19.49v-1.77Z" fill="currentcolor"/><path d="M601.42,620.57c-2.73,1.04-11.47,4.01-20.05,4.01-16.12,0-30.56-7.06-30.56-27.52s17.25-27.83,29.92-27.83c8.18,0,14.28,2.01,16.37,3.29.72,3.21,1.28,7.86,1.28,11.87l-2.16.48c-.8-3.21-1.85-13-15.56-13s-21.42,8.66-21.42,23.66c0,13.72,6.98,26.39,22.7,26.39,2.89,0,6.57-.32,9.38-1.04v-2.97c0-9.79,0-10.19-5.61-10.51l-2.89-.24v-1.76h20.37v1.76l-2.89.24c-1.53.32-1.53.72-1.53,8.5,0,2.4,0,2.89,1.28,2.89h.8l.56,1.77Z" fill="currentcolor"/><path d="M623.8,621.61l2.89-.24c3.13-.24,3.69-2.73,3.69-11.39v-39.55l1.85-.72c6.66,8.5,30.32,33.05,39.07,41.63v-27.51c0-8.83,0-10.99-4.41-11.39l-2.89-.24v-1.76h17.33v1.76l-2.89.24c-2.89.24-3.45,2.73-3.45,11.39v39.54l-1.76.72c-1.77-1.85-6.74-7.14-15.08-15.72l-24.06-25.43v27.03c0,8.83,0,10.99,4.17,11.39l2.89.24v1.77h-17.32v-1.77Z" fill="currentcolor"/></g></g></g></g></svg>