<?xml version="1.0" encoding="UTF-8"?><svg xmlns="http://www.w3.org/2000/svg" viewBox="0 0 1024 1024"><title>yonemaru logo</title><desc>Copyright &#xa9; 2026 Pearlpuppy. All rights reserved.</desc><metadata><rdf:RDF xmlns:rdf="http://www.w3.org" xmlns:dc="http://purl.org"><rdf:Description rdf:about=""><dc:title>yonemaru logo</dc:title><dc:creator>Pierre Pearlpuppy</dc:creator><dc:rights>Copyright &#xa9; 2026 Pearlpuppy. All rights reserved.</dc:rights><dc:date>2026-03-20</dc:date><dc:format>image/svg+xml</dc:format></rdf:Description></rdf:RDF></metadata><g isolation="isolate"><g id="logo-yonemaru"><g id="yonemaru"><g data-fc="#956134"><path d="M88.05,792.34c-9.58,0-20.05-8.91-20.05-17.37,0-6.79,6.79-11.69,17.71-11.69,4.12,0,8.58.67,13.03,1.89.11-2.45.11-4.9.11-6.9-.56-22.16-1.11-31.85-2.67-47.67v-.67c0-3.56,2.67-5.24,5.57-5.24s6.01,1.78,6.13,5.46c.22,5.68.45,11.03.67,16.59,1.11-.11,2.12-.22,3.01-.33,3.23-.56,6.24-2.01,8.02-3.12,1.23-.78,2.56-1.23,3.79-1.23,3.45,0,6.24,2.9,6.24,5.9,0,5.57-10.13,8.46-20.83,9.24.11,5.79.11,12.25.11,19.94,0,3.01,0,7.46-.22,11.69,4.9,2.23,9.47,5.13,13.03,8.35,1.89,1.67,2.56,3.68,2.56,5.57,0,3.56-2.56,6.91-5.79,6.91-1.56,0-3.23-.78-4.79-2.56-2.12-2.45-4.68-4.68-7.35-6.68-3.12,6.24-10.02,11.92-18.27,11.92ZM85.82,772.18c-6.46,0-7.46,2.34-7.46,3.79,0,2.45,3.9,6.57,9.02,6.57,4.23,0,8.24-2.9,9.8-7.57-3.9-1.78-7.8-2.78-11.36-2.78Z" fill="currentcolor"/><path d="M167.77,769.95c-2.12,3.79-3.68,7.57-5.79,11.36-1.67,2.9-4.12,4.12-6.24,4.12-2.67,0-4.9-1.78-4.9-4.45,0-1.23.45-2.56,1.56-4.12,1-1.34,1.78-1.89,2.78-3.45,2.56-3.79,5.46-7.91,8.69-11.92,2.23-3.68,4.46-7.69,6.24-11.36.22-2.12.45-4.34.67-6.46-2.45,1.11-5.35,3.01-8.13,4.79-1.45.89-2.78,1.34-3.9,1.34-2.67,0-4.34-2.34-4.34-4.68,0-1.78.89-3.56,2.9-4.57,4.46-2.23,9.47-4.79,14.37-6.91.89-9.13,1.56-17.04,1.67-21.72.11-3.34,2.45-4.9,4.9-4.9s5.23,1.78,5.23,4.68q0,.11-1.89,18.93c2.78.22,4.46,2.23,4.46,4.9,0,.89-.22,1.78-.56,2.78,9.13-8.02,19.16-14.14,27.18-14.14,16.04,0,16.6,25.06,16.6,30.4s-.78,10.03-2.23,14.14c12.25,6.24,12.7,10.36,12.7,11.7,0,3.23-2.9,6.01-5.9,6.01-1.23,0-2.56-.44-3.68-1.67-2.56-2.67-5.57-5.12-8.69-7.13-5.46,6.24-12.92,10.47-20.49,10.47s-15.48-4.57-15.48-10.92c0-6.68,8.46-13.92,20.38-13.92,3.68,0,7.57.67,11.25,1.67,1.11-3.45,1.56-7.02,1.56-10.58s-.45-7.02-.89-10.58c-.89-6.9-3.56-9.91-7.69-9.91-7.02,0-18.04,8.91-30.74,21.72-.33,5.34-.56,10.58-.56,15.48,0,5.46.33,10.47,1,14.48.11.33.11.78.11,1.11,0,3.45-2.9,5.57-5.79,5.57-4.9,0-5.68-4.34-5.68-12.7,0-3.01.11-6.46.33-10.25l-1,.67ZM204.19,771.4c-6.68,0-9.02,3.34-9.02,4.68,0,.56.22,3.12,5.46,3.12,3.68,0,8.35-1.78,12.03-6.13-3.01-1.11-5.79-1.67-8.46-1.67Z" fill="currentcolor"/><path d="M280.01,795.79c-9.36,0-18.6-6.12-18.6-14.14,0-10.47,13.37-12.81,21.72-12.81,2.78,0,5.57.22,8.35.67v-1.89c0-1.67-.11-3.45-.22-5.46-.33-3.45-.67-7.02-.89-10.8-3.12.67-5.9,1.11-8.46,1.11-2.12,0-13.48-.89-13.48-8.35,0-2.12.89-5.79,8.24-12.25,1.45-1.23,2.45-2.34,2.45-3.56,0-3.01-9.47-6.35-16.71-6.46-4.01,0-5.9-2.34-5.9-4.68,0-2.56,2.01-5.01,6.01-5.01,4.9,0,23.28,4.12,26.73,11.92v-5.24c0-4.57.11-8.91.22-12.58.11-3.9,2.56-5.57,5.12-5.57,2.9,0,5.79,2.12,5.79,5.57v.44c-.56,7.46-1.11,18.04-1.11,28.62v3.01c2.23-1.11,3.79-2.34,5.35-3.9,1.34-1.34,2.67-1.89,4.01-1.89,2.78,0,5.23,2.56,5.23,5.46,0,5.46-9.24,9.24-14.37,10.92.22,4.23.45,8.24.89,11.69.33,3.12.78,7.35.89,11.47,8.13,2.9,16.71,8.13,16.71,13.59,0,3.34-2.56,6.24-5.57,6.24-1.56,0-3.23-.78-4.79-2.56-2.12-2.45-4.68-4.68-7.69-6.46-3.01,6.79-10.69,12.92-19.94,12.92ZM281.34,777.41c-7.8,0-10.25,2-10.25,4.12,0,2.9,4.23,4.79,8.02,4.79,5.01,0,9.69-3.23,11.03-7.69-2.9-.78-5.9-1.22-8.8-1.22ZM289.36,729.75c-.67,1.67-1.89,3.23-3.56,4.68-6.46,5.12-6.57,6.79-6.57,7.13,0,1.45,1.78,1.56,3.12,1.56,2.01,0,4.79-.44,7.46-1.22-.22-4.01-.33-8.13-.45-12.14Z" fill="currentcolor"/><path d="M394.81,762.16c0-11.69-14.14-11.69-15.15-11.69-12.47,0-22.05,9.13-26.62,14.81-1.23,1.56-2.9,2.23-4.46,2.23-3.01,0-5.9-2.34-5.9-5.35,0-1.45.67-3.01,2.23-4.57,16.04-15.81,32.3-35.64,32.3-36.87,0-.22-.11-.33-.33-.33s-.45.11-.78.22c-8.35,5.23-18.93,8.13-22.27,8.13-3.79,0-5.79-2.78-5.79-5.46,0-2.34,1.45-4.57,4.68-4.9,11.03-1,25.06-6.02,28.18-7.57,1.34-.67,2.78-.89,4.01-.89,4.12,0,7.35,3.01,7.35,6.57,0,1.78-.78,3.68-2.56,5.46-7.57,7.24-16.15,16.71-23.17,24.5,4.79-3.12,10.47-4.45,15.93-4.45,11.81,0,23.5,7.24,23.5,19.6,0,14.92-15.37,29.18-34.64,29.18-13.37,0-20.38-7.69-20.38-14.26,0-6.01,5.57-10.47,12.47-10.47,9.69,0,16.37,5.34,17.37,13.92,4.79-1.23,14.03-9.13,14.03-17.82ZM364.4,774.07c-3.79,0-3.9,2.45-3.9,2.9,0,4.34,7.57,4.9,10.36,4.9h.78c-.33-4.79-2.78-7.8-7.24-7.8Z" fill="currentcolor"/><path d="M442.23,741.55c-2.23,0-4.57,1.23-5.35,4.12-2.56,8.8-6.68,16.04-12.36,22.39-1.45,1.56-2,3.12-2,4.57,0,3.12,2.78,5.57,6.13,5.57,2,0,4.12-.78,5.9-2.78,6.24-6.79,13.7-23.95,13.7-28.4,0-3.34-3.01-5.46-6.01-5.46Z" fill="currentcolor"/><path d="M497.58,766.17c-2.78,0-5.46,1.67-5.46,5.68,0,12.14-6.35,12.92-15.59,12.92-7.13,0-11.03-1.11-11.03-5.9.11-12.59.56-32.52,1.11-49.67v-.22c0-3.34-2.9-5.01-5.68-5.01s-5.68,1.67-5.68,5.23c-.33,17.15-.89,38.65-.89,51.23,0,13.25,10.02,14.7,21.5,14.7s28.07,0,28.07-22.5c0-6.35-5.57-6.46-6.35-6.46Z" fill="currentcolor"/><path d="M502.6,740.32c-1.22-.78-2.45-1.11-3.56-1.11-3.12,0-5.68,2.45-5.68,5.12,0,1.45.67,2.78,2.23,4.01,7.46,5.79,13.48,11.25,18.82,19.16,1.34,2,3.12,2.9,4.9,2.9,3.34,0,6.46-3.01,6.46-6.57,0-5.01-10.36-15.15-23.17-23.5Z" fill="currentcolor"/><path d="M631.17,783.21h-23.94v-10.92h17.71c3.12,0,4.57-2.23,4.57-4.45s-1.45-4.34-4.57-4.34h-17.71v-10.91c3.23,0,6.46-.11,9.69-.22,7.13-.33,11.7-5.12,12.03-10.91.22-4.45.33-9.13.33-13.59,0-5.23-.11-10.47-.33-15.48-.22-5.34-4.57-10.13-12.03-10.36-4.9-.22-9.91-.22-14.7-.22s-9.58,0-14.03.22c-8.46.33-11.7,5.46-11.92,10.47-.11,4.46-.22,9.47-.22,14.48s.11,10.02.22,14.59c.22,6.13,4.01,10.47,11.81,10.8,2.9.11,5.9.22,9.02.22v10.91h-16.82c-3.12,0-4.79,2.34-4.79,4.57s1.56,4.23,4.79,4.23h16.82v10.92h-27.95c-3.01,0-4.68,2.34-4.68,4.68,0,2.12,1.45,4.23,4.68,4.23h62.04c3.01,0,4.45-2.23,4.45-4.45s-1.45-4.45-4.45-4.45ZM607.22,709.92c9.02,0,11.58,0,11.8,4.57.11,2.67.11,5.46.11,8.24h-11.92v-12.81ZM607.22,730.86h12.03c0,11.36-.22,12.92-5.01,13.14-2.23.11-4.68.11-7.01.11v-13.25ZM597.09,744.11c-7.57,0-10.91,0-11.14-4.45-.11-2.9-.22-5.9-.22-8.8h11.36v13.25ZM597.09,722.73h-11.36c0-10.02.22-12.48,5.13-12.59,1.89-.11,4.01-.11,6.24-.11v12.7Z" fill="currentcolor"/><path d="M575.81,761.38c0-2.34-2-4.45-4.68-4.45-.89,0-1.67.11-2.56.56-2.67,1.22-5.46,2.45-8.35,3.56v-18.71h7.8c2.9,0,4.34-2.34,4.34-4.68s-1.45-4.68-4.34-4.68h-7.8v-17.04h9.8c2.9,0,4.34-2.34,4.34-4.68s-1.45-4.68-4.34-4.68h-29.74c-2.9,0-4.57,2.45-4.57,4.9,0,2.23,1.45,4.45,4.57,4.45h10.13v17.04h-8.46c-2.9,0-4.57,2.45-4.57,4.9,0,2.23,1.45,4.45,4.57,4.45h8.46v22.05c-4.01,1.23-8.02,2.34-12.14,3.45-2.56.67-3.79,2.78-3.79,4.9,0,2.56,1.67,5.12,4.9,5.12,4.12,0,22.5-7.24,32.97-12.03,2.45-1.11,3.45-2.9,3.45-4.45Z" fill="currentcolor"/><path d="M673.07,791.78c0,3.12-2.78,4.68-5.46,4.68s-5.46-1.56-5.46-4.68v-.11l.44-40.65c-3.45,5.68-7.24,10.92-11.25,15.37-1.33,1.45-2.78,2.01-4.23,2.01-3.01,0-5.68-2.45-5.68-5.23,0-1.23.56-2.45,1.78-3.68,6.13-5.68,14.37-16.26,19.38-26.62v-1.45l-12.81.22h-.11c-3.23,0-4.9-2.45-4.9-4.9s1.67-4.9,5.01-4.9h12.7l-.33-18.82v-.11c0-3.34,2.67-4.9,5.46-4.9s5.46,1.67,5.46,4.9v.11s-.22,8.8-.34,18.82h10.81c3.34,0,4.9,2.45,4.9,4.9s-1.56,4.9-4.79,4.9h-.11l-10.92-.22c0,2.78-.11,5.46-.11,7.91.45-.11.78-.22,1.23-.22,2.23,0,14.7,7.91,14.7,12.81,0,2.9-2.67,5.57-5.34,5.57-1.23,0-2.45-.56-3.45-1.89-1.78-2.34-4.57-5.35-7.02-7.46.11,17.38.45,43.55.45,43.55v.11ZM692.67,748.12c0-11.25.11-22.5.22-31.41.11-12.81,7.8-13.25,22.83-13.25,12.03,0,21.38.11,21.72,12.58.22,9.36.34,21.16.34,33.08,0,10.36-.11,20.72-.22,29.74-.22,12.25-6.12,14.81-19.49,14.81-18.6,0-24.84-.56-25.17-14.59-.11-8.69-.22-19.83-.22-30.96ZM727.64,739.66h-25.17v16.37h25.17v-16.37ZM727.53,730.19c-.11-3.68-.11-7.13-.22-10.13-.22-6.57-.78-6.91-12.03-6.91-2.34,0-4.68.11-6.79.22-5.79.33-5.9,2.12-5.9,16.82h24.95ZM702.58,765.5c0,4.12.11,8.02.22,11.36.11,6.35,1.78,6.9,13.7,6.9,10.36,0,10.69-2.45,10.8-7.24.11-3.34.11-7.13.22-11.03h-24.95Z" fill="currentcolor"/><path d="M755.68,725.74c-3.23,0-4.79-2.23-4.79-4.57s1.56-4.57,4.79-4.57h31.07c3.23,0,4.79,2.23,4.79,4.57s-1.56,4.57-4.79,4.57h-31.07ZM778.07,793.78c-2.34.11-5.01.22-7.57.22s-5.12-.11-7.35-.22c-5.01-.33-8.13-3.9-8.24-8.8,0-2.9-.11-5.68-.11-8.46s.11-5.34.11-7.8c.11-4.23,2.78-8.13,8.13-8.46,2.12-.11,4.45-.22,6.9-.22,2.9,0,5.9.11,8.46.22,4.23.22,8.8,3.12,8.91,7.91.11,2.56.11,5.57.11,8.46s0,5.79-.11,8.24c-.11,5.01-3.68,8.58-9.24,8.91ZM760.25,710.48c-3.01,0-4.45-2.23-4.45-4.46s1.45-4.45,4.45-4.45h22.27c3.01,0,4.57,2.23,4.57,4.45s-1.56,4.46-4.57,4.46h-22.27ZM760.47,740.21c-3.01,0-4.45-2.23-4.45-4.45s1.45-4.45,4.45-4.45h22.27c3.01,0,4.57,2.23,4.57,4.45s-1.56,4.45-4.57,4.45h-22.27ZM760.47,754.58c-3.01,0-4.45-2.23-4.45-4.45s1.45-4.45,4.45-4.45h22.27c3.01,0,4.57,2.23,4.57,4.45s-1.56,4.45-4.57,4.45h-22.27ZM778.18,776.97c0-2.01,0-4.12-.11-5.68-.22-2.67-2.34-3.01-7.13-3.01-7.13,0-7.13.11-7.13,8.58,0,2.01.11,4.12.11,5.79.11,1.45.56,2.67,6.79,2.67s7.24-1.11,7.35-2.78c.11-1.56.11-3.56.11-5.57ZM813.48,746.79c0-3.45,2.78-5.35,5.34-5.35s4.79,1.67,4.79,5.35c0,2.9-.22,5.68-.45,8.46,0,.22.11.45.11.67.22,2.56.89,5.01,1.89,7.46,3.56-2.9,7.46-7.13,9.69-10.25.89-1.33,2-1.78,3.23-1.78,2.56,0,5.23,2.67,5.23,5.46,0,3.68-8.02,10.25-13.92,14.03,4.9,6.57,11.8,11.81,18.49,13.7,2.9.78,4.12,3.01,4.12,5.12,0,2.78-2.01,5.57-5.46,5.57-5.23,0-19.49-8.69-26.95-24.39-7.46,19.49-26.4,25.39-28.29,25.39-3.12,0-5.12-2.67-5.12-5.23,0-1.89,1-3.79,3.56-4.57,19.05-6.12,23.72-20.83,23.72-37.76v-1.89ZM823.28,713.82c.34,2.45,1.12,4.92,1.78,7.13.66,2.21,2.69,5.45,4.34,7.46,1.66,2.01,11.25,10.47,17.6,12.14,2.78.78,4.12,2.78,4.12,4.9,0,2.67-2.12,5.34-5.46,5.34-5.79,0-19.49-9.47-26.06-22.5-6.91,16.93-22.61,23.39-24.84,23.39-2.9,0-4.9-2.45-4.9-5.01,0-1.67.89-3.34,3.23-4.34,15.93-6.68,20.38-18.82,20.38-34.41,0-1.11-.11-2.34-.11-3.56v-.22c0-3.34,2.67-5.24,5.24-5.24,4.79,0,4.9,4.46,4.9,7.8,0,2.34-.11,4.57-.34,6.79l.11.33ZM793.88,771.51c0-.56.11-1.22.45-1.89,1.22-2.78,1.22-8.69,1.22-14.03,0-2.67,2.12-3.79,4.23-3.79,2.45,0,4.9,1.33,5.01,3.68.11,1.67.11,3.45.11,5.23,0,12.25-2.67,14.81-6.35,14.81-2.34,0-4.68-1.56-4.68-4.01ZM794.88,727.29c0-.56.11-1.23.44-1.89,1.23-2.78,1.23-8.58,1.23-13.92,0-2.67,2.12-3.79,4.23-3.79,2.45,0,4.9,1.34,5.01,3.68.11,1.67.11,3.45.11,5.23,0,8.91-1.45,14.7-6.35,14.7-2.34,0-4.68-1.56-4.68-4.01Z" fill="currentcolor"/><path d="M868.57,793.67c-3.34,0-5.01-2.34-5.01-4.68s1.67-4.68,5.01-4.68l36.31.11v-10.02l-25.51.11c-3.34,0-5.01-2.23-5.01-4.45,0-2.34,1.67-4.57,5.01-4.57l25.39.11v-4.45c0-3.9,2.67-5.79,5.46-5.79s5.34,1.89,5.34,5.79v4.45l24.5-.11c3.23,0,4.9,2.23,4.9,4.57s-1.67,4.45-4.9,4.45l-24.5-.11v10.02l35.64-.11c3.12,0,4.79,2.45,4.79,4.9,0,2.23-1.56,4.45-4.79,4.45h-82.64ZM915.79,710.14c8.8,0,17.6.11,26.06.22,6.13.11,12.36,5.01,12.59,11.7.11,1.67.11,3.9.11,5.9,0,4.23,0,9.36-6.02,9.36-2.67,0-5.34-1.67-5.34-4.9v-.22c0-11.03,0-12.47-6.91-12.7-8.8-.11-19.49-.22-29.74-.22-8.46,0-16.71.11-23.5.22-5.23.11-6.57,1.89-6.68,5.46v7.57c0,3.34-2.9,5.12-5.68,5.12s-5.34-1.67-5.46-5.24c0-1.45-.11-3.23-.11-5.12,0-2.01.11-4.01.11-5.79.22-5.46,4.35-11.03,12.92-11.14,8.58-.11,17.37-.22,26.28-.22l-.11-8.24v-.11c0-3.34,2.9-5.01,5.79-5.01s5.79,1.67,5.79,5.01v.11l-.11,8.24ZM926.82,735.76c4.23,1.11,20.49,10.8,20.49,17.6,0,3.01-2.34,5.46-5.13,5.46-1.45,0-3.12-.78-4.45-2.67-1.23-1.67-2.56-3.23-4.01-4.68-20.05,3.34-44.44,5.68-57.69,5.68-3.68,0-5.46-2.56-5.46-5.12,0-2.34,1.56-4.57,4.68-4.57h4.12c3.56,0,7.24-.11,11.03-.22,1.34-2.78,3.23-7.8,4.45-11.47h-11.69c-2.67,0-4.12-2.23-4.12-4.45s1.45-4.34,4.12-4.34h53.24c2.67,0,4.01,2.23,4.01,4.34,0,2.23-1.34,4.45-4.01,4.45h-9.58ZM906.1,735.76c-.89,2.45-3.12,7.24-5.01,10.91,8.35-.44,16.59-1.11,24.39-2-3.9-2.45-4.79-3.01-4.79-4.9,0-1.78,1.45-3.56,3.56-4.01h-18.15Z" fill="currentcolor"/></g><g data-fc="#22ac38"><path d="M496.04,704.58s-13.1-3.31-19.14,2.73c-6.04,6.04-2.73,19.14-2.73,19.14,0,0,13.1,3.31,19.14-2.73,6.04-6.04,2.73-19.14,2.73-19.14Z" fill="currentcolor"/><path d="M847.35,703.06s-12.01-3.03-17.54,2.51c-5.54,5.54-2.51,17.54-2.51,17.54,0,0,12.01,3.03,17.54-2.51,5.54-5.54,2.51-17.54,2.51-17.54Z" fill="currentcolor"/><path d="M664.45,351.2c37.27-37.27,16.87-118.09,16.87-118.09,0,0-80.82-20.4-118.09,16.87-37.27,37.27-16.87,118.09-16.87,118.09,0,0,80.82,20.4,118.09-16.87Z" fill="currentcolor"/><path d="M342.68,233.11s-20.4,80.82,16.87,118.09c37.27,37.27,118.09,16.87,118.09,16.87,0,0,20.4-80.82-16.87-118.09-37.27-37.27-118.09-16.87-118.09-16.87Z" fill="currentcolor"/><path d="M546.37,436.8s-20.4,80.82,16.87,118.09c37.27,37.27,118.09,16.87,118.09,16.87,0,0,20.4-80.82-16.87-118.09-37.27-37.27-118.09-16.87-118.09-16.87Z" fill="currentcolor"/><path d="M359.55,453.67c-37.27,37.27-16.87,118.09-16.87,118.09,0,0,80.82,20.4,118.09-16.87,37.27-37.27,16.87-118.09,16.87-118.09,0,0-80.82-20.4-118.09,16.87Z" fill="currentcolor"/></g></g></g></g></svg>