<?xml version="1.0" encoding="UTF-8"?><svg xmlns="http://www.w3.org/2000/svg" viewBox="0 0 1024 1024"><title>kakuhodo logo</title><desc>Copyright &#xa9; 2026 Pearlpuppy. All rights reserved.</desc><metadata><rdf:RDF xmlns:rdf="http://www.w3.org" xmlns:dc="http://purl.org"><rdf:Description rdf:about=""><dc:title>kakuhodo logo</dc:title><dc:creator>Pierre Pearlpuppy</dc:creator><dc:rights>Copyright &#xa9; 2026 Pearlpuppy. All rights reserved.</dc:rights><dc:date>2026-03-20</dc:date><dc:format>image/svg+xml</dc:format></rdf:Description></rdf:RDF></metadata><g isolation="isolate"><g id="logo-kakuhodo"><g data-fc="#77428b" mix-blend-mode="difference"><path id="kakuhodo" d="M512,192c117.82,0,213.33,95.51,213.33,213.33,0,72.66-36.33,136.82-91.81,175.34-36.77-16.96-60.74-48.64-55.55-76.92,7.01-38.19,89.44-43.23,96.46-90.6,7.02-47.37-50.99-58.23-50.99-58.23l-111.44-162.93,84.21,172.81s16.77,29.95-18.18,45.42c-34.95,15.47-50.96,52.06-54.05,109.2-2.6,48.17,5.12,68.03,18.74,97.04-10.03,1.45-20.28,2.21-30.71,2.21s-20.68-.77-30.72-2.21c13.62-29.01,21.34-48.87,18.74-97.04-3.09-57.14-19.1-93.73-54.05-109.2-34.95-15.47-18.18-45.42-18.18-45.42l84.21-172.81-111.43,162.93s-58.02,10.86-51,58.23c7.02,47.37,89.45,52.41,96.46,90.6,5.19,28.28-18.78,59.96-55.54,76.92-55.48-38.52-91.81-102.68-91.81-175.34,0-117.82,95.51-213.33,213.33-213.33-176.73,0-320,143.27-320,320s143.27,320,320,320,320-143.27,320-320-143.27-320-320-320Z" fill="currentcolor"/></g></g></g></svg>