<?xml version="1.0" encoding="UTF-8"?><svg xmlns="http://www.w3.org/2000/svg" viewBox="0 0 1024 1024"><title>nippon-web logo</title><desc>Copyright &#xa9; 2026 Pearlpuppy. All rights reserved.</desc><metadata><rdf:RDF xmlns:rdf="http://www.w3.org" xmlns:dc="http://purl.org"><rdf:Description rdf:about=""><dc:title>nippon-web logo</dc:title><dc:creator>Pierre Pearlpuppy</dc:creator><dc:rights>Copyright &#xa9; 2026 Pearlpuppy. All rights reserved.</dc:rights><dc:date>2026-03-20</dc:date><dc:format>image/svg+xml</dc:format></rdf:Description></rdf:RDF></metadata><g isolation="isolate"><g id="logo-nippon-web"><g id="nippon-web"><g data-fc="#2186a6"><polygon points="455.43 412.24 536.85 572.03 576.8 572.03 495.38 412.24 455.43 412.24" fill="currentcolor"/><polygon points="402.17 412.24 483.59 572.03 523.54 572.03 442.12 412.24 402.17 412.24" fill="currentcolor"/><path d="M311.19,390.43s27.21,4.86,42.36,34.12c15.15,29.26,56.28,108.78,67.68,129.71,11.39,20.93,49.05,17.6,49.05,17.6,0,0-62.21-121.79-75.59-147.31-13.39-25.52-83.49-34.12-83.49-34.12Z" fill="currentcolor"/><path d="M587,430.14c-8.1,16.56-11.15,21.88-11.15,21.88,0,0,32.65-3.33,73.62-19.97,40.97-16.65,63.34-41.61,63.34-41.61,0,0-110.88,9.15-125.81,39.71Z" fill="currentcolor"/><polygon points="549.22 505.45 629.12 505.45 649.47 465.5 569.57 465.5 549.22 505.45" fill="currentcolor"/><path d="M539.36,420.83s2.6-15.58,6.51-22.15c3.91-6.57,18.59-5.33,26.47-7.93,7.87-2.6,14.82-14.07,14.82-14.07-8.24,6.52-28.69,5.33-28.69,5.33,0,0,17.24-6.63,27.7-13.77,10.46-7.14,12.91-18.7,12.91-18.7-4.16,8.5-31.16,12.86-31.16,12.86,0,0,10.39-10.39,18.25-23.35,7.86-12.96.99-23.39.99-23.39,0,0-56.83,43.06-60.59,72.7-3.75,29.65,12.79,32.46,12.79,32.46Z" fill="currentcolor"/><path d="M531.56,329.32l-37.1,9.29s7.63,11.14,14.99,9.99c7.36-1.15,22.1-19.29,22.1-19.29Z" fill="currentcolor"/><path d="M447.94,379.81c12.38-11.04,33.15.85,33.15.85,0,0-.55-6.77,1.62-18.17,2.16-11.4-8.28-17.09-8.28-17.09-1.42.14-14.63,1.12-36.69,19.68-22.9,19.26-7.3,42.13-7.3,42.13,0,0,5.12-16.37,17.5-27.41Z" fill="currentcolor"/></g><g data-fc="#1a1a1a"><path d="M115.12,667.11c0,.42-.19.63-.56.63-.58,0-1.11-1.02-1.59-3.07-.95-4.04-2.28-6.79-3.98-8.26-1.7-1.47-4.4-2.2-8.12-2.2h-3.74v48.4c.05,1.33.43,2.18,1.13,2.55.7.37,2.57.69,5.63.95.59.05.88.29.88.72,0,.53-.43.8-1.27.8-.16,0-.56-.03-1.19-.08-.8-.05-1.46-.08-1.99-.08l-8.2-.24-13.53.4c-.74,0-1.11-.22-1.11-.64,0-.32.11-.51.32-.56.21-.05,1.09-.11,2.63-.16,2.92-.11,4.48-.8,4.7-2.08.11-.69.16-6.09.16-16.21v-33.77h-2.07c-4.25,0-7.34.78-9.27,2.34-1.94,1.56-3.2,4.31-3.78,8.27-.37,2.32-.85,3.48-1.43,3.48-.48,0-.72-.32-.72-.95,0-.42.11-1.88.32-4.38.42-5.2.69-8.76.8-10.67h7c.16,0,2,.04,5.53.12,3.53.08,8.03.12,13.49.12,3.03,0,5.73-.02,8.12-.06,2.39-.04,4.56-.06,6.53-.06,1.75,0,3.08-.04,3.98-.12.16,3.43.56,7.81,1.19,13.15.11.9.16,1.45.16,1.66Z" fill="currentcolor"/><path d="M153.41,707.39c0,.22-.17.33-.5.33-.26,0-.5-.01-.72-.04-1.3-.16-4.94-.24-10.92-.24h-4.29c-1.15.04-1.73-.12-1.73-.47,0-.31.46-.49,1.39-.53.82-.04,1.53-.19,2.14-.47.61-.28.92-.6.92-.97.04-.22.07-.83.11-1.83v-15.67h-13.26v17.22c.04.97.78,1.54,2.23,1.73,1.15.15,1.82.25,2.01.31.19.06.28.18.28.36,0,.22-.19.33-.56.33-.48,0-1.76-.04-3.84-.11-2.08-.07-2.95-.11-2.62-.11-.22,0-1.36.04-3.43.11-2.06.07-4.02.11-5.88.11h-.56c-.67,0-1-.17-1-.5,0-.3.26-.45.78-.45,1.75,0,2.95-.22,3.62-.67.3-.19.45-1.17.45-2.95v-30.71c0-1.19-.32-1.9-.97-2.14-.65-.24-1.69-.36-3.14-.36-.49,0-.74-.15-.74-.45,0-.18.2-.3.61-.33-.15,0,1.25,0,4.19,0h12.3c.52,0,.78.18.78.55,0,.26-.1.42-.3.47-.2.06-.82.1-1.88.14-1.06.04-1.71.27-1.96.69-.25.42-.38,1.19-.38,2.3v13.07l1.32.11c3.67.15,7.65.11,11.94-.11v-12.47c0-2.53-.91-3.8-2.74-3.8-1.22,0-1.83-.17-1.83-.5,0-.3.24-.45.72-.45h16.89c.37,0,.55.11.55.33,0,.26-.69.45-2.06.56-1.37.11-2.23.4-2.56.86-.33.47-.5,1.62-.5,3.48v27.37c0,2.41.31,3.87.92,4.37.61.5,1.66.79,3.15.86.71.04,1.06.26,1.06.67Z" fill="currentcolor"/><path d="M187.94,697.64c0,.08-.02,1.8-.06,5.18-.04,1.78-.07,3.06-.08,3.84-.02.78-.03,1.15-.03,1.11-9.81-.45-18.39-.58-25.74-.39h-4.68c-.67,0-1-.14-1-.42,0-.21.08-.33.25-.37.17-.03.73-.09,1.7-.16,1.75-.11,2.69-.61,2.84-1.5.07-.48.11-1.02.11-1.61v-28.21c0-2.22-.02-3.45-.06-3.67-.04-.59-.22-1-.56-1.22-.33-.22-1.02-.33-2.06-.33-1.15,0-1.73-.17-1.73-.5,0-.37.51-.56,1.53-.56s2.44-.02,4.26-.06c6.83-.15,12.42-.19,16.77-.11h3.79c.82,0,1.82-.06,3.01-.17l.5,6.07c.19,1.93.28,3.12.28,3.57,0,.37-.19.56-.56.56s-.62-.48-.73-1.45c-.34-2.56-1.37-4.43-3.1-5.6-1.73-1.17-4.29-1.76-7.69-1.76-1.04,0-2.83.06-5.37.17v16.44c4.11.04,6.69-.25,7.76-.86,1.06-.61,1.78-2.2,2.16-4.76.19-1.37.47-2.06.84-2.06.34,0,.5.33.5,1s-.06,2.04-.17,4.12c-.04.71-.06,1.65-.06,2.84,0,3.2.04,5.61.11,7.24.04.22.06.5.06.84,0,.45-.17.67-.5.67-.26,0-.43-.08-.5-.25-.08-.17-.19-.77-.34-1.81-.37-2.64-.89-4.28-1.54-4.93-.65-.65-2.16-.98-4.51-.98h-3.81v18.72h3.58c4.1-.07,6.59-.17,7.49-.28,1.12-.15,2.2-.56,3.24-1.23.93-.74,1.57-1.54,1.93-2.4.35-.86.74-2.43,1.15-4.74.11-.56.3-.84.56-.84.3,0,.45.28.45.84Z" fill="currentcolor"/><path d="M257.79,653.18c0,.27-.2.42-.58.48-.39.05-1.78.13-4.17.24-1.4.05-2.21.34-2.42.87-.21.32-.29,2.02-.23,5.1v46.88c0,.9-.19,1.35-.56,1.35-.58,0-4.44-4.39-11.58-13.17-7.14-8.78-14.98-18.83-23.52-30.13v38.6c0,1.11.35,1.8,1.04,2.07,1.13.42,2.44.64,3.94.64,1.77,0,2.76.13,2.97.4.05.05.08.16.08.32,0,.42-.4.64-1.19.64-.48,0-.88-.03-1.19-.08-3.18-.1-5.17-.16-5.97-.16-1.86,0-4.3.05-7.32.16-1.49.05-2.12.08-1.91.08-.8,0-1.19-.21-1.19-.64,0-.37,1.17-.64,3.5-.8,2.71-.21,4.27-.64,4.7-1.27.26-.42.4-2.33.4-5.72v-32.67c0-3.34-.05-5.35-.16-6.04-.32-2.33-1.25-4.03-2.79-5.09-1.17-.79-3.34-1.24-6.53-1.35-.85-.06-1.27-.31-1.27-.76,0-.5.37-.76,1.11-.76.32,0,1.46.05,3.42.16.96.05,2.39.08,4.3.08,3.93,0,7.11-.08,9.55-.24l27.94,35.98v-31.59c0-1.28-.21-2.09-.64-2.43-.42-.35-1.33-.54-2.71-.6l-3.42-.16c-.64-.05-.96-.24-.96-.56,0-.43.48-.64,1.43-.64h5.17c5.36,0,8.49.03,9.39.08.9.05,1.35.29,1.35.72Z" fill="currentcolor"/><path d="M276.37,706.97c0,.32-.24.47-.72.47-.26,0-.5-.02-.72-.06-2.23-.11-4.14-.17-5.74-.17s-4.12.06-7.35.17c-1.08.04-1.88.06-2.4.06-.56,0-.84-.17-.84-.5,0-.19.1-.3.31-.33.2-.04.92-.07,2.15-.11,1.15-.22,1.82-.57,2.01-1.03.19-.46.28-1.96.28-4.49v-28.86c-.04-.67-.06-.98-.06-.95,0-.93-.93-1.39-2.79-1.39-1.04,0-1.56-.13-1.56-.39s.07-.41.22-.45c.15-.04.63-.06,1.45-.06-.37,0,.3,0,2.01,0h12.65c.48,0,.72.14.72.42,0,.21-.08.34-.25.39-.17.05-.73.1-1.7.13-1.15.08-1.86.32-2.12.72l-.17,1.06v31.43c0,1.59.18,2.54.53,2.84.35.3,1.55.5,3.59.61.33.04.5.2.5.47Z" fill="currentcolor"/><path d="M309.88,677.74c0,3.19-1.19,5.77-3.57,7.72-2.38,1.95-5.54,2.93-9.47,2.93-1,0-2.41-.13-4.23-.39v14.31c0,2.05.14,3.25.42,3.61.28.35,1.31.57,3.09.64,1-.04,1.5.12,1.5.47,0,.32-.3.47-.89.47h-14.71c-1.23,0-1.93-.03-2.12-.1-.19-.07-.28-.17-.28-.31,0-.28.3-.42.89-.42,1.82-.04,2.91-.2,3.26-.5.35-.3.53-1.15.53-2.57v-28.72c0-2.38-.09-3.82-.28-4.3s-1.13-.73-2.84-.73c-1,0-1.5-.15-1.5-.45,0-.34.46-.5,1.39-.5l15.94-.06c3.9,0,6.82.59,8.75,1.78,2.75,1.71,4.12,4.09,4.12,7.13ZM300.91,678.05c0-5.51-1.73-8.27-5.18-8.27-2.08,0-3.12.91-3.12,2.74v14.64c1.52,0,2.56-.06,3.12-.17,1.08-.19,2.01-.62,2.79-1.29,1.6-1.42,2.4-3.97,2.4-7.66Z" fill="currentcolor"/><path d="M341.57,677.74c0,3.19-1.19,5.77-3.57,7.72-2.38,1.95-5.54,2.93-9.47,2.93-1,0-2.41-.13-4.23-.39v14.31c0,2.05.14,3.25.42,3.61.28.35,1.31.57,3.09.64,1-.04,1.5.12,1.5.47,0,.32-.3.47-.89.47h-14.71c-1.23,0-1.93-.03-2.12-.1-.19-.07-.28-.17-.28-.31,0-.28.3-.42.89-.42,1.82-.04,2.91-.2,3.26-.5.35-.3.53-1.15.53-2.57v-28.72c0-2.38-.09-3.82-.28-4.3s-1.13-.73-2.84-.73c-1,0-1.5-.15-1.5-.45,0-.34.46-.5,1.39-.5l15.94-.06c3.9,0,6.82.59,8.75,1.78,2.75,1.71,4.12,4.09,4.12,7.13ZM332.6,678.05c0-5.51-1.73-8.27-5.18-8.27-2.08,0-3.12.91-3.12,2.74v14.64c1.52,0,2.56-.06,3.12-.17,1.08-.19,2.01-.62,2.79-1.29,1.6-1.42,2.4-3.97,2.4-7.66Z" fill="currentcolor"/><path d="M380.92,688.16c0,5.57-1.74,10.28-5.21,14.13-3.47,3.85-7.74,5.77-12.79,5.77s-9.18-1.95-12.7-5.85c-3.53-3.9-5.29-8.6-5.29-14.1s1.75-10.36,5.27-14.15c3.51-3.79,7.87-5.68,13.07-5.68s9.21,1.9,12.59,5.71c3.38,3.81,5.07,8.53,5.07,14.18ZM371.11,689.03c0-7.38-.87-12.83-2.62-16.36-1.15-2.3-2.97-3.45-5.46-3.45s-4.54,1.61-6.05,4.84c-1.5,3.23-2.26,7.55-2.26,12.96,0,7.86,1.34,13.74,4.01,17.64,1.11,1.63,2.73,2.45,4.85,2.45,2.45,0,4.18-1.17,5.18-3.5,1.56-3.64,2.34-8.49,2.34-14.58Z" fill="currentcolor"/><path d="M420.19,669.44c0,.19-.14.3-.41.33-.27.04-1.25.09-2.92.17-.98.04-1.55.24-1.69.61-.15.22-.2,1.41-.16,3.57v32.82c0,.63-.13.95-.39.95-.41,0-3.11-3.07-8.11-9.22-5-6.15-10.48-13.18-16.46-21.09v27.02c0,.78.24,1.26.73,1.45.79.3,1.71.45,2.76.45,1.24,0,1.93.09,2.08.28.04.04.06.11.06.22,0,.3-.28.45-.84.45-.33,0-.61-.02-.84-.06-2.23-.07-3.62-.11-4.18-.11-1.3,0-3.01.04-5.13.11-1.04.04-1.49.06-1.34.06-.56,0-.84-.15-.84-.45,0-.26.82-.45,2.45-.56,1.89-.15,2.99-.44,3.29-.89.19-.3.28-1.63.28-4.01v-22.86c0-2.34-.04-3.75-.11-4.23-.22-1.63-.87-2.82-1.95-3.56-.82-.56-2.34-.87-4.57-.95-.59-.04-.89-.22-.89-.53,0-.35.26-.53.78-.53.22,0,1.02.04,2.4.11.67.04,1.67.06,3.01.06,2.75,0,4.98-.06,6.69-.17l19.56,25.18v-22.11c0-.89-.15-1.46-.45-1.7-.3-.24-.93-.38-1.89-.42l-2.4-.11c-.45-.04-.67-.17-.67-.39,0-.3.33-.45,1-.45h3.62c3.75,0,5.94.02,6.57.06.63.04.95.2.95.5Z" fill="currentcolor"/><path d="M509.57,653.02c0,.42-.4.66-1.19.72-2.39.11-3.9.38-4.54.84-.64.45-1.35,1.79-2.15,4.02-.48,1.22-1.19,3.08-2.15,5.57-.69,2.07-1.78,5.25-3.26,9.55-.75,2.02-1.87,5.07-3.37,9.15l-3.93,10.9c-2.73,7.71-4.25,12.14-4.57,13.31-.21.69-.45,1.04-.72,1.04-.32,0-.59-.25-.8-.76-.21-.5-.82-2.32-1.83-5.45-1.33-4.14-3.27-9.29-5.82-15.44l-2.71-6.52c-5.3,11.35-9.12,20.37-11.45,27.06-.27.74-.56,1.11-.88,1.11-.21,0-.88-1.41-1.99-4.22l-9.71-25.35c-2.33-6.38-5.33-13.97-8.99-22.8-.37-.96-.98-1.54-1.83-1.75-.48-.16-1.41-.24-2.79-.24s-2.07-.24-2.07-.72c0-.43.37-.64,1.11-.64-.05,0,.82,0,2.63,0h18.31c.69,0,1.04.26,1.04.79,0,.47-.85.69-2.55.63-.9,0-1.35.24-1.35.71,0,.21.05.45.16.71,1.16,3.22,2.94,8.01,5.32,14.39l8.18,21.04,5.57-12.74c-.78-2.32-2.29-6.49-4.53-12.5-.43-.94-1.02-2.38-1.76-4.32-.16-.47-.43-1.2-.8-2.2-.91-2.41-1.65-3.86-2.24-4.36-.59-.5-1.81-.75-3.68-.75-.54-.05-.8-.29-.8-.71,0-.47.5-.71,1.51-.71-.16,0,.12,0,.84,0h31.32c1.01-.05,1.51.19,1.51.71,0,.42-.4.63-1.19.63-3.77-.05-5.94.58-6.53,1.9-.9,1.43-2.79,5.46-5.65,12.12,1.84,4.77,4.78,12.32,8.82,22.65.86-2.17,1.77-4.58,2.74-7.23.85-2.23,2.24-6.02,4.17-11.37,1.23-3.55,2.27-6.44,3.12-8.67,1.44-3.76,2.16-6.2,2.16-7.32s-.53-1.72-1.59-1.99c-.37-.1-1.33-.16-2.87-.16-.85,0-1.27-.21-1.27-.63s.4-.64,1.19-.64h6.29c2.71.05,4.75.05,6.13,0h.64c.53,0,.8.21.8.64ZM482.26,655.87c0-1.42-1.27-2.13-3.82-2.13s-3.9.47-3.9,1.42c0,1.32,1.27,4.69,3.82,10.12,2.6-5.38,3.9-8.51,3.9-9.41Z" fill="currentcolor"/><path d="M537.11,697.64c0,.08-.02,1.8-.06,5.18-.04,1.78-.07,3.06-.08,3.84s-.03,1.15-.03,1.11c-9.81-.45-18.39-.58-25.74-.39h-4.68c-.67,0-1-.14-1-.42,0-.21.08-.33.25-.37.17-.03.73-.09,1.7-.16,1.75-.11,2.69-.61,2.84-1.5.07-.48.11-1.02.11-1.61v-28.21c0-2.22-.02-3.45-.06-3.67-.04-.59-.22-1-.56-1.22s-1.02-.33-2.06-.33c-1.15,0-1.73-.17-1.73-.5,0-.37.51-.56,1.53-.56s2.44-.02,4.26-.06c6.83-.15,12.42-.19,16.77-.11h3.79c.82,0,1.82-.06,3.01-.17l.5,6.07c.19,1.93.28,3.12.28,3.57,0,.37-.19.56-.56.56s-.62-.48-.73-1.45c-.34-2.56-1.37-4.43-3.1-5.6-1.73-1.17-4.29-1.76-7.69-1.76-1.04,0-2.83.06-5.37.17v16.44c4.11.04,6.69-.25,7.76-.86,1.06-.61,1.78-2.2,2.16-4.76.19-1.37.47-2.06.84-2.06.34,0,.5.33.5,1s-.06,2.04-.17,4.12c-.04.71-.06,1.65-.06,2.84,0,3.2.04,5.61.11,7.24.04.22.06.5.06.84,0,.45-.17.67-.5.67-.26,0-.43-.08-.5-.25-.08-.17-.19-.77-.34-1.81-.37-2.64-.89-4.28-1.54-4.93-.65-.65-2.16-.98-4.51-.98h-3.81v18.72h3.58c4.1-.07,6.59-.17,7.49-.28,1.12-.15,2.2-.56,3.24-1.23.93-.74,1.57-1.54,1.93-2.4.35-.86.74-2.43,1.15-4.74.11-.56.3-.84.56-.84.3,0,.45.28.45.84Z" fill="currentcolor"/><path d="M572.12,697.33c0,2.31-.71,4.29-2.12,5.95-1.41,1.66-3.36,2.77-5.85,3.32-1.97.45-3.83.71-5.57.78-1.75.07-6.87.11-15.38.11-1.19,0-1.9-.02-2.12-.06-.22-.04-.33-.17-.33-.39,0-.34.6-.5,1.81-.5s1.96-.18,2.26-.53c.3-.35.45-1.22.45-2.59v-31.92c0-1.08-.87-1.64-2.59-1.67-1.32-.03-1.97-.19-1.97-.47,0-.31.41-.47,1.23-.47h15.66c8.58,0,12.87,2.94,12.87,8.83,0,4.88-3.2,7.9-9.58,9.05l-.11.22c3.75.78,6.35,1.77,7.8,2.96,2.38,1.97,3.57,4.43,3.57,7.38ZM563.21,697.08c0-5.24-1.49-8.28-4.46-9.14-1.18-.33-2.86-.5-5.07-.5v3.23c0,.93-.04,2.25-.11,3.96-.04.86-.06,2.45-.06,4.79,0,4.01.11,6.15.33,6.41.3.41,1.13.61,2.51.61,4.57,0,6.85-3.12,6.85-9.36ZM562.15,678.02c0-5.39-1.64-8.08-4.92-8.08-1.17,0-1.95.06-2.35.17-.8.26-1.2.84-1.2,1.73v14.71c3.24,0,5.46-.58,6.67-1.73,1.2-1.15,1.8-3.42,1.8-6.8Z" fill="currentcolor"/><path d="M634.14,666.08c0,.42-.19.63-.56.63-.32,0-.55-.13-.68-.4-.13-.26-.38-1.17-.76-2.71-1.06-4.24-3.11-7.08-6.15-8.52-1.81-.85-5.03-1.27-9.66-1.27-2.13,0-4.58.08-7.35.24v24.36h2.32c5.01,0,8.15-.53,9.4-1.59,1.25-1.06,2.2-4.01,2.84-8.84.11-.69.37-1.03.8-1.03s.64.4.64,1.19c0-.26-.03.09-.08,1.08-.05.98-.08,2.59-.08,4.82v5.17c0,3.72.03,6.17.08,7.36.05,1.19.08,2.22.08,3.06s-.24,1.27-.72,1.27c-.69,0-1.09-.85-1.2-2.55-.27-3.87-1.23-6.39-2.88-7.56-.8-.58-2.21-.88-4.24-.88-2.72,0-5.04.03-6.96.08v19.26c0,3.4.27,5.39.8,5.97.54.59,2.39.88,5.55.88.97,0,1.45.21,1.45.64,0,.48-.5.72-1.51.72-1.17,0-2.57-.03-4.22-.08-3.29-.1-7-.16-11.14-.16-2.92,0-5.49.06-7.72.18-.32.04-.69.06-1.11.06-.64,0-.95-.23-.95-.68s.85-.7,2.55-.75c2.49-.11,3.87-.69,4.14-1.75.21-.42.32-1.17.32-2.23v-46.17c-.11-.74-.42-1.25-.93-1.51-.51-.26-1.53-.45-3.06-.56-1.53-.1-2.3-.34-2.3-.72,0-.53.53-.8,1.59-.8h1.51c.21,0,2.23-.03,6.05-.08,4.24-.1,7.99-.16,11.22-.16,4.83-.05,8.91-.05,12.26,0l5.49.24c.85,0,2.12-.08,3.82-.24.42,6.3.85,10.66,1.27,13.07.05.32.08.63.08.95Z" fill="currentcolor"/><path d="M670.7,688.16c0,5.57-1.74,10.28-5.21,14.13-3.47,3.85-7.74,5.77-12.79,5.77s-9.17-1.95-12.7-5.85c-3.53-3.9-5.29-8.6-5.29-14.1s1.75-10.36,5.27-14.15c3.51-3.79,7.86-5.68,13.07-5.68s9.21,1.9,12.59,5.71c3.38,3.81,5.07,8.53,5.07,14.18ZM660.9,689.03c0-7.38-.87-12.83-2.62-16.36-1.15-2.3-2.97-3.45-5.46-3.45s-4.54,1.61-6.05,4.84c-1.5,3.23-2.25,7.55-2.25,12.96,0,7.86,1.34,13.74,4.01,17.64,1.11,1.63,2.73,2.45,4.85,2.45,2.45,0,4.18-1.17,5.18-3.5,1.56-3.64,2.34-8.49,2.34-14.58Z" fill="currentcolor"/><path d="M707.68,669.25c0,.28-.63.44-1.89.47-1.56.04-2.51.3-2.84.78-.11.15-.19.47-.22.95v23.67c0,8.81-4.2,13.21-12.59,13.21-4.31,0-7.65-1.32-10.03-3.96-1.78-1.97-2.67-5.46-2.67-10.48v-21.4c0-1.19-.19-1.91-.56-2.17-.37-.26-1.54-.46-3.51-.61-.41-.04-.61-.19-.61-.45,0-.33.33-.5,1-.5h4.74c3.27.04,5.68.04,7.24,0,2.08,0,2.9,0,2.45,0h1.17c.63,0,.95.19.95.56,0,.34-.58.5-1.73.5-1.63,0-2.51.3-2.62.89-.08.41-.11.8-.11,1.17v20.87c0,3.01.06,4.93.17,5.75.26,2.42.95,4.17,2.06,5.25,1.37,1.34,3.18,2.01,5.4,2.01,2.52,0,4.38-.82,5.57-2.45,1.45-1.97,2.17-5.5,2.17-10.59v-20.62c0-.97-.28-1.6-.83-1.89-.37-.22-1.08-.33-2.15-.33-1.32-.04-1.98-.26-1.98-.67,0-.3.26-.45.78-.45.56,0,1.37.03,2.45.08,1.08.06,1.89.08,2.45.08.04,0,.35-.06.95-.17h3.07c1.15,0,1.73.16,1.73.47Z" fill="currentcolor"/><path d="M748.54,669.44c0,.19-.14.3-.41.33-.27.04-1.25.09-2.92.17-.98.04-1.55.24-1.69.61-.15.22-.2,1.41-.16,3.57v32.82c0,.63-.13.95-.39.95-.41,0-3.11-3.07-8.11-9.22-5-6.15-10.48-13.18-16.46-21.09v27.02c0,.78.24,1.26.73,1.45.79.3,1.71.45,2.76.45,1.24,0,1.93.09,2.08.28.04.04.06.11.06.22,0,.3-.28.45-.84.45-.33,0-.61-.02-.84-.06-2.23-.07-3.62-.11-4.18-.11-1.3,0-3.01.04-5.13.11-1.04.04-1.49.06-1.34.06-.56,0-.84-.15-.84-.45,0-.26.82-.45,2.45-.56,1.9-.15,2.99-.44,3.29-.89.19-.3.28-1.63.28-4.01v-22.86c0-2.34-.04-3.75-.11-4.23-.22-1.63-.87-2.82-1.95-3.56-.82-.56-2.34-.87-4.57-.95-.59-.04-.89-.22-.89-.53,0-.35.26-.53.78-.53.22,0,1.02.04,2.4.11.67.04,1.67.06,3.01.06,2.75,0,4.98-.06,6.69-.17l19.56,25.18v-22.11c0-.89-.15-1.46-.45-1.7-.3-.24-.93-.38-1.89-.42l-2.4-.11c-.45-.04-.67-.17-.67-.39,0-.3.33-.45,1-.45h3.62c3.75,0,5.94.02,6.57.06.63.04.95.2.95.5Z" fill="currentcolor"/><path d="M788.95,687.88c0,4.24-.97,7.89-2.9,10.98-2.01,3.23-4.92,5.59-8.75,7.08-2.6,1-6.48,1.5-11.65,1.5h-13.6c-.56,0-.84-.15-.84-.45,0-.37.52-.54,1.56-.5,1.6.04,2.56-.24,2.9-.84.15-.26.22-1.39.22-3.4v-28.36c0-1.63-.11-2.64-.33-3.01-.37-.67-1.32-.98-2.84-.95-.82.04-1.23-.15-1.23-.56,0-.33.26-.5.78-.5h1c2.23,0,4.38.02,6.46.06,2.97.04,5.27.06,6.91.06,6.76,0,11.94,1.39,15.55,4.18,4.49,3.49,6.74,8.4,6.74,14.71ZM779.31,687.91c0-6.14-.91-10.63-2.73-13.48-1.82-2.84-4.68-4.27-8.58-4.27-1.41,0-2.34.15-2.79.45-.59.37-.89,1.25-.89,2.62v28.57c0,2.46.15,3.81.45,4.07.45.41,1.43.61,2.95.61,7.73,0,11.59-6.19,11.59-18.58Z" fill="currentcolor"/><path d="M826.03,706.83c0,.3-.14.47-.42.53s-.99.08-2.15.08c-.3,0-1.13-.02-2.51-.06-2.75-.07-4.64-.11-5.68-.11-1.23,0-2.3.02-3.23.06-1.86.07-3.12.11-3.79.11-1,0-1.5-.19-1.5-.56s1.06-.58,3.18-.61c.52,0,.91-.04,1.17-.11.59-.07.89-.3.89-.67,0-.19-.22-.97-.67-2.34l-1.17-3.62c-.22-.82-.71-2.32-1.45-4.51h-5.35c-1.56-.04-3.21-.02-4.96.06-.34.74-.97,2.42-1.9,5.02l-1.23,3.62c-.19.56-.28,1-.28,1.34,0,.63.41,1.04,1.23,1.23.19.04,1.1.11,2.73.22.52.03.78.19.78.47,0,.32-.33.47-1,.47h-9.92c-.52,0-.78-.19-.78-.56,0-.22.58-.37,1.73-.45,1.49-.07,2.43-.35,2.84-.84.41-.48,1.08-2.04,2.01-4.68.7-1.86,1.73-4.61,3.06-8.25l6.74-18.55c.33-.82.8-2.1,1.39-3.84.41-1.26.72-1.89.95-1.89s.63.86,1.23,2.56c.74,2.19,4.01,10.85,9.8,25.97.74,1.93,1.49,3.9,2.23,5.91.63,1.71,1.26,2.75,1.89,3.12.48.3,1.63.43,3.45.39.45,0,.67.17.67.5ZM808.31,693.79c-.04-.11-.17-.46-.39-1.06-1.5-4.31-2.58-7.33-3.25-9.08-.18-.49-.43-1.2-.75-2.13l-.37-.99c-.67,1.6-1.48,3.81-2.44,6.63-1.07,3.16-1.85,5.37-2.33,6.63h9.53Z" fill="currentcolor"/><path d="M858.15,679.19c0,.3-.13.44-.39.44-.41,0-.78-.72-1.11-2.15-.67-2.83-1.6-4.75-2.79-5.78-1.19-1.03-3.08-1.54-5.68-1.54h-2.62v33.88c.04.93.3,1.52.79,1.78.49.26,1.8.48,3.94.67.41.04.62.2.62.5,0,.37-.3.56-.89.56-.11,0-.39-.02-.84-.06-.56-.04-1.02-.06-1.39-.06l-5.74-.17-9.47.28c-.52,0-.78-.15-.78-.45,0-.22.07-.35.22-.39.15-.04.76-.07,1.84-.11,2.04-.08,3.14-.56,3.29-1.45.07-.48.11-4.27.11-11.35v-23.64h-1.45c-2.97,0-5.14.55-6.49,1.63-1.36,1.09-2.24,3.02-2.65,5.79-.26,1.62-.59,2.44-1,2.44-.33,0-.5-.22-.5-.67,0-.3.07-1.32.22-3.06.3-3.64.48-6.13.56-7.47h4.9c.11,0,1.4.03,3.87.08,2.47.06,5.62.08,9.44.08,2.12,0,4.01-.01,5.68-.04,1.67-.03,3.19-.04,4.57-.04,1.23,0,2.15-.03,2.79-.08.11,2.4.39,5.47.84,9.2.07.63.11,1.02.11,1.16Z" fill="currentcolor"/><path d="M878.14,706.97c0,.32-.24.47-.72.47-.26,0-.5-.02-.73-.06-2.23-.11-4.14-.17-5.74-.17s-4.12.06-7.35.17c-1.08.04-1.88.06-2.4.06-.56,0-.84-.17-.84-.5,0-.19.1-.3.31-.33.2-.04.92-.07,2.14-.11,1.15-.22,1.82-.57,2.01-1.03.19-.46.28-1.96.28-4.49v-28.86c-.04-.67-.06-.98-.06-.95,0-.93-.93-1.39-2.79-1.39-1.04,0-1.56-.13-1.56-.39s.07-.41.22-.45c.15-.04.63-.06,1.45-.06-.37,0,.3,0,2.01,0h12.65c.48,0,.73.14.73.42,0,.21-.08.34-.25.39-.17.05-.73.1-1.7.13-1.15.08-1.86.32-2.12.72l-.17,1.06v31.43c0,1.59.18,2.54.53,2.84.35.3,1.55.5,3.59.61.33.04.5.2.5.47Z" fill="currentcolor"/><path d="M916.73,688.16c0,5.57-1.74,10.28-5.21,14.13-3.47,3.85-7.74,5.77-12.79,5.77s-9.17-1.95-12.7-5.85c-3.53-3.9-5.29-8.6-5.29-14.1s1.76-10.36,5.27-14.15c3.51-3.79,7.86-5.68,13.07-5.68s9.21,1.9,12.59,5.71c3.38,3.81,5.07,8.53,5.07,14.18ZM906.93,689.03c0-7.38-.87-12.83-2.62-16.36-1.15-2.3-2.97-3.45-5.46-3.45s-4.54,1.61-6.05,4.84c-1.5,3.23-2.26,7.55-2.26,12.96,0,7.86,1.34,13.74,4.01,17.64,1.11,1.63,2.73,2.45,4.85,2.45,2.45,0,4.18-1.17,5.18-3.5,1.56-3.64,2.34-8.49,2.34-14.58Z" fill="currentcolor"/><path d="M956,669.44c0,.19-.14.3-.41.33-.27.04-1.25.09-2.92.17-.98.04-1.55.24-1.69.61-.15.22-.2,1.41-.16,3.57v32.82c0,.63-.13.95-.39.95-.41,0-3.11-3.07-8.11-9.22-5-6.15-10.48-13.18-16.46-21.09v27.02c0,.78.24,1.26.73,1.45.79.3,1.71.45,2.76.45,1.24,0,1.93.09,2.08.28.04.04.06.11.06.22,0,.3-.28.45-.84.45-.33,0-.61-.02-.84-.06-2.23-.07-3.62-.11-4.18-.11-1.3,0-3.01.04-5.13.11-1.04.04-1.49.06-1.34.06-.56,0-.84-.15-.84-.45,0-.26.82-.45,2.45-.56,1.9-.15,2.99-.44,3.29-.89.19-.3.28-1.63.28-4.01v-22.86c0-2.34-.04-3.75-.11-4.23-.22-1.63-.87-2.82-1.95-3.56-.82-.56-2.34-.87-4.57-.95-.59-.04-.89-.22-.89-.53,0-.35.26-.53.78-.53.22,0,1.02.04,2.4.11.67.04,1.67.06,3.01.06,2.75,0,4.98-.06,6.69-.17l19.56,25.18v-22.11c0-.89-.15-1.46-.45-1.7-.3-.24-.93-.38-1.89-.42l-2.4-.11c-.45-.04-.67-.17-.67-.39,0-.3.33-.45,1-.45h3.62c3.75,0,5.94.02,6.57.06.63.04.95.2.95.5Z" fill="currentcolor"/></g></g></g></g></svg>