<?xml version="1.0" encoding="UTF-8"?><svg xmlns="http://www.w3.org/2000/svg" viewBox="0 0 1024 1024"><title>pearlpuppy logo</title><desc>Copyright &#xa9; 2026 Pearlpuppy. All rights reserved.</desc><metadata><rdf:RDF xmlns:rdf="http://www.w3.org" xmlns:dc="http://purl.org"><rdf:Description rdf:about=""><dc:title>pearlpuppy logo</dc:title><dc:creator>Pierre Pearlpuppy</dc:creator><dc:rights>Copyright &#xa9; 2026 Pearlpuppy. All rights reserved.</dc:rights><dc:date>2026-03-20</dc:date><dc:format>image/svg+xml</dc:format></rdf:Description></rdf:RDF></metadata><g isolation="isolate"><g id="logo-pearlpuppy"><g id="pearlpuppy"><g data-fc="#eca600"><path d="M321.91,384.79c23.64,17.39,44.87,41.89,63.66,73.43,6.12,5.13,11.02,9.54,14.69,13.13-4.28-9.85-8.38-18.18-12.33-25.03-6.18-10.79-12.41-20.4-18.71-28.71-6.23-8.39-15.93-20.38-29.05-36.1-9.18-10.43-14.89-17.64-17.14-21.56-5-8.75-2.8-16.58,6.61-23.61-4.15-6.03-9.15-9.9-15.03-11.54-5.82-1.7-11.33-1.03-16.45,1.92-5.16,2.94-8.29,7.3-9.38,13.07-1.15,5.8-.03,11.59,3.3,17.41,3.53,6.18,13.49,15.36,29.84,27.58Z" fill="currentcolor"/><path d="M714.92,387.77c-8.69,4.57-20.9,14.26-36.69,29.1-14.25,14.14-25.61,28.57-34.07,43.31,11.63-11.53,19.89-19.38,24.76-23.54,4.87-4.13,11.77-8.79,20.65-13.94,18.41-9.46,36.12-14.33,53.11-14.62,3.36-10.56,1.34-17.97-6.05-22.2-5.82-3.33-13.07-2.71-21.71,1.9Z" fill="currentcolor"/><path d="M683.82,381.51c-13.11,15.72-22.8,27.71-29.05,36.1-6.31,8.31-12.53,17.92-18.71,28.71-3.93,6.85-8.02,15.18-12.3,25.03,3.63-3.59,8.56-8,14.69-13.13,18.79-31.53,40.02-56.04,63.66-73.43,16.35-12.23,26.28-21.4,29.82-27.58,3.33-5.82,4.46-11.61,3.3-17.41-1.11-5.77-4.24-10.13-9.36-13.07-5.15-2.95-10.67-3.62-16.45-1.92-5.9,1.64-10.88,5.51-15.03,11.54,9.41,7.02,11.61,14.86,6.59,23.61-2.25,3.92-7.97,11.13-17.14,21.56Z" fill="currentcolor"/><path d="M334.42,422.69c8.87,5.15,15.77,9.81,20.64,13.94,4.91,4.16,13.16,12.01,24.77,23.54-8.44-14.74-19.8-29.17-34.08-43.31-15.79-14.84-27.99-24.53-36.68-29.1-8.64-4.61-15.89-5.23-21.72-1.9-7.35,4.24-9.37,11.65-6.02,22.2,16.99.29,34.68,5.16,53.09,14.62Z" fill="currentcolor"/><path d="M347.09,594.57c0-14.64-11.9-26.51-26.54-26.51s-26.53,11.86-26.53,26.51,11.87,26.56,26.53,26.56,26.54-11.9,26.54-26.56Z" fill="currentcolor"/><path d="M628.3,626.77c8.36-2.13,14.75-6.98,19.08-14.51,3.03-5.31,4.54-12.49,4.54-21.59-12.23,5.03-22.55,5.13-30.92.31-12-6.87-18.71-17.95-20.21-33.26-1.46-15.3,2.77-31.61,12.72-48.89,7.07-12.36,17.61-26.56,31.63-42.66-22.95,9.85-40.67,25.64-53.15,47.38-7.87,13.69-12.64,27.97-14.28,42.74-1.65,14.76-.21,28.12,4.28,40.17,4.49,12,11.77,20.92,21.86,26.74,7.88,4.51,16,5.7,24.43,3.57Z" fill="currentcolor"/><path d="M322.96,515.53c2.48-9.05,1.02-18.18-4.28-27.41-4.13-7.21-10.13-12.11-17.98-14.66-2.12,5.8-4.48,9.41-7.05,10.87-5.3,3.07-9.77,1.44-13.41-4.9-2.73-4.8-2.97-10.21-.58-16.23,2.3-5.99,6.49-10.77,12.48-14.2,9.08-5.2,19.88-6.76,32.3-4.66,12.49,2.05,28.23,7.98,47.25,17.75-13.23-17.9-30.35-29.95-51.32-36.25-21.05-6.26-39.59-4.77-55.68,4.48-10.11,5.8-17.92,13.51-23.41,23.16-5.54,9.66-8.39,19.89-8.67,30.77-.23,10.84,2.46,21.23,8.15,31.15,4.82,8.39,10.9,14.89,18.16,19.48,7.33,4.57,15.05,7.16,23.26,7.66,8.12.59,15.89-1.27,23.25-5.51,9.25-5.3,15.12-12.48,17.54-21.48Z" fill="currentcolor"/><path d="M511.99,733.42c-27.23,0-49.28,22.07-49.28,49.27s22.05,49.31,49.28,49.31,49.3-22.07,49.3-49.31-22.07-49.27-49.3-49.27Z" fill="currentcolor"/><path d="M654.15,672.3c-19.87,0-35.99,16.12-35.99,36s16.12,36.04,35.99,36.04,36.02-16.16,36.02-36.04-16.12-36-36.02-36Z" fill="currentcolor"/><path d="M791.39,484.23c-.31-10.88-3.15-21.11-8.68-30.77-5.47-9.65-13.31-17.36-23.41-23.16-16.1-9.25-34.64-10.73-55.66-4.48-21,6.3-38.12,18.35-51.36,36.25,19.05-9.77,34.77-15.7,47.25-17.75,12.44-2.1,23.24-.54,32.3,4.66,6,3.44,10.19,8.21,12.51,14.2,2.39,6.03,2.15,11.44-.58,16.23-3.65,6.33-8.11,7.97-13.41,4.9-2.59-1.46-4.93-5.07-7.08-10.87-7.84,2.56-13.84,7.45-17.97,14.66-5.31,9.23-6.74,18.35-4.28,27.41,2.44,9,8.28,16.18,17.53,21.48,7.39,4.24,15.14,6.1,23.28,5.51,8.21-.5,15.93-3.1,23.24-7.66,7.28-4.59,13.36-11.1,18.14-19.48,5.72-9.92,8.42-20.31,8.18-31.15Z" fill="currentcolor"/><path d="M703.46,568.06c-14.66,0-26.54,11.86-26.54,26.51s11.88,26.56,26.54,26.56,26.53-11.9,26.53-26.56-11.9-26.51-26.53-26.51Z" fill="currentcolor"/><path d="M575.23,636.81c-4.61-15.38-7.25-29.74-7.91-42.99-.75-13.25.35-28.74,3.23-46.43l-7.79,13.59c-11.42,19.84-22.11,41.28-32.07,64.22-9.82,23.05-13.54,43.43-11.15,61.07,2.38,17.67,10.71,31.13,24.94,40.44,1.84-11.92,5.26-22.26,10.29-30.97,3.43-5.99,5.97-10.02,7.58-12.05,8.49-9.23,13.26-14.76,14.33-16.66,2.18-3.77,3.13-7.62,2.88-11.54-.26-3.9-1.72-10.1-4.31-18.67Z" fill="currentcolor"/><path d="M369.83,672.3c-19.9,0-36.02,16.12-36.02,36s16.12,36.04,36.02,36.04,36.01-16.16,36.01-36.04-16.12-36-36.01-36Z" fill="currentcolor"/><path d="M446.26,556.29c-1.65-14.77-6.41-29.05-14.26-42.74-12.48-21.74-30.19-37.54-53.15-47.38,14.03,16.1,24.56,30.3,31.63,42.66,9.92,17.28,14.16,33.59,12.7,48.89-1.47,15.31-8.21,26.39-20.18,33.26-8.41,4.82-18.69,4.72-30.92-.31-.02,9.1,1.49,16.28,4.54,21.59,4.3,7.53,10.69,12.38,19.08,14.51,8.41,2.13,16.53.94,24.4-3.57,10.13-5.82,17.41-14.74,21.9-26.74,4.49-12.05,5.89-25.41,4.26-40.17Z" fill="currentcolor"/><path d="M479.5,726.71c14.24-9.31,22.57-22.76,24.95-40.44,2.41-17.64-1.31-38.02-11.13-61.07-10-22.94-20.69-44.38-32.07-64.22l-7.79-13.59c2.88,17.69,3.95,33.18,3.23,46.43-.66,13.26-3.33,27.62-7.91,42.99-2.62,8.57-4.05,14.77-4.31,18.67-.27,3.92.69,7.77,2.85,11.54,1.08,1.9,5.84,7.43,14.32,16.66,1.65,2.03,4.16,6.06,7.62,12.05,4.99,8.72,8.41,19.06,10.25,30.97Z" fill="currentcolor"/><path d="M605.77,286.01c.17.16.55-.03,1.07-.5-.97.36-1.38.52-1.07.5Z" fill="currentcolor"/><path d="M620.31,243.3c3.89,16.46-9.37,38.5-13.47,42.21,5.3-1.94,27.42-9.75,41.57-26.36,18.07-18.13,24.94-48.61,11.25-59.72-11.92-11.35-19.96-7.56-25.35-2.66-5.36,5.15-8.04,11.43-8.54,11.48.46-.1-7.51-5.85-15.64-8-7.99-2.46-16.09-1.31-13.79,5.08.25,5.18,22.99,17.99,23.97,37.97Z" fill="currentcolor"/><path d="M418.2,286.01c.32.02-.09-.14-1.06-.5.52.47.89.66,1.06.5Z" fill="currentcolor"/><path d="M417.14,285.51c-4.08-3.71-17.34-25.75-13.45-42.21.98-19.98,23.7-32.79,23.95-37.97,2.31-6.39-5.8-7.54-13.8-5.08-8.1,2.15-16.1,7.9-15.61,8-.49-.06-3.18-6.33-8.54-11.48-5.41-4.91-13.43-8.69-25.39,2.66-13.65,11.11-6.78,41.59,11.26,59.72,14.14,16.61,36.27,24.42,41.57,26.36Z" fill="currentcolor"/><path d="M442.28,480.81c28.04,103.04,112.99,103.66,140.21,1,76.96-36.3,76.5-149.51-.77-186.95-28.08-103.01-112.99-103.62-140.21-1-76.96,36.31-76.54,149.55.77,186.95ZM453.1,467.71l9.25-1.43c6.95-1.47,9.25-9.85,9.25-23.13v-100.07c0-13.61-3.46-21.97-9.25-23.15l-9.25-1.44v-16.49h81.55c35.56,0,55.22,15.62,54.91,53.79-.29,33.84-24.84,48.89-58.1,48.89h-27.2v38.46c0,13.28,2.33,21.65,9.56,23.13l9.23,1.43v16.49h-69.96v-16.49Z" fill="currentcolor"/><path d="M504.87,389.93c5.76-2.32,11.84-2.32,17.35,0,5.76-2.32,11.56-2.32,17.64,0,5.49-2.32,10.69-2.32,16.18,0,6.95-2.32,8.97-2.62,13.3-.29,8.39-6.64,15.05-17.92,15.05-33.56,0-37.27-19.97-49.14-50.04-49.14h-76.33v6.36l7.51,1.15c5.2,1.17,11.28,6.66,11.28,28.64v46.84c2.74-2.21,6.28-2.28,10.1-.29-1.43-10.13-4.61-15.93-8.37-20.25,3.77-6.95,6.95-17.36,8.97-39.05,2.03,21.69,5.49,32.1,9.25,39.05-3.77,4.32-7.22,10.12-8.66,20.25h-1.15c.18.1.38.18.56.29-1.44,3.74-4.61,9.85-8.97,14.17,4.36,9.54,7.53,22.84,9.56,47.4,2.02-24.56,5.2-37.87,9.54-47.4-4.33-4.32-7.52-10.43-9.25-14.17,5.76-2.32,10.69-2.32,16.49,0ZM567.32,330.34c6.94,17.08,11,29.23,10.69,39.05-6.64,6.64-14.16,13.86-21.38,20.25h-1.16c6.08-7.82,7.52-14.18,6.37-20.25,6.07-5.77,9.25-18.49,5.49-39.05ZM499.07,344.52c0-17.36,7.81-22.28,19.66-22.28h15.05c14.47,0,25.74,10.41,25.74,30.67,0,16.76-9.85,29.22-25.17,29.22h-35.28v-37.6Z" fill="currentcolor"/><path d="M554.29,352.91c0-18.21-10.1-25.75-19.64-25.75h-16.49c-8.39,0-13.9,3.78-13.9,17.36v32.38h30.38c9.54,0,19.64-10.1,19.64-23.99Z" fill="currentcolor"/><path d="M442.28,480.81c28.04,103.04,112.99,103.66,140.21,1,76.96-36.3,76.5-149.51-.77-186.95-28.08-103.01-112.99-103.62-140.21-1-76.96,36.31-76.54,149.55.77,186.95ZM453.1,467.71l9.25-1.43c6.95-1.47,9.25-9.85,9.25-23.13v-100.07c0-13.61-3.46-21.97-9.25-23.15l-9.25-1.44v-16.49h81.55c35.56,0,55.22,15.62,54.91,53.79-.29,33.84-24.84,48.89-58.1,48.89h-27.2v38.46c0,13.28,2.33,21.65,9.56,23.13l9.23,1.43v16.49h-69.96v-16.49Z" fill="currentcolor"/><path d="M504.87,389.93c5.76-2.32,11.84-2.32,17.35,0,5.76-2.32,11.56-2.32,17.64,0,5.49-2.32,10.69-2.32,16.18,0,6.95-2.32,8.97-2.62,13.3-.29,8.39-6.64,15.05-17.92,15.05-33.56,0-37.27-19.97-49.14-50.04-49.14h-76.33v6.36l7.51,1.15c5.2,1.17,11.28,6.66,11.28,28.64v46.84c2.74-2.21,6.28-2.28,10.1-.29-1.43-10.13-4.61-15.93-8.37-20.25,3.77-6.95,6.95-17.36,8.97-39.05,2.03,21.69,5.49,32.1,9.25,39.05-3.77,4.32-7.22,10.12-8.66,20.25h-1.15c.18.1.38.18.56.29-1.44,3.74-4.61,9.85-8.97,14.17,4.36,9.54,7.53,22.84,9.56,47.4,2.02-24.56,5.2-37.87,9.54-47.4-4.33-4.32-7.52-10.43-9.25-14.17,5.76-2.32,10.69-2.32,16.49,0ZM567.32,330.34c6.94,17.08,11,29.23,10.69,39.05-6.64,6.64-14.16,13.86-21.38,20.25h-1.16c6.08-7.82,7.52-14.18,6.37-20.25,6.07-5.77,9.25-18.49,5.49-39.05ZM499.07,344.52c0-17.36,7.81-22.28,19.66-22.28h15.05c14.47,0,25.74,10.41,25.74,30.67,0,16.76-9.85,29.22-25.17,29.22h-35.28v-37.6Z" fill="currentcolor"/><path d="M554.29,352.91c0-18.21-10.1-25.75-19.64-25.75h-16.49c-8.39,0-13.9,3.78-13.9,17.36v32.38h30.38c9.54,0,19.64-10.1,19.64-23.99Z" fill="currentcolor"/></g></g></g></g></svg>