<?xml version="1.0" encoding="UTF-8"?><svg xmlns="http://www.w3.org/2000/svg" viewBox="0 0 1024 1024"><title>lovebearer logo</title><desc>Copyright &#xa9; 2026 Pearlpuppy. All rights reserved.</desc><metadata><rdf:RDF xmlns:rdf="http://www.w3.org" xmlns:dc="http://purl.org"><rdf:Description rdf:about=""><dc:title>lovebearer logo</dc:title><dc:creator>Pierre Pearlpuppy</dc:creator><dc:rights>Copyright &#xa9; 2026 Pearlpuppy. All rights reserved.</dc:rights><dc:date>2026-03-20</dc:date><dc:format>image/svg+xml</dc:format></rdf:Description></rdf:RDF></metadata><g isolation="isolate"><g id="logo-lovebearer"><g id="lovebearer"><g data-fc="#fd0000"><path d="M161.77,479.73c2.26,3.13,4.51,6.11,5.86,10.38-3.59,1.99-9.45,3.17-13.58,4.62-3.92-3.96-6.28-11.16-11.51-13.95-2.47-1.32-6.7-2.88-9.76-2.79-11.47.34-16.87,10.14-19.53,19.88-2.03,19.65,3.48,34.29,23.01,49.85,2.67.77,5.29,1.36,7.68,1.41,8.45.16,16.74-3.28,23.37-6.63,5.81-6.68,10.84-16.77,12.55-28.24,2.51-16.82-.22-34.51-18.09-34.52Z" fill="currentcolor"/></g><g data-fc="#000"><path d="M134.52,460.21c-1.7-7.13-1.55-16.11-3.14-23.36-17.53-.9-30.64,5.62-35.57,18.48,5.79,4.91,13.99,7.4,17.44,14.65-4.16,8.49-7.93,17.03-11.51,25.8-3.57,8.76-7.68,17.68-9.06,28.25,2.26,3.29,5.92,6.1,9.76,9.07,3.32,2.57,7.34,5.87,11.51,7.67,4.15,1.8,9.53,2.95,14.65,4.54,2.49.77,5.1,1.68,7.66,2.43-19.53-15.56-25.04-30.2-23.01-49.85,2.66-9.74,8.06-19.54,19.53-19.88,3.06-.09,7.29,1.47,9.76,2.79,5.23,2.79,7.59,9.99,11.51,13.95,4.14-1.44,9.99-2.63,13.58-4.62-1.35-4.26-3.6-7.24-5.86-10.38-.02,0-.03,0-.04,0-6.57-9-16.1-15.05-27.2-19.53Z"/><path d="M153,504.54c.15-1.43.51-2.66.79-3.97.14-1.46-1.45-1.21-2.38-1.59,1.95-3.61,7.22-3.91,11.53-5.17.14,6.5-3.58,14.61-9.94,10.73Z"/><path d="M108.81,545.73c-9.7-6.48-31.07-11.6-38.01.35-1.65,2.83-2.94,8.23-2.79,12.2.08,2.18,1.67,10.47,3.14,12.21,2.4,2.83,10.62,4.44,14.99,5.58,6.35,1.66,11.18,2.69,17.78,3.14,7.73-6.36,4.48-20.68,4.88-33.47Z"/><path d="M184.48,550.61c-2.56-2.92-6.79-8.78-11.5-8.72-4.06.06-9.78,3.48-14.3,5.58-4.58,2.13-9.34,3.99-12.55,6.97-9.15,8.51-7.09,25.41.35,32.78,13.32.37,26.75-4.61,35.57-10.81,4.7-3.3,7.71-9.29,10.46-14.3-1.53-3.75-4.56-7.54-8.02-11.51Z"/><path d="M288.25,462.13c.98,0,1.78.38,2.41,1.14.67.71,1,1.56,1,2.54,0,1.78-.87,2.92-2.61,3.41-1.2.13-2.43.27-3.68.4,1.02.76,1.54,1.67,1.54,2.74,0,.76-.16,1.43-.47,2.01-.22.53-.53,1.07-.94,1.6h.87c4.01,0,6.02,2.1,6.02,6.29v3.68c0,1.38-.4,2.36-1.2,2.94-.71.67-1.78,1-3.21,1-.58,0-1.07-.04-1.47-.13,2.23,1.7,3.86,3.21,4.88,4.55.49.58.73,1.36.73,2.34,0,.85-.33,1.67-1,2.48-.8.98-1.76,1.47-2.88,1.47-.62,0-1.09-.2-1.4-.6-2.9-2.9-5.46-5.37-7.69-7.42-.18-.13-.31-.24-.4-.33-.27.85-.71,1.58-1.34,2.21-1.12,1.3-3.26,2.03-6.42,2.21h-9.96v.27c0,.71-.25,1.4-.74,2.07h19.33c3.08,0,5.31.38,6.69,1.13,1.47,1.12,2.21,2.65,2.21,4.62-.27,2.14-2.21,4.39-5.82,6.75-1.34.89-2.76,1.72-4.28,2.48,4.9.31,8.52.47,10.84.47,2.36.09,3.59,1.31,3.68,3.68,0,1.29-.29,2.3-.87,3.01-.27.94-1.36,1.4-3.28,1.4-3.61,0-7.16-.18-10.64-.53-4.01-.36-8.45-1.36-13.31-3.01-1.47.36-3.03.71-4.68,1.07-7.89,1.56-15,2.38-21.34,2.47-1.52,0-2.68-.33-3.48-1-.8-.72-1.2-1.79-1.2-3.21,0-2.36,1.23-3.65,3.68-3.88,5.17-.27,9.9-.67,14.18-1.21-2.19-1.29-4.15-2.65-5.88-4.08-1.61.8-3.17,1.43-4.68,1.87-.89.36-1.92.54-3.08.54s-2.23-.71-3.08-2.14c-.58-.58-.87-1.51-.87-2.81s.69-2.21,2.07-2.61c3.3-1.29,6.73-3.05,10.3-5.28,1.65-1.07,3.05-1.98,4.21-2.74-.4-.22-.76-.51-1.07-.87-.76-.8-1.14-2.21-1.14-4.21v-2.61c0-1.07.36-2.05,1.07-2.94.76-.67,1.87-1,3.34-1,1.29,0,2.36.33,3.21,1,.85.71,1.27,1.7,1.27,2.94v.8c0,.85.42,1.27,1.27,1.27h4.41c-1.2-1.16-2.52-2.29-3.95-3.41-.22-.18-.38-.33-.47-.47-.67-.49-1-1.27-1-2.34,0-.31.02-.58.07-.8h-13.71c-.67,0-1,.33-1,1v1.61c.94.05,1.87.51,2.81,1.4,1.02,1.03,1.56,2.12,1.6,3.28,0,.67-.27,1.34-.8,2.01-1.07,1.56-2.61,3.23-4.61,5.02-.71.54-1.38.98-2.01,1.34-.36.18-.76.27-1.2.27-1.25,0-2.32-.74-3.21-2.21-.62-.62-.94-1.63-.94-3.01,0-1.47.69-2.43,2.07-2.88.44-.36.89-.8,1.34-1.34-1.16-.05-2.03-.36-2.61-.94-.71-.67-1.07-1.65-1.07-2.94v-3.68c0-4.19,1.92-6.29,5.75-6.29h3.08c-.85-1.2-1.74-2.41-2.68-3.61-.04-.09-.11-.18-.2-.27h-1.81c-2.41,0-3.61-1.49-3.61-4.48.04-1.69,1.16-2.65,3.34-2.87,17.48-.31,33-1.14,46.55-2.48,1.29-.09,2.34-.13,3.14-.13ZM252.67,475.97h7.82c-.85-1.43-1.74-2.85-2.68-4.28l-.07-.14c-2.68.09-5.17.18-7.49.27.22.27.42.56.6.87.89,1.38,1.49,2.47,1.81,3.28ZM255.88,505.8c1.65,1.07,3.34,2.16,5.08,3.28,1.34.67,2.61,1.25,3.81,1.74,2.99-.8,5.57-1.71,7.76-2.74,1.74-.76,2.61-1.34,2.61-1.74,0-.36-.6-.54-1.81-.54h-17.45ZM269.46,475.97h4.15c.36-.36.76-.82,1.2-1.4.89-1.07,1.76-2.1,2.61-3.08.31-.49.6-.89.87-1.21-3.57.27-7.29.51-11.17.74.22.4.45.82.67,1.27.85,1.61,1.4,2.83,1.67,3.68ZM278.82,488.48c.13-.18.29-.36.47-.54.85-.62,1.65-.94,2.41-.94.62,0,1.14.14,1.54.4.27.18.53.36.8.53-.18-.44-.27-.94-.27-1.47v-2.14c0-.67-.42-1-1.27-1h-15.31c.49.4.98.82,1.47,1.27.85.76,1.27,1.63,1.27,2.61,0,1.12-.27,2.07-.8,2.88-.04.09-.11.18-.2.27h.27c.71,0,1.2-.16,1.47-.47.4-.49.69-1.2.87-2.14.4-.89,1.54-1.4,3.41-1.54,1.16.05,2.16.38,3.01,1,.4.36.69.78.87,1.27Z"/><path d="M354.87,490.02c.09,2.19-1.03,3.66-3.34,4.41-3.34,1.21-7.72,2.92-13.11,5.15.13,1.43.2,2.92.2,4.48s-.47,2.7-1.4,3.55c-.98.89-2.14,1.34-3.48,1.34-1.25,0-2.36-.44-3.34-1.34-.98-.85-1.47-2.03-1.47-3.55l-.07-.53-1.81.87c-4.99,2.14-7.49,4.04-7.49,5.68,0,1.3,2.72,1.94,8.16,1.94s10.95-.31,17.05-.94c1.56-.09,2.83.31,3.81,1.2,1.03.94,1.56,2.05,1.61,3.34.04,1.16-.29,2.14-1,2.94-.76.94-1.85,1.43-3.28,1.47-6.51.49-12.57.73-18.19.73-11.9,0-17.86-3.9-17.86-11.7,0-4.01,5.82-8.8,17.46-14.38-1.29-2.5-3.05-3.75-5.28-3.75-3.12,0-5.84.85-8.16,2.54-2.41,2.01-4.86,4.04-7.36,6.09-1.11.76-2.25,1.13-3.41,1.13s-2.21-.4-3.01-1.2c-.8-.85-1.2-1.87-1.2-3.08,0-1.47.65-2.83,1.94-4.08,2.99-2.81,6.46-7.11,10.43-12.91-2.76.09-4.91.13-6.42.13s-2.76-.4-3.61-1.2c-.89-.8-1.31-1.83-1.27-3.08,0-1.21.44-2.25,1.34-3.14.89-.89,2.07-1.34,3.54-1.34,2.45,0,6.44-.13,11.97-.4.89-1.52,1.49-2.74,1.81-3.68.67-2.32,2.12-3.48,4.35-3.48,1.2,0,2.27.45,3.21,1.34.94.8,1.4,1.85,1.4,3.15,0,.58-.09,1.18-.27,1.8l-.07.33c5.97-.36,10.43-.67,13.38-.94,1.52-.09,2.79.29,3.81,1.14.8.85,1.23,1.89,1.27,3.14.13,2.63-1.32,4.06-4.35,4.28-4.64.4-10.97.85-18.99,1.34-.94,1.43-2.03,3.03-3.28,4.82,3.52-.49,5.06-.74,4.62-.74,5.8,0,9.94,2.59,12.44,7.76,5.35-2.27,9.52-3.9,12.51-4.88.67-.18,1.29-.27,1.87-.27,1.29,0,2.32.42,3.08,1.27.76.85,1.18,1.92,1.27,3.21Z"/><path d="M374.49,470.96c-.53,4.28-1.05,8.61-1.54,12.98-.71,6.87-1.07,12.35-1.07,16.45s.13,8.67.4,13.58c.04,1.6-.42,2.85-1.4,3.74-.98.94-2.16,1.4-3.54,1.4-1.29,0-2.36-.38-3.21-1.14-.98-.85-1.49-1.98-1.54-3.41-.27-5.17-.4-9.9-.4-14.18,0-4.59.89-14.78,2.68-30.57.31-2.9,1.89-4.35,4.75-4.35,1.43,0,2.65.49,3.68,1.47.98.98,1.38,2.32,1.2,4.01ZM419.23,508.68c0,1.2-.49,2.39-1.47,3.55s-2.01,1.74-3.08,1.74c-.58,0-1.29-.31-2.14-.94-.67-.49-2.21-1.56-4.61-3.21-3.08,5.75-8.07,8.63-14.98,8.63-4.28,0-7.83-.96-10.63-2.88-2.94-2.05-4.41-4.7-4.41-7.96,0-3.74,1.6-6.64,4.81-8.69,2.76-1.87,6.09-2.81,9.97-2.81,2.14,0,4.06.36,5.75,1.07-.09-2.28-.18-6.06-.27-11.37-9.27,0-14.11-.02-14.51-.07-1.47,0-2.61-.47-3.41-1.4-.85-.89-1.29-1.96-1.34-3.21-.04-1.38.38-2.52,1.27-3.41.89-.94,2.16-1.29,3.81-1.07,3.48.27,8.18.31,14.11.13v-5.15c.09-4.01,1.83-6.02,5.22-6.02,1.83,0,3.12.38,3.88,1.14.71.76,1.07,2.03,1.07,3.81,0,.76-.04,2.54-.13,5.35,1.34-.27,3.21-.54,5.62-.8,3.43-.27,5.15.94,5.15,3.61,0,2.01-.42,3.41-1.27,4.21-.85.85-2.3,1.34-4.35,1.47-.85.09-2.61.29-5.28.6.09,6.15.24,11.1.47,14.85,3.25,1.38,5.62,2.56,7.09,3.55,2.45,1.69,3.68,3.45,3.68,5.28ZM398.37,505.93c-1.83-1.83-3.81-2.74-5.95-2.74-3.61,0-5.42,1.38-5.42,4.15,0,1.03.69,1.89,2.07,2.61,1.16.63,2.39.94,3.68.94,1.38,0,2.65-.51,3.81-1.54,1.16-.98,1.76-2.12,1.81-3.41Z"/><path d="M473.7,516.97c-5.44,1.34-12.8,2.01-22.07,2.01-5.97,0-11.04-.74-15.18-2.21-6.2-2.1-9.3-5.62-9.3-10.57,0-3.75.69-6.62,2.07-8.63,1.2-1.74,2.63-2.59,4.28-2.54,1.2.04,2.23.47,3.08,1.27.8.85,1.2,1.94,1.2,3.28,0,.67-.2,1.54-.6,2.61-.36,1.12-.54,1.92-.54,2.41,0,1.83,1.25,3.08,3.75,3.74,2.18.63,5.93.94,11.24.94,8.47,0,15.03-.58,19.66-1.74.49-.09.96-.13,1.4-.13,1.38,0,2.52.49,3.41,1.47.85,1.03,1.27,2.19,1.27,3.48,0,2.45-1.22,3.99-3.68,4.61ZM473.16,473.9c0,1.25-.42,2.3-1.27,3.14-.89,1.07-2.1,1.65-3.61,1.74-3.92.4-8.12.6-12.57.6-6.33,0-12.71-.27-19.13-.8-3.52-.36-5.28-2.03-5.28-5.02,0-1.29.49-2.41,1.47-3.34.98-.94,2.32-1.34,4.01-1.21,5.84.49,11.17.74,15.98.74s9.41-.18,14.31-.54c2.01-.18,3.57.24,4.68,1.27.94.89,1.4,2.03,1.4,3.41Z"/><path d="M504.63,505.93c0,1.03-.45,2.12-1.34,3.28-.05.13-.8,1-2.28,2.61-2.41,2.72-5.04,4.08-7.89,4.08-3.03,0-5.48-2.23-7.36-6.69-1.52-3.66-2.28-7.47-2.28-11.44,0-3.25,1.65-4.88,4.95-4.88,2.63,0,4.04,1.16,4.21,3.48.45,6.02,1.31,9.03,2.61,9.03.49,0,1.31-.58,2.47-1.74,1.11-1.16,1.98-1.74,2.61-1.74,1.02,0,2.01.42,2.94,1.27.89.85,1.34,1.76,1.34,2.74ZM527.23,476.64c0,2.14-.85,3.52-2.54,4.15-1.65.58-3.7,1.54-6.15,2.88-3.08,1.56-4.62,2.72-4.62,3.48,0,.27.91,1.29,2.74,3.08,1.16,1.12,2.3,2.21,3.41,3.28,4.01,4.68,6.02,9.7,6.02,15.05,0,3.61-1.2,6.35-3.61,8.23-2.05,1.69-4.88,2.54-8.49,2.54-2.5,0-4.64-.38-6.42-1.14-2.28-1.03-3.41-2.59-3.41-4.68,0-1.16.33-2.21,1-3.15.62-.89,1.47-1.34,2.54-1.34.49,0,1.25.16,2.27.47,1.07.31,1.9.47,2.48.47,1.2,0,2.12-.27,2.74-.8.63-.54.94-1.14.94-1.8,0-1.96-.96-4.3-2.87-7.02-1.79-2.5-3.7-4.48-5.75-5.95-2.36-1.61-3.54-3.65-3.54-6.15,0-1.96.82-3.72,2.47-5.28,1.2-1.2,3.74-3.01,7.63-5.42-1.56-.54-4.17-1.61-7.83-3.21-3.03-1.65-4.55-3.3-4.55-4.95,0-1.25.42-2.36,1.27-3.34.85-1.07,1.89-1.61,3.14-1.61,1.11,0,3.92,1.03,8.43,3.08,2.05,1.07,5.08,2.48,9.09,4.22,2.41.8,3.61,2.45,3.61,4.95ZM537.26,473.1c0,.62-.29,1.18-.87,1.67-.58.45-1.18.67-1.81.67-1.16,0-2.01-.47-2.54-1.4-.58-.94-1.58-2.5-3.01-4.68-.76-1.16-1.14-2.14-1.14-2.94,0-1.61.98-2.41,2.94-2.41.94,0,1.81.47,2.61,1.4,1.38,1.7,2.5,3.43,3.34,5.22.31.76.47,1.58.47,2.48ZM543.42,507.27c.09.45.14.82.14,1.14,0,1.38-.51,2.52-1.54,3.41-.94.85-2.05,1.27-3.34,1.27-2.5,0-4.08-1.27-4.75-3.81-1.21-4.5-2.97-8.78-5.28-12.84-.49-.89-.73-1.78-.73-2.68,0-1.38.49-2.54,1.47-3.48.98-.98,2.14-1.47,3.48-1.47,1.56,0,2.85.78,3.88,2.34,3.21,4.82,5.44,10.19,6.69,16.12ZM545.36,470.75c0,1.56-.89,2.34-2.68,2.34-1.12,0-1.96-.47-2.54-1.4-.62-.94-1.65-2.5-3.08-4.68-.72-1.11-1.07-2.1-1.07-2.94,0-1.61,1-2.41,3.01-2.41.94,0,1.79.47,2.54,1.4,1.38,1.7,2.5,3.43,3.34,5.22.31.76.47,1.58.47,2.47Z"/><path d="M576.8,462.66c1.78,0,3.1.36,3.95,1.07.85.63,1.27,1.85,1.27,3.68v11.5c0,5.17,1.43,10.37,4.28,15.58,3.43,5.93,10.01,12.75,19.73,20.46,1.07.8,1.61,2.1,1.61,3.88,0,1.34-.51,2.38-1.54,3.14-1.07.89-2.3,1.34-3.68,1.34-1.25-.13-2.3-.33-3.14-.6-.85-.27-1.61-.71-2.28-1.34-4.32-3.12-10.43-10.3-18.33-21.53-.67-.94-1.29-1.4-1.87-1.4-.45,0-.82.4-1.14,1.2-5.13,8.38-11.79,15.87-20,22.47-.8.8-2.39,1.2-4.75,1.2-1.52-.09-2.76-.73-3.74-1.94-.67-.98-1-1.83-1-2.54,0-1.38.27-2.52.8-3.41,9.32-6.73,15.83-12.98,19.53-18.73,3.52-5.8,5.28-11.5,5.28-17.12v-12.17c0-1.65.44-2.85,1.34-3.61.89-.76,2.12-1.14,3.68-1.14Z"/><path d="M663.85,494.77c0,2.81-1.49,4.33-4.48,4.55l-19.06,1.74,1.67,14.65c.22,1.65-.16,2.96-1.13,3.94-.98,1.03-2.19,1.54-3.61,1.54-2.9,0-4.5-1.43-4.81-4.28l-1.87-14.98-18.73,1.61c-1.56.18-2.81-.13-3.75-.94s-1.4-1.81-1.4-3.01c0-3.21,1.45-4.95,4.35-5.22l18.52-1.61-1.2-9.16-14.78,1.4c-1.61.09-2.85-.24-3.75-1-.94-.76-1.4-1.8-1.4-3.14,0-3.12,1.47-4.79,4.41-5.02l14.45-1.4-.47-4.21c-.23-1.74.24-3.12,1.4-4.15.98-.94,2.21-1.4,3.68-1.4,1.12,0,2.1.4,2.94,1.2.85.72,1.36,1.74,1.54,3.08l.54,4.48,14.71-1.34c1.56-.18,2.83.16,3.81,1,1.03.8,1.54,1.8,1.54,3.01,0,3.16-1.52,4.88-4.55,5.15l-14.31,1.34,1,9.3,19.46-1.74c1.56-.09,2.83.31,3.81,1.21.98.94,1.47,2.07,1.47,3.41Z"/><path d="M720.61,488.61c0,3.34-2.56,8.27-7.69,14.78-.85.98-1.87,1.47-3.08,1.47-1.34,0-2.48-.38-3.41-1.14-.94-.8-1.4-1.85-1.4-3.14,0-.89.36-1.8,1.07-2.74.54-.85,1.67-2.52,3.41-5.02.49-.76.73-1.25.73-1.47,0-.36-.58-.42-1.74-.2-3.34.45-8.09,1.05-14.24,1.81l4.55,23.14c.13.4.2.76.2,1.07,0,1.25-.45,2.25-1.34,3.01-.85.8-1.87,1.2-3.08,1.2-2.45,0-3.92-1.18-4.41-3.54l-4.68-23.68-8.43,1c-1.47.27-2.65,0-3.55-.8-.94-.76-1.4-1.74-1.4-2.94,0-2.76,1.29-4.3,3.88-4.61l7.83-1.07-1.21-6.02c-.09-.27-.13-.6-.13-1,0-1.29.51-2.34,1.54-3.14.89-.71,1.96-1.07,3.21-1.07,2.19,0,3.55,1.18,4.08,3.54l1.27,6.62c12.44-1.61,19.15-2.41,20.13-2.41,5.26,0,7.89,2.12,7.89,6.35Z"/><path d="M748.64,480.05c-.09,1.34-.63,2.5-1.61,3.48-1.03.98-2.21,1.45-3.54,1.41-.94-.05-1.83-.4-2.68-1.07-3.03-2.1-7.25-4.68-12.64-7.76-1.65-.94-2.48-2.25-2.48-3.95,0-1.25.47-2.41,1.41-3.48.94-1.12,2.03-1.7,3.28-1.74.85,0,1.69.24,2.54.73,5.71,3.21,10.21,5.98,13.51,8.29,1.52,1.03,2.25,2.39,2.21,4.08ZM777.8,487.28c-4.24,7.89-10.34,14.67-18.33,20.33-7.98,5.66-16.88,9.5-26.68,11.5-.4.09-.78.13-1.14.13-1.43,0-2.59-.56-3.48-1.67-.76-1.03-1.14-2.23-1.14-3.61,0-2.36,1.27-3.81,3.81-4.35,8.69-1.78,16.14-4.93,22.34-9.43,5.89-4.28,11.3-10.25,16.25-17.92.94-1.43,2.36-2.14,4.28-2.14,1.25,0,2.34.47,3.28,1.4.98.94,1.47,2.05,1.47,3.34,0,.8-.22,1.61-.67,2.41Z"/><path d="M841.08,509.41c0,1.38-.56,2.57-1.67,3.55-1.07.98-2.3,1.4-3.68,1.27-.98-.18-1.89-.6-2.74-1.27-5.4-4.77-13.62-13.2-24.68-25.28-.67-.85-1.43-1.74-2.27-2.68-.8-.89-1.38-1.34-1.74-1.34-.58,0-1.76,1.38-3.55,4.14-.98,1.38-3.77,5.24-8.36,11.57-.89,1.25-2.03,1.94-3.41,2.07-1.43.13-2.7-.31-3.81-1.34-1.16-1.02-1.72-2.23-1.67-3.61,0-.98.33-1.92,1-2.81,2.19-3.12,5.35-7.54,9.5-13.24,2.41-3.03,3.77-4.68,4.08-4.95,1.65-1.6,3.57-2.41,5.75-2.41,3.25,0,6.84,2.45,10.77,7.36,2.14,2.63,6.31,7.05,12.51,13.24,5.48,5.4,9.58,9.3,12.31,11.7,1.2,1.03,1.76,2.36,1.67,4.01ZM838.61,473.3c0,2.05-.76,3.77-2.28,5.15-1.52,1.38-3.23,2.07-5.15,2.07-2.1,0-3.9-.65-5.42-1.94-1.47-1.29-2.21-3.01-2.21-5.15s.71-3.83,2.14-5.21c1.38-1.34,3.21-2.01,5.48-2.01,2.1,0,3.86.67,5.28,2.01,1.43,1.34,2.14,3.03,2.14,5.08ZM834.2,473.3c0-.85-.29-1.54-.87-2.07-.58-.53-1.32-.8-2.21-.8-2.05,0-3.08.98-3.08,2.94,0,.89.29,1.61.87,2.14.58.54,1.31.8,2.21.8.8,0,1.51-.29,2.14-.87.62-.58.94-1.29.94-2.14Z"/><path d="M903.69,492.22c0,1.38-.4,2.57-1.2,3.55-.89,1.2-2.1,1.8-3.61,1.8h-51.77c-1.52,0-2.74-.58-3.68-1.74-.8-.98-1.2-2.09-1.2-3.34,0-1.34.42-2.56,1.27-3.68.85-1.07,2.05-1.61,3.61-1.61h51.77c1.47,0,2.68.54,3.61,1.61.8.98,1.2,2.12,1.2,3.41Z"/><path d="M926.17,480.05c-.09,1.34-.63,2.5-1.61,3.48-1.03.98-2.21,1.45-3.54,1.41-.94-.05-1.83-.4-2.68-1.07-3.03-2.1-7.25-4.68-12.64-7.76-1.65-.94-2.48-2.25-2.48-3.95,0-1.25.47-2.41,1.41-3.48.94-1.12,2.03-1.7,3.28-1.74.85,0,1.69.24,2.54.73,5.71,3.21,10.21,5.98,13.51,8.29,1.52,1.03,2.25,2.39,2.21,4.08ZM955.33,487.28c-4.24,7.89-10.34,14.67-18.33,20.33-7.98,5.66-16.88,9.5-26.68,11.5-.4.09-.78.13-1.14.13-1.43,0-2.59-.56-3.48-1.67-.76-1.03-1.14-2.23-1.14-3.61,0-2.36,1.27-3.81,3.81-4.35,8.69-1.78,16.14-4.93,22.34-9.43,5.89-4.28,11.3-10.25,16.25-17.92.94-1.43,2.36-2.14,4.28-2.14,1.25,0,2.34.47,3.28,1.4.98.94,1.47,2.05,1.47,3.34,0,.8-.22,1.61-.67,2.41Z"/></g></g></g></g></svg>