<?xml version="1.0" encoding="UTF-8"?><svg xmlns="http://www.w3.org/2000/svg" viewBox="0 0 1024 1024"><title>election-r3-ib logo</title><desc>Copyright &#xa9; 2026 Pearlpuppy. All rights reserved.</desc><metadata><rdf:RDF xmlns:rdf="http://www.w3.org" xmlns:dc="http://purl.org"><rdf:Description rdf:about=""><dc:title>election-r3-ib logo</dc:title><dc:creator>Pierre Pearlpuppy</dc:creator><dc:rights>Copyright &#xa9; 2026 Pearlpuppy. All rights reserved.</dc:rights><dc:date>2026-03-20</dc:date><dc:format>image/svg+xml</dc:format></rdf:Description></rdf:RDF></metadata><g isolation="isolate"><g id="logo-election-r3-ib"><g id="election-r3-ib"><g data-fc="#2e3190"><path d="M457,304.37v4.47c2.98-.26,6.65-.34,10.32-.34h36.35c3.67,0,6.08.08,10.55.34v-4.56c7.11,3.35,9.86,4.47,19.15,7.65,2.18-4.56,3.33-6.45,7.22-11.52-10.89-2.92-18.92-5.93-27.75-10.66-8.49-4.56-14.91-9.2-19.49-14.1h-16.05c-4.7,5.42-10.43,9.63-19.26,14.45-8.48,4.64-16.51,7.91-27.06,10.92,3.78,3.78,5.05,5.59,7.68,10.66,7.8-2.66,11.7-4.21,18.35-7.31ZM485.55,285.62c6.19,5.42,11.35,9.2,17.66,12.9h-35.2c7.8-4.47,12.15-7.57,17.54-12.9Z" fill="currentcolor"/><path d="M711.7,339.45c-5.5,0-10.21-1.2-13.53-3.61-2.41-1.63-3.32-3.01-4.24-6.19l-20.18,2.75c1.95,4.99,3.44,7.48,6.65,10.32,6.54,5.76,17.09,8.68,31.07,8.68s23.62-2.49,30.16-7.31c4.36-3.18,6.99-7.91,6.99-12.64,0-4.99-1.72-8.69-5.39-11.87-3.9-3.18-8.26-4.82-16.17-5.93,7.8-1.72,10.78-2.92,13.87-5.67,3.33-2.84,5.05-6.71,5.05-11.18s-2.41-8.69-6.42-11.7c-5.96-4.47-15.48-6.88-27.18-6.88-12.27,0-21.67,2.49-28.21,7.39-3.9,2.92-5.73,5.5-8.03,10.75l20.41,2.41c.92-2.41,1.49-3.44,2.87-4.73,2.52-2.41,6.77-3.78,12.04-3.78,9.52,0,14.33,2.75,14.33,8.34,0,3.27-1.84,5.76-5.27,7.39-2.64,1.29-6.99,1.98-12.61,1.98-3.56,0-7.45-.17-10.89-.52v12.64c4.24-.34,8.14-.43,13.87-.43,11.47,0,17.32,3.35,17.32,9.8,0,6.1-6.42,9.97-16.51,9.97Z" fill="currentcolor"/><rect x="216.24" y="354.13" width="20.28" height="21.43" fill="currentcolor"/><rect x="307.71" y="354.13" width="20.97" height="21.43" fill="currentcolor"/><rect x="262.32" y="354.13" width="19.59" height="21.43" fill="currentcolor"/><path d="M243.43,411.96c-11.06,12.44-14.05,15.67-23.27,23.97,18.89-5.99,29.26-10.37,40.78-17.28,8.99-5.53,16.82-11.52,22.12-17.51h-65.21l25.58,10.83Z" fill="currentcolor"/><path d="M831.5,353.39c-.24-1.96-.3-4.11-.3-7.49v-9.03h25.23c5.16,0,9.17.17,12.96.52v-11.44c-3.67.34-7.45.52-12.96.52h-25.23v-12.73h17.66c5.16,0,8.14.08,11.93.34v-10.66c-3.55.26-6.76.34-12.5.34h-17.09v-9.8h21.9c5.27,0,8.72.17,12.27.52v-11.18c-3.67.43-6.65.52-12.27.52h-52.06c.8-1.37,1.26-2.07,2.06-3.44,1.61-2.58,1.72-2.75,2.52-3.95l-16.28-2.24c-.46,1.63-1.38,3.61-2.87,6.19-4.82,8.08-10.89,13.84-22.13,20.72,4.13,3.1,6.08,5.07,9.98,9.54,3.78-2.58,5.39-3.78,8.49-6.36.12,1.29.23,2.58.23,4.22v17.97h-4.36c-5.39,0-9.17-.17-13.07-.52v11.44c3.9-.35,7.8-.52,13.07-.52h37.27v8.86c0,3.43-.12,5.68-.35,7.66h-159.76c-.45-3.08-.68-6.58-.68-11.1v-52.11c0-4.04.11-6.53.57-9.2-3.44.34-6.88.43-11.58.43h-27.06c-5.05,0-7.45-.09-11.35-.43.34,2.75.46,5.42.46,9.2v53.14c0,3.61-.23,7.14-.57,10.06h15.02v-5.59h19.61v5.6h-52.33c-.34-2.51-.42-5.01-.42-9.29v-13.5c0-4.82-.11-6.71-.69-9.03,3.33,4.56,5.62,6.97,11.7,11.69,3.1-4.99,3.9-6.02,7.68-9.54-5.16-2.92-6.88-4.13-10.44-7.14-3.55-3.01-5.16-4.73-7.45-8h4.82c4.13,0,6.88.09,9.75.35v-10.84c-2.52.35-4.93.43-9.52.43h-5.85v-9.97c3.56-.69,10.55-2.32,12.96-2.92.69-.17,1.15-.34,1.26-.34q1.72-.43,3.21-.77l-8.48-9.63c-7.23,3.44-24.08,6.62-42.2,7.83,2.64,3.95,3.67,6.36,4.47,9.97,7.57-.77,10.21-1.12,14.33-1.72v7.57h-8.37c-4.59,0-7.34-.08-10.55-.43v10.92c3.1-.26,6.19-.43,10.44-.43h6.31c-2.18,4.39-3.21,5.94-6.19,9.72-4.13,5.33-8.71,9.72-13.3,12.64,2.98,3.1,4.82,5.59,7.57,10.4,3.78-3.27,5.39-4.81,7.34-7.22,3.78-4.64,5.16-6.71,7.11-10.92-.34,4.04-.46,6.62-.46,8.6v12.3c0,4.32-.08,6.71-.42,9.29h-86.21c-.29-2.02-.41-4.28-.41-7.4v-21.33h25.69v12.21c0,1.46-1.03,1.89-4.93,1.89-3.1,0-6.65-.17-13.53-.6,2.29,4.04,3.1,6.45,3.78,10.92,7.8.17,8.72.17,10.89.17,14.56,0,18.81-2.23,18.81-9.97v-16.85c0-3.95.11-5.67.34-8.08-2.75.17-5.5.26-10.21.26h-59.63c-5.96,0-10.21-.17-14.33-.43v10.92c4.59-.26,9.17-.43,14.1-.43h13.19v21.41c0,2.95-.13,5.14-.38,7.31h-53.69v-79.2H128v288h768v-208.8h-64.5ZM783.61,303.59c4.24-3.78,6.65-6.1,9.75-9.63h22.59v9.8h-25.23c-2.87,0-4.82-.08-7.11-.17ZM797.71,326.47v-12.73h18.23v12.73h-18.23ZM620.87,337.22v-45.32h19.38v45.32h-19.38ZM228.45,490.54c-15.67,14.28-28.8,23.5-47.47,32.72-5.53-10.6-9.22-15.9-17.51-25.35,26.73-10.83,50.92-28.8,62.44-45.85l22.81,18.2q-11.98,12.67-20.28,20.28ZM366.01,522.57c-20.28-9.22-34.1-18.2-49.31-31.8-14.29-12.67-23.73-25.12-30.18-39.63v48.39c0,11.52.46,19.82,1.38,27.19h-33.18c.92-7.38,1.38-16.13,1.38-27.19v-49.77c-7.37,3.68-10.37,4.84-19.35,8.53-5.99-10.14-8.99-14.29-16.59-22.12-12.67,11.29-19.59,16.13-35.48,25.58-6.22-9.91-10.37-15.21-18.43-23.27,22.12-10.14,42.4-25.35,49.31-37.33h-23.27c-8.76,0-19.59.46-26.96,1.38v-28.11c5.07.46,11.29.92,17.28.92h5.3v-28.57c0-6.68-.23-12.9-.92-17.74,6.91.46,14.29.69,22.35.69h38.94c3.92-8.07,5.76-12.9,7.83-20.05l33.18,3c-1.61,3-1.61,3.22-5.53,10.6-1.38,2.54-2.07,3.69-3.46,6.45h55.99c8.3,0,15.21-.23,22.12-.69-.69,5.53-.92,9.91-.92,16.82v29.49h4.61c5.3,0,11.29-.46,17.05-.92v28.11c-7.37-.92-18.2-1.38-26.96-1.38h-58.99l19.35,9.22c-4.38,4.15-11.06,9.68-14.98,12.9,3.46,8.3,5.76,12.44,10.37,18.89,16.82-11.98,29.72-24.65,36.64-35.48l25.35,17.51c-2.3,2.07-3,2.77-5.53,5.07-13.82,13.13-26.04,23.04-38.71,31.57,16.13,14.06,32.72,23.96,54.84,32.72-7.37,11.29-9.91,16.59-14.52,29.03ZM646.4,542.91h-211.2v-170.25h211.2v170.25ZM876.8,542.91h-211.2v-170.25h211.2v170.25Z" fill="currentcolor"/><path d="M454.79,537.93h25.15c-.77-6.25-.96-10.93-.96-21.16v-115.19h15.74c-4.42,14.92-8.45,25.67-14.59,37.12,6.72,8.85,9.22,13.36,11.71,20.12,1.54,4.34,2.69,9.72,2.69,12.66,0,6.42-1.15,7.63-6.53,7.63-2.11,0-3.65-.18-7.49-.7,3.27,6.07,4.42,11.11,4.99,22.03,11.32-.35,14.98-.87,19.78-2.6,7.29-2.78,11.52-9.89,11.52-19.43,0-5.38-.77-10.58-2.5-16.65-2.11-7.8-4.8-13.18-11.71-24.29,5.18-10.23,7.49-15.44,12.67-29.49v11.97c0,5.38-.19,7.98-.57,11.1v1.39h17.09v9.72c4.61-.35,9.22-.52,15.55-.52h45.69c5.95,0,10.75.17,15.55.52v-9.37h18.05c-.58-4.34-.77-7.11-.77-13.01v-15.09c0-6.76.19-9.54.77-13.01-4.42.52-9.22.69-16.51.69h-28.61v-4.68c0-4.86.19-7.63.96-11.28h-27.46c.77,2.95.96,6.25.96,10.76v5.2h-24.19c-4.22,0-5.95,0-10.17-.17l.19-.69-9.98-10.76c-2.88.52-5.57.69-12.67.69h-29.95c-5.95,0-9.79-.17-14.02-.69.57,6.07.77,11.1.77,17.52v117.96c0,8.5-.38,15.61-1.15,21.68ZM538.49,412.34h63.36v10.41c-3.46.18-4.22.18-8.83.18h-45.5c-4.22,0-6.14,0-9.02-.18v-10.41Z" fill="currentcolor"/><path d="M606.46,512.95c-.96,2.08-2.69,2.78-8.45,2.78-4.8,0-6.14-.87-6.14-4.51v-40.42h16.13c7.49,0,12.86.35,18.62.87v-21.16c-5.38.69-8.45.87-18.62.87h-70.65c-7.49,0-12.86-.17-18.43-.69v20.82c5.18-.52,7.1-.69,17.28-.69-1.15,13.88-4.61,22.9-11.33,30.53-7.49,8.33-16.89,14.05-32.64,19.43,7.1,6.07,10.56,10.24,15.74,18.39,19.01-8.15,30.91-16.82,38.97-28.27,7.29-10.58,10.75-21.33,12.67-40.07h8.83v51.35c0,10.41,6.91,13.88,28.03,13.88,16.7,0,23.04-2.08,27.45-8.5,2.88-4.51,4.8-13.53,6.34-30.53-9.98-1.56-14.21-2.78-21.7-6.25-.38,10.75-1.34,19.95-2.11,22.2Z" fill="currentcolor"/><path d="M674.93,513.12l10.94,23.59c2.88-2.08,4.42-2.95,7.68-5.2,8.07-5.55,11.33-7.98,18.82-14.4,7.49,7.98,13.25,11.8,22.08,14.57,9.03,2.6,21.12,3.47,49.53,3.47,26.3,0,52.99-.35,69.31-.87.96-7.98,3.07-15.44,6.34-23.42-9.41,1.04-12.48,1.39-18.24,1.91,3.27-5.73,5.38-8.68,10.17-13.88-13.82-1.56-24.19-3.65-33.41-6.94h18.24c9.98,0,13.44.17,18.24.69v-18.39c-4.61.52-8.06.69-18.24.69h-13.25v-10.24h9.03c9.98,0,13.06.18,18.05.7v-18.04c-5.18.7-7.49.7-17.85.7h-9.22v-9.02c15.74-.17,21.31-.69,24.96-2.43,4.22-1.91,5.57-5.03,6.91-14.4-8.26-1.39-13.25-2.77-20.16-5.55-.38,7.81-.57,7.81-11.33,7.81-7.87,0-8.83-.35-8.83-3.47v-4.69h22.46c4.42,0,8.26.17,12.67.35-.38-2.43-.57-5.03-.57-9.71v-17c0-6.59,0-6.77.57-9.72-4.03.35-7.49.52-17.09.52h-24.77c-5.95,0-11.71-.17-16.13-.69v17.35c4.61-.35,7.68-.52,15.94-.52h18.81v6.07h-20.35c-7.3,0-9.98,0-13.82-.35.19,5.9.38,9.54.38,11.1v13.71c0,5.55,1.92,8.33,7.11,10.23v10.41h-23.23v-10.06c7.87-1.56,9.98-4.68,11.32-15.61-7.49-1.04-11.9-2.43-19.01-5.38,0,6.94-.77,7.46-10.37,7.46-7.87,0-8.83-.35-8.83-3.65v-4.51h22.85c4.42,0,8.26.17,12.48.35-.19-2.08-.38-4.86-.38-9.71v-19.95c0-3.3,0-4.51.38-6.77-4.03.35-7.49.52-16.9.52h-25.34c-5.95,0-11.71-.17-16.13-.69v17.35c4.61-.35,7.68-.52,15.74-.52h20.35v6.07h-20.35c-7.3,0-9.98,0-13.82-.35.38,4.16.38,5.03.38,10.58v14.57c0,5.55,1.92,8.5,6.53,10.06,3.07,1.04,7.1,1.21,17.86,1.21v9.02h-2.69c-10.37,0-12.87,0-18.05-.7v18.04c4.8-.52,8.07-.7,18.05-.7h2.69v10.24h-9.79c-8.45,0-11.52-.17-15.93-.69v18.39c4.03-.52,7.87-.69,16.13-.69h20.35c-8.06,3.12-15.55,5.03-30.33,7.28,6.34,5.9,8.64,8.5,12.86,14.4-10.94-1.91-16.51-5.2-22.65-14.05v-38.86c0-11.62,0-13.7.58-19.08-4.42.35-7.3.52-14.4.52h-16.13c-7.29,0-10.18-.18-15.74-.87v22.38c5.18-.69,7.87-.87,12.48-.87h9.03v35.22c-10.75,8.15-18.43,12.83-24.96,15.09ZM776.68,464.73h23.23v10.24h-23.23v-10.24ZM786.28,500.98l-12.86-9.02h34.37l-12.67,9.02c12.29,6.94,18.82,9.54,30.72,12.84-13.06.69-32.06,1.04-44.73,1.04-10.94,0-19.97-.17-26.5-.52,13.25-3.82,19.39-6.25,31.68-13.35Z" fill="currentcolor"/><path d="M709.49,424.14l19.01-17c-9.98-11.1-17.66-18.21-31.49-29.14l-18.43,15.79c14.78,11.8,20.54,17.52,30.91,30.36Z" fill="currentcolor"/><path d="M290.9,691.24c-1,1.23-1.31,1.62-2.24,3.78-5.25,11.42-11.73,18.75-21.84,24.62-2.85-3.78-4.48-5.32-8.1-7.87-.46,8.49-1.7,13.58-4.48,18.83-4.4,8.1-11.03,13.58-22.92,18.67-2.47-5.09-3.63-6.71-7.33-10.57,8.49-2.62,13.97-6.02,17.98-11.11,3.86-4.86,5.25-10.65,5.25-21.38,0-2.85-.08-3.47-.39-5.17h12.42c-.23,1.47-.23,1.93-.38,6.56,0,.39,0,1.39-.08,3.63,8.33-3.94,13.12-8.26,17.05-15.59h-38.2c-4.63,0-8.41.15-11.88.46v-11.58c3.86.54,5.87.62,12.04.62h39.82c4.4,0,5.17-.08,7.1-.77l6.17,6.87Z" fill="currentcolor"/><path d="M356.64,688.08c-1.62,1.39-1.78,1.54-2.93,2.78-5.86,6.1-11.73,11.19-18.06,15.74v30.4c0,6.17.08,8.8.39,11.42h-12.73c.38-2.93.46-4.86.46-11.19v-23.46c-8.03,4.78-12.42,6.79-26.39,11.96-2.08-4.78-3.01-6.33-6.25-10.5,15.59-4.32,28.47-10.65,40.67-20.06,6.79-5.25,11.96-10.42,14.28-14.28l10.57,7.18Z" fill="currentcolor"/><path d="M403.73,713.7c-.62,9.11-2.39,15.51-6.02,21.07-4.09,6.48-9.72,10.57-19.83,14.66-2.47-4.78-3.63-6.4-7.64-10.26,9.57-2.93,15.28-6.95,18.44-13.04,1.62-3.09,2.62-7.33,2.85-12.42h-17.13c-5.17,0-7.87.08-10.96.46v-11.11c3.55.39,5.87.54,11.11.54h43.52c5.48,0,7.72-.08,11.42-.54v11.04c-3.55-.31-4.86-.39-11.19-.39h-14.58ZM414.92,694.56c-2.85-.31-4.24-.39-11.27-.39h-21.38c-5.09,0-8.18.08-10.96.39v-11.04c3.55.46,5.63.54,11.11.54h20.99c6.1,0,8.26-.08,11.5-.54v4.55l5.79-2.01c2.62,4.25,3.86,6.95,5.09,10.8l-6.48,2.47c-1.08-3.55-2.7-7.18-4.4-10.03v5.25ZM428.19,696.03c-1.39-4.09-2.47-6.33-5.02-10.65l6.17-2.32c2.55,3.94,3.86,6.56,5.17,10.34l-6.33,2.62Z" fill="currentcolor"/><path d="M508.48,691.24c-1,1.23-1.31,1.62-2.24,3.78-5.25,11.42-11.73,18.75-21.84,24.62-2.85-3.78-4.48-5.32-8.1-7.87-.46,8.49-1.7,13.58-4.48,18.83-4.4,8.1-11.03,13.58-22.92,18.67-2.47-5.09-3.63-6.71-7.33-10.57,8.49-2.62,13.97-6.02,17.98-11.11,3.86-4.86,5.25-10.65,5.25-21.38,0-2.85-.08-3.47-.39-5.17h12.42c-.23,1.47-.23,1.93-.38,6.56,0,.39,0,1.39-.08,3.63,8.33-3.94,13.12-8.26,17.05-15.59h-38.2c-4.63,0-8.41.15-11.88.46v-11.58c3.86.54,5.87.62,12.04.62h39.82c4.4,0,5.17-.08,7.1-.77l6.17,6.87Z" fill="currentcolor"/><path d="M538.11,710.69c-.23.93-.31,1.16-1.31,5.71-.93,4.4-2.93,10.19-5.02,15.05-2.08,4.71-3.63,7.49-6.79,12.04-4.63-3.01-6.17-3.86-10.65-5.56,5.32-6.95,8.18-12.66,10.73-21.07,1.08-3.63,1.54-5.94,1.85-8.8l11.19,2.62ZM544.44,689.93c0-3.78-.15-6.33-.46-9.03h12.5c-.31,2.55-.46,5.25-.46,8.95v3.09h15.97c6.33,0,7.72-.08,11.27-.54v11.27c-3.16-.39-4.63-.46-11.11-.46h-16.13v35.19c0,4.09.15,7.95.39,10.57h-12.42c.31-2.93.46-5.86.46-10.57v-35.19h-15.36c-6.17,0-7.64.08-11.11.39v-11.19c3.55.46,4.94.54,11.11.54h15.36v-3.01ZM573.07,707.91c.54,2.7,1.16,4.71,2.55,8.64,3.4,9.34,6.25,14.97,10.49,20.83-5.56,2.93-6.71,3.63-10.57,6.17-6.02-10.26-8.72-16.98-12.42-30.41-.23-.93-.38-1.39-.85-2.47l10.8-2.78ZM572.45,679.67c2.78,3.94,3.63,5.48,5.48,9.88l-6.87,2.39c-1.7-4.25-2.86-6.48-5.33-10.03l6.71-2.24ZM581.71,676.97c2.7,3.7,4.24,6.41,5.63,9.88l-6.56,2.47c-1.78-4.24-3.01-6.56-5.48-10.19l6.4-2.16Z" fill="currentcolor"/><path d="M605.74,698.81c3.4,6.33,4.94,10.19,7.64,18.91l-10.34,3.16c-2.08-8.41-3.55-12.42-6.94-19.29l9.65-2.78ZM650.42,699.73c-.46,1.31-.54,1.54-1.16,4.32-2.24,10.42-5.56,18.91-10.11,25.54-5.48,7.87-12.35,13.35-24.54,19.52-2.39-4.09-3.47-5.48-7.33-9.18,5.87-2.24,9.18-4.01,13.58-7.1,8.95-6.48,14.05-14.43,17.21-26.78.93-3.78,1.31-6.33,1.39-8.87l10.96,2.55ZM622.49,695.64c4.09,7.79,5.56,11.27,7.49,18.29l-10.11,3.09c-1.47-6.1-3.94-12.73-6.94-18.75l9.57-2.62Z" fill="currentcolor"/><path d="M697.85,681.91c-.39.54-1.16,2.08-2.24,4.55-.69,1.54-1,2.24-1.85,3.94l20.06-.23c2.55-.08,4.09-.31,5.56-.85l5.63,5.56c-.77,1.24-1.08,1.93-2.01,5.02-3.7,12.04-9.1,22.46-15.82,30.1-6.94,7.95-15.74,14.2-28.01,19.83-2.55-4.71-3.86-6.25-7.95-9.95,20.84-8.1,32.87-20.22,39.2-39.66l-21.91.23c-4.71,7.49-10.73,14.12-17.83,19.68-3.24-3.94-4.63-5.09-9.18-7.87,9.03-6.25,15.13-13.2,20.22-22.92,2.24-4.17,3.32-7.1,3.7-9.8l12.42,2.39Z" fill="currentcolor"/><path d="M790.66,748.19c-6.56-8.18-14.28-15.74-22.92-22.46-6.87,8.18-17.05,15.82-28.78,21.53-2.55-4.86-3.63-6.33-7.41-10.26,6.79-2.7,11.34-5.17,17.13-9.41,8.49-6.17,15.28-13.66,20.22-22.3,1-1.7,2.31-4.48,4.09-8.41l-22.53.39c-6.4.15-7.87.23-10.8.69l-.15-11.73c2.47.39,4.63.46,9.41.46h1.47l26.32-.46c4.24,0,4.63-.08,6.48-.93l5.94,6.17c-1,1.08-1.62,2.08-2.55,4.32-3.7,8.64-7.18,14.89-11.65,20.99,9.96,7.1,11.88,8.8,25.08,21.38l-9.34,10.03Z" fill="currentcolor"/></g></g></g></g></svg>