<?xml version="1.0" encoding="UTF-8"?><svg xmlns="http://www.w3.org/2000/svg" viewBox="0 0 1024 1024"><title>pbqd-symbol logo</title><desc>Copyright &#xa9; 2026 Pearlpuppy. All rights reserved.</desc><metadata><rdf:RDF xmlns:rdf="http://www.w3.org" xmlns:dc="http://purl.org"><rdf:Description rdf:about=""><dc:title>pbqd-symbol logo</dc:title><dc:creator>Pierre Pearlpuppy</dc:creator><dc:rights>Copyright &#xa9; 2026 Pearlpuppy. All rights reserved.</dc:rights><dc:date>2026-03-20</dc:date><dc:format>image/svg+xml</dc:format></rdf:Description></rdf:RDF></metadata><g isolation="isolate"><g id="logo-pbqd-symbol"><g id="pbqd-symbol"><g data-fc="#00a7c6"><path d="M329.65,694.33c-34.18-34.2-34.18-89.64,0-123.84,17.29-17.29,48.78-34.61,80.13-43.09-62.11.54-141.34,37.62-178.3,74.58-52.63,52.62-52.63,137.94-.02,190.53,52.65,52.65,137.93,52.65,190.57,0,36.98-36.96,74.03-116.19,74.6-178.27-8.5,31.34-25.83,62.83-43.09,80.09-34.21,34.23-89.67,34.23-123.88,0Z" fill="currentcolor"/><path d="M487.92,536.06c-16.92-16.88-47.46-16.99-78.14-8.66,26.28-.24,49.54,6.01,65.16,21.67,15.66,15.62,21.9,38.87,21.68,65.18,8.32-30.68,8.23-61.25-8.71-78.18Z" fill="currentcolor"/><path d="M601.98,231.49c-36.96,36.96-74.05,116.16-74.58,178.3,8.5-31.37,25.8-62.86,43.08-80.12,34.21-34.23,89.67-34.23,123.87,0,34.21,34.2,34.21,89.64,0,123.87-17.29,17.26-48.76,34.58-80.1,43.1,62.11-.6,141.33-37.62,178.3-74.61,52.6-52.59,52.6-137.91,0-190.53-52.63-52.65-137.95-52.65-190.56,0Z" fill="currentcolor"/><path d="M549.07,474.96c-15.67-15.66-21.92-38.9-21.67-65.18-8.36,30.66-8.23,61.19,8.69,78.12,16.91,16.93,47.47,17.05,78.15,8.72-26.28.24-49.54-6.01-65.18-21.67Z" fill="currentcolor"/><path d="M614.24,527.4c31.32,8.48,62.81,25.8,80.1,43.09,34.21,34.2,34.21,89.67,0,123.84-34.2,34.23-89.66,34.23-123.87,0-17.28-17.26-34.58-48.75-43.08-80.09.54,62.08,37.62,141.31,74.58,178.27,52.62,52.65,137.93,52.65,190.56,0,52.6-52.59,52.6-137.91,0-190.53-36.98-36.96-116.19-74.04-178.3-74.58Z" fill="currentcolor"/><path d="M549.07,549.07c15.64-15.66,38.87-21.93,65.18-21.67-30.7-8.33-61.25-8.21-78.15,8.66-16.92,16.93-17.02,47.5-8.69,78.18-.25-26.31,6-49.55,21.67-65.18Z" fill="currentcolor"/><path d="M329.65,329.67c34.21-34.23,89.64-34.23,123.88,0,17.26,17.29,34.6,48.75,43.09,80.12-.57-62.14-37.62-141.33-74.6-178.3-52.63-52.65-137.92-52.65-190.57,0-52.62,52.62-52.62,137.94.02,190.53,36.96,36.99,116.17,74.02,178.27,74.61-31.32-8.51-62.81-25.83-80.1-43.1-34.18-34.23-34.18-89.67,0-123.87Z" fill="currentcolor"/><path d="M474.94,474.96c-15.62,15.65-38.88,21.9-65.19,21.67,30.68,8.33,61.25,8.21,78.17-8.69,16.93-16.96,17.04-47.5,8.71-78.15.22,26.28-6.03,49.52-21.68,65.18Z" fill="currentcolor"/></g></g></g></g></svg>