<?xml version="1.0" encoding="UTF-8"?><svg xmlns="http://www.w3.org/2000/svg" viewBox="0 0 1024 1024"><title>aquamonte logo</title><desc>Copyright &#xa9; 2026 Pearlpuppy. All rights reserved.</desc><metadata><rdf:RDF xmlns:rdf="http://www.w3.org" xmlns:dc="http://purl.org"><rdf:Description rdf:about=""><dc:title>aquamonte logo</dc:title><dc:creator>Pierre Pearlpuppy</dc:creator><dc:rights>Copyright &#xa9; 2026 Pearlpuppy. All rights reserved.</dc:rights><dc:date>2026-03-20</dc:date><dc:format>image/svg+xml</dc:format></rdf:Description></rdf:RDF></metadata><g isolation="isolate"><g id="logo-aquamonte"><g id="aquamonte"><g data-fc="#8eb24b"><path d="M479.18,539.41c-1.38,0-2.51.89-2.51,2.28s1.12,2.28,2.51,2.28h225.53c1.07-2.61,2.09-5.24,3.05-7.89-3.9,2.13-8.37,3.34-13.11,3.34h-215.47Z" fill="currentcolor"/><path d="M426.57,584.29c-19.34,0-35.08-15.82-35.08-35.16s15.13-35.17,34.45-35.17c2.77,0,5.01,2.32,5.01,5.09s-2.24,5.16-5.01,5.16c-13.7,0-24.43,11.3-24.43,25.34s11.24,25.64,25.06,25.64h262.18c1.07-1.72,2.12-3.45,3.14-5.2h-237.76c-15.2,0-27.56-13.09-27.56-28.29s12.36-28.29,27.56-28.29h215.47c1.38,0,2.5-1.22,2.5-2.6s-1.12-2.6-2.5-2.6h-345.75c-2.77,0-5.01-1.79-5.01-4.55s2.24-4.55,5.01-4.55h345.75c6.91,0,12.53,5.78,12.53,12.68s-5.62,12.68-12.53,12.68h-215.47c-9.67,0-17.54,7.56-17.54,17.24s7.87,17.24,17.54,17.24h243.77c.65-1.29,1.3-2.59,1.93-3.9h-220.64c-6.91,0-12.53-6.43-12.53-13.33s5.62-13.33,12.53-13.33h215.47c9.67,0,17.54-7.56,17.54-17.24s-7.87-17.24-17.54-17.24h-310.68c-2.77,0-5.01-2.11-5.01-4.88s2.24-4.88,5.01-4.88h310.68c9.67,0,18.18,5.04,23.1,12.62.92-6.07,1.57-12.24,1.95-18.47h-299.4c-2.77,0-5.01-1.79-5.01-4.55s2.24-4.55,5.01-4.55h299.77c.02-1.3.05-2.6.05-3.9,0-1.09-.02-2.17-.04-3.25h-293.51c17.42-16.26,34.11-34.44,50.49-52.05,37.55-40.36,57.87-74.55,76.24-105.34,2.56-4.29,6.9-1.19,12.16,1.6,3.19,1.69,6.29-.09,9.96-.34,2.7-.18,5.73,2.34,8.2,1.18,7.4-3.45,13.49-9,16.84-3.93,13.36,20.21,28.76,45.13,46.7,68.25,24.25,31.25,47.86,60.34,72.88,88.22-3-112.32-95-202.46-208.05-202.46s-208.12,93.18-208.12,208.13,93.18,208.12,208.12,208.12c70.68,0,133.12-35.24,170.74-89.1h-256.17Z" fill="currentcolor"/></g><g data-fc="#2186a6"><path d="M157.76,724.96c0,4.52,8.55,4.27,11.6,4.27l-4.88,7.94h-2.44c-5.86,0-23.69.12-23.69-8.3,0-5.49,8.79-16.85,12.33-21.13-16.73,14.04-39.32,29.68-62.16,29.68-9.16,0-20.52-3.54-20.52-14.53,0-5.86,3.42-12.58,6.59-17.34,18.07-26.5,60.33-46.65,90.61-54.83,8.55-2.32,19.29-5.37,27.97-5.37,3.91,0,8.18,4.15,8.18,8.06,0,1.34-4.03,1.47-4.76,1.47-7.94.49-14.65,1.71-22.23,4.03-11.23,3.3-22.35,8.18-32.61,13.8-12.21,6.59-50.44,31.87-50.44,46.41,0,5.37,5.13,6.72,9.53,6.72,20.39,0,49.21-26.01,62.65-39.57,6.84-6.84,12.82-14.41,18.68-21.98,2.44-3.3,5.5-4.27,9.4-4.27,2.69,0,10.99,1.1,10.99,4.64-7.21,8.43-44.82,51.53-44.82,60.33Z" fill="currentcolor"/><path d="M247.59,730.82c6.11-.49,12.21-1.22,18.2-1.59l-5.01,7.94c-6.23.61-12.09.49-18.32,1.71-4.64,7.21-9.04,14.65-12.46,22.47-.61,1.59-2.69,3.91-4.27,4.52-2.2.86-5.74.98-8.18.98-1.83,0-10.01.37-10.01-2.69,0-2.57,26.5-41.52,26.87-42.13-10.01,8.91-21.49,15.39-35.29,15.39-3.91,0-10.5-.86-13.43-3.66-7.45,2.44-15.75,3.42-23.57,3.42l5.13-7.94c5.62-.49,10.5-.98,15.88-2.57,0-.85-.12-1.83-.12-2.69,0-.24.61-2.44.61-2.81,4.88-20.76,36.88-38.71,57.03-38.71,5.86,0,10.75,1.22,16,3.79,2.08-3.66,4.52-4.76,8.55-4.76,2.81,0,11.85-.12,11.85,3.91,0,1.83-26.62,41.16-29.43,45.43ZM245.15,691.62c-4.4,0-7.94.73-12.09,2.32-9.53,3.54-30.04,18.44-30.04,29.55,0,3.17,3.17,3.91,5.62,3.91,15.26,0,35.29-22.71,43.23-34.07-2.08-1.1-4.27-1.71-6.72-1.71Z" fill="currentcolor"/><path d="M343.09,725.57c0,3.66,7.69,3.66,10.14,3.66l-4.88,7.94h-1.59c-5.13,0-20.27.73-20.27-7.08,0-4.76,4.27-10.5,6.84-14.29-10.99,9.04-25.64,21.37-40.79,21.37-3.91,0-11.97-.73-13.43-5.25-7.33,3.18-17.22,5.25-25.16,5.25l5.13-7.94c6.47,0,14.04-1.59,20.15-3.79l-.12-.85c2.32-8.55,25.28-43.84,32.36-43.84,2.81,0,16.24,1.34,16.24,4.64,0,1.34-29.43,31.51-29.43,38.96,0,2.32,2.56,2.69,4.4,2.69,14.65,0,35.78-25.89,43.35-37.61,2.56-4.03,6.11-8.3,11.23-8.3,2.69,0,13.43.61,13.43,4.27,0,1.47-27.6,29.55-27.6,40.18Z" fill="currentcolor"/><path d="M435.01,725.45c0,4.15,8.3,3.79,11.11,3.79l-4.88,7.94h-1.71c-4.88,0-23.08.49-23.08-7.33,0-4.15,5.37-11.11,7.2-13.92-11.23,11.11-26.01,21.49-42.5,21.49-4.15,0-10.38-.73-13.55-3.66-7.45,2.44-15.75,3.42-23.57,3.42l5.13-7.94c5.74-.49,10.62-.61,16-2.69-.49-6.47,2.2-10.99,5.86-15.88,12.33-16.61,35.05-28.58,55.81-28.58,6.35,0,11.23.85,16.36,4.64,2.81-3.42,3.17-6.35,8.18-6.35,3.05,0,13.8.49,13.8,4.76-4.64,6.47-30.16,30.41-30.16,40.3ZM428.54,691.38c-12.58,0-43.23,18.56-43.23,32.36,0,3.17,2.81,3.66,5.25,3.66,15.63,0,37.37-22.84,46.77-33.58-2.81-1.59-5.62-2.44-8.79-2.44Z" fill="currentcolor"/><path d="M653.17,691.25c-.61.73-1.1,1.59-1.71,2.32-2.32,3.3-20.03,25.4-20.52,27.84-.12.49-.24,1.1-.24,1.59,0,5.98,11.6,6.23,15.51,6.23l-4.88,7.94h-2.69c-9.04,0-29.92.24-29.92-12.94,0-15.02,44.45-54.83,44.45-62.89,0-1.71-1.95-2.56-3.42-2.56-6.72,0-22.59,10.99-28.09,14.78-14.41,10.01-27.72,21.49-39.69,34.32-7.82,8.3-15.51,16.36-22.35,25.52-3.05,4.03-6.84,4.03-11.6,4.03-2.44,0-13.8,0-13.8-3.54,0-.85,55.56-63.14,55.56-70.83,0-2.81-2.2-3.66-4.64-3.66-7.82,0-19.78,8.55-25.89,13.07-22.84,16.97-40.79,38.59-58.01,61.06-3.18,4.15-7.82,3.91-12.58,3.91-2.32,0-12.09,0-12.09-3.42,0-2.93,46.53-53.73,46.53-70.1,0-5.13-5.62-6.23-9.65-6.23-12.09,0-26.87,10.87-26.87,23.81,0,3.54,1.47,6.47,4.64,8.18-2.81,2.81-6.72,4.03-10.75,4.03-8.3,0-11.48-3.66-11.48-11.72,0-.85.24-1.83.37-2.56,4.88-21.86,30.41-33.95,51.05-33.95,8.3,0,23.32,1.71,23.32,12.94,0,7.94-10.5,23.08-15.14,29.8,16.85-15.88,43.84-42.13,68.14-42.13,5.98,0,13.8,1.95,13.8,9.4,0,10.38-15.87,26.5-22.47,33.46,17.95-15.14,51.41-43.47,75.59-43.47,6.11,0,14.04,2.32,14.04,9.77,0,9.89-18.56,28.94-24.55,36.02Z" fill="currentcolor"/><path d="M698.92,734.12c-5.25,2.2-10.99,3.3-16.73,3.3s-12.58-.61-17.46-4.4c-8.43,2.44-17.34,4.15-26.26,4.15l5.13-7.94c5.74-.49,10.62-.61,16-2.69-.98-2.57-.85-3.91-.85-6.6,0-4.4,4.64-12.09,7.2-15.39,9.77-12.7,29.68-23.08,45.67-23.08,1.47,0,3.66.12,3.66,2.08,0,.73-4.4,3.78-5.01,4.15-2.44,1.59-5.01,2.81-7.45,4.52-8.67,6.11-25.03,20.51-25.03,31.99,0,3.66,3.91,4.64,6.84,4.64,13.68,0,29.19-15.26,32.12-28.09-2.93,0-7.57-1.83-7.57-5.37,0-7.2,8.43-10.87,14.53-10.87,5.62,0,9.89,2.69,9.89,8.67,0,16.36-20.64,35.17-34.68,40.91Z" fill="currentcolor"/><path d="M800.29,725.81c0,3.54,8.67,3.42,11.11,3.42l-5.01,7.94h-1.95c-5.98,0-25.4.12-25.4-9.16,0-8.43,20.88-27.23,21.86-32.12-.37-1.34-1.59-1.34-2.69-1.34-4.88,0-13.8,5.98-17.71,8.67-11.23,7.69-19.78,16.85-28.09,27.48-3.91,5.01-9.65,6.72-15.75,6.72-.98,0-5.86.12-5.86-1.59,0-1.59,1.74-3.73,3.05-4.4-12.99,6.58-39.72,5.74-46.31,5.74l15.94-5.25c26.16-2.18,38.92-14.65,45.64-26.25l8.18-14.04c2.81-4.88,6.96-10.87,13.31-10.87,1.95,0,11.97-.49,11.97,2.44,0,.24-18.2,24.18-20.52,27.48,13.68-12.33,33.46-28.45,52.63-28.45,4.27,0,10.14.85,10.14,6.35,0,7.2-24.55,30.53-24.55,37.25Z" fill="currentcolor"/><path d="M885.42,666.83l-14.29,19.66h14.65c1.1,0,3.05,0,3.05,1.47,0,.12-.24.61-.24.85-1.22,1.59-2.2,3.79-4.27,4.4-3.79,1.22-14.53.49-17.83.49-.37.73-17.46,24.18-17.46,29.06,0,5.86,13.19,6.47,17.22,6.47l-5.13,7.94h-1.95c-7.45,0-24.18-.73-29.31-7.21-7.94,3.91-18.68,7.21-27.6,7.21l4.88-7.94c13.68,0,21.74-7.08,28.7-18.2l10.99-17.34c-3.3,0-7.33.49-10.75-.24l-.61-1.22c.49-1.34,1.71-2.69,2.56-3.79,2.2-2.93,11.11-1.95,13.68-1.95l12.46-18.93c4.03-6.11,6.59-11.72,14.9-11.72,2.44,0,11.36,0,11.36,3.66,0,1.59-4.64,5.98-5.01,7.33Z" fill="currentcolor"/><path d="M909.81,725.08c5.37,4.03,12.43,7.16,46.19.68l-4.89,5s-16.66,6.25-28.53,6.42c-11.87.16-22.42-.98-30.11-5.86-11.24,3.17-23.45,5.86-35.17,5.86l5.13-7.94c7.33,0,14.65-1.47,21.61-3.3-2.56-2.69-3.66-6.23-3.66-9.89,0-22.23,27.35-34.56,46.41-34.56,7.2,0,17.1,2.32,17.1,11.24,0,13.56-23.45,27.23-34.07,32.36ZM923.98,691.25c-11.72,0-22.47,11.85-22.47,23.33.98,1.83.98,2.69,2.56,4.4,7.57-3.18,26.13-14.53,26.13-23.81,0-3.3-3.66-3.91-6.23-3.91Z" fill="currentcolor"/></g></g></g></g></svg>