<?xml version="1.0" encoding="UTF-8" ?><svg xmlns="http://www.w3.org/2000/svg" viewBox="0 0 1024 1024"><title>openauto logo</title><desc>Copyright &#xa9; 2026 Pearlpuppy. All rights reserved.</desc><metadata><rdf:RDF xmlns:rdf="http://www.w3.org" xmlns:dc="http://purl.org"><rdf:Description rdf:about=""><dc:title>openauto logo</dc:title><dc:creator>Pierre Pearlpuppy</dc:creator><dc:rights>Copyright &#xa9; 2026 Pearlpuppy. All rights reserved.</dc:rights><dc:date>2026-03-20</dc:date><dc:format>image/svg+xml</dc:format></rdf:Description></rdf:RDF></metadata><g isolation="isolate"><g id="logo-openauto"><g id="openauto"><g data-fc="#ffaf1c"><path d="M243.67,494.96c.3-2.93.45-5.91.45-8.92,0-48.63-39.42-88.06-88.06-88.06s-88.06,39.42-88.06,88.06c0,39.73,26.32,73.31,62.47,84.28,4.93-28.09,9.87-56.18,14.8-84.28,32.8,37.35,65.59,5.41,98.39,8.92Z" fill="currentcolor" /></g><g data-fc="#cf9626"><path d="M275.44,512.99c-10.59-12.06-21.19-16.9-31.78-18.03-4.47,44.44-41.99,79.14-87.61,79.14-8.9,0-17.49-1.33-25.58-3.78-2.72,15.51-5.45,31.02-8.17,46.53,58.7,42.54,117.41-79.01,176.11-36.47-7.66-22.46-15.31-44.92-22.97-67.38Z" fill="currentcolor" /></g><g data-fc="#333"><path d="M898.4,537.78l-1.06-.39c6.18-5.76,12.54-13.3,12.54-20.72s-6-12.79-16.6-12.79c-19.41,0-44.48,15.03-50.89,29.77-8.77,6.12-16.87,10.9-20.8,10.9l-.88-.38-.35-.64c1.06-1.79,1.94-3.42,3.18-5.09l17.66-23.89h8.48l2.82-2.21c1.06-1.53,1.94-3.21,1.76-5.92h-7.95c1.77-1.81,12.72-15.34,12.72-17.64,0-1.53-1.06-1.85-3.18-1.85-6.18,0-11.12.86-14.3,4.82l-11.66,14.67h-8.65l-1.73,1.54-1.55,3.46v3.13h6.63c-.26,0-.57.56-.92.99-11.7,9.33-35.5,27.78-41.78,28.19l-1.15-.29c-.35-3.2,25.48-30.48,27.28-35.98v-.77c0-.51.1-1.02-.08-1.41-.71-.51-1.46-.77-2.35-.77-2.65,0-5.4.64-7.87,1.02-3.71.51-6.5,3.2-8.45,5.24-2.12,2.3-4.4,4.6-7.05,6.78-5.12,4.09-32.84,26.09-39.55,26.09l-.52-.64c3.71-9.08,27.55-31.97,27.55-35.94,0-.64,0-1.79-.7-2.3-.71,0-1.59-.13-2.29-.13-2.83,0-5.83.64-8.66,1.02-3,.38-4.94,2.05-6.53,3.96l-20.48,25.83c-2.65,3.33-6.01,7.04-6.01,11s4.06,5.89,9.19,5.89c11.48,0,28.79-12.4,36.56-18.16-1.94,3.84-6.01,6.91-6.01,11.25,0,3.84,3.71,6.91,9.01,6.91,9.28,0,24.56-9.4,34.81-16.82-2.61,4.1-4.48,7.79-4.48,10.04,0,4.86,4.76,6.91,10.95,6.91,6.53,0,13.42-3.07,18.36-5.76,1.63-.88,4.32-2.51,7.54-4.57,1.04,7.17,8.77,10.71,18.94,10.71s18.9-3.84,26.31-7.8c1.94.9,3.89,1.53,6.18,1.53,12.18,0,37.09-20.59,44.15-26.22,1.77-1.41,3-3.2,3.71-5.12-.53-1.53-.89-3.07-1.24-4.47-4.06,3.07-34.79,26.86-40.62,26.99ZM896.51,516.81c-6.32,5.76-12.39,11.51-14.51,19.31l.34,1.28c-4.06,2.94-12.37,8.82-18.37,8.82-4.24,0-6.01-2.17-6.01-4.99,0-8.95,19.1-30.95,31.99-30.95,4.77,0,6.56,2.81,6.56,5.76v.77Z" fill="currentcolor" /><path d="M693.28,454.96h-16.11l-38.4,59.86c-10.74,8.04-37.9,28.07-43.5,28.07-.18,0-.35-.13-.53-.13,2.83-8.19,21.9-23.79,21.9-31.59,0-4.09-3.71-6.78-9.36-6.78-11.13,0-29.49,13.43-37.09,19.31,1.24-1.79,12.36-15.22,12.36-16.63,0-.77-.35-1.41-.88-2.05-.71-.39-2.12-.39-3-.39-2.3,0-4.94.64-7.24,1.02-3.71.51-5.65,2.43-7.42,4.73l-4.06,5.32c-14.03,11.67-38.16,29.6-55.64,29.6-4.77,0-7.77-1.79-7.77-5.37,0-.64.18-1.28.18-1.92,14.31-3.07,46.27-12.92,46.27-26.09,0-5.5-6.71-8.06-13.6-8.06-16.14,0-35.84,11.91-44.72,24.39-11.04,7.83-23.13,14.87-31.39,14.87-1.77,0-3.89-.25-5.12-1.15,14.3-5.5,35.32-16.11,35.32-29.41,0-5.5-5.12-8.7-12.54-8.7-10.07,0-19.6,5.63-26.67,10.11,1.41-2.05,4.42-5.12,4.42-7.42,0-1.66-.71-2.43-3.18-2.43-2.65,0-5.65.64-8.3,1.02-6.89.9-21.72,28.14-23.49,30.82l-5.47,5.12c-4.06,3.84-7.42,7.93-10.6,12.15-6.71,9.34-12.01,20.68-12.01,31.3,0,1.28,0,1.98.18,4.05h3.71c9.89-6.9,22.61-26.44,29.32-36.03,3.53-5.12,6.89-10.41,10.24-15.52,1.41-2.05,2.65-4.69,4.41-6.61,3.35-3.84,20.66-16.29,27.02-16.29,2.65,0,4.24,1.26,4.24,3.05,0,7.67-15.36,16.62-24.02,19.56-3.36,1.15-7.42,2.17-10.24,3.7-1.77.9-2.83,1.92-2.83,3.45,0,5.37,12.36,7.67,18.37,7.67,7.24,0,14.13-2.43,20.31-5.12,3.12-1.4,8.19-4.3,13.74-7.77-.09.63-.15,1.27-.15,1.88,0,7.8,7.07,12.15,17.49,12.15,15.45,0,33.6-8.49,47.59-17.48l-8.38,10.96c-.88,1.15-1.76,2.05-1.76,3.33,0,.51.18,1.02.35,1.41.88.64,1.77.9,2.82.9,2.65,0,5.3-.51,7.95-.9,3.36-.38,5.65-2.43,7.42-4.35,2.65-2.69,5.3-5.5,8.3-7.93,5.12-4.35,31.97-25.32,37.97-25.32-2.12,3.2-4.59,6.52-7.06,9.59-3,3.84-15.19,16.88-15.19,21.74,0,4.35,4.06,7.42,10.06,7.42,5.12,0,10.77-2.56,14.66-4.6,4.84-2.48,16.97-10.21,26.9-17.53l-16.18,25.22h16.11l10.62-16.5c11.73,8.71,38.18-22.89,49.51-12.7-.4-5.49-1.28-14.33-1.68-19.81-6.01-9.86-17.32.05-25.27-2.56l26.74-41.81,9.83,93.38h25.81l-10.54-100.23h-20.71ZM525.5,510.67c1.24,0,2.3.51,2.3,1.41,0,8.57-17.84,16.88-27.9,18.93,3.53-6.01,15.54-20.34,25.61-20.34Z" fill="currentcolor" /><path d="M418.21,511.56c7.41-27.66-9.06-50.15-36.71-50.15s-56.18,22.5-63.59,50.15c-7.41,27.65,9.06,50.15,36.71,50.15s56.18-22.5,63.59-50.15ZM367.48,537.72c-17.96,0-28.66-14.62-23.85-32.58,4.81-17.97,23.35-32.58,41.31-32.58s28.67,14.62,23.85,32.58c-4.81,17.96-23.35,32.58-41.31,32.58Z" fill="currentcolor" /><polygon points="920.81 460.83 925.26 460.83 925.26 443.03 931.65 443.03 931.65 439.16 914.38 439.16 914.38 443.03 920.81 443.03 920.81 460.83" fill="currentcolor" /><polygon points="949.38 439.16 945.13 455.65 940.82 439.16 934.23 439.16 934.23 460.83 938.4 460.83 938.4 443.35 942.86 460.83 947.42 460.83 951.82 443.35 951.82 460.83 956 460.83 956 439.16 949.38 439.16" fill="currentcolor" /></g></g></g></g></svg>