<?xml version="1.0" encoding="UTF-8"?><svg xmlns="http://www.w3.org/2000/svg" viewBox="0 0 1024 1024"><title>opengov-ib logo</title><desc>Copyright &#xa9; 2026 Pearlpuppy. All rights reserved.</desc><metadata><rdf:RDF xmlns:rdf="http://www.w3.org" xmlns:dc="http://purl.org"><rdf:Description rdf:about=""><dc:title>opengov-ib logo</dc:title><dc:creator>Pierre Pearlpuppy</dc:creator><dc:rights>Copyright &#xa9; 2026 Pearlpuppy. All rights reserved.</dc:rights><dc:date>2026-03-20</dc:date><dc:format>image/svg+xml</dc:format></rdf:Description></rdf:RDF></metadata><g isolation="isolate"><g id="logo-opengov-ib"><g id="opengov-ib"><g data-fc="#1a1a1a"><path d="M122.58,674.55l-11.03-12.74c13.39-6.94,29.24-21.86,38.69-35.02h-36.82v-15.65h42.14v-19.79h16.44v19.79h21.07v15.65h-21.07v36.99c0,12.75-4.63,18.76-16.24,18.76-4.43,0-9.65-.21-14.67-.93v-16.48c3.94.52,7.88.73,10.53.73s3.94-1.04,3.94-3.83v-17.2c-9.75,11.29-21.95,22.59-32.98,29.74Z" fill="currentcolor"/><path d="M285.99,628.44v17.41h-81.12v-17.41h81.12Z" fill="currentcolor"/><path d="M357.65,603.36l12.41,7.05c-7.38,35.23-23.83,58.55-53.85,71.91l-11.22-13.78c27.67-10.78,41.15-27.15,45.68-49.32h-54.64v-15.85h61.63ZM381.48,596.11c0,5.59-4.43,10.36-9.95,10.36s-9.94-4.77-9.94-10.47,4.43-10.47,9.94-10.47,9.95,4.66,9.95,10.47v.1ZM366.02,596.11c0,3.01,2.56,5.7,5.51,5.7s5.51-2.69,5.51-5.8-2.56-5.8-5.51-5.8-5.51,2.69-5.51,5.8v.1Z" fill="currentcolor"/><path d="M422.42,616.42l-10.53,13.99c-5.61-5.39-16.44-13.37-24.81-17.93l9.95-13.78c8.76,5.18,19.1,12.23,25.4,17.72ZM455.4,616.52l10.34,12.95c-13.98,22.9-41.55,43.62-67.44,52.74l-8.47-16.37c25.7-6.63,51.88-26.22,65.57-49.32Z" fill="currentcolor"/><path d="M506.25,611.03c.39-6.01.59-12.54.69-19.38h16.05c-.1,6.74-.39,13.16-.79,19.38h31.6c-.2,25.7-2.27,52.22-4.73,59.27-2.95,8.39-7.38,12.23-17.62,12.23-4.43,0-9.65-.1-14.57-.62v-16.27c4.14.52,8.96.62,11.62.62,2.46,0,3.64-.73,4.73-2.59,2.36-4.04,3.64-23.63,3.64-37.1h-16.44c-3.74,23.83-12.5,42.69-32.98,55.96l-11.22-12.54c17.43-10.05,25.01-24.25,28.26-43.42h-26.09v-15.54h27.86ZM542.18,590.31c3.64,5.39,5.32,8.6,7.68,14.71l-9.06,4.56c-2.16-6.01-4.04-9.53-7.48-14.71l8.86-4.56ZM557.34,586.47c3.55,5.39,5.32,8.6,7.68,14.71l-9.16,4.66c-2.17-6.11-3.94-9.64-7.38-14.82l8.86-4.56Z" fill="currentcolor"/><path d="M602.7,608.96c-4.23,25.08-12.7,51.6-24.51,69.32l-15.36-8.5c12.41-16.99,20.38-41.55,23.43-64.45l16.44,3.63ZM654.98,670.09l-17.03,5.6c-3.64-19.69-12.31-44.76-24.52-66.32l15.36-7.15c11.91,22.48,20.77,47.25,26.19,67.87ZM637.16,588.34c3.45,5.49,5.02,8.71,7.29,14.92l-9.16,4.35c-2.07-6.11-3.74-9.74-7.09-14.92l8.96-4.35ZM651.43,585.33c3.45,5.49,5.12,8.71,7.29,14.92l-9.16,4.35c-1.97-6.11-3.74-9.64-7.09-14.92l8.96-4.35Z" fill="currentcolor"/><path d="M708.86,625.43c5.32-9.95,9.45-20.62,12.9-31.6l16.15,5.91c-4.33,11.92-9.35,24.04-15.75,35.33,8.56,6.32,16.54,12.64,22.84,18.24l-11.42,13.57c-5.12-4.97-12.4-11.09-20.48-17.41-9.25,12.85-20.87,24.14-36.03,32.54l-11.91-13.78c14.96-7.05,26.19-16.99,34.85-28.7-9.16-6.63-18.41-12.75-26.19-17.1l9.94-13.26c7.38,4.35,16.24,10.05,25.11,16.27Z" fill="currentcolor"/><path d="M788.69,616.42l-10.53,13.99c-5.61-5.39-16.44-13.37-24.81-17.93l9.95-13.78c8.76,5.18,19.1,12.23,25.4,17.72ZM821.67,616.52l10.34,12.95c-13.98,22.9-41.55,43.62-67.44,52.74l-8.47-16.37c25.7-6.63,51.88-26.22,65.57-49.32Z" fill="currentcolor"/><path d="M912.45,643.88l-10.63,14.3c-9.25-7.56-20.58-14.71-31.7-20.52v44.87h-16.54v-91.19h16.54v27.87c14.18,6.74,29.83,15.75,42.33,24.66Z" fill="currentcolor"/></g><g data-fc="#517511"><path d="M689.96,256.16l-102.01-58.89c-18.78-10.84-42.79-4.41-53.63,14.37l-107.97,187.01c-10.84,18.78-4.41,42.79,14.37,53.63l102.01,58.89c18.78,10.84,42.79,4.41,53.63-14.37l107.97-187.01c10.84-18.78,4.41-42.79-14.37-53.63Z" fill="currentcolor"/><path d="M396.01,482.91c-10.82,0-19.33-9.07-19.33-19.9v-215.94c0-10.82,8.51-19.37,19.33-19.37h106.36l11.33-19.63h-117.69c-21.68,0-38.97,17.31-38.97,39v215.94c0,21.68,17.28,39.53,38.97,39.53h92.48l-34-19.63h-58.48Z" fill="currentcolor"/><path d="M123.46,830.53v-84.77h17.12v84.77h-17.12Z" fill="currentcolor"/><path d="M155.5,745.75h31.28c7.06,0,12.43.54,16.13,1.62,4.97,1.47,9.23,4.07,12.78,7.81,3.55,3.74,6.25,8.32,8.1,13.73,1.85,5.42,2.78,12.1,2.78,20.04,0,6.98-.87,12.99-2.6,18.04-2.12,6.17-5.15,11.16-9.08,14.98-2.97,2.89-6.98,5.15-12.03,6.77-3.78,1.2-8.83,1.79-15.15,1.79h-32.21v-84.77ZM172.61,760.1v56.15h12.78c4.78,0,8.23-.27,10.35-.81,2.78-.69,5.08-1.87,6.91-3.53,1.83-1.66,3.32-4.38,4.48-8.18,1.16-3.8,1.73-8.97,1.73-15.53s-.58-11.58-1.73-15.09c-1.16-3.51-2.78-6.25-4.86-8.21-2.08-1.97-4.72-3.3-7.92-3.99-2.39-.54-7.07-.81-14.05-.81h-7.69Z" fill="currentcolor"/><path d="M238.92,830.53v-84.77h62.86v14.34h-45.74v18.79h42.56v14.28h-42.56v23.07h47.36v14.28h-64.48Z" fill="currentcolor"/><path d="M394.39,830.53h-18.62l-7.4-19.26h-33.89l-7,19.26h-18.16l33.02-84.77h18.1l33.94,84.77ZM362.88,796.99l-11.68-31.46-11.45,31.46h23.13Z" fill="currentcolor"/><path d="M401.79,830.55v-84.77h31.8c6.48,0,11.67.86,15.58,2.57,3.91,1.72,6.98,4.36,9.19,7.92,2.22,3.57,3.32,7.3,3.32,11.19,0,3.62-.98,7.04-2.95,10.23-1.97,3.2-4.93,5.78-8.91,7.75,5.13,1.5,9.07,4.07,11.83,7.69,2.76,3.62,4.13,7.9,4.13,12.84,0,3.97-.84,7.66-2.52,11.07-1.68,3.41-3.75,6.04-6.22,7.89s-5.56,3.25-9.28,4.19c-3.72.95-8.28,1.42-13.68,1.42h-32.32ZM413,781.4h18.33c4.97,0,8.54-.33,10.7-.98,2.85-.85,5-2.25,6.45-4.22,1.45-1.97,2.17-4.43,2.17-7.4,0-2.81-.68-5.29-2.02-7.43-1.35-2.14-3.28-3.6-5.78-4.4-2.51-.79-6.8-1.19-12.89-1.19h-16.94v25.62ZM413,820.55h21.11c3.62,0,6.17-.13,7.63-.4,2.58-.46,4.74-1.23,6.48-2.31,1.73-1.08,3.16-2.65,4.28-4.71,1.12-2.06,1.68-4.44,1.68-7.14,0-3.16-.81-5.91-2.43-8.24-1.62-2.33-3.86-3.97-6.74-4.92-2.87-.94-7.01-1.42-12.4-1.42h-19.6v29.14Z" fill="currentcolor"/><path d="M474.28,789.27c0-14.07,3.78-25.09,11.33-33.05,7.56-7.96,17.31-11.94,29.26-11.94,7.83,0,14.88,1.87,21.16,5.61,6.28,3.74,11.07,8.95,14.37,15.64,3.3,6.69,4.94,14.27,4.94,22.75s-1.73,16.29-5.2,23.07c-3.47,6.79-8.39,11.92-14.75,15.41-6.36,3.49-13.22,5.23-20.59,5.23-7.98,0-15.11-1.93-21.4-5.78-6.28-3.85-11.04-9.12-14.28-15.79-3.24-6.67-4.86-13.72-4.86-21.16ZM485.85,789.44c0,10.22,2.75,18.26,8.24,24.14,5.49,5.88,12.38,8.82,20.67,8.82s15.39-2.97,20.85-8.91c5.45-5.94,8.18-14.36,8.18-25.27,0-6.9-1.17-12.92-3.5-18.07-2.33-5.15-5.74-9.14-10.23-11.97-4.49-2.83-9.53-4.25-15.12-4.25-7.94,0-14.77,2.73-20.5,8.18-5.72,5.45-8.59,14.56-8.59,27.32Z" fill="currentcolor"/><path d="M554.44,830.55l32.79-44.18-28.91-40.59h13.36l15.38,21.74c3.2,4.51,5.47,7.98,6.82,10.41,1.89-3.08,4.13-6.3,6.71-9.66l17.06-22.49h12.2l-29.78,39.96,32.09,44.81h-13.88l-21.34-30.24c-1.2-1.73-2.43-3.62-3.7-5.67-1.89,3.08-3.24,5.2-4.05,6.36l-21.28,29.55h-13.47Z" fill="currentcolor"/><path d="M725.43,820.55v10h-56.03c-.08-2.51.33-4.92,1.21-7.23,1.43-3.82,3.71-7.58,6.85-11.28,3.14-3.7,7.68-7.98,13.62-12.84,9.21-7.56,15.44-13.54,18.68-17.96,3.24-4.41,4.86-8.59,4.86-12.52,0-4.13-1.47-7.6-4.42-10.44-2.95-2.83-6.79-4.25-11.53-4.25-5.01,0-9.02,1.5-12.03,4.51-3.01,3.01-4.53,7.17-4.57,12.49l-10.7-1.1c.73-7.98,3.49-14.06,8.27-18.24,4.78-4.18,11.2-6.27,19.25-6.27s14.57,2.25,19.31,6.76c4.74,4.51,7.11,10.1,7.11,16.77,0,3.39-.69,6.73-2.08,10-1.39,3.28-3.69,6.73-6.91,10.35-3.22,3.62-8.57,8.6-16.05,14.92-6.25,5.24-10.26,8.8-12.03,10.67-1.77,1.87-3.24,3.75-4.39,5.64h41.58Z" fill="currentcolor"/><path d="M733.61,788.75c0-10.02,1.03-18.09,3.09-24.2,2.06-6.11,5.13-10.82,9.19-14.14,4.07-3.32,9.18-4.97,15.35-4.97,4.55,0,8.54.92,11.97,2.75,3.43,1.83,6.26,4.47,8.5,7.92,2.24,3.45,3.99,7.65,5.26,12.61,1.27,4.95,1.91,11.63,1.91,20.04,0,9.95-1.02,17.97-3.07,24.08-2.04,6.11-5.1,10.83-9.17,14.17-4.07,3.33-9.2,5-15.41,5-8.17,0-14.59-2.93-19.26-8.79-5.59-7.05-8.38-18.54-8.38-34.46ZM744.31,788.75c0,13.92,1.63,23.18,4.89,27.79,3.26,4.61,7.28,6.91,12.06,6.91s8.8-2.31,12.06-6.94c3.26-4.63,4.89-13.88,4.89-27.76s-1.63-23.22-4.89-27.81c-3.26-4.59-7.32-6.88-12.17-6.88s-8.6,2.02-11.45,6.07c-3.59,5.17-5.38,14.71-5.38,28.62Z" fill="currentcolor"/><path d="M836.63,830.53h-16.25v-61.24c-5.94,5.55-12.93,9.66-20.99,12.32v-14.74c4.24-1.39,8.85-4.02,13.82-7.89,4.97-3.87,8.38-8.39,10.23-13.56h13.19v85.12Z" fill="currentcolor"/><path d="M884.26,830.53v-17.06h-34.7v-14.23l36.78-53.83h13.65v53.78h10.52v14.28h-10.52v17.06h-15.73ZM884.26,799.19v-28.97l-19.49,28.97h19.49Z" fill="currentcolor"/></g></g></g></g></svg>