<?xml version="1.0" encoding="UTF-8"?><svg xmlns="http://www.w3.org/2000/svg" viewBox="0 0 1024 1024"><title>pbqd-nw logo</title><desc>Copyright &#xa9; 2026 Pearlpuppy. All rights reserved.</desc><metadata><rdf:RDF xmlns:rdf="http://www.w3.org" xmlns:dc="http://purl.org"><rdf:Description rdf:about=""><dc:title>pbqd-nw logo</dc:title><dc:creator>Pierre Pearlpuppy</dc:creator><dc:rights>Copyright &#xa9; 2026 Pearlpuppy. All rights reserved.</dc:rights><dc:date>2026-03-20</dc:date><dc:format>image/svg+xml</dc:format></rdf:Description></rdf:RDF></metadata><g isolation="isolate"><g id="logo-pbqd-nw"><g id="pbqd-nw"><g data-fc="#f06"><path d="M830.43,487.53c-4.69,18.6-13.27,32.3-35.62,32.3-25.61,0-25.52-15.66-21.06-36.61,4.36-20.51,12.22-36.27,35.23-36.94-18.45-21.36-45.72-34.9-76.15-34.9-21.38,0-41.19,6.69-57.49,18.06l-3.95,18.59h9.7l-3.08,14.49h-9.7l-7.51,35.32c-1.04,4.92.44,6.47,5.35,6.47.91,0,2.1-.13,3.03-.26l-2.97,13.97c-4.12.52-8.18.78-12.2.78-14.49,0-18.08-2.59-14.61-18.89l7.95-37.39h-2.12c-8.27,14.61-13.02,31.49-13.02,49.48,0,55.57,45.05,100.62,100.62,100.62s100.62-45.05,100.62-100.62c0-8.44-1.05-16.63-3.01-24.47ZM723.64,518.02l3.34-51.62h-.26l-19.12,51.62h-24.07l.26-69.99h20.96l-4.25,51.62h.26l18.86-51.62h22.51l-3.6,51.62h.26l18.35-51.62h20.18l-30.01,69.99h-23.68Z" fill="currentcolor"/><path d="M797.86,506.12c6.47,0,9-5.82,12.65-23.03,3.68-17.33,3.63-23.15-2.84-23.15s-9.31,6.08-12.91,23.03c-3.63,17.08-3.11,23.16,3.1,23.16Z" fill="currentcolor"/></g><g data-fc="#000"><path d="M151.52,456.5c-13.97,0-22.15,8.34-26,15.53h-.39l2.72-12.81h-30.27l-29.57,139.14h31.44l9.69-45.6h.39c2.85,11.25,11.74,14.16,20.47,14.16,25.81,0,35.46-23.48,42.39-56.08,8.33-39.2.29-54.33-20.86-54.33ZM140.61,512.39c-4.04,19.02-7.31,31.63-18.76,31.63-10.67,0-8.4-14.36-4.44-32.99,4.33-20.37,8.66-31.63,17.98-31.63,11.84,0,8.8,16.11,5.22,32.99Z"/><path d="M254.17,456.5c-8.73,0-18.86,2.91-26.49,14.17h-.39l9.57-45.02h-31.44l-29.45,138.56h30.28l2.72-12.81h.39c.8,7.18,5.43,15.52,19.4,15.52,21.15,0,35.63-15.14,43.96-54.33,6.93-32.6,7.26-56.08-18.54-56.08ZM241.61,511.03c-3.59,16.88-7.4,32.99-19.24,32.99-9.32,0-8.86-11.26-4.53-31.63,3.96-18.63,7.79-32.99,18.46-32.99,11.45,0,9.35,12.61,5.3,31.63Z"/><path d="M349.26,472.03h-.39c-.8-7.18-5.43-15.53-19.41-15.53-21.15,0-35.62,15.14-43.96,54.33-6.93,32.6-7.26,56.08,18.55,56.08,8.73,0,18.86-2.91,26.49-14.16h.39l-9.7,45.6h31.44l29.58-139.14h-30.27l-2.72,12.81ZM340.38,511.03c-3.96,18.63-7.79,32.99-18.46,32.99-11.45,0-9.35-12.61-5.31-31.63,3.59-16.88,7.4-32.99,19.23-32.99,9.32,0,8.87,11.26,4.54,31.63Z"/><path d="M449.1,470.67h-.39c-2.85-11.26-11.74-14.17-20.47-14.17-25.81,0-35.46,23.48-42.39,56.08-8.33,39.19-.29,54.33,20.85,54.33,13.98,0,22.15-8.34,26-15.52h.39l-2.72,12.81h30.27l29.45-138.56h-31.44l-9.57,45.02ZM440.81,512.39c-4.33,20.38-8.66,31.63-17.98,31.63-11.84,0-8.8-16.11-5.21-32.99,4.04-19.02,7.31-31.63,18.76-31.63,10.67,0,8.39,14.36,4.44,32.99Z"/><path d="M555.98,446.22c-7.77,0-14.67,3.88-18.97,10.09h-.26l1.76-8.28h-20.18l-14.88,69.99h20.96l9.74-45.8c1.45-6.86,5.61-9.96,9.62-9.96s5.45,2.98,4.38,8.02l-10.15,47.74h20.96l11.14-52.39c2.86-13.45-2.21-19.41-14.12-19.41Z"/><path d="M595.94,486.45h35.31c5.06-23.8,6.75-40.24-19.26-40.24-22.77,0-31.57,14.62-35.75,34.28-4.43,20.83-6.29,39.33,20.1,39.33,17.34,0,28.57-8.41,32.64-25.74h-19.41c-2.39,8.8-4.92,12.81-10.36,12.81-6.08,0-6.5-5.3-4.2-16.17l.91-4.27ZM609.76,459.16c5.83,0,5.99,5.3,3.9,15.14h-15.14c2.01-9.44,4.38-15.14,11.24-15.14Z"/><path d="M675.33,429.44l.42-1.98h-20.96l-4.37,20.57h-8.67l-3.08,14.49h6.55c7.45-13.15,17.76-24.46,30.11-33.08Z"/><path d="M831.53,482.83c4.45-20.96,4.55-36.61-21.07-36.61-.51,0-.98.05-1.49.06,10.11,11.71,17.59,25.76,21.45,41.25.39-1.54.76-3.1,1.1-4.7Z"/><path d="M889.19,446.48c-1.24-.26-2.27-.26-3.31-.26-8.8,0-15.25,5.43-19.29,11.65h-.26l2.09-9.83h-20.18l-14.88,69.99h20.96l8.44-39.72c1.95-9.18,8.13-12.68,16.54-12.68,2.07,0,3.72.13,5.71.52l4.18-19.66Z"/><polygon points="956 448.03 932.97 448.03 911.98 473.13 911.73 473.13 921.82 425.65 900.86 425.65 881.23 518.02 902.19 518.02 906.23 499 913.23 491.62 920.69 518.02 943.58 518.02 929.95 476.23 956 448.03"/></g></g></g></g></svg>