<?xml version="1.0" encoding="UTF-8"?><svg xmlns="http://www.w3.org/2000/svg" viewBox="0 0 1024 1024"><title>moonerbutterfly logo</title><desc>Copyright &#xa9; 2026 Pearlpuppy. All rights reserved.</desc><metadata><rdf:RDF xmlns:rdf="http://www.w3.org" xmlns:dc="http://purl.org"><rdf:Description rdf:about=""><dc:title>moonerbutterfly logo</dc:title><dc:creator>Pierre Pearlpuppy</dc:creator><dc:rights>Copyright &#xa9; 2026 Pearlpuppy. All rights reserved.</dc:rights><dc:date>2026-03-20</dc:date><dc:format>image/svg+xml</dc:format></rdf:Description></rdf:RDF></metadata><g isolation="isolate"><g id="logo-moonerbutterfly"><g data-fc="#e42a88"><path d="M544.6,819.53c-183.73,0-332.65-148.93-332.65-332.64s148.93-332.63,332.65-332.63c3.42,0,6.81.06,10.21.17-13.71-1.59-27.6-2.43-41.72-2.43-198.81,0-360,161.19-360,360s161.19,360,360,360c185.42,0,338.07-140.18,357.83-320.33-30.14,152.71-164.79,267.86-326.32,267.86Z" fill="currentcolor"/><path d="M634.84,481.63c2.24.88,6.26-1.72,9.2-4.81,2.93-3.1,3.2-5.45,4.63-7.1,1.43-1.65,8.96-8.24,8.96-8.24,0,0,1.3-1.7,3.52-1.49,2.23.2,5.12.85,6.1,1.84.98.98.28,3.66,1.67,4.58,1.4.93,3.28-.8,4.43-.26,1.14.54,3.24,6.78,3.92,8.28.66,1.5,2.32,2.51,3.68,2.38,1.35-.12,7.75-8.24,9.28-9.24,1.53-1,1.95,5.8,5.27,3.62,2.64-1.75,32.91-34.63,45-47.77-1.41,3.46-2.57,6.52-3.2,8.67-1.06,3.17-2.39,10.55-2.53,13.01-.14,2.46.11,7.13,3.22,8.03,3.1.91,5.76-5.83,5.73-7.68-.05-1.85.95-6.18.95-6.18,0,0,.31-2,2.37-6.02,7.2-14.18,17.51-32.59,18.39-36.42,1.2-5.29-1.39-7.1-2.63-7.64.1-.05.17-.12.24-.2.19-.26,4.68-6.43,7.01-13.23l1.74-5.28c1.48-4.5.84-9.31,5.46-19.97,2.19-5.15,3.86-8.68,6.61-11.7,2.73-3,6.95-4.2,7.39-6.77.43-2.57-1.21-2.87-2.28-2.61-1.09.27-1.85,1.32-3.44,4.02-.89,1.51-5.57,5.46-9.24,14.67-3.68,9.21-3.62,15.66-5.75,22.14l-1.73,5.28c-2.25,6.59-6.77,12.81-6.82,12.87-.1.13-.14.29-.12.43-.3-.11-.83-.26-1.46-.32.7-1.9,2.79-7.89,3.27-13.93l.38-5.54c.31-4.73-1.49-9.23.34-20.7.85-5.53,1.59-9.36,3.49-12.96,1.92-3.59,5.71-5.78,5.48-8.39-.21-2.58-1.88-2.48-2.85-1.95-.96.51-1.45,1.73-2.33,4.73-.5,1.68-4.04,6.67-5.32,16.51-1.28,9.83.38,16.05-.07,22.87l-.38,5.53c-.49,6.15-2.75,12.44-3.29,13.85-.65.09-1.35.3-2.07.71-.14-1.51-.43-4.14-.85-7.54-.15-17.79-1.48-52.54-8.93-75.21-10.35-31.55-22.13-43.15-26.24-47.73-4.11-4.58-13.48-13.76-15.01-13.88-1.54-.11-1.97,1-2.79,1.05-.83.06-2.9-.76-3.97.86-1.04,1.62-.3,6.85-.3,6.85,0,0-1.2,1.52-1.7,3.1-.5,1.55-.4,3.84-.4,3.84,0,0-2.03,2.15-2.18,4.45-.16,2.29.05,5.14.05,5.14,0,0-1.69,3.36-1.43,6.01.26,2.64.64,4.26.64,4.26,0,0-1,2.11-1.36,4.88-2.52-.89-4.52-1.47-5.16-1.31-1.73.39-2.07,1.43-2.98,1.75-.91.32-3.28.3-4.28,1.98-1,1.68.33,5.78.33,5.78,0,0-1.15,1.65-1.55,3.11-.41,1.46-.06,3.3-.06,3.3,0,0-2.03,2.44-1.98,4.39.06,1.96.58,4.26.58,4.26,0,0-1.53,3.32-.99,5.43.54,2.1,1.11,3.32,1.11,3.32,0,0-1.4,3.23-.94,6.32.48,3.11,5.61,9.26,5.61,9.26,0,0-3.78,3.17-3.92,7.75-.12,4.6,1.03,6.22,1.03,6.22,0,0-2.45,3.99-2.72,5.66-.23,1.68.29,3.46.29,3.46,0,0-1.41,5.01-1.33,7.09.11,1.83,1.96,4.58,2.43,5.22-.04.09-.08.17-.1.26-.6.38-2.27,1.73-.9,4.24.02.02.06.06.09.11-.09,1.88.12,3.33.12,3.33,0,0-2.17-1.18-2.85,1.18-.7,2.37,1.11,4.99,1.11,4.99,0,0-8.07,1.26-8.01,4.16.02,2.49,3,4.96,3.81,5.6-1.13.85-1.98,1.7-2.32,2.43-1.65,3.54-.35,7.47-.35,7.47,0,0-2.49-.29-3.02,1.9-.24.93.05,1.75.44,2.39-.75.79-1.31,1.69-1.55,2.69-2.53,1.27-5.81,3.22-5.61,4.69.34,2.38,4.99,3.49,4.99,3.49,0,0-1.4,2.71-.69,4.32s3.32,3.52,3.32,3.52c0,0-8.85,4.78-8.75,8.84.02,1.21.5,2.05,1.11,2.64-1.64,1.78-3.43,3.62-4.87,4.79-3.59,2.94-8.76,3.56-11.97,6.07-3.19,2.53-4.61,8.41-2.74,10.18,1.87,1.79,5.66.13,8.57-2.49,2.89-2.62,3.38-5.28,4.81-6.72,1.16-1.17,6.23-4.81,8.07-6.1.83,1.62,3.71,3.17,3.71,3.17l-5.6,6.67s-5.76,7.73-9.43,11.33c-3.66,3.58-9.3,5.75-12.57,8.86-3.28,3.11-4.27,8.44-2.03,9.31ZM678.9,411.05s-.02-.04,0-.06c.02.07.02.11,0,.06ZM680.97,434.62c-1.9-1.38.85-6.51.85-6.51.36-.66.69-1.83.75-2.58.04-.76.37-1.55.74-1.75.36-.19.66-.32.69-.26.01.04,13.38-4.31,15.9-4.94,2.4-.61,13.88-4.62,13.88-4.62.6-.21,1.6,0,2.2.49l1.06.85c.6.47.66,1.2.14,1.61l-12.78,9.46c-.53.39-1.43,1.01-1.98,1.35l-10.01,6.48c-.55.35-1.45.94-1.99,1.32l-1.45,1c-.54.37-1.24.79-1.54.93-.31.14-.3-.31.04-1l.65-1.43c.33-.69.1-1.08-.5-.85,0,0-4.76,1.83-6.65.44ZM715.59,406.81l1.88-2.92c.4-.61,1.25-1.08,1.92-1.02l10.48.85c.66.06,1.69.49,2.28.96l9.98,7.52c.63.39.64.83.02.98l-13.53,3.13c-.61.15-1.66.19-2.33.09l-5.75-.85c-.66-.09-1.7-.56-2.3-1.05l-1.73-1.39c-.6-.48-1.19-1.62-1.3-2.51l-.12-1.03c-.12-.9.11-2.15.51-2.77ZM691.66,452.27c-.5.42-.86.18-.79-.55.07-.73-.38-1.28-1.01-1.21,0,0-1.75.17-2.54-.02-.76-.19-.28-2.85-.56-3.99-.29-1.15,2.54-5.34,3-5.9.46-.56-.68-.71-.93-1.61l-.02-.12c.02-.17.49-.61,1.05-.99l1.21-.85c.55-.36,1.45-.96,2-1.32l10.01-6.46c.55-.36,1.44-.98,1.97-1.37l13.61-10.09c.54-.41,1.5-.66,2.15-.56l5.01.73c.66.1.83.62.38,1.16l-10.82,11.81c-.5.47-1.33,1.21-1.84,1.68l-1.53,1.43c-.51.47-1.33,1.21-1.84,1.64l-12.79,11.04s-5.72,5.56-5.72,5.56ZM740.84,421.19l-29.3,26.43c-.5.44-1.34,1.2-1.83,1.65,0,0-8.96,8.31-9.46,7.59-.5-.74.78-2.58.78-2.58.41-.6.24-1.03-.36-.95-.63.09-.7-.19-.17-.59,0,0,.88-.68.9-.7.06-.06,6.2-5.67,9.48-8.46,1.45-1.23,4.37-4.16,7.44-7.27,3.92-3.93,8.35-8.39,10.54-10.11,3.51-2.76,11.59-5.57,11.59-5.57.59-.21,1.11-.38,1.15-.35.04.03-.25.48-.74.93ZM742.48,418.61c-.21.17-.4.27-.4.27,0,0-10.05,2.76-13.96,5.84-2.22,1.75-6.7,6.24-10.64,10.2-3.04,3.07-5.95,5.98-7.37,7.2-3.29,2.79-8.56,7.63-8.56,7.63-.5.44-1.25,1.08-1.66,1.43-.43.32-1,.06-1.65-.02l-1.4-.14c-.66-.09-1.09-.33-1.01-.56.11-.23,1.44-1.43,1.44-1.43.49-.49,1.3-1.24,1.83-1.67l11.87-10.29c.51-.44,1.35-1.18,1.84-1.64l1.54-1.43c.5-.46,1.33-1.21,1.82-1.67,0,0,9.71-8.89,11.78-12.92l.24-.49c.18-.48.84-1,1.45-1.14l13.81-3.21c.36-.08.58.06.66.3-.55,1.26-1.08,2.49-1.6,3.73ZM743.37,410.88s-6.2-3.26-11.98-8.54c-5.78-5.28-10.84-14.45-10.84-14.45-.43-.78-.24-1.2.41-.94l5.9,2.38c.66.28,1.59,1.07,2.08,1.77,0,0,2.14,3.13,6.65,7.86,4.51,4.71,7.5,6.41,7.5,6.41.64.36,1.19,1.38,1.24,2.28l.12,2.2c.04.89-.44,1.36-1.08,1.02ZM744.17,328.4l.61-3.24c.16-.83.54-.81.85.05,0,0,.12.34,1.19,3.7,1.06,3.37.38,4.6.38,4.6-.38.64-1.01.54-1.44-.23l-1.1-1.97c-.41-.78-.64-2.08-.49-2.91ZM736.63,321.88c1.72.02,3.33,1.87,3.33,1.87,0,0,1.6-4.37,3.29-2.6,1.69,1.78-1.71,8.74-2.2,8.93-.49.17-4.01-1.45-5.41-3-1.43-1.53-.74-5.22.99-5.2ZM738.27,335.51s.54-4.13,2.87-4.37c2.3-.21,4.53,3.46,5.28,5.87.74,2.42,1.94,9.94,3.53,26.94,1.6,17.02.33,34.92.33,34.92-.09.86-.39.88-.7.02,0,0-8.37-22.29-9.64-26.28-1.28-3.98-4.01-11.81-5.09-16.59-1.1-4.78-2.42-12.17-2.74-15.04-.33-2.89-.76-6.38,1.09-8.68,1.85-2.32,5.08,3.19,5.08,3.19ZM729.55,323.15c1.65.18,4.32.33,4.23,2.12-.1,1.8-2.4,1.77-2.4,1.77,0,0,2.63,4.21.39,4.52-2.23.32-2.69-3.84-3.02-5.58-.33-1.76-1.38-4.64-1.38-4.64,0,0,.54,1.64,2.18,1.82ZM721.54,325.22l8.22,6.78c.59.49,1.09,1.62,1.06,2.51l-.05,4.58c0,.89-.46,1.11-1,.49,0,0-2.68-3.05-4.59-5.79-1.92-2.75-4.11-7.95-4.11-7.95-.35-.83-.14-1.11.46-.62ZM711.75,329.14s7.06,4.06,10.73,6.46c3.67,2.4,6.97,5.22,6.97,5.22.61.51,1.25,1.66,1.45,2.55l2.59,11.67c.2.9-.09,1.14-.65.54,0,0-9-9.74-10.5-11.4-1.49-1.68-10.84-14.46-10.84-14.46-.49-.69-.39-.94.25-.59ZM708.86,339.96s15.53,9.18,19,12.32c3.49,3.15,5.21,4.88,5.21,4.88.58.58,1.25,1.77,1.5,2.64l2.72,9.39c.24.88-.05,1.18-.64.68,0,0-11.68-9.98-15.5-14.38-3.83-4.39-12.48-15.04-12.48-15.04-.54-.65-.45-.88.19-.5ZM707.24,353.76l.1-.11c.48-.5,1.4-.65,2.05-.33,0,0,14.93,7.46,19.87,11.45,4.93,3.99,8.88,7.94,8.88,7.94.56.56,1.3,1.73,1.61,2.58,0,0,2.29,6.12,3.99,10.72,1.7,4.58,4.54,15.4,4.54,15.4.22.88.06.99-.36.23,0,0-7.47-13.27-13.57-20.1-6.11-6.82-10.51-9.44-16.89-13.93-6.37-4.49-10.3-11.53-10.3-11.53-.44-.76-.4-1.81.08-2.31ZM702.99,362.23s3.93,2.28,9.14,4.59c5.21,2.31,12.99,6.62,19.37,13.56,6.37,6.94,15.48,24.42,15.48,24.42.4.79.21,1.15-.43.8,0,0-7.71-4.22-13.49-11.02-5.78-6.82-5.22-8.18-9.35-12.25-4.11-4.07-20.82-19.8-20.82-19.8-.58-.53-.53-.68.1-.32ZM691.51,377.77c.53-.7,5.16,5.9,8.31,8.22,3.18,2.32,7.94,2.52,8.94,1.91,1-.62-.26-4.94.85-5.44,1.13-.5,9.56,7.18,9.56,7.18.6.53,1.46,1.53,1.98,2.22l7.31,8.99c.54.66.43,1.15-.23,1.1l-9.1-.74c-.65-.05-1.68-.46-2.3-.9,0,0-9.68-7.01-13.42-9.06-3.53-1.93-10.61-5.18-10.61-5.18-.64-.29-1.21-.63-1.26-.74-.04-.11.12-.91.49-1.55.36-.64.38-1.85.04-2.68,0,0-1.09-2.63-.55-3.32ZM680.65,384.45s4.29-1.14,8.45.63c4.17,1.79,10.16,5.58,14.02,7.69,3.27,1.77,12.66,8.52,12.66,8.52.63.44.81,1.3.41,1.92l-1.54,2.39c-.4.61-1.25,1.02-1.92.9,0,0-10.44-1.9-12.84-2.25-2.54-.39-12.96-1.41-12.96-1.41-.66-.06-1.36-.2-1.54-.31-.19-.11-.7-1.15-.41-1.88,0,0,.33-.83.44-1.04.14-.28-2.22-2.14-2.57-3.15-.35-1,.76-1.51,1.08-2.45.29-.94.08-1.04.08-1.04-.65-.3-1.19-1.23-1.21-2.05,0-.83-.43-2.07-.93-2.73l-1.15-1.55c-.5-.7-.53-1.67-.06-2.18ZM679.11,403.46c1.08-.11,3.84-.03,3.84-.03.65.02,14.42,2.05,17,2.44,2.29.34,12.58,2.22,12.58,2.22.66.12,1.29.96,1.4,1.85l.05.47c.12.91-.28,1.81-.89,2.02,0,0-11.35,3.97-13.59,4.54-2.54.64-11.93,4.11-11.93,4.11-.61.23-1.48.48-1.93.55-.46.09-1.64.26-1.7.24-.06-.02.19-.46.54-.96.34-.5.24-1.34-.28-1.87l.21-.41c.21-.41-3.09-.76-3.88-1.6-.79-.84-.19-5.07-.1-5.61.07-.46-.38-.46-.38-.46-.64.01-1.44-.59-1.78-1.33-.33-.75-1.11-1.65-1.75-2,0,0-1.82-1.03-1.79-2.07,0-1.04,2.73-1.96,4.37-2.11Z" fill="currentcolor"/></g></g></g></svg>