<?xml version="1.0" encoding="UTF-8"?><svg xmlns="http://www.w3.org/2000/svg" viewBox="0 0 1024 1024"><title>gcpj logo</title><desc>Copyright &#xa9; 2026 Pearlpuppy. All rights reserved.</desc><metadata><rdf:RDF xmlns:rdf="http://www.w3.org" xmlns:dc="http://purl.org"><rdf:Description rdf:about=""><dc:title>gcpj logo</dc:title><dc:creator>Pierre Pearlpuppy</dc:creator><dc:rights>Copyright &#xa9; 2026 Pearlpuppy. All rights reserved.</dc:rights><dc:date>2026-03-20</dc:date><dc:format>image/svg+xml</dc:format></rdf:Description></rdf:RDF></metadata><g isolation="isolate"><g id="logo-gcpj"><g data-fc="#023366"><path d="M72.85,365.12v-51.76h12.4v48.71l5.19-1.35v-58.64h-20.86v-12.97h50.29v12.97h-15.34v18.72h12.74v5.07c7.44-12.63,11.73-26.73,13.64-42.4l14.21,2.26c-.79,5.3-1.8,10.37-3.05,15.33h32.7v13.53h-8.12c-1.35,17.93-5.52,32.48-12.85,44.54,5.98,7.89,13.31,13.76,22.22,17.93l-10.26,11.84c-8.12-4.51-15-10.49-20.75-17.93-6.2,6.77-13.87,12.74-23,18.04l-10.26-11.16c10.83-5.64,19.17-11.84,25.37-19.39-3.61-6.88-6.54-14.77-8.91-23.57-1.24,2.03-2.59,4.06-4.06,5.98l-9.13-7.1h-10.49v23.23c5.53-1.47,10.71-2.93,15.22-4.29l1.47,12.29c-14.43,4.85-36.42,11.61-49.05,15.22l-4.17-13.98c1.47-.34,3.04-.68,4.85-1.13ZM145.58,344.82c3.61-8.46,5.75-18.27,6.32-30.22h-13.98l-.23.56c1.58,11.39,4.28,21.2,7.89,29.66Z" fill="currentcolor"/><path d="M229.73,389.02h-14.77v-36.87c-1.8,2.26-3.72,4.51-5.64,6.65l-3.61-4.96c-1.69,11.84-4.51,23.68-8.91,34.96l-13.19-8.01c7.89-18.94,9.7-39.58,9.7-60.44v-26.05h40.03v-10.83h15.34v10.83h41.72v12.4h-82.43v13.53c0,6.2-.23,12.52-.68,18.94,6.99-9.7,12.29-20.86,15.34-32.14l13.98,3.38c-1.8,5.86-4.06,11.84-6.88,17.59v61ZM265.25,324.07v-14.43h14.77v14.43h10.37v12.74h-10.37v37.78c0,8.12-2.48,12.74-9.92,13.87-3.49.56-11.5.68-17.14.34l-2.93-13.98c4.29.45,10.37.45,12.4.34,2.14-.22,2.82-1.24,2.82-3.27v-35.07h-32.02v-12.74h32.02ZM246.53,340.42c6.54,8.34,10.83,16.12,13.19,23.45l-13.98,5.75c-1.8-7.44-5.75-15.33-11.39-23.45l12.18-5.75Z" fill="currentcolor"/><path d="M422.35,309.59l-14.75,5.28c-9.92-10.56-23.82-15.83-41.68-15.83-13.53,0-24.56,3.47-33.09,10.42-8.52,6.95-12.79,15.79-12.79,26.52s4.22,20.05,12.65,26.86c8.43,6.81,19.82,10.22,34.17,10.22,17.32,0,30.94-5.37,40.87-16.1l13.94,7.71c-7.04,8.21-15,14.14-23.88,17.79-8.89,3.65-19.51,5.48-31.87,5.48-17.32,0-31.71-4.33-43.17-12.99-13.08-9.92-19.62-22.91-19.62-38.97s6.63-28.69,19.89-38.7c11.55-8.75,25.85-13.13,42.9-13.13,24.54,0,43.35,8.48,56.43,25.44Z" fill="currentcolor"/><path d="M460.72,385.23h-16.24v-97.97h16.24v97.97Z" fill="currentcolor"/><path d="M611.02,336.11c0,16.06-6.59,29.05-19.76,38.97-11.55,8.66-25.89,12.99-43.03,12.99s-31.75-4.37-43.3-13.13c-13.17-9.92-19.76-22.87-19.76-38.84s6.68-28.6,20.03-38.7c11.73-8.84,26.07-13.26,43.03-13.26s31.35,4.42,42.9,13.26c13.26,10.1,19.89,23,19.89,38.7ZM594.11,336.11c0-11.46-4.87-20.75-14.62-27.88-8.39-6.13-18.81-9.2-31.26-9.2-13.62,0-24.72,3.5-33.29,10.49-8.57,6.99-12.85,15.86-12.85,26.59s4.19,20.05,12.58,26.86c8.39,6.81,19.58,10.22,33.56,10.22s25.01-3.43,33.36-10.28c8.34-6.86,12.52-15.79,12.52-26.79Z" fill="currentcolor"/><path d="M650.61,326.59c-4.42,9.47-12.09,20.03-19.67,27.34l-6.32-4.51c7.13-6.41,15.25-17.14,18.77-25.71l7.22,2.89ZM702.94,312.34h-33.2v38.98c0,8.93-3.34,12.45-12,12.45-2.89,0-6.95-.18-11.01-.63v-7.67c3.16.54,6.41.63,9.02.63,4.6,0,5.77-1.62,5.77-5.68v-38.08h-32.93v-7.49h32.93v-18.59h8.21v18.59h33.2v7.49ZM687.24,322.89c7.85,8.75,14.17,17.32,19.22,26.07l-7.13,4.06c-4.42-8.84-11.01-17.68-18.68-26.16l6.59-3.97ZM704.56,291.59c0,5.32-4.42,9.83-9.92,9.83s-9.92-4.51-9.92-9.93,4.42-9.92,9.92-9.92,9.92,4.42,9.92,9.92v.09ZM687.6,291.59c0,3.7,3.16,6.86,7.04,6.86s6.95-3.16,6.95-6.95-3.16-7.04-6.95-7.04-7.04,3.25-7.04,7.04v.09Z" fill="currentcolor"/><path d="M786.59,321v8.3h-73.44v-8.3h73.44Z" fill="currentcolor"/><path d="M826.3,316.4c6.59,3.7,15.16,9.38,21.11,13.89,5.5-8.21,9.29-17.23,11.1-26.44h-28.96c-6.59,10.56-15.25,21.02-23.73,27.61l-6.04-5.14c12.63-9.11,24.99-26.89,30.13-40.42l7.67,2.62c-1.08,2.62-2.35,5.32-3.88,8.21h29.05l5.59,3.16c-6.31,29.05-23.37,53.68-49.71,64.33l-5.41-6.68c12-4.42,21.92-11.91,29.41-20.93-6.05-4.96-14.89-10.83-21.29-14.26l4.96-5.95Z" fill="currentcolor"/><path d="M900.7,291.95v28.69c0,16.24-4.87,30.58-22.2,42.22l-6.23-5.77c17.23-10.65,20.3-22.83,20.3-36.81v-28.33h8.12ZM926.32,290.5v58.19c8.21-4.6,20.03-14.89,25.98-23.64l3.7,7.49c-7.49,9.84-20.21,20.75-31.58,27.52l-6.32-3.79v-65.77h8.21Z" fill="currentcolor"/><path d="M103.78,724.52c0,4.13-1.63,7.47-4.89,10.02-3.26,2.55-7.58,3.82-12.96,3.82-4.92,0-9.03-1.14-12.33-3.41-3.73-2.58-5.6-5.94-5.6-10.08s1.89-7.42,5.68-10.05c3.32-2.29,7.53-3.44,12.63-3.44,6.16,0,11.2,2.05,15.14,6.15l-4.33,1.97c-2.91-2.83-6.65-4.25-11.2-4.25-3.55,0-6.53.8-8.92,2.39-2.78,1.85-4.17,4.26-4.17,7.24s1.2,5.18,3.59,6.95c2.4,1.78,5.56,2.67,9.5,2.67,6.18,0,10.2-2.19,12.05-6.57h-13.02v-3.79h18.82v.39Z" fill="currentcolor"/><path d="M140.72,726.76c0,3.54-1.66,6.42-4.98,8.64-2.83,1.9-6.38,2.85-10.63,2.85s-7.8-.95-10.66-2.85c-3.32-2.2-4.98-5.08-4.98-8.64s1.67-6.37,5.02-8.57c2.94-1.94,6.48-2.92,10.62-2.92s7.65.97,10.59,2.92c3.35,2.22,5.02,5.08,5.02,8.57ZM135.89,726.75c0-2.23-1.01-4.07-3.02-5.51-2.01-1.44-4.61-2.16-7.78-2.16s-5.81.73-7.84,2.18c-2.03,1.45-3.04,3.29-3.04,5.49s.99,4.16,2.98,5.58c1.99,1.42,4.62,2.13,7.9,2.13s5.86-.71,7.84-2.13c1.97-1.42,2.96-3.28,2.96-5.58Z" fill="currentcolor"/><path d="M173.99,716.02l-13.14,21.6h-5.33l-13.14-21.6h5.12l10.68,17.93,10.68-17.93h5.12Z" fill="currentcolor"/><path d="M204.17,737.62h-25.58v-21.6h24.69v3.79h-20.05v4.67h13.95v3.79h-13.95v5.55h20.94v3.79Z" fill="currentcolor"/><path d="M237.83,737.62h-5.31l-6.22-7.94h-11.8v7.94h-4.64v-21.6h19.2c2.52,0,4.53.62,6.03,1.86,1.49,1.24,2.24,2.9,2.24,4.99,0,3.58-1.97,5.77-5.91,6.57l6.41,8.18ZM228.36,725.89c2.81,0,4.21-.98,4.21-2.95,0-2.08-1.49-3.13-4.48-3.13h-13.6v6.08h13.87Z" fill="currentcolor"/><path d="M271.98,737.62h-6.92l-16.15-18.02v18.02h-4.64v-21.6h6.91l16.16,18.03v-18.03h4.64v21.6Z" fill="currentcolor"/><path d="M313.38,737.62h-4.64l-.12-17.77-11.94,14.72-11.9-14.86-.12.14v17.77h-4.64v-21.6h6.96l9.69,12.22,9.72-12.22h6.98v21.6Z" fill="currentcolor"/><path d="M347.03,737.62h-25.58v-21.6h24.69v3.79h-20.05v4.67h13.95v3.79h-13.95v5.55h20.94v3.79Z" fill="currentcolor"/><path d="M380.42,737.62h-6.92l-16.15-18.02v18.02h-4.64v-21.6h6.91l16.16,18.03v-18.03h4.64v21.6Z" fill="currentcolor"/><path d="M412.77,719.81h-11.36v17.81h-4.64v-17.81h-11.36v-3.79h27.35v3.79Z" fill="currentcolor"/><path d="M462.65,717.98l-4.21,1.37c-2.83-2.74-6.8-4.11-11.9-4.11-3.86,0-7.01.9-9.45,2.7-2.43,1.8-3.65,4.1-3.65,6.89s1.2,5.2,3.61,6.97c2.41,1.77,5.66,2.65,9.76,2.65,4.94,0,8.83-1.39,11.67-4.18l3.98,2c-2.01,2.13-4.28,3.67-6.82,4.62-2.54.95-5.57,1.42-9.1,1.42-4.95,0-9.05-1.12-12.32-3.37-3.74-2.58-5.6-5.95-5.6-10.11s1.89-7.45,5.68-10.05c3.3-2.27,7.38-3.41,12.25-3.41,7.01,0,12.38,2.2,16.11,6.6Z" fill="currentcolor"/><path d="M474.52,737.62h-4.64v-25.43h4.64v25.43Z" fill="currentcolor"/><path d="M518.31,724.87c0,4.17-1.88,7.54-5.64,10.12-3.3,2.25-7.39,3.37-12.29,3.37s-9.07-1.14-12.36-3.41c-3.76-2.58-5.64-5.94-5.64-10.08s1.91-7.42,5.72-10.05c3.35-2.29,7.44-3.44,12.29-3.44s8.95,1.15,12.25,3.44c3.79,2.62,5.68,5.97,5.68,10.05ZM513.48,724.87c0-2.97-1.39-5.39-4.17-7.24-2.4-1.59-5.37-2.39-8.92-2.39-3.89,0-7.06.91-9.5,2.72-2.45,1.81-3.67,4.12-3.67,6.9s1.2,5.21,3.59,6.97c2.4,1.77,5.59,2.65,9.58,2.65s7.14-.89,9.52-2.67c2.38-1.78,3.57-4.1,3.57-6.95Z" fill="currentcolor"/><path d="M547.1,721.35c-3.09-1.47-6.45-2.21-10.08-2.21-5.28,0-7.92.85-7.92,2.56,0,1.01.99,1.66,2.97,1.97,2.7.21,5.41.43,8.11.67,3.89.35,6.66.98,8.31,1.9,1.83,1.01,2.74,2.54,2.74,4.6,0,2.32-1.14,4.11-3.42,5.37-2.28,1.27-5.58,1.9-9.91,1.9-6.1,0-10.99-1.26-14.64-3.79l2.51-2.99c3.27,2.08,7.29,3.13,12.05,3.13,2.68,0,4.75-.31,6.22-.93,1.47-.62,2.2-1.45,2.2-2.48,0-1.15-.9-1.95-2.7-2.42-1.01-.26-2.56-.43-4.68-.53-3.3-.14-5.32-.25-6.07-.32-2.94-.26-5.1-.83-6.49-1.72-1.39-.89-2.09-2.19-2.09-3.9,0-2.06,1.11-3.69,3.34-4.9,2.23-1.21,5.35-1.81,9.37-1.81,5.36,0,9.7,1.05,13.02,3.16l-2.86,2.74Z" fill="currentcolor"/><path d="M561.83,717c0,2.55-1.61,3.83-4.83,3.83h-.89v-2.07c1.93,0,2.9-.5,2.9-1.49v-1.28h-3.17v-3.79h5.99v4.81Z" fill="currentcolor"/><path d="M602.59,712.19c2.86,0,5.12.72,6.8,2.16,1.67,1.44,2.51,3.37,2.51,5.78s-.87,4.46-2.61,5.8c-1.74,1.33-4.27,2-7.59,2h-16.65v9.69h-4.64v-25.43h22.18ZM601.78,724.13c3.58,0,5.37-1.31,5.37-3.93,0-2.81-1.89-4.22-5.68-4.22h-16.42v8.15h16.73Z" fill="currentcolor"/><path d="M647.14,726.76c0,3.54-1.66,6.42-4.98,8.64-2.83,1.9-6.38,2.85-10.63,2.85s-7.8-.95-10.66-2.85c-3.32-2.2-4.98-5.08-4.98-8.64s1.67-6.37,5.02-8.57c2.94-1.94,6.48-2.92,10.62-2.92s7.65.97,10.59,2.92c3.35,2.22,5.02,5.08,5.02,8.57ZM642.31,726.75c0-2.23-1.01-4.07-3.02-5.51-2.01-1.44-4.61-2.16-7.78-2.16s-5.81.73-7.84,2.18c-2.03,1.45-3.04,3.29-3.04,5.49s.99,4.16,2.98,5.58c1.99,1.42,4.62,2.13,7.9,2.13s5.86-.71,7.84-2.13c1.97-1.42,2.96-3.28,2.96-5.58Z" fill="currentcolor"/><path d="M681.69,737.62h-5.31l-6.22-7.94h-11.8v7.94h-4.64v-21.6h19.2c2.52,0,4.53.62,6.03,1.86,1.49,1.24,2.24,2.9,2.24,4.99,0,3.58-1.97,5.77-5.91,6.57l6.41,8.18ZM672.23,725.89c2.81,0,4.21-.98,4.21-2.95,0-2.08-1.49-3.13-4.48-3.13h-13.6v6.08h13.87Z" fill="currentcolor"/><path d="M712.83,719.81h-11.36v17.81h-4.64v-17.81h-11.36v-3.79h27.35v3.79Z" fill="currentcolor"/><path d="M742.53,737.62h-5.1l-2.73-4.64h-15.97l-2.73,4.64h-5.1l12.94-21.6h5.76l12.94,21.6ZM732.38,729.19l-5.65-9.57-5.69,9.57h11.33Z" fill="currentcolor"/><path d="M770.29,737.62h-22.99v-21.6h4.64v17.81h18.35v3.79Z" fill="currentcolor"/><path d="M782.83,738.6c0,2.55-1.61,3.83-4.83,3.83h-.89v-2.07c1.93-.02,2.9-.51,2.9-1.47v-1.26h-3.17v-3.83h5.99v4.81Z" fill="currentcolor"/><path d="M824.59,729.47c0,2.88-1.08,5.09-3.23,6.62-2.15,1.53-5.3,2.3-9.45,2.3-3.76,0-6.66-.75-8.71-2.25-2.05-1.5-3.15-3.68-3.3-6.53h4.71c.21,1.79.9,3.07,2.09,3.84,1.18.77,3.01,1.15,5.49,1.15,2.76,0,4.74-.39,5.95-1.16,1.21-.77,1.82-2.09,1.82-3.94v-17.31h4.64v17.28Z" fill="currentcolor"/><path d="M859.85,737.62h-5.1l-2.73-4.64h-15.97l-2.73,4.64h-5.1l12.94-21.6h5.76l12.94,21.6ZM849.69,729.19l-5.65-9.57-5.69,9.57h11.33Z" fill="currentcolor"/><path d="M883.82,716.02c2.52,0,4.53.62,6.03,1.86,1.49,1.24,2.24,2.9,2.24,4.99s-.78,3.86-2.34,5.04c-1.56,1.18-3.79,1.77-6.7,1.77h-13.79v7.94h-4.64v-21.6h19.2ZM883.12,725.89c2.81,0,4.21-.98,4.21-2.95,0-2.08-1.49-3.13-4.48-3.13h-13.6v6.08h13.87Z" fill="currentcolor"/><path d="M923.53,737.62h-5.1l-2.73-4.64h-15.97l-2.73,4.64h-5.1l12.94-21.6h5.76l12.94,21.6ZM913.38,729.19l-5.65-9.57-5.69,9.57h11.33Z" fill="currentcolor"/><path d="M956,737.62h-6.92l-16.15-18.02v18.02h-4.64v-21.6h6.91l16.16,18.03v-18.03h4.64v21.6Z" fill="currentcolor"/><path d="M135.67,665.09c0,8.27-2.96,14.95-8.89,20.04-5.93,5.09-13.78,7.64-23.57,7.64-8.95,0-16.41-2.27-22.41-6.81-6.79-5.15-10.19-11.87-10.19-20.16s3.44-14.85,10.33-20.09c6.04-4.59,13.7-6.88,22.97-6.88,11.19,0,20.37,4.1,27.54,12.29l-7.87,3.93c-5.29-5.67-12.08-8.5-20.37-8.5-6.46,0-11.87,1.59-16.23,4.78-5.06,3.7-7.59,8.52-7.59,14.47s2.18,10.35,6.53,13.91c4.36,3.56,10.12,5.34,17.28,5.34,11.24,0,18.55-4.38,21.92-13.14h-23.67v-7.59h34.21v.77Z" fill="currentcolor"/><path d="M208.55,652.03l-7.66,2.74c-5.15-5.48-12.36-8.22-21.64-8.22-7.02,0-12.75,1.8-17.18,5.41-4.43,3.61-6.64,8.2-6.64,13.77s2.19,10.41,6.57,13.94c4.38,3.54,10.29,5.3,17.74,5.3,8.99,0,16.06-2.78,21.21-8.36l7.24,4c-3.65,4.26-7.79,7.34-12.4,9.24-4.61,1.9-10.13,2.85-16.54,2.85-8.99,0-16.46-2.25-22.41-6.74-6.79-5.15-10.19-11.9-10.19-20.23s3.44-14.89,10.33-20.09c5.99-4.54,13.42-6.81,22.27-6.81,12.74,0,22.5,4.4,29.29,13.21Z" fill="currentcolor"/><path d="M261.56,640.44c5.2,0,9.32,1.44,12.36,4.32,3.04,2.88,4.57,6.73,4.57,11.56,0,5.06-1.58,8.92-4.74,11.59-3.16,2.67-7.76,4-13.8,4h-30.28v19.39h-8.43v-50.86h40.32ZM260.08,664.32c6.51,0,9.76-2.62,9.76-7.87,0-5.62-3.44-8.43-10.33-8.43h-29.86v16.3h30.42Z" fill="currentcolor"/><path d="M325.25,675c0,5.76-1.96,10.17-5.87,13.24-3.91,3.07-9.64,4.6-17.17,4.6-6.84,0-12.12-1.5-15.84-4.5-3.72-3-5.73-7.35-6.01-13.07h8.57c.37,3.58,1.64,6.14,3.79,7.68,2.15,1.53,5.48,2.3,9.97,2.3,5.01,0,8.62-.77,10.82-2.32,2.2-1.55,3.3-4.18,3.3-7.88v-34.62h8.43v34.56Z" fill="currentcolor"/></g></g></g></svg>