<?xml version="1.0" encoding="UTF-8"?><svg xmlns="http://www.w3.org/2000/svg" viewBox="0 0 1024 1024"><title>arpeggio logo</title><desc>Copyright &#xa9; 2026 Pearlpuppy. All rights reserved.</desc><metadata><rdf:RDF xmlns:rdf="http://www.w3.org" xmlns:dc="http://purl.org"><rdf:Description rdf:about=""><dc:title>arpeggio logo</dc:title><dc:creator>Pierre Pearlpuppy</dc:creator><dc:rights>Copyright &#xa9; 2026 Pearlpuppy. All rights reserved.</dc:rights><dc:date>2026-03-20</dc:date><dc:format>image/svg+xml</dc:format></rdf:Description></rdf:RDF></metadata><g isolation="isolate"><g id="logo-arpeggio"><g data-fc="#2c807d"><path d="M431.98,298.76c0,59.87,35.15,106.75,80.02,106.75s80.03-46.89,80.03-106.75-35.15-106.76-80.03-106.76-80.02,46.9-80.02,106.76ZM480.96,298.76c0-33.34,16.39-58.25,31.04-58.25s31.04,24.91,31.04,58.25-16.39,58.25-31.04,58.25-31.04-24.91-31.04-58.25Z" fill="currentcolor" fill-rule="evenodd"/><path d="M452.81,394.7h.32c2.43,6.45,5.6,11.45,11.3,15.6,5.6,4.08,13.04,6.97,21.95,10.08,7.97,2.77,15.76,5.71,24.21,8.88,7.59,2.87,17.07,6.25,20.66,10.57,4.16,5.03-6.35,10.85-10.98,13.6-11.54,6.86-22.64,11.19-34.21,18.12-5.86,3.51-13.31,8.18-11.94,14.76.93,4.46,7.22,8.94,12.26,11.92,11.54,6.8,23.28,11.49,34.85,18.45,4.96,2.99,12.13,7.17,11.3,12.43-.34,2.08-2.46,3.88-4.2,5.36-1.79,1.54-3.71,2.81-6.14,4.2,5.5-2.51,12.73-5.16,12.92-10.74.23-6.61-8.54-12.01-14.84-15.95-8.97-5.59-19.52-10.87-28.08-16.78-3.69-2.54-8.39-5.22-8.39-9.39,0-4.91,6.58-8.8,12.27-11.75,12.44-6.48,23.96-10.66,35.18-17.96,2.64-1.72,5.72-3.1,7.74-5.04,5.48-5.23,5.87-12.48-.96-16.94-2.63-1.71-6.53-3.22-10.01-4.7-10.23-4.33-22.49-7.8-34.21-11.41,3.02.11,5.41,1.15,8.06,1.86,7.94,2.1,15.45,4.29,22.93,7.04,9.06,3.34,19.57,7.46,20.98,14.27,1.34,6.55-5.72,11.63-11.29,15.27-12.71,8.26-27.49,13.34-39.38,22.31-3.67,2.77-6.56,5.12-3.88,8.39,1.72,2.1,4.88,4.14,7.75,5.87,8.49,5.1,19.39,9.84,27.76,14.94-7.88-4.52-19.58-9.83-28.08-14.94-2.92-1.75-6.16-3.81-7.75-5.7-3.06-3.66,1.38-6.76,5.17-9.4,3.06-2.13,5.49-4.01,9.03-5.53-4.96,2.39-12.98,6.01-16.14,9.9-4.28,5.27,5.24,10.48,10.98,13.93,5.49,3.32,10.89,6.25,15.82,9.06,4.85,2.78,11.02,5.57,15.81,9.06,4.47,3.27,9.23,7.54,10,11.92.1.52.06.87,0,1.51-.52,5.6-5.85,9.41-12.27,12.75-12.34,6.43-27.53,11.02-40.67,16.95-3.19,1.44-6.25,3.13-9.04,4.87-5.09,3.18-9.8,6.98-8.7,13.09,1.28,7.14,10.55,11.57,17.74,16.28-4.03-4.07-11.45-8.89-12.58-14.94-1.57-8.33,9.33-12.46,18.39-15.77,16.29-5.96,32.16-10.4,46.16-17.97,7.75-4.18,14.64-9.25,13.56-17.11-.67-4.81-4.48-9.09-9.04-12.59-4.57-3.51-9.53-6.77-14.53-9.73-10.92-6.47-22.8-11.3-31.31-18.29,4.82-5.45,13.29-9.26,20.98-13.25,7.7-4.01,15.67-7.85,22.27-12.43.22.74-1.2,1.2-1.93,1.69-12,7.84-27.72,14.6-38.74,23.15,6.97,5.34,17,9.24,26.15,13.6,2.97,1.41,5.43,3.13,8.4,4.53,6.1,2.88,12.39,5.56,17.11,9.23,4.61,3.57,7.63,7.83,9.68,12.92-1.11-10.03-11.34-16.88-21.63-22.98-9.07-5.39-18.47-10.38-28.72-15.28-.63-.3-1.68-.65-2.26-1-.12-.07-1.91-.67-.64-1.01,8.75,2.06,15.55,5.34,21.95,8.23,6.76,3.04,12.74,6.01,19.04,9.56,6.07,3.42,10.68,7.24,15.49,11.41,6.65,5.79,9.6,16.91,4.52,24.67-1.47,2.26-4.14,4.29-6.45,6.38-4.68,4.23-9.66,7.83-15.81,11.23-5.72,3.19-12.64,5.88-20.01,9.08-4.98,2.14-10.01,4.12-15.5,6.53-2.64,1.16-6.89,3.13-8.39.67,1.95,4.11,7.69,7.33,12.91,10.41,10.22,6.02,20.94,11.78,30.02,18.63,5.26,3.95,9.95,8.77,9.04,15.43-1.41,10.19-17.89,17.53-29.7,22.65-9.01,3.91-21.55,8.15-29.05,13.43-2.6,1.83-5.83,4.23-5.16,6.72.42,1.57,4.63,3.82,7.74,5.36,9.17,4.49,22.62,7.63,31.32,11.75,8.59,4.06,17.34,9.9,23.56,15.94,3.95,3.83,7.66,6.66,6.77,12.74-.93,6.44-9.44,10.11-16.45,13.77-3.81,1.97-6.22,4.3-9.37,6.38-2.41,1.59-5.08,2.82-8.07,4.19-.82.39-2.14.84-2.25,1.52-.73-.09-.71-.82-1.61-.33-.86-.03-1.53,1-2.58,1-.24,0-1.01-.23-.65-.34-2.32.71-2.63,2.3-6.13,2.68,1.03-2.88,3.65-4.93,6.46-6.87-6.28,2.22-11.91,6.06-17.11,9.55-.52.35-1.16,1.15-2.26,1.01-.09-2.17,1.87-3.28,2.9-4.87-1.54-.13-3.07,2.09-4.83,1.84,1.1-4.63,4.21-8.2,7.09-11.91-6.12,3.04-7.51,10.27-14.52,13.58-.53-.86-.28-1.94.32-2.68-1.98.54-3.74,2.64-6.13,3.52,1.33-1.93,2.09-4.16,3.22-6.2-7.28,3.12-12.86,8.74-14.2,15.59-4.84-1.85-6.46-4.72-5.81-9.39,1.03-7.54,9.41-13.88,16.78-18.61,8.21-5.29,17.03-10.16,23.87-14.77-2.22-2.06-5.93-3.44-9.04-5.04-9.15-4.76-18.88-8.91-28.08-14.1-11.34-6.39-24.28-14.26-23.23-26.18,1.01-11.43,14.01-18.6,25.49-25.01,11.12-6.2,24.69-11.04,35.19-17.61.43-.28,1.08-1.01,2.25-.84-3.44-3.89-8.99-6.79-14.2-9.74-10.26-5.81-20.53-11.55-29.04-18.79-4.3-3.66-8.37-7.76-8.4-12.59-.04-6.47,4.97-10.79,11.29-14.6,12.55-7.52,28.07-11.71,43.26-18.11,3.54-1.5,6.74-3.1,9.68-5.2,2.76-1.98,5.71-4.72,6.13-6.88.98-5-6.09-9.64-10.98-12.6-11.01-6.66-23.47-11.45-35.18-18.28-5.38-3.15-13.42-8.5-12.27-14.94.86-4.73,6.65-8.75,11.95-11.91,11.61-6.95,22.2-10.98,34.21-18.12,5.41-3.21,14.81-8.59,10.98-13.43-3.62-4.58-12.55-7.72-20.65-10.74-8.38-3.12-16.47-6.02-24.21-8.72-17.94-6.3-28.91-12.36-33.24-25.84Z" fill="currentcolor" fill-rule="evenodd"/><path d="M542.53,439.83c-6.07-6.96-18.61-10.56-30.98-14.25,10.71,2.87,25.78,7.28,30.98,14.25Z" fill="currentcolor" fill-rule="evenodd"/><path d="M830.12,536.63c.76-6.13,1.41-12.3,1.88-18.52-.65,2.4-1.41,4.75-2.11,7.14l-.14-7.14c-36.38,134.28-164.78,233.59-317.76,234.09-152.98-.49-281.38-99.81-317.76-234.09l-.14,7.12c-.71-2.37-1.45-4.72-2.09-7.12.45,6.22,1.11,12.36,1.88,18.49l-1.88,98.18,24.54-10.14c47.47,118.65,156.21,202.72,283.93,207.07.68.04,1.38.04,2.06.06,2.78.08,5.54.22,8.34.22.39,0,.76-.02,1.13-.02s.74.02,1.12.02c2.8,0,5.56-.14,8.35-.22.68-.02,1.38-.02,2.06-.06,127.73-4.35,236.47-88.41,283.93-207.07l24.54,10.14-1.88-98.16Z" fill="currentcolor" fill-rule="evenodd"/></g></g></g></svg>