<?xml version="1.0" encoding="UTF-8"?><svg xmlns="http://www.w3.org/2000/svg" viewBox="0 0 1024 1024"><title>zbat logo</title><desc>Copyright &#xa9; 2026 Pearlpuppy. All rights reserved.</desc><metadata><rdf:RDF xmlns:rdf="http://www.w3.org" xmlns:dc="http://purl.org"><rdf:Description rdf:about=""><dc:title>zbat logo</dc:title><dc:creator>Pierre Pearlpuppy</dc:creator><dc:rights>Copyright &#xa9; 2026 Pearlpuppy. All rights reserved.</dc:rights><dc:date>2026-03-20</dc:date><dc:format>image/svg+xml</dc:format></rdf:Description></rdf:RDF></metadata><g isolation="isolate"><g id="logo-zbat"><g id="zbat"><path data-fc="#666" d="M277.64,538.55c-31.99,0-57.93,25.93-57.93,57.93s25.93,57.93,57.93,57.93,57.93-25.94,57.93-57.93-25.93-57.93-57.93-57.93Z" fill="currentcolor"/><g data-fc="#b30068"><path d="M282.47,485.45c0-21.33-17.29-38.62-38.62-38.62s-38.62-17.29-38.62-38.62-17.29-38.62-38.62-38.62-38.62,17.29-38.62,38.62,17.29,38.62,38.62,38.62,38.62,17.29,38.62,38.62-17.29,38.61-38.62,38.61-38.62,17.3-38.62,38.62,17.29,38.62,38.62,38.62,38.62-17.28,38.62-38.62,17.29-38.62,38.62-38.62,38.62-17.28,38.62-38.61Z" fill="currentcolor"/><path d="M892.15,500.93h-79.68c-3.48,0-4.85-2.41-3.05-5.35l20.58-33.6c1.8-2.94.43-5.35-3.05-5.35h-21.09c-3.48,0-7.8,2.4-9.6,5.35l-61.26,100.03c-1.8,2.94-.43,5.35,3.05,5.35h21.09c3.48,0,7.8-2.41,9.6-5.35l25.1-40.98c1.8-2.94,6.12-5.35,9.6-5.35h79.68c3.48,0,7.8-2.41,9.6-5.35l2.5-4.07c1.79-2.94.42-5.35-3.06-5.35Z" fill="currentcolor"/><path d="M482.52,456.63h-67.49c-3.48,0-8.88,1.76-12,3.91l-15.4,10.63c-3.12,2.15-6.44,6.41-7.37,9.45-.93,3.05,1.15,5.54,4.63,5.54h59.05c3.48,0,3.78,1.76.66,3.91l-106.32,73.37c-3.12,2.16-2.82,3.92.65,3.92h4.22c3.48,0,8.88-1.76,12-3.92l44.82-30.93c3.12-2.15,7.15-2.15,8.95,0l25.87,30.92c1.8,2.15,6.12,3.92,9.6,3.92h21.09c3.48,0,4.85-1.77,3.05-3.92l-38.22-45.69c-1.8-2.15-.72-5.67,2.4-7.83l44.81-30.93c3.12-2.15,6.44-6.4,7.37-9.45l2.26-7.38c.93-3.04-1.15-5.54-4.63-5.54Z" fill="currentcolor"/><path d="M498.38,480.63l5.65-18.46c.93-3.05-.21-5.54-2.52-5.54s-4.98,2.49-5.91,5.54l-5.65,18.46c-.93,3.04.2,5.54,2.52,5.54s4.98-2.5,5.92-5.54Z" fill="currentcolor"/><path d="M511.44,486.16h4.22c3.48,0,7.09-2.5,8.02-5.54l5.65-18.46c.93-3.05-1.15-5.54-4.63-5.54h-4.22c-3.48,0-7.09,2.49-8.02,5.54l-5.65,18.46c-.93,3.04,1.15,5.54,4.63,5.54Z" fill="currentcolor"/><path d="M566.42,456.63h-4.22c-3.48,0-7.8,2.4-9.6,5.35l-61.27,100.03c-1.8,2.94-.43,5.35,3.05,5.35h4.22c3.48,0,7.8-2.41,9.6-5.35l61.27-100.03c1.8-2.94.43-5.35-3.05-5.35Z" fill="currentcolor"/><path d="M608.36,456.63h-21.09c-3.48,0-6.33,2.4-6.33,5.35v100.03c0,2.94,2.85,5.35,6.33,5.35h21.09c3.48,0,6.33-2.41,6.33-5.35v-100.03c0-2.94-2.85-5.35-6.33-5.35Z" fill="currentcolor"/><path d="M629.69,456.63c-2.32,0-4.98,2.49-5.91,5.54l-5.65,18.46c-.93,3.04.2,5.54,2.52,5.54s4.98-2.5,5.92-5.54l5.65-18.46c.93-3.05-.21-5.54-2.52-5.54Z" fill="currentcolor"/><path d="M652.89,456.63h-4.22c-3.48,0-7.09,2.49-8.02,5.54l-5.65,18.46c-.93,3.04,1.15,5.54,4.63,5.54h4.22c3.48,0,7.09-2.5,8.02-5.54l5.65-18.46c.93-3.05-1.16-5.54-4.63-5.54Z" fill="currentcolor"/><path d="M685.12,523.07h4.22c3.48,0,7.09-2.49,8.02-5.54l10.17-33.22c.93-3.04-1.15-5.54-4.63-5.54h-4.22c-3.48,0-7.09,2.49-8.02,5.54l-10.17,33.22c-.93,3.04,1.15,5.54,4.63,5.54Z" fill="currentcolor"/><path d="M761.96,478.78h-12.65c-3.48,0-8.41,2.16-10.96,4.79l-76.32,78.99c-2.55,2.64-1.78,4.8,1.7,4.8h12.65c3.48,0,8.41-2.16,10.96-4.8l76.31-78.99c2.55-2.64,1.78-4.79-1.69-4.79Z" fill="currentcolor"/><path d="M666.49,523.57c2.69,0,5.85-3.56,7.01-7.91l7.69-28.67c1.17-4.35-.09-7.91-2.78-7.91s-5.85,3.56-7.01,7.91l-7.69,28.67c-1.17,4.35.09,7.91,2.78,7.91Z" fill="currentcolor"/></g></g></g></g></svg>