<?xml version="1.0" encoding="UTF-8"?><svg xmlns="http://www.w3.org/2000/svg" viewBox="0 0 1024 1024"><title>crescent logo</title><desc>Copyright &#xa9; 2026 Pearlpuppy. All rights reserved.</desc><metadata><rdf:RDF xmlns:rdf="http://www.w3.org" xmlns:dc="http://purl.org"><rdf:Description rdf:about=""><dc:title>crescent logo</dc:title><dc:creator>Pierre Pearlpuppy</dc:creator><dc:rights>Copyright &#xa9; 2026 Pearlpuppy. All rights reserved.</dc:rights><dc:date>2026-03-20</dc:date><dc:format>image/svg+xml</dc:format></rdf:Description></rdf:RDF></metadata><g isolation="isolate"><g id="logo-crescent"><g data-fc="#ffaf1c"><g mix-blend-mode="color-dodge"><path d="M897.74,499.66h24.82v4.66h-9.75v27.11h-5.26v-27.11h-9.81v-4.66Z" fill="currentcolor"/><path d="M925.27,499.66h7.68l7.63,25.4,7.74-25.4h7.68v31.77h-5.02v-26.25l-7.87,26.25h-5.18l-7.76-26.25v26.25h-4.9v-31.77Z" fill="currentcolor"/></g><path d="M901.09,588.06h-17.94l17.5-21.38c.45-1.46,6.13-6.25,6.13-7.97,0-3.98-10.92-3.99-13.91-3.99-10.17,0-13.31,6.09-18.25,12.72l-15.25,20.54c-3.14,0-14.06-1.06-16.75,2.12-1.05,1.19-2.54,2.65-3.14,4.11l.75,1.32c4.19.8,9.12.26,13.16.26l-13.46,18.82c-8.31,11.76-17.92,19.34-33.92,19.71-4.26-.13-10.37-.76-10.37-3.67,0-7.29,30.06-32.6,30.06-40.41,0-5.96-7.18-6.89-12.41-6.89-23.48,0-47.71,17.49-64.46,30.87,2.84-3.58,25.13-29.55,25.13-29.81,0-3.18-12.26-2.65-14.66-2.65-7.78,0-12.86,6.49-16.3,11.79l-10.02,15.24c-8.13,12.45-21.39,25.26-38.89,25.55-6.8-.11-13.62-.75-19.23-4.48,13.01-5.56,41.73-20.41,41.73-35.11,0-9.67-12.11-12.19-20.94-12.19-23.33,0-56.83,13.38-56.83,37.5,0,3.98,1.35,7.82,4.49,10.73-8.52,1.99-17.48,3.57-26.44,3.58-10.96-.01-35.37-.55-35.37-14.18s19.14-26.5,33.95-26.5c3.29,0,7.92.26,7.92,4.11,0,2.38-1.04,3.31,2.69,3.31,5.83,0,12.86-3.31,12.86-9.14,0-8.21-14.36-9.41-21.09-9.41-25.57,0-63.26,15.24-63.26,41.47,0,2.25,1.2,4.51,2.39,6.49-7.48,2.52-15.55,3.84-23.63,3.84l-.02.02c-3.5-.09-7.3-.45-9.92-1.48,7.93-4.37,15.4-12.59,15.4-21.33,0-7.68-6.58-13.65-12.56-18.68,4.79-1.99,13.31-6.49,13.31-11.79,0-4.37-6.58-5.17-10.32-5.17-8.97,0-24.68,4.24-24.68,14.04,0,1.72,1.05,3.18,2.54,4.24-12.73,10.36-51.97,39.53-70.03,40.12-6.79-.11-13.6-.75-19.2-4.48,13.01-5.56,41.72-20.41,41.72-35.11,0-9.67-12.11-12.19-20.94-12.19-23.33,0-56.83,13.38-56.83,37.5,0,3.98,1.35,7.82,4.49,10.73-8.18,1.91-16.78,3.43-25.39,3.55-5.19-.1-14.08-.67-14.08-3.82,0-6.1,24.23-24.25,24.23-29.95s-8.37-8.21-13.31-10.07l-13.01-4.77c2.09-1.85,3.89-3.84,3.89-6.49,0-1.16-.38-2.1-.99-2.86,9.47-19.45,14.8-41.29,14.8-64.38,0-2.55-.07-5.09-.19-7.61-1.35,25.57-9.98,49.2-23.81,68.9-.35-.01-.69-.02-1.02-.02-4.04,0-8.08.8-11.37,2.92-2.24,1.46-5.98,5.03-5.98,7.69,0,3.31.15,5.17,3.29,7.29-.05.06-.1.11-.15.17-23.94,23.75-56.88,38.44-93.27,38.44-73.18,0-132.5-59.32-132.5-132.5s55.52-128.61,125.39-132.3c-2.52-.13-5.06-.19-7.61-.19-81.31,0-147.22,65.91-147.22,147.22s65.91,147.22,147.22,147.22c49.71,0,93.62-24.66,120.28-62.38,3.3,1.27,8.95,3.63,8.95,5.72,0,5.3-23.33,21.75-23.33,31.16s26.62,9.56,33.5,9.56h3.14l.08-.25c13.03-.5,26.4-3.17,38.8-6.28,6.62,3.72,19.55,6.53,27.86,6.53h0,.05c1.76,0,3.31-.06,4.55-.25,8.95-.69,20.66-3.17,27.61-5.86,6.73,4.77,18.1,6.08,26.47,6.08s16.6-1.2,24.53-3.19c5.24,1.67,13.34,2.68,19.39,2.87l-.03.04c.33,0,.65-.02.98-.02.35,0,.72.02,1.05.02l.25-.05c12.26-.25,24.59-2.46,35.86-6.71,9.12,4.9,26.32,7.29,36.94,7.29,3.14,0,6.13-.26,9.12-.53v-.02c14.15-.09,28.84-2.95,42.37-6.34,9.07,5.1,23.12,6.27,33.9,6.35h0c.1,0,.21,0,.32,0,.31,0,.63,0,.93,0l.09-.02c8-.25,18.92-2.69,25.43-6.2-1.2,1.19-3.74,3.05-3.74,4.77,0,1.85,5.98,1.72,7.18,1.72,7.48,0,14.51-1.86,19.29-7.29,10.17-11.53,20.64-21.47,34.4-29.81,4.79-2.92,15.7-9.41,21.69-9.41,1.34,0,2.84,0,3.29,1.46-1.2,5.3-26.77,25.71-26.77,34.85s20.34,10.05,29.19,10.08v.15h1.92l.29-.23c10.45-.43,22.51-3.7,31.59-7.66,6.28,7.02,26.77,7.89,35.89,7.89h2.39l6.28-8.76c-4.93,0-21.09-.74-21.09-7.1,0-5.3,20.94-30.78,21.39-31.57,4.04,0,17.2.78,21.84-.55,2.54-.66,3.74-3.06,5.23-4.78,0-.26.3-.76.3-.89,0-1.59-2.39-1.55-3.74-1.55ZM407.7,618.46c0-12.46,13.16-25.31,27.52-25.31,3.14,0,7.63.66,7.63,4.24,0,10.07-22.73,22.39-32,25.84-1.94-1.86-1.94-2.78-3.14-4.77ZM486.6,634.36c-1.94-4.37-5.23-6.09-10.02-7.42,12.26-6.49,25.43-14.44,35-23.99.9,3.05,1.2,5.96,1.2,9.14,0,12.85-12.71,21.07-26.17,22.26ZM664.69,618.46c0-12.46,13.16-25.31,27.52-25.31,3.14,0,7.63.66,7.63,4.24,0,10.07-22.73,22.39-32.01,25.84-1.94-1.86-1.94-2.78-3.14-4.77Z" fill="currentcolor" mix-blend-mode="color-dodge"/></g></g></g></svg>