<?xml version="1.0" encoding="UTF-8"?><svg xmlns="http://www.w3.org/2000/svg" viewBox="0 0 1024 1024"><title>tink logo</title><desc>Copyright &#xa9; 2026 Pearlpuppy. All rights reserved.</desc><metadata><rdf:RDF xmlns:rdf="http://www.w3.org" xmlns:dc="http://purl.org"><rdf:Description rdf:about=""><dc:title>tink logo</dc:title><dc:creator>Pierre Pearlpuppy</dc:creator><dc:rights>Copyright &#xa9; 2026 Pearlpuppy. All rights reserved.</dc:rights><dc:date>2026-03-20</dc:date><dc:format>image/svg+xml</dc:format></rdf:Description></rdf:RDF></metadata><g isolation="isolate"><g id="logo-tink"><g id="tink"><g data-fc="gra_2"><path d="M460.96,781.66c-.29,0-.59-.2-.88-.2-5.82,0-13.38,4.67-17.45,7.31-12.8,8.13-21.53,19.7-27.35,31.07-11.35,22.34-12.8,50.37-42.77,65.39-9.02,4.47-19.49,7.31-30.55,7.31-13.39,0-27.93-5.07-27.93-15.63,0-3.86,1.75-9.14,5.24-12.19,9.89,0,20.95-3.45,20.95-11.58,0-5.28-5.53-7.52-12.51-7.52-19.49,0-29.68,13.4-29.68,25.59,0,16.45,18.04,24.78,40.15,24.78,49.75,0,83.21-29.85,91.36-61.74,2.91-11.37,4.65-24.57,9.89-35.34,5.53-11.37,14.55-10.36,21.53-17.26Z" fill="currentcolor"/><path d="M363.78,820.65c16.87,0,37.24-14.22,39.57-25.59l-.88-.2c-8.14,5.69-12.22,14.02-27.35,14.02-7.85,0-16.29-3.66-16.29-9.96,0-14.82,28.22-21.73,45.68-21.73,18.33,0,36.66,1.42,54.99,1.42,38.99,0,71.86-13.61,92.81-36.15l-.87-.81c-4.94,2.84-9.02,6.5-13.96,9.54-10.18,6.3-22.12,9.95-35.21,12.19-43.35,7.11-83.5-4.06-124.23,13.61-16,6.9-31.13,18.68-31.13,32.7,0,7.51,6.69,10.97,16.88,10.97Z" fill="currentcolor"/><path d="M719.86,863.1c-5.81,4.88-23.27,24.17-35.2,24.17-6.69,0-5.53-13-5.82-15.64-.29-6.7-3.2-8.53-12.8-9.34,12.8-3.66,33.75-11.37,33.75-22.75,0-4.07-4.95-6.91-10.48-6.91-28.22,0-51.2,41.63-58.77,56.25l24.44-60.72c24.44-9.95,70.99-28.44,70.99-51.79,0-7.11-6.69-10.57-16.29-10.57-17.17,0-30.84,7.52-41.02,16.45-11.64,10.15-19.2,22.34-25.02,34.53-1.45,3.45-2.62,7.31-4.37,10.76-4.07,7.92-24.15,29.45-31.42,38.18v.08c-7.01,7.16-19.97,19.41-29.38,19.41-3.49,0-4.66-1.62-4.66-3.65,0-12.79,14.26-30.46,14.26-42.85,0-4.27-3.2-6.09-9.02-6.09-26.19,0-53.54,43.66-61.97,56.86,8.72-18.48,16.58-37.16,24.15-55.85-6.69.2-13.67,1.22-19.79,2.44-7.57,10.15-16.88,19.7-25.31,29.65v.74c-6.34,7.03-19.44,19.98-27.92,19.98-4.36,0-6.69-2.03-6.69-5.08,0-10.35,13.38-38.58,17.75-47.72-6.7.2-13.68,1.22-19.79,2.44-7.56,10.15-16.87,19.7-25.31,29.65v.81l1.75.2c3.2-1.42,21.24-22.34,25.6-29.04l-15.42,35.54c-1.46,3.66-2.62,7.52-2.62,11.37,0,5.69,3.49,9.34,12.22,9.34,18.72,0,33.98-16.63,42.43-27.36,4.28-2.61,22.5-25.31,25.35-29.1-7.27,18.69-15.42,37.37-23.86,55.85l19.78-2.23c5.24-8.33,30.26-47.93,45.39-47.93,2.62,0,4.07,1.42,4.07,3.04,0,9.14-13.97,29.65-13.97,39.4,0,4.67,4.07,7.72,11.05,7.72,15.66,0,34.22-16.73,43.32-26.61h.01c3.79-1.62,24.15-26.8,26.48-30.05-6.69,18.89-13.97,37.77-22.11,56.46l18.33-2.23c6.11-10.15,27.64-49.76,44.52-49.76,1.46,0,3.49.81,4.07,1.83.87.81,1.16,2.03,1.16,3.04,0,7.92-14.84,15.44-25.02,16.86l-.88,2.23c5.24,1.83,7.28,5.48,7.28,9.34s-1.46,7.72-1.46,11.78c0,5.69,2.04,8.73,11.06,8.73,16.87,0,41.9-21.12,48.59-30.87l-.58-.61-.88-.4ZM699.21,770.9c7.86,0,11.05,5.08,11.05,9.95,0,19.9-32.01,35.94-54.41,44.68,4.66-12.39,19.5-54.63,43.35-54.63Z" fill="currentcolor"/><path d="M369.06,772.66c3.12-1.95,7.37-3.81,12.01-5.17,4.75-1.48,9.12-1.97,15.51-2.6,11.95-1.24,24.84-2.07,37.93-2.9,26.13-1.51,53.34-3.84,74.39-8.66,21.06-4.57,35.48-10.72,36.8-11.23-33.8,12.65-67.88,15.31-100.29,16.64-16.28.69-32.34,1.12-48.31,2.36-8.34.52-14.8,1.35-22.08,4.07-6.84,2.35-13.68,6.92-15.21,10.66.45,2.81,2.51,4.44,5.85,7.14.14.14-1.5-2.31-1.86-4.39-.1-1.07-.07-.86.11-1.37.25-.58,1.98-2.64,5.15-4.56Z" fill="currentcolor"/><path d="M376.76,762.64c6.95-2.71,15.13-3.54,25.09-4.42,9.67-.9,20.05-1.59,30.51-2.25,20.91-1.25,42.26-2.83,58.7-5.47,16.45-2.55,27.84-5.83,28.9-6.12-26.61,6.51-53,7.96-78.9,9-12.98.52-25.88.95-38.77,1.82-6.46.56-12.96.7-19.02,2.03-6.17,1.34-12.41,3.45-18,6.75-3.48,3.52-6.19,7.89-6.29,11.02.06.01.4-1.44,3.02-4.02,2.57-2.57,7.78-5.9,14.75-8.34Z" fill="currentcolor"/><path d="M430.06,750.29c16.74-1.04,33.63-2.15,46.58-3.68,12.94-1.47,21.89-3.25,22.73-3.41-20.88,3.33-41.65,4.22-62.35,5.03-10.36.4-20.72.8-31.11,1.44-10.29.79-20.91.86-31.46,4.68-3.54,2.38-6.93,5.01-9.86,8.01-.06.06,7.4-5.03,19.75-7.73,12.26-2.19,29.03-3.18,45.73-4.32Z" fill="currentcolor"/><path d="M377.48,751.37c.48-.29.97-.57,1.46-.85-.87.28-1.39.56-1.46.85Z" fill="currentcolor"/><path d="M386.74,746.59c-2.7,1.18-5.29,2.5-7.8,3.94,12.81-4.11,105.22-7.85,107.67-10.27-33.09,3.89-65.66,2.67-99.87,6.33Z" fill="currentcolor"/><path d="M451.53,821.62c1.84,4.55,7.44,6.85,12.46,6.99,3.72.11,7.5-1.03,10.28-3.29.16.09.33.18.49.28.18.1.43.24.58.31,1.32.69,2.71,1.28,4.16,1.67,7.28,1.95,17.66-1.6,17.8-9.48-.07-4.32-3.38-7.01-7.18-9,.03-1.16-.11-2.32-.44-3.44-.87-2.9-2.12-5.78-5.05-7.44-1.89-.98-3.9-1.24-5.87-.97-1.57-1.11-3.45-1.8-5.52-1.83-2.49.04-4.59.98-6.25,2.42-1.99.18-3.99.85-5.65,1.72-3.48,1.96-4.79,5.49-4.68,9.01-.93.53-1.79,1.16-2.56,1.89-1.48,1.41-2.24,3.1-2.69,4.95,0-.69-.44,1.44-.22,1.02-.33,1.76-.38,3.43.33,5.19ZM473.31,824.29c-.38-.36-.72-.74-1.04-1.13-.22-.27-.41-.54-.58-.81.17-.03.33-.06.5-.09.15.03.31.07.47.09.75.32,1.54.54,2.36.67-.06.05-.12.11-.18.16-.48.41-.99.78-1.53,1.11ZM466.91,814.59c.44,1.46.98,2.97,1.79,4.31.04.18.09.36.15.54-.98-.51-1.9-1.18-2.69-1.98-.4-.41-.75-.86-1.09-1.32-.17-.24-.32-.48-.48-.73-.02-.04-.04-.06-.06-.09-.54-1.3-.83-2.69-.97-4.08-.09-.88-.09-1.77,0-2.65,1.06-.04,2.14.02,3.19.16-.42,1.95-.41,3.95.15,5.84ZM464.27,814.94c-.11-.13.18.43.32.67.29.58.6,1.15.94,1.71,1.01,1.68,2.47,3.09,4.2,4.01.02.04.05.08.08.12-.75-.19-1.49-.44-2.19-.75-4.75-2.06-7.91-6.66-8.67-11.32,1.17-.38,2.39-.62,3.64-.74.13,2.16.75,4.27,1.68,6.3ZM468.52,817.78c-.24-.3-.45-.62-.65-.94-.07-.11-.13-.22-.18-.34-.06-.16-.14-.36-.17-.52-.16-.66-.23-1.33-.26-2-.1-1.69.18-3.4.76-5.02.87.18,1.71.43,2.52.73.47.18.94.39,1.38.61-2.3,1.94-3.65,4.65-3.4,7.46ZM475.3,810.35c1.09-.68,2.29-1.2,3.54-1.57.9,2.85.89,5.93-.37,8.67-.11.25-.25.5-.39.74.08-.56.12-1.11.13-1.65-.04-2.45-1.17-4.55-2.91-6.18ZM474,808.91c-.1.05-.2.11-.3.17-1.36-.9-2.92-1.59-4.54-2.03-.09-.02-.18-.04-.26-.07,1.15-2.15,2.84-4.07,4.9-5.51.63.51,1.21,1.07,1.75,1.65,1.16,1.25,2.1,2.7,2.77,4.25-1.5.31-2.97.82-4.32,1.54ZM473.78,811.48c2.34,1.75,3.93,4.26,3.98,7.12,0-.31.09-.62.19-.93-.1.31-.19.62-.19.93,0,.03,0,.06,0,.09-.31.45-.67.87-1.06,1.26-1.46.58-3.01.73-4.52.54-.55-.21-1.07-.48-1.56-.8-.58-2.94.64-6.02,3.16-8.22ZM490.11,809.22c.19.07.37.15.55.24.2.13.4.26.59.4.85.6,1.58,1.33,2.21,2.12,1.19,1.47,1.81,3.24,1.83,5.06-.08,4.77-4.29,8.21-9.06,9.48-2.73.73-5.68.7-8.42.08-.63-.14-1.25-.34-1.85-.56-.31-.11-.61-.24-.91-.37-.03-.02-.06-.04-.1-.06-.19-.13-.38-.26-.56-.39.21-.18.41-.36.61-.54.48-.46.9-.98,1.27-1.53,4.81.13,9.11-3.16,11.46-6.73,1.4-2.12,2.27-4.66,2.36-7.19ZM481.05,808.29c.95-.14,1.92-.21,2.89-.2-.01,3.39-1.21,6.86-3.65,9.38,1.69-2.76,1.71-6.11.76-9.18ZM484.75,808.11c1.51.08,3.01.34,4.41.77-.2,1.19-.57,2.35-1.05,3.46-1.37,3.17-4.04,6.08-7.42,7.64,2.75-2.48,4.06-6.33,4.17-9.72.02-.72-.02-1.44-.11-2.15ZM489.1,804.22c.09.23.12.34,0,0h0ZM485.39,800.2c1,.56,1.83,1.25,2.55,2.1.36.42.65.88.92,1.35.05.08.09.18.14.28.07.29.14.6.19.89.23,1.26.22,2.55.03,3.82-1.45-.69-3.01-1.16-4.6-1.4-.46-2.32-1.47-4.53-2.72-6.61-.31-.52-.67-1.02-1.07-1.49,1.57,0,3.13.32,4.57,1.07ZM479.76,799.19c.24.17.47.35.7.54.89.74,1.61,1.63,2.23,2.57.08.12.18.31.26.47.07.19.14.38.21.57.24.69.41,1.4.54,2.11.11.56.17,1.13.21,1.7-1.09-.12-2.2-.15-3.3-.07-.41-1.01-.91-1.97-1.49-2.85-.94-1.42-2.16-2.72-3.59-3.77,1.32-.66,2.77-1.1,4.23-1.25ZM474.19,797.32c.88.01,1.73.15,2.53.38-1.12.36-2.2.86-3.19,1.49-.92-.47-1.91-.85-2.94-1.1,1.11-.47,2.31-.74,3.6-.76ZM469,798.94c.1.03.2.06.3.09.97.3,1.88.72,2.74,1.23-.17.14-.34.28-.5.42-1.84,1.62-3.29,3.73-4.17,6.02-1.14-.17-2.3-.23-3.46-.17.25-1.01.6-2,1.06-2.95.88-1.82,2.28-3.48,4.04-4.63ZM463.93,798.65c-.93.4-.5.13,0,0h0ZM463.51,798.86c-.29.16-.63.25-.98.33.34-.08.68-.17.98-.33.15-.08.3-.15.46-.23.05-.01.1-.02.15-.03.53-.1,1.07-.13,1.61-.14.19,0,.39,0,.58.01-1.5,1.53-2.57,3.47-3.18,5.44-.28.91-.44,1.82-.52,2.72-1.31.16-2.6.48-3.82.94-.05-3.41,1.44-6.87,4.72-8.71ZM451.63,815.33c.21-.48.49-.93.79-1.37.67-.98,1.56-1.82,2.54-2.55.59-.43,1.21-.82,1.87-1.15.1.64.25,1.27.43,1.88,1.44,4.7,5.57,9.02,10.91,10.13.83.17,1.62.22,2.41.18.68.78,1.49,1.46,2.36,2.05-1.55.88-3.3,1.46-5.08,1.79-5.23.97-11.18-.59-14.5-4.49-1.43-1.68-2.11-3.77-1.98-5.87.07-.21.16-.41.25-.61Z" fill="currentcolor"/></g><g data-fc="gra_1"><path d="M628.46,128.02c-14.25-1.43-70.63,66.75-95.59,118.69-51.64,107.44-73.97,242.31-73.97,242.31,0,0,103.93-43.39,142.53-96.41,38.6-53.02,40.81-189.91,40.81-189.91,0,0,.48-73.25-13.77-74.68Z" fill="currentcolor"/><path d="M293.43,211.61c-40.91-27.78,123.7,290.72,123.7,290.72,0,0-43.95-236.57-123.7-290.72Z" fill="currentcolor"/><path d="M557.12,519.56c-27.29-19.73-72-29.68-88.07-13.73-16.06,15.96,2.57,51.78,29.87,71.51,27.3,19.73,52.91,15.89,68.99-.06,16.08-15.96,16.51-37.99-10.78-57.72Z" fill="currentcolor"/><path d="M419.86,514.44c-10.62-6.5-34.13,5.43-46.99,20.25-12.86,14.82-10.18,26.92.43,33.41,10.62,6.5,25.15,4.93,38.01-9.89,12.85-14.82,19.16-37.27,8.55-43.77Z" fill="currentcolor"/><path d="M622.77,457.19c-9.76-2.7-10.6-2.86-5.18,1.16-5.67-3.66-5.23-2.93.72,5.26-6.29-7.93-6.88-8.55-4.87-2.12-2.42-6.29-2.49-5.44-2.51,4.68-.42-10.11-.52-10.96-2.7-4.58,1.75-6.51,1.2-5.86-4.77,2.33,5.61-8.44,6.01-9.19.49-5.29,5.27-4.25,4.44-4.05-5.23-.91,9.52-3.54,10.29-3.9,3.5-3.99,6.79-.35,6-.68-3.68-3.82,9.81,2.71,10.65,2.87,5.18-1.16,5.72,3.67,5.28,2.95-.72-5.26,6.34,7.94,6.92,8.57,4.87,2.12,2.46,6.3,2.53,5.45,2.5-4.68.46,10.12.57,10.97,2.7,4.58-1.7,6.52-1.15,5.88,4.78-2.33-5.57,8.45-5.98,9.2-.49,5.29-5.22,4.26-4.39,4.06,5.24.92-9.48,3.56-10.25,3.92-3.5,3.99-6.74.36-5.95.69,3.68,3.82Z" fill="currentcolor"/><path d="M730.29,356.11c-15.24,0-18.66,4.89-18.66,26.67,0-21.78-3.42-26.67-18.66-26.67,15.24,0,18.66-4.89,18.66-26.66,0,21.77,3.42,26.66,18.66,26.66Z" fill="currentcolor"/><path d="M625.89,519.58c-20.93,0-23.28,3.36-12.81,18.31-10.47-14.95-12.82-11.59-12.82,18.31,0-29.9-2.35-33.26-12.81-18.31,10.46-14.95,8.11-18.31-12.82-18.31,20.93,0,23.28-3.36,12.82-18.31,10.46,14.95,12.81,11.59,12.81-18.31,0,29.9,2.35,33.26,12.82,18.31-10.47,14.95-8.12,18.31,12.81,18.31Z" fill="currentcolor"/><path d="M764.26,327.48c-11.39-3.15-12.37-3.34-6.04,1.35-6.62-4.27-6.1-3.42.84,6.14-7.34-9.25-8.02-9.98-5.68-2.47-2.82-7.34-2.9-6.35-2.93,5.46-.48-11.8-.61-12.78-3.15-5.34,2.04-7.59,1.4-6.84-5.57,2.72,6.54-9.85,7.02-10.72.58-6.17,6.14-4.95,5.18-4.72-6.11-1.07,11.11-4.14,12.01-4.56,4.08-4.66,7.92-.41,7-.79-4.3-4.46,11.45,3.17,12.42,3.35,6.04-1.35,6.67,4.29,6.16,3.44-.84-6.14,7.4,9.27,8.08,10,5.68,2.48,2.87,7.35,2.96,6.36,2.92-5.46.54,11.81.66,12.8,3.15,5.34-1.98,7.61-1.34,6.85,5.57-2.72-6.49,9.86-6.97,10.73-.57,6.17-6.09,4.97-5.12,4.74,6.11,1.06-11.06,4.15-11.96,4.58-4.08,4.66-7.86.42-6.94.81,4.3,4.46Z" fill="currentcolor"/><path d="M690.16,419.89c-17.78,0-21.77,5.71-21.77,31.11,0-25.41-4-31.11-21.77-31.11,17.78,0,21.77-5.71,21.77-31.11,0,25.4,3.99,31.11,21.77,31.11Z" fill="currentcolor"/><path d="M786.17,237.57c-24.42,0-27.16,3.92-14.95,21.36-12.21-17.44-14.96-13.52-14.96,21.37,0-34.89-2.74-38.8-14.95-21.37,12.22-17.44,9.47-21.36-14.95-21.36,24.41,0,27.16-3.92,14.95-21.36,12.22,17.45,14.95,13.53,14.95-21.36,0,34.89,2.75,38.81,14.96,21.36-12.21,17.45-9.47,21.36,14.95,21.36Z" fill="currentcolor"/><path d="M715.45,471.56c-14.47-4-15.72-4.24-7.68,1.71-8.41-5.42-7.75-4.35,1.06,7.79-9.33-11.75-10.19-12.67-7.21-3.14-3.59-9.33-3.69-8.07-3.72,6.93-.61-14.99-.77-16.24-3.99-6.78,2.59-9.65,1.77-8.69-7.08,3.46,8.31-12.51,8.92-13.62.73-7.84,7.8-6.29,6.58-6-7.76-1.36,14.12-5.25,15.26-5.79,5.18-5.91,10.06-.52,8.89-1.01-5.46-5.67,14.54,4.02,15.79,4.26,7.68-1.71,8.48,5.45,7.82,4.37-1.06-7.79,9.4,11.77,10.26,12.7,7.22,3.14,3.65,9.34,3.76,8.08,3.72-6.94.69,15.01.84,16.26,4,6.78-2.52,9.67-1.7,8.71,7.07-3.46-8.25,12.53-8.85,13.64-.73,7.84-7.74,6.31-6.51,6.01,7.76,1.35-14.05,5.27-15.19,5.81-5.19,5.92-9.99.54-8.82,1.02,5.46,5.66Z" fill="currentcolor"/></g><g data-fc="#717171"><path d="M210.45,652.51v1.51h-8.79v21.93h-1.83v-21.93h-8.79v-1.51h19.41Z" fill="currentcolor"/><path d="M240.25,652.2c3.47,0,6.4,1.17,8.81,3.5,2.41,2.33,3.61,5.18,3.61,8.53s-1.21,6.18-3.61,8.52c-2.41,2.33-5.35,3.5-8.81,3.5s-6.38-1.16-8.78-3.5c-2.4-2.33-3.6-5.17-3.6-8.52s1.2-6.2,3.6-8.53c2.4-2.33,5.33-3.5,8.78-3.5ZM240.32,674.57c2.92,0,5.38-1,7.39-2.99,2.01-2,3.01-4.44,3.01-7.34s-1-5.36-3.01-7.36c-2.01-2-4.47-2.99-7.39-2.99s-5.41,1-7.44,2.99c-2.03,2-3.04,4.45-3.04,7.36s1.01,5.34,3.04,7.34c2.03,2,4.51,2.99,7.44,2.99Z" fill="currentcolor"/><path d="M289.52,652.51v1.51h-8.79v21.93h-1.83v-21.93h-8.79v-1.51h19.41Z" fill="currentcolor"/><path d="M315.82,652.34l10.84,23.61h-1.9l-3.71-8.1h-11.46l-3.7,8.1h-1.9l10.84-23.61h1ZM320.35,666.33l-5.05-11.04-5.03,11.04h10.08Z" fill="currentcolor"/><path d="M348.66,652.51v21.93h11.59v1.51h-13.41v-23.44h1.81Z" fill="currentcolor"/><path d="M406.92,652.51h4.88c2.56,0,4.5.54,5.82,1.61,1.32,1.07,1.98,2.56,1.98,4.45,0,2.26-1.13,4-3.37,5.22,3.61.78,5.42,2.76,5.42,5.94,0,1.9-.71,3.41-2.12,4.54-1.42,1.13-3.33,1.69-5.75,1.69h-6.86v-23.44ZM408.73,654.01v9.35h2.52c4.26,0,6.39-1.56,6.39-4.67s-2.15-4.68-6.46-4.68h-2.45ZM408.73,664.89v9.55h4.85c2,0,3.52-.43,4.56-1.29,1.04-.86,1.56-2.01,1.56-3.46,0-3.2-2.31-4.8-6.91-4.8h-4.06Z" fill="currentcolor"/><path d="M455.65,652.51v1.51h-10.97v9.38h10.69v1.53h-10.69v9.51h11.24v1.51h-13.05v-23.44h12.79Z" fill="currentcolor"/><path d="M487.14,652.34l10.84,23.61h-1.9l-3.71-8.1h-11.46l-3.69,8.1h-1.9l10.84-23.61h1ZM491.68,666.33l-5.05-11.04-5.03,11.04h10.08Z" fill="currentcolor"/><path d="M534.4,652.51h1.81v12.78c0,3.5-.91,6.2-2.74,8.11-1.82,1.9-4.18,2.85-7.08,2.85s-5.24-.94-7.06-2.82c-1.82-1.88-2.73-4.45-2.73-7.72v-13.21h1.83v13.14c0,2.8.74,4.98,2.22,6.56,1.48,1.58,3.4,2.37,5.75,2.37s4.3-.8,5.78-2.39c1.48-1.59,2.22-3.86,2.22-6.79v-12.89Z" fill="currentcolor"/><path d="M575.58,652.51v1.51h-8.79v21.93h-1.83v-21.93h-8.79v-1.51h19.41Z" fill="currentcolor"/><path d="M614.48,652.51l-9.11,10.86v12.58h-1.81v-12.58l-9.11-10.86h2.19l7.84,9.29,7.79-9.29h2.21Z" fill="currentcolor"/><path d="M672.14,653.68v1.99c-2.04-1.2-3.79-1.79-5.25-1.79s-2.59.43-3.53,1.28c-.95.86-1.42,1.91-1.42,3.18,0,.91.28,1.73.84,2.45.56.73,1.73,1.43,3.51,2.1,1.78.67,3.08,1.23,3.89,1.68.82.45,1.51,1.09,2.08,1.94.57.85.86,1.95.86,3.31,0,1.8-.66,3.32-1.98,4.56-1.32,1.24-2.93,1.86-4.83,1.86s-3.95-.68-6.01-2.05v-2.13c2.27,1.67,4.24,2.5,5.91,2.5,1.39,0,2.56-.45,3.51-1.35.96-.9,1.43-2.01,1.43-3.31,0-1-.3-1.89-.89-2.69-.59-.8-1.8-1.55-3.61-2.24-1.81-.69-3.11-1.26-3.88-1.68-.78-.42-1.44-1.03-1.98-1.82-.54-.79-.81-1.8-.81-3.04,0-1.72.66-3.19,1.98-4.4,1.32-1.21,2.91-1.82,4.77-1.82s3.63.49,5.42,1.48Z" fill="currentcolor"/><path d="M703.58,652.34l10.84,23.61h-1.9l-3.71-8.1h-11.46l-3.69,8.1h-1.9l10.84-23.61h1ZM708.11,666.33l-5.05-11.04-5.03,11.04h10.08Z" fill="currentcolor"/><path d="M736.42,652.51v21.93h11.59v1.51h-13.41v-23.44h1.81Z" fill="currentcolor"/><path d="M777.74,652.2c3.46,0,6.4,1.17,8.81,3.5,2.41,2.33,3.61,5.18,3.61,8.53s-1.21,6.18-3.61,8.52c-2.41,2.33-5.35,3.5-8.81,3.5s-6.38-1.16-8.78-3.5c-2.4-2.33-3.6-5.17-3.6-8.52s1.2-6.2,3.6-8.53c2.4-2.33,5.33-3.5,8.78-3.5ZM777.8,674.57c2.92,0,5.38-1,7.39-2.99,2.01-2,3.01-4.44,3.01-7.34s-1-5.36-3.01-7.36c-2.01-2-4.47-2.99-7.39-2.99s-5.41,1-7.44,2.99c-2.03,2-3.04,4.45-3.04,7.36s1.01,5.34,3.04,7.34c2.03,2,4.51,2.99,7.44,2.99Z" fill="currentcolor"/><path d="M832.96,652.51v23.44h-1.49l-17.82-20.49v20.49h-1.81v-23.44h1.54l17.78,20.49v-20.49h1.81Z" fill="currentcolor"/></g></g></g></g></svg>