<?xml version="1.0" encoding="UTF-8"?><svg xmlns="http://www.w3.org/2000/svg" viewBox="0 0 1024 1024"><title>photogalaxy logo</title><desc>Copyright &#xa9; 2026 Pearlpuppy. All rights reserved.</desc><metadata><rdf:RDF xmlns:rdf="http://www.w3.org" xmlns:dc="http://purl.org"><rdf:Description rdf:about=""><dc:title>photogalaxy logo</dc:title><dc:creator>Pierre Pearlpuppy</dc:creator><dc:rights>Copyright &#xa9; 2026 Pearlpuppy. All rights reserved.</dc:rights><dc:date>2026-03-20</dc:date><dc:format>image/svg+xml</dc:format></rdf:Description></rdf:RDF></metadata><g isolation="isolate"><g id="logo-photogalaxy"><g data-fc="#211714"><path d="M288.22,832.14v61.91h-22.25v-10c-2.59,3.25-9.83,11.94-28.38,11.94-33.69,0-55.63-23.71-55.63-57.88s19.67-59.81,56.59-59.81c31.11,0,44.34,18.7,49.66,26.26l-20.3,15.33c-2.26-3.86-9.69-17.08-26.45-17.08-7.42,0-14.84,2.89-19.67,7.4-7.1,6.62-9.36,16.46-9.36,26.12,0,12.75,3.72,34.2,26.45,34.2,9.5,0,21.93-4.37,23.54-15.65h-20.95v-22.74h46.75Z" fill="currentcolor"/><path d="M351.92,817.63l13.69,40.15h-27.4l13.71-40.15ZM337.72,780.23l-40.95,113.83h28.7l5.17-15.16h42.39l5.33,15.16h30.8l-43.07-113.83h-28.38Z" fill="currentcolor"/><path d="M496.04,868.59v25.47h-76.92v-113.98h29.52v88.51h47.39Z" fill="currentcolor"/><path d="M553.59,817.63l13.71,40.15h-27.4l13.69-40.15ZM539.4,780.23l-40.94,113.83h28.7l5.16-15.16h42.39l5.31,15.16h30.8l-43.05-113.83h-28.39Z" fill="currentcolor"/><path d="M687.57,836.02l42.08,58.04h-34.83l-24.18-34.19-24.35,34.19h-34.18l41.43-58.04-40-55.79h34.37l22.88,32.25,22.74-32.25h34.17l-40.15,55.79Z" fill="currentcolor"/><path d="M800.74,844.24v49.82h-29.32v-50.63l-40.81-63.19h33.07l22.72,36.92,22.73-36.92h32.89l-41.28,64.01Z" fill="currentcolor"/><path d="M230.45,649.44c13.77,0,28.11-.19,28.11,18.82,0,8.34-3.29,14.34-10.08,17.05-4.25,1.76-9.49,1.93-17.63,1.93h-13.97v-37.79h13.58ZM236.45,717.1c20.17-.78,32.59-1.75,44.02-11.81,3.87-3.51,13.95-12.83,13.95-36.85,0-5.23,0-26.57-18.21-38.99-12.4-8.51-26.76-8.33-39.94-8.33h-54.3v136.89h34.89v-40.9h19.58Z" fill="currentcolor"/><path d="M396.21,758.01v-59.32h-45.56v59.32h-35.27v-136.89h35.27v46.92h45.56v-46.92h35.29v136.89h-35.29Z" fill="currentcolor"/><path d="M666.14,650.01v107.99h-35.27v-107.99h-36.46v-28.89h108v28.89h-36.26Z" fill="currentcolor"/><path d="M773.78,648.65c21.92-.38,31.42,18.23,31.42,41.1,0,11.45-2.14,23.29-9.89,31.62-3.49,3.87-10.47,9.1-21.53,9.1-21.32,0-31.6-18.22-31.6-42.09,0-22.47,10.66-39.33,31.6-39.73ZM773.78,618.81c-12.4,0-29.07,2.51-44.58,15.49-21.52,18.21-23.87,42.08-23.87,54.88,0,18.63,6.02,37.02,18.83,50.82,17.44,18.59,38.58,20.34,49.62,20.34,12.6,0,29.27-2.52,44.6-15.51,21.53-18.44,23.64-42.48,23.64-54.9,0-38.37-24.98-71.12-68.24-71.12Z" fill="currentcolor"/><path d="M450.49,689.58c0,38.97,31.72,70.69,70.69,70.69s70.69-31.72,70.69-70.69-31.72-70.7-70.69-70.7-70.69,31.71-70.69,70.7ZM458.57,689.58c0-34.55,28.08-62.64,62.61-62.64s62.6,28.09,62.6,62.64-28.08,62.58-62.6,62.58-62.61-28.08-62.61-62.58Z" fill="currentcolor"/><path d="M431.34,331.51c0-83.24,67.48-150.74,150.75-150.74,22.57,0,43.97,5,63.19,13.89-37.24-40.94-90.94-66.66-150.63-66.66-112.4,0-203.51,91.12-203.51,203.51s91.11,203.54,203.51,203.54c59.68,0,113.39-25.69,150.63-66.62-19.23,8.86-40.62,13.85-63.19,13.85-83.27,0-150.75-67.47-150.75-150.76Z" fill="currentcolor"/><path d="M732.85,331.51c0-60.66-35.87-112.96-87.56-136.85,32.85,36.15,52.9,84.16,52.9,136.85s-20.05,100.74-52.9,136.92c51.68-23.93,87.56-76.2,87.56-136.92Z" fill="currentcolor"/><path d="M664.47,262.71c-14.07-20.7-35.37-34.67-59.96-39.36-24.59-4.69-49.53.52-70.23,14.59-20.7,14.07-34.68,35.37-39.34,59.96-6.27,32.93,5.61,65.17,28.59,86.42-2.03,3.86-3.57,8.11-4.43,12.64-4.67,24.55,11.45,48.23,35.99,52.9,24.55,4.67,48.22-11.44,52.88-35.99.47-2.45.67-4.86.72-7.26,10.95-2.6,21.44-7.17,31.02-13.71,20.69-14.08,34.67-35.37,39.34-59.96,4.68-24.59-.5-49.53-14.59-70.23ZM673.14,331.82c-4.39,23-17.46,42.92-36.81,56.1-8.62,5.86-18.03,10.07-27.84,12.55-2.13-19.24-16.51-35.68-36.51-39.48-17.86-3.4-35.22,4.26-45.18,18.12-20.97-19.87-31.74-49.66-25.95-80.06,4.37-23.01,17.46-42.94,36.82-56.14,19.38-13.15,42.71-18,65.71-13.61,23.01,4.38,42.94,17.44,56.12,36.82,13.15,19.36,18.01,42.7,13.64,65.7Z" fill="currentcolor"/><path d="M593.34,282.11c-18.4-3.5-36.17,8.58-39.66,26.97-3.51,18.42,8.57,36.17,26.97,39.68,18.42,3.48,36.18-8.58,39.66-27,3.51-18.39-8.58-36.14-26.97-39.65Z" fill="currentcolor"/></g></g></g></svg>