<?xml version="1.0" encoding="UTF-8"?><svg xmlns="http://www.w3.org/2000/svg" viewBox="0 0 1024 1024"><title>ideabox logo</title><desc>Copyright &#xa9; 2026 Pearlpuppy. All rights reserved.</desc><metadata><rdf:RDF xmlns:rdf="http://www.w3.org" xmlns:dc="http://purl.org"><rdf:Description rdf:about=""><dc:title>ideabox logo</dc:title><dc:creator>Pierre Pearlpuppy</dc:creator><dc:rights>Copyright &#xa9; 2026 Pearlpuppy. All rights reserved.</dc:rights><dc:date>2026-03-20</dc:date><dc:format>image/svg+xml</dc:format></rdf:Description></rdf:RDF></metadata><g isolation="isolate"><g id="logo-ideabox"><g data-fc="#ef5a24"><g id="logomark"><polyline id="shape01" points="502.59 229.19 374.23 419 486.35 471.11 563.78 312.75 502.59 229.19" fill="currentcolor"/><polyline id="shape02" points="629.89 403.05 590.78 519.66 619.3 532.92 649.77 430.19 629.89 403.05" fill="currentcolor"/><polyline id="shape03" points="486.35 471.11 430.89 584.56 566.04 593.42 590.78 519.66 486.35 471.11" fill="currentcolor"/><polyline id="shape04" points="591.86 255.29 563.78 312.75 629.89 403.05 645.61 356.16 591.86 255.29" fill="currentcolor"/></g><g id="logotype"><path id="letter01" d="M128,791.35v-129.98h35.78v129.98h-35.78Z" fill="currentcolor"/><path id="letter02" d="M191.11,791.35v-129.98h27.08c20.18,0,34.46.95,42.84,2.84,8.38,1.89,15.73,5.06,22.06,9.5,8.23,5.74,14.47,13.1,18.73,22.06,4.26,8.96,6.39,19.19,6.39,30.67s-2.13,21.71-6.39,30.67c-4.26,8.96-10.51,16.32-18.73,22.06-6.27,4.38-13.44,7.5-21.48,9.37-8.05,1.86-20.54,2.8-37.47,2.8h-33.03ZM226.18,762.23h5.95c13.91,0,24.06-2.85,30.45-8.57,6.39-5.71,9.59-14.78,9.59-27.21s-3.2-21.54-9.59-27.34c-6.39-5.8-16.54-8.7-30.45-8.7h-5.95v71.82h0Z" fill="currentcolor"/><path id="letter03" d="M328.77,791.35v-129.98h79.64v28.5h-45.1v22.55h42.53v27.88h-42.53v21.93h45.1v29.12h-79.64Z" fill="currentcolor"/><path id="letter04" d="M417.69,791.35l44.84-129.98h44.39l44.92,129.98h-35.25l-6.57-23.26h-50.34l-6.75,23.26h-35.25ZM467.32,742.79h35.25l-13.23-42.88c-.41-1.3-.98-3.4-1.69-6.3-.71-2.9-1.63-6.63-2.75-11.19-.77,3.2-1.53,6.24-2.26,9.14-.74,2.9-1.5,5.68-2.26,8.35l-13.05,42.88Z" fill="currentcolor"/><path id="letter05" d="M563.81,791.35v-129.98h27.08c9.53,0,16.56.49,21.09,1.46,4.53.98,8.42,2.65,11.67,5.02,4.14,3.08,7.35,7.03,9.63,11.85,2.28,4.82,3.42,10.11,3.42,15.85,0,6.87-1.64,12.61-4.93,17.22-3.28,4.62-8.06,7.84-14.34,9.68,7.69,1.18,13.78,4.63,18.24,10.34,4.47,5.72,6.7,12.92,6.7,21.62,0,5.21-.95,10.18-2.84,14.92-1.89,4.74-4.53,8.79-7.9,12.16-3.67,3.61-8.2,6.16-13.58,7.64-5.39,1.48-14.44,2.22-27.17,2.22h-27.08ZM578.9,674.78v43.5h11.99c11.01,0,18.76-1.6,23.26-4.79,4.5-3.19,6.75-8.58,6.75-16.16,0-8.35-2.08-14.19-6.26-17.53-4.17-3.34-12.09-5.01-23.75-5.01h-11.99ZM578.9,730.44v47.41h11.99c8.23,0,14.16-.32,17.8-.98,3.64-.65,6.56-1.78,8.75-3.37,2.66-1.89,4.76-4.53,6.3-7.9,1.54-3.37,2.31-7.1,2.31-11.19,0-4.74-.91-8.85-2.75-12.34-1.83-3.49-4.5-6.22-7.99-8.17-2.07-1.24-4.47-2.13-7.19-2.66-2.72-.53-6.95-.8-12.7-.8h-16.51Z" fill="currentcolor"/><path id="letter06" d="M795.56,726.63c0,9.29-1.72,18.05-5.15,26.28-3.44,8.23-8.44,15.54-15.01,21.93-6.58,6.39-14.14,11.32-22.7,14.78-8.56,3.46-17.43,5.19-26.61,5.19s-18.02-1.73-26.52-5.19c-8.5-3.46-16.04-8.39-22.61-14.78-6.63-6.45-11.68-13.79-15.15-22.02-3.47-8.22-5.2-16.96-5.2-26.19s1.73-18.07,5.2-26.32c3.46-8.26,8.51-15.61,15.15-22.06,6.52-6.33,14.04-11.22,22.57-14.65,8.53-3.43,17.38-5.15,26.56-5.15s18.14,1.72,26.7,5.15c8.56,3.43,16.09,8.32,22.61,14.65,6.57,6.39,11.58,13.72,15.01,21.97,3.44,8.26,5.15,17.06,5.15,26.41ZM726.08,780.25c7.11,0,13.87-1.34,20.31-4.04,6.43-2.69,12.22-6.61,17.37-11.76,5.1-5.09,8.97-10.86,11.64-17.31,2.67-6.45,4-13.29,4-20.51s-1.35-14.21-4.04-20.78c-2.7-6.57-6.56-12.37-11.6-17.4-5.1-5.09-10.86-8.97-17.28-11.63-6.43-2.66-13.22-4-20.39-4s-14.07,1.33-20.53,4c-6.46,2.66-12.17,6.54-17.15,11.63-5.1,5.15-8.97,10.98-11.64,17.49-2.66,6.51-4,13.41-4,20.68s1.32,14.03,3.95,20.42c2.64,6.39,6.53,12.2,11.68,17.4,5.21,5.21,11,9.14,17.37,11.81,6.37,2.66,13.14,4,20.31,4Z" fill="currentcolor"/><path id="letter07" d="M797.81,791.35l39.95-69.07-37.28-60.9h18.56l27.88,49.45,26.9-49.45h17.58l-36.85,62.32,41.46,67.65h-18.2l-32.05-56.02-30.36,56.02h-17.58Z" fill="currentcolor"/></g></g></g></g></svg>