<?xml version="1.0" encoding="UTF-8"?><svg xmlns="http://www.w3.org/2000/svg" viewBox="0 0 1024 1024"><title>distcollege logo</title><desc>Copyright &#xa9; 2026 Pearlpuppy. All rights reserved.</desc><metadata><rdf:RDF xmlns:rdf="http://www.w3.org" xmlns:dc="http://purl.org"><rdf:Description rdf:about=""><dc:title>distcollege logo</dc:title><dc:creator>Pierre Pearlpuppy</dc:creator><dc:rights>Copyright &#xa9; 2026 Pearlpuppy. All rights reserved.</dc:rights><dc:date>2026-03-20</dc:date><dc:format>image/svg+xml</dc:format></rdf:Description></rdf:RDF></metadata><g isolation="isolate"><g id="logo-distcollege"><g id="distcollege"><g data-fc="gra_2"><path d="M79.72,605.94v55.38c-2.49,0-6.39.21-11.72.63v-.95c2.7-.74,4.61-2.31,5.73-4.73,1.09-2.31,1.63-7.11,1.63-14.4v-21.7c0-4.45-.54-7.69-1.63-9.72-1.09-2-2.99-3.4-5.73-4.2v-.95c4.55.35,8.46.56,11.72.63ZM86.65,661.32h-3.21v-55.38c4.83-.11,8.21-.23,10.14-.37,2.91-.18,4.9-.26,5.99-.26,5.25,0,9.74,1.21,13.45,3.63,3.68,2.45,6.45,5.66,8.3,9.62,1.82,3.89,2.73,8.83,2.73,14.82,0,9.11-2.19,16.15-6.57,21.12-4.41,4.97-10.39,7.46-17.92,7.46-3.5,0-7.46-.19-11.87-.58-.18-.04-.53-.05-1.05-.05ZM88.65,610.83c-.56,1.58-.84,7.09-.84,16.55v12.82c0,7.67.51,13.28,1.52,16.81,2.7.84,5.78,1.26,9.25,1.26,6.48,0,11.58-2.05,15.29-6.15,3.75-4.13,5.62-10.21,5.62-18.23s-1.86-13.94-5.57-18.28c-3.71-4.34-9.18-6.52-16.39-6.52-3.75,0-6.71.58-8.88,1.73ZM119.23,657.22c5.81-4.45,8.72-12.15,8.72-23.12s-2.38-18.28-7.15-22.7c3.99,2.63,7.01,5.83,9.04,9.62s3.05,8.09,3.05,12.93c0,10.09-4.55,17.85-13.66,23.28Z" fill="currentcolor"/><path d="M144.15,606.36l7.41,6.88-2.52,2.63-7.36-6.83,2.47-2.68ZM142.1,648.24v-24.38h3.94v26.22c0,3.85.39,6.6,1.16,8.25.74,1.72,1.96,2.94,3.68,3.68h-1.63c-2.35-1.05-4.13-2.52-5.36-4.41-1.19-1.86-1.79-4.97-1.79-9.35ZM149.04,601.11l7.36,6.88-2.47,2.63-7.41-6.83,2.52-2.68ZM149.51,649.13v-25.27h3.94v26.06c0,6.38,2.22,9.56,6.67,9.56,1.44,0,2.61-.28,3.52-.84v1.16c-1.79,1.47-3.75,2.21-5.88,2.21-1.96,0-3.61-.6-4.94-1.79-1.44-1.23-2.33-2.57-2.68-4.05-.42-1.47-.63-3.82-.63-7.04Z" fill="currentcolor"/><path d="M168.56,647.34h.79c1.05,3.26,2.78,5.97,5.2,8.14,2.45,2.17,5.08,3.26,7.88,3.26,2.21,0,4.12-.56,5.73-1.68,1.54-1.12,2.31-2.43,2.31-3.94,0-1.61-.79-2.91-2.36-3.89-1.61-.98-4.55-1.91-8.83-2.78-4.2-.91-7.34-2.25-9.4-4.02-2.07-1.77-3.1-3.98-3.1-6.65,0-2.07.68-4.01,2.05-5.83-.14.88-.21,1.68-.21,2.42,0,1.75.53,3.4,1.58,4.94.98,1.47,2.36,2.59,4.15,3.36,1.75.77,4.69,1.66,8.83,2.68,3.92.95,6.78,2.1,8.56,3.47,1.75,1.37,2.63,3.35,2.63,5.94,0,2.73-1.1,4.97-3.31,6.73-2.17,1.72-5.34,2.57-9.51,2.57-3.68,0-7.92-.89-12.72-2.68,0-2.66-.07-4.55-.21-5.67-.11-1.05-.16-2.17-.16-3.36,0-.67.04-1.66.11-2.99ZM198.57,635.94h-.74c-1.23-3.22-3.19-5.66-5.88-7.3-2.66-1.61-5.36-2.42-8.09-2.42-2.14,0-4.03.42-5.67,1.26-1.61.88-2.42,2.12-2.42,3.73,0,1.23.6,2.17,1.79,2.84,1.12.63,3.33,1.3,6.62,2,6.8,1.44,11.19,3.28,13.19,5.52,2,2.24,2.99,4.61,2.99,7.09,0,2.14-.98,4.54-2.94,7.2.28-1.3.42-2.4.42-3.31,0-2.7-.91-5.17-2.73-7.41-1.79-2.21-5.97-4.08-12.56-5.62-3.89-.91-6.59-1.93-8.09-3.05-1.54-1.16-2.31-2.85-2.31-5.1,0-2.52,1.14-4.55,3.42-6.09,2.24-1.51,5.55-2.26,9.93-2.26s8.44.86,12.82,2.57c-.07.84-.11,1.31-.11,1.42,0,1.3.07,2.66.21,4.1.11,1.26.16,2.87.16,4.83Z" fill="currentcolor"/><path d="M209.79,647.76v-19.55h-3.36v-.42l7.25-6.88v29.95c0,3.43.33,5.81,1,7.15.67,1.37,1.58,2.38,2.73,3.05-2.87-.21-4.87-1.26-5.99-3.15-1.09-1.86-1.63-5.24-1.63-10.14ZM221.08,612.88v11.72h8.98c1.65,0,2.89-.18,3.73-.53.91-.39,1.96-1.17,3.15-2.36h1.31c-2.14,2.98-3.66,4.82-4.57,5.52-.88.67-2.21,1-3.99,1h-8.62v20.07c0,2.98.16,5.03.47,6.15.28,1.09.96,2.03,2.05,2.84,1.09.77,2.61,1.16,4.57,1.16,3.89,0,7.25-1.82,10.09-5.46l1.1.63c-2.87,5.57-7.04,8.35-12.5,8.35-2.35,0-4.31-.53-5.88-1.58-1.61-1.05-2.68-2.38-3.21-3.99-.53-1.65-.79-4.01-.79-7.09v-31.63c1.47-1.54,2.84-3.13,4.1-4.78Z" fill="currentcolor"/><path d="M253.1,623.86v37.46c-5.15.07-8.63.28-10.46.63v-.95c2.84-1.02,4.66-2.26,5.46-3.73.84-1.54,1.26-4.29,1.26-8.25v-13.56c0-3.75-.49-6.43-1.47-8.04-1.02-1.65-2.77-2.73-5.25-3.26v-.89c1.09.21,4.57.4,10.46.58ZM256.88,661.32v-37.46c1.16-.04,2.56-.23,4.2-.58-.21,1.37-.35,3.71-.42,7.04,3.68-4.69,6.31-7.04,7.88-7.04.91,0,2.59.51,5.04,1.52,2.14.91,3.59,1.37,4.36,1.37,1.02,0,2.15-.72,3.42-2.15.11-.11.18-.18.21-.24s.19-.22.47-.5l1.21.58c-1.68,3.78-3.85,5.67-6.52,5.67-.91,0-2.68-.58-5.31-1.73-1.09-.49-1.91-.74-2.47-.74-1.68,0-3.47,1.09-5.36,3.26.91-.28,1.68-.42,2.31-.42.98,0,2.78.6,5.41,1.79,1.89.81,3.26,1.21,4.1,1.21.56,0,1.14-.18,1.73-.53-1.72,2.21-3.38,3.31-4.99,3.31-.74,0-1.94-.4-3.63-1.21-2.42-1.19-4.1-1.79-5.04-1.79s-1.89.51-2.84,1.52v15.97c0,3.57.58,6.18,1.73,7.83s3.01,2.64,5.57,2.99v.95c-4.1-.42-7.79-.63-11.09-.63Z" fill="currentcolor"/><path d="M291.58,606.36l7.41,6.88-2.52,2.63-7.36-6.83,2.47-2.68ZM289.53,648.24v-24.38h3.94v26.22c0,3.85.39,6.6,1.16,8.25.74,1.72,1.96,2.94,3.68,3.68h-1.63c-2.35-1.05-4.13-2.52-5.36-4.41-1.19-1.86-1.79-4.97-1.79-9.35ZM296.46,601.11l7.36,6.88-2.47,2.63-7.41-6.83,2.52-2.68ZM296.93,649.13v-25.27h3.94v26.06c0,6.38,2.22,9.56,6.67,9.56,1.44,0,2.61-.28,3.52-.84v1.16c-1.79,1.47-3.75,2.21-5.88,2.21-1.96,0-3.61-.6-4.94-1.79-1.44-1.23-2.33-2.57-2.68-4.05-.42-1.47-.63-3.82-.63-7.04Z" fill="currentcolor"/><path d="M319.96,597.8v46.34c0,4.59.19,7.79.58,9.62.39,1.72,1.28,3.29,2.68,4.73-2.66-.67-4.52-1.86-5.57-3.57-1.05-1.68-1.58-4.45-1.58-8.3v-36.83c0-3.19-.16-5.38-.47-6.57-.32-1.16-.95-2.19-1.89-3.1-1.02-.88-2.43-1.54-4.26-2v-.89c3.64.35,7.15.54,10.51.58ZM323.53,646.4v-48.6c1.96-.04,3.47-.23,4.52-.58-.53,3.92-.79,9-.79,15.24v12.72c2.98-1.61,6.02-2.42,9.14-2.42s5.9.86,8.35,2.57c2.42,1.72,4.2,4.06,5.36,7.04s1.73,6.25,1.73,9.83c0,6.2-1.51,11.05-4.52,14.55-3.05,3.47-6.81,5.2-11.3,5.2-2.94,0-5.45-.74-7.51-2.21-2.07-1.44-3.42-3.1-4.05-4.99-.63-1.86-.95-4.64-.95-8.35ZM327.26,629.06v15.92c0,3.5.23,6.04.68,7.62.42,1.68,1.37,3.06,2.84,4.15,1.44,1.12,3.21,1.68,5.31,1.68,2.94,0,5.59-1.28,7.93-3.84s3.52-6.43,3.52-11.61c0-11.14-3.84-16.71-11.51-16.71-2.73,0-5.66.93-8.77,2.78ZM351.91,656.12c2.35-3.5,3.52-8.07,3.52-13.71,0-5.92-1.63-11.31-4.89-16.18,6.06,3.12,9.09,8.34,9.09,15.66,0,6.59-2.57,11.33-7.72,14.24Z" fill="currentcolor"/><path d="M361.99,624.17v-.89c3.15.32,6.66.51,10.51.58v25.22c0,3.96.28,6.62.84,7.99.6,1.44,1.47,2.66,2.63,3.68-1.86-.14-3.57-.89-5.15-2.26-1.51-1.3-2.26-4.13-2.26-8.51v-14.45c0-3.64-.44-6.27-1.31-7.88-.91-1.58-2.66-2.73-5.25-3.47ZM402.08,623.86v37.46c-1.33,0-2.66.11-3.99.32.04-.39.06-.89.08-1.52s.03-1.21.03-1.73c-4.48,2.38-8.58,3.57-12.29,3.57-2.56,0-4.61-.58-6.15-1.73-1.58-1.12-2.59-2.54-3.05-4.26-.49-1.79-.74-4.2-.74-7.25v-24.85c1.05,0,2.49-.09,4.31-.26-.14.7-.23,1.77-.26,3.21-.04.95-.09,1.84-.16,2.68v20.39c0,3.19.49,5.43,1.47,6.73,1.02,1.37,3.01,2.05,5.99,2.05s6.6-1.17,10.88-3.52v-20.54c0-3.29-.44-5.71-1.31-7.25s-2.5-2.59-4.89-3.15v-.89c1.79.21,3.4.34,4.83.39,1.44.05,3.19.11,5.25.18ZM405.6,661.32v-37.46c4.24-.07,7.74-.26,10.51-.58v.89c-2.49.6-4.2,1.7-5.15,3.31s-1.42,4.17-1.42,7.67v14.55c0,3.71.47,6.41,1.42,8.09.95,1.65,2.66,2.71,5.15,3.21v.95c-1.19-.14-2.96-.28-5.31-.42-2.35-.14-4.08-.21-5.2-.21Z" fill="currentcolor"/><path d="M424.27,647.76v-19.55h-3.36v-.42l7.25-6.88v29.95c0,3.43.33,5.81,1,7.15.67,1.37,1.58,2.38,2.73,3.05-2.87-.21-4.87-1.26-5.99-3.15-1.09-1.86-1.63-5.24-1.63-10.14ZM435.56,612.88v11.72h8.98c1.65,0,2.89-.18,3.73-.53.91-.39,1.96-1.17,3.15-2.36h1.31c-2.14,2.98-3.66,4.82-4.57,5.52-.88.67-2.21,1-3.99,1h-8.62v20.07c0,2.98.16,5.03.47,6.15.28,1.09.96,2.03,2.05,2.84,1.09.77,2.61,1.16,4.57,1.16,3.89,0,7.25-1.82,10.09-5.46l1.1.63c-2.87,5.57-7.04,8.35-12.5,8.35-2.35,0-4.31-.53-5.88-1.58-1.61-1.05-2.68-2.38-3.21-3.99-.53-1.65-.79-4.01-.79-7.09v-31.63c1.47-1.54,2.84-3.13,4.1-4.78Z" fill="currentcolor"/><path d="M466.57,626.48c-3.26,3.61-4.89,8.93-4.89,15.97s1.63,12.43,4.89,16.18c-6.06-3.43-9.09-8.9-9.09-16.39s3.03-12.65,9.09-15.76ZM465.26,642.98c0-6.8,1.38-11.86,4.15-15.18,2.8-3.36,6.66-5.04,11.56-5.04,4.55,0,8.32,1.49,11.3,4.47,2.98,2.98,4.47,7.9,4.47,14.76,0,7.53-1.59,12.79-4.78,15.76-3.22,3.01-6.94,4.52-11.14,4.52s-7.97-1.58-10.98-4.73c-3.05-3.12-4.57-7.97-4.57-14.55ZM469.67,642.14c0,6.41.98,10.75,2.94,13.03,1.96,2.28,4.75,3.42,8.35,3.42,3.4,0,6.15-1.19,8.25-3.57,2.07-2.38,3.1-6.73,3.1-13.03,0-10.61-3.78-15.92-11.35-15.92s-11.3,5.36-11.3,16.08ZM495.47,658.06c3.22-3.61,4.83-8.62,4.83-15.03,0-3.47-.39-6.73-1.16-9.77-.81-3.12-2.03-5.39-3.68-6.83,6.13,3.4,9.19,8.62,9.19,15.66s-3.06,12.08-9.19,15.97Z" fill="currentcolor"/><path d="M518.3,623.86v37.46c-5.15.07-8.63.28-10.46.63v-.95c2.84-1.02,4.66-2.26,5.46-3.73.84-1.54,1.26-4.29,1.26-8.25v-13.56c0-3.75-.49-6.43-1.47-8.04-1.02-1.65-2.77-2.73-5.25-3.26v-.89c1.09.21,4.57.4,10.46.58ZM522.09,661.32v-37.46c1.16-.04,2.56-.23,4.2-.58-.21,1.37-.35,3.71-.42,7.04,3.68-4.69,6.31-7.04,7.88-7.04.91,0,2.59.51,5.04,1.52,2.14.91,3.59,1.37,4.36,1.37,1.02,0,2.15-.72,3.42-2.15.11-.11.18-.18.21-.24s.19-.22.47-.5l1.21.58c-1.68,3.78-3.85,5.67-6.52,5.67-.91,0-2.68-.58-5.31-1.73-1.09-.49-1.91-.74-2.47-.74-1.68,0-3.47,1.09-5.36,3.26.91-.28,1.68-.42,2.31-.42.98,0,2.78.6,5.41,1.79,1.89.81,3.26,1.21,4.1,1.21.56,0,1.14-.18,1.73-.53-1.72,2.21-3.38,3.31-4.99,3.31-.74,0-1.94-.4-3.63-1.21-2.42-1.19-4.1-1.79-5.04-1.79s-1.89.51-2.84,1.52v15.97c0,3.57.58,6.18,1.73,7.83s3.01,2.64,5.57,2.99v.95c-4.1-.42-7.79-.63-11.09-.63Z" fill="currentcolor"/><path d="M551.6,647.34h.79c1.05,3.26,2.78,5.97,5.2,8.14,2.45,2.17,5.08,3.26,7.88,3.26,2.21,0,4.12-.56,5.73-1.68,1.54-1.12,2.31-2.43,2.31-3.94,0-1.61-.79-2.91-2.36-3.89-1.61-.98-4.55-1.91-8.83-2.78-4.2-.91-7.34-2.25-9.4-4.02-2.07-1.77-3.1-3.98-3.1-6.65,0-2.07.68-4.01,2.05-5.83-.14.88-.21,1.68-.21,2.42,0,1.75.53,3.4,1.58,4.94.98,1.47,2.36,2.59,4.15,3.36,1.75.77,4.69,1.66,8.83,2.68,3.92.95,6.78,2.1,8.56,3.47,1.75,1.37,2.63,3.35,2.63,5.94,0,2.73-1.1,4.97-3.31,6.73-2.17,1.72-5.34,2.57-9.51,2.57-3.68,0-7.92-.89-12.72-2.68,0-2.66-.07-4.55-.21-5.67-.11-1.05-.16-2.17-.16-3.36,0-.67.04-1.66.11-2.99ZM581.6,635.94h-.74c-1.23-3.22-3.19-5.66-5.88-7.3-2.66-1.61-5.36-2.42-8.09-2.42-2.14,0-4.03.42-5.67,1.26-1.61.88-2.42,2.12-2.42,3.73,0,1.23.6,2.17,1.79,2.84,1.12.63,3.33,1.3,6.62,2,6.8,1.44,11.19,3.28,13.19,5.52,2,2.24,2.99,4.61,2.99,7.09,0,2.14-.98,4.54-2.94,7.2.28-1.3.42-2.4.42-3.31,0-2.7-.91-5.17-2.73-7.41-1.79-2.21-5.97-4.08-12.56-5.62-3.89-.91-6.59-1.93-8.09-3.05-1.54-1.16-2.31-2.85-2.31-5.1,0-2.52,1.14-4.55,3.42-6.09,2.24-1.51,5.55-2.26,9.93-2.26s8.44.86,12.82,2.57c-.07.84-.11,1.31-.11,1.42,0,1.3.07,2.66.21,4.1.11,1.26.16,2.87.16,4.83Z" fill="currentcolor"/><path d="M590.98,615.61l-3.21-3.15,2.63-2.63,7.99,7.88c-1.61,5.25-2.87,8.62-3.78,10.09-.91,1.47-2.15,2.85-3.73,4.15l-1.79-1.52c2.91-2.8,4.36-5.78,4.36-8.93,0-2.28-.82-4.24-2.47-5.88ZM592.67,607.57l2.63-2.63,7.57,7.46-2.63,2.63-7.57-7.46Z" fill="currentcolor"/><path d="M646.52,613.35c-3.99,5.15-5.99,12-5.99,20.54,0,10.02,2.47,17.55,7.41,22.59-3.75-1.58-6.73-4.43-8.93-8.56-2.21-4.1-3.31-8.72-3.31-13.87,0-3.54.58-6.8,1.73-9.77,1.09-2.94,2.38-5.24,3.89-6.88,1.4-1.58,3.13-2.92,5.2-4.05ZM690.24,649.92h1.05l-1.68,8.88c-3.26,1.26-6.39,2.19-9.4,2.78-3.01.6-5.92.89-8.72.89-8.48,0-15.11-2.47-19.91-7.41-4.8-4.9-7.2-12.03-7.2-21.38s2.57-16.45,7.72-21.38c5.11-4.9,11.87-7.36,20.28-7.36,6.09,0,12.26,1.1,18.49,3.31-.28,4.41-.42,7.02-.42,7.83,0,.74.02,1.45.05,2.15v1.26c0,1.82-.09,3.56-.26,5.2h-.89c-2.17-10.58-8.23-15.87-18.18-15.87-6.73,0-12.08,2.19-16.08,6.57-3.99,4.34-5.99,10.61-5.99,18.81,0,7.18,1.84,13.01,5.52,17.5,3.64,4.48,9.14,6.73,16.5,6.73,4.06,0,7.78-.81,11.14-2.42,3.33-1.54,5.99-3.57,7.99-6.09Z" fill="currentcolor"/><path d="M705.05,626.48c-3.26,3.61-4.89,8.93-4.89,15.97s1.63,12.43,4.89,16.18c-6.06-3.43-9.09-8.9-9.09-16.39s3.03-12.65,9.09-15.76ZM703.74,642.98c0-6.8,1.38-11.86,4.15-15.18,2.8-3.36,6.66-5.04,11.56-5.04,4.55,0,8.32,1.49,11.3,4.47,2.98,2.98,4.47,7.9,4.47,14.76,0,7.53-1.59,12.79-4.78,15.76-3.22,3.01-6.94,4.52-11.14,4.52s-7.97-1.58-10.98-4.73c-3.05-3.12-4.57-7.97-4.57-14.55ZM708.15,642.14c0,6.41.98,10.75,2.94,13.03,1.96,2.28,4.75,3.42,8.35,3.42,3.4,0,6.15-1.19,8.25-3.57,2.07-2.38,3.1-6.73,3.1-13.03,0-10.61-3.78-15.92-11.35-15.92s-11.3,5.36-11.3,16.08ZM733.95,658.06c3.22-3.61,4.83-8.62,4.83-15.03,0-3.47-.39-6.73-1.16-9.77-.81-3.12-2.03-5.39-3.68-6.83,6.13,3.4,9.19,8.62,9.19,15.66s-3.06,12.08-9.19,15.97Z" fill="currentcolor"/><path d="M755.55,597.8v50.12c0,4.76.26,7.88.79,9.35.53,1.51,1.37,2.99,2.52,4.47-1.93-.56-3.42-1.45-4.47-2.68-1.05-1.16-1.77-2.71-2.15-4.68-.35-1.75-.53-4.87-.53-9.35v-35.2c0-3.19-.12-5.34-.37-6.46-.28-1.26-.91-2.38-1.89-3.36s-2.26-1.61-3.84-1.89v-.89c1.09,0,2.75.11,4.99.32,1.12.11,2.77.19,4.94.26ZM772.68,659.32l.26,1.1c-1.65,1.3-3.49,1.94-5.52,1.94-2.87,0-4.99-1.1-6.36-3.31-1.37-2.17-2.05-5.87-2.05-11.09v-50.18c2.1-.07,3.59-.16,4.47-.26-.39,5.99-.58,10.3-.58,12.93v35.2c0,4.31.11,7.25.32,8.83.21,1.61.86,2.91,1.94,3.89,1.05,1.05,2.52,1.58,4.41,1.58,1.02,0,2.05-.21,3.1-.63Z" fill="currentcolor"/><path d="M782.58,597.8v50.12c0,4.76.26,7.88.79,9.35.53,1.51,1.37,2.99,2.52,4.47-1.93-.56-3.42-1.45-4.47-2.68-1.05-1.16-1.77-2.71-2.15-4.68-.35-1.75-.53-4.87-.53-9.35v-35.2c0-3.19-.12-5.34-.37-6.46-.28-1.26-.91-2.38-1.89-3.36s-2.26-1.61-3.84-1.89v-.89c1.09,0,2.75.11,4.99.32,1.12.11,2.77.19,4.94.26ZM799.71,659.32l.26,1.1c-1.65,1.3-3.49,1.94-5.52,1.94-2.87,0-4.99-1.1-6.36-3.31-1.37-2.17-2.05-5.87-2.05-11.09v-50.18c2.1-.07,3.59-.16,4.47-.26-.39,5.99-.58,10.3-.58,12.93v35.2c0,4.31.11,7.25.32,8.83.21,1.61.86,2.91,1.94,3.89,1.05,1.05,2.52,1.58,4.41,1.58,1.02,0,2.05-.21,3.1-.63Z" fill="currentcolor"/><path d="M808.68,657.12l-.21.32c-5.29-3.05-7.93-7.83-7.93-14.34,0-2.52.47-4.96,1.42-7.3s2.92-4.71,5.94-7.09l.26.26c-2.21,3.82-3.31,8.41-3.31,13.77s1.28,10.37,3.84,14.4ZM837.26,640.25h-24.38c-.07,1.75-.11,2.82-.11,3.21,0,4.55,1.24,8.21,3.73,10.98,2.49,2.73,5.73,4.1,9.72,4.1,3.29,0,6.27-.89,8.93-2.68,2.66-1.79,4.76-4.19,6.31-7.2h2.26c-3.22,9.21-9.35,13.82-18.39,13.82-5.43,0-9.62-1.89-12.56-5.67-2.94-3.75-4.41-8.49-4.41-14.24s1.37-10.14,4.1-13.82c2.7-3.64,6.22-5.46,10.56-5.46,3.5,0,6.58,1.31,9.25,3.94,2.63,2.59,4.29,6.94,4.99,13.03ZM813.31,636.36h18.7c-.18-2.52-1-4.76-2.47-6.73-1.54-1.96-3.75-2.94-6.62-2.94-2.56,0-4.71.89-6.46,2.68-1.75,1.79-2.8,4.12-3.15,6.99ZM845.41,640.25h-4.68c-.18-6.38-1.84-11.05-4.99-14.03,5.64,2.35,8.86,7.02,9.67,14.03Z" fill="currentcolor"/><path d="M859.22,626.06c-2.77,3.85-4.15,8.3-4.15,13.35,0,4.38,1.02,8.28,3.05,11.72-2.17-.53-3.94-1.96-5.31-4.31-1.4-2.28-2.1-4.73-2.1-7.36,0-3.22.82-6.02,2.47-8.41,1.65-2.35,3.66-4.01,6.04-4.99ZM852.87,682.34c3.29,7.08,9.51,11.72,18.65,13.92-1.79.6-3.63.89-5.52.89-4.48,0-7.93-1.28-10.35-3.84-2.45-2.56-3.68-5.27-3.68-8.14,0-.81.3-1.75.89-2.84ZM864.11,671.2c-4.41-2.03-6.62-4.62-6.62-7.78,0-3.85,3.15-7.01,9.46-9.46-5.57-2.28-8.35-7.16-8.35-14.66,0-4.94,1.33-8.84,3.99-11.72,2.63-2.87,5.9-4.31,9.83-4.31s7.39,1.4,10.09,4.2c2.66,2.77,3.99,6.76,3.99,11.98,0,9.46-4.36,14.82-13.08,16.08-3.75.53-5.62,1.63-5.62,3.31,0,.95.53,1.66,1.58,2.15,1.09.53,3.98,1.4,8.67,2.63,7.32,1.96,12.47,4.17,15.45,6.62,3.01,2.52,4.52,5.67,4.52,9.46s-1.56,6.94-4.68,8.93l-.21-.16c1.23-1.75,1.84-3.91,1.84-6.46,0-3.64-1.45-6.6-4.36-8.88-2.98-2.24-7.41-4.12-13.29-5.62-5.6-1.47-9.11-2.57-10.51-3.31-1.47-.74-2.21-1.73-2.21-2.99s.81-2.92,2.42-4.89c-3.54,1.47-5.31,3.52-5.31,6.15,0,1.54.67,2.82,2,3.84,1.33,1.05,4.45,2.31,9.35,3.78,7.15,2.14,11.94,3.98,14.4,5.52,2.49,1.65,3.73,3.78,3.73,6.41,0,2.84-1.38,5.38-4.15,7.62-2.77,2.24-6.34,3.36-10.72,3.36-5.36,0-10.02-1.52-13.98-4.57-3.96-3.05-5.94-6.16-5.94-9.35s2.57-5.71,7.72-7.88ZM866.53,672.2c-3.78,2-5.67,4.17-5.67,6.52,0,2.49,1.49,4.83,4.47,7.04,3.01,2.21,6.69,3.31,11.03,3.31,3.08,0,5.64-.65,7.67-1.94,2.07-1.26,3.1-2.78,3.1-4.57,0-1.4-.84-2.66-2.52-3.78-1.65-1.05-4.83-2.29-9.56-3.73-4.1-1.19-6.94-2.14-8.51-2.84ZM862.95,639.3c0,8.3,3.22,12.45,9.67,12.45,2.91,0,5.24-1.09,6.99-3.26,1.72-2.14,2.57-5.22,2.57-9.25,0-4.27-.89-7.48-2.68-9.62-1.82-2.14-4.08-3.21-6.78-3.21s-5.13,1.05-6.99,3.15c-1.86,2.17-2.78,5.41-2.78,9.72ZM907.98,623.54l1.37.26c-.46,4.34-1.96,6.52-4.52,6.52-1.23,0-2.8-.51-4.73-1.52-1.82-.98-3.24-1.47-4.26-1.47-1.89,0-3.36.81-4.41,2.42l.16.32c.74-.28,1.28-.42,1.63-.42,1.05,0,2.64.74,4.78,2.21,1.65,1.09,3.24,1.63,4.78,1.63,1.12,0,2.08-.28,2.89-.84l.42.58c-1.47,1.93-3.15,2.89-5.04,2.89-1.33,0-2.96-.72-4.89-2.15-1.4-1.09-2.57-1.77-3.52-2.05,1.16,2.56,1.73,5.01,1.73,7.36,0,6.45-2.59,10.68-7.78,12.72,2.24-3.4,3.36-7.6,3.36-12.61,0-5.92-1.58-10.79-4.73-14.61,2.17.88,3.75,1.93,4.73,3.15,2.14-2.77,4.34-4.15,6.62-4.15,1.23,0,2.7.47,4.41,1.42,1.82.98,3.13,1.47,3.94,1.47,1.33,0,2.35-1.03,3.05-3.1Z" fill="currentcolor"/><path d="M919.27,657.12l-.21.32c-5.29-3.05-7.93-7.83-7.93-14.34,0-2.52.47-4.96,1.42-7.3.95-2.35,2.92-4.71,5.94-7.09l.26.26c-2.21,3.82-3.31,8.41-3.31,13.77s1.28,10.37,3.84,14.4ZM947.86,640.25h-24.38c-.07,1.75-.11,2.82-.11,3.21,0,4.55,1.24,8.21,3.73,10.98,2.49,2.73,5.73,4.1,9.72,4.1,3.29,0,6.27-.89,8.93-2.68,2.66-1.79,4.76-4.19,6.31-7.2h2.26c-3.22,9.21-9.35,13.82-18.39,13.82-5.43,0-9.62-1.89-12.56-5.67-2.94-3.75-4.41-8.49-4.41-14.24s1.37-10.14,4.1-13.82c2.7-3.64,6.22-5.46,10.56-5.46,3.5,0,6.59,1.31,9.25,3.94,2.63,2.59,4.29,6.94,4.99,13.03ZM923.9,636.36h18.7c-.18-2.52-1-4.76-2.47-6.73-1.54-1.96-3.75-2.94-6.62-2.94-2.56,0-4.71.89-6.46,2.68-1.75,1.79-2.8,4.12-3.15,6.99ZM956,640.25h-4.68c-.18-6.38-1.84-11.05-4.99-14.03,5.64,2.35,8.86,7.02,9.67,14.03Z" fill="currentcolor"/></g><g data-fc="gra_1"><path d="M474,366.84h-2.61v92.85h1.69c7.56,0,12.87-3.22,15.93-9.65,2.15-4.6,3.22-11.44,3.22-20.53v-31.1c0-21.04-6.08-31.56-18.23-31.56Z" fill="currentcolor"/><path d="M600.03,349.57c-4.38-9.49-9.58-17.07-15.6-22.73-13.42,8.31-26.7,12.46-39.84,12.46s-24-4.06-32.58-12.18c-8.58,8.12-19.44,12.18-32.58,12.18s-26.42-4.15-39.84-12.46c-6.02,5.66-11.23,13.24-15.61,22.73-5.66,12.14-8.49,24.87-8.49,38.19,0,36.51,9.03,67.27,27.1,92.27,17.34,24.01,40.48,39.42,69.41,46.27,28.93-6.85,52.07-22.27,69.41-46.27,18.07-25,27.1-55.76,27.1-92.27,0-13.32-2.83-26.06-8.48-38.19ZM476.15,463.36h-32.03v-3.67h6.74v-92.85h-6.74v-3.68h29.72c26.97,0,40.45,17.37,40.45,52.09,0,13.39-2.97,24.41-8.89,33.1-6.74,10.01-16.5,15.01-29.26,15.01ZM512,497.35c-6.12,0-11.08-4.96-11.08-11.08s4.96-11.08,11.08-11.08,11.08,4.96,11.08,11.08-4.96,11.08-11.08,11.08ZM579.87,464.28h-3.22l-4.44-4.59c-5.62,3.77-11.49,5.66-17.62,5.66-12.05,0-21.35-5.92-27.89-17.77-5.31-9.6-7.97-20.94-7.97-34.01s2.91-23.8,8.73-34.01c7.05-12.05,16.39-18.08,28.04-18.08,6.44,0,12.15,2.76,17.16,8.27l3.68-6.59h2.76v28.04h-3.07c-3.48-17.36-10.22-26.05-20.22-26.05-8.99,0-13.48,8.69-13.48,26.05v44.99c0,17,5.11,25.49,15.32,25.49,5.31,0,9.81-3.22,13.48-9.66,2.86-5,4.7-10.62,5.52-16.85h3.22v29.11Z" fill="currentcolor"/></g></g></g></g></svg>