<?xml version="1.0" encoding="UTF-8"?><svg xmlns="http://www.w3.org/2000/svg" viewBox="0 0 1024 1024"><title>ringsweet logo</title><desc>Copyright &#xa9; 2026 Pearlpuppy. All rights reserved.</desc><metadata><rdf:RDF xmlns:rdf="http://www.w3.org" xmlns:dc="http://purl.org"><rdf:Description rdf:about=""><dc:title>ringsweet logo</dc:title><dc:creator>Pierre Pearlpuppy</dc:creator><dc:rights>Copyright &#xa9; 2026 Pearlpuppy. All rights reserved.</dc:rights><dc:date>2026-03-20</dc:date><dc:format>image/svg+xml</dc:format></rdf:Description></rdf:RDF></metadata><g isolation="isolate"><g id="logo-ringsweet"><g id="ringsweet"><g data-fc="#00a2a3"><path d="M512.02,662.54c-65.2,0-118.11,21.14-118.11,47.22s52.91,47.26,118.11,47.26,118.06-21.17,118.06-47.26-52.82-47.22-118.06-47.22Z" fill="currentcolor"/><path d="M512.02,415.34c19.92,0,36.1-16.25,36.1-36.22s-16.18-36.2-36.1-36.2-36.15,16.23-36.15,36.2,16.23,36.22,36.15,36.22Z" fill="currentcolor"/></g><g data-fc="#8dcfd0"><path d="M879.13,343.85c38.87-56.99,7.77-98.46-64.76-64.76-44.75,20.77-150.61,44.5-248.27,60.22,8.21,11.17,13.12,24.9,13.12,39.81,0,12.1-3.26,23.47-8.89,33.31,29.93,19.43,61.36,59.01,56.17,139.2-7.63,117.04,46.01,147.6,68.89,155.3,13.75-3.25,26.48-6.87,37.12-10.91,64.52-24.39,62.82-76.21-15.94-90.22-3.64-.66-7.63-1.56-11.85-2.55,42.51-16.91,97.26-40.93,128.41-63.36,56.07-40.25,41-89.86-38.67-83.01-7.53.63-16.42.97-26.33,1.07,35.32-30.83,86.82-78.54,111.02-114.1Z" fill="currentcolor"/><path d="M397.56,551.65c-5.25-80.22,26.19-119.79,56.12-139.22-5.59-9.84-8.89-21.21-8.89-33.31,0-14.92,4.96-28.64,13.17-39.81-97.71-15.72-203.53-39.45-248.32-60.22-72.54-33.69-103.63,7.77-64.77,64.76,24.29,35.57,75.79,83.27,111.07,114.1-9.91-.1-18.76-.44-26.29-1.07-79.73-6.85-94.74,42.75-38.72,83.01,31.14,22.42,85.9,46.45,128.41,63.36-4.23,1-8.26,1.89-11.9,2.55-78.75,14.02-80.41,65.83-15.89,90.22,10.64,4.03,23.37,7.65,37.12,10.91,22.93-7.7,76.47-38.29,68.89-155.28Z" fill="currentcolor"/></g></g></g></g></svg>