<?xml version="1.0" encoding="UTF-8"?><svg xmlns="http://www.w3.org/2000/svg" viewBox="0 0 1024 1024"><title>visional logo</title><desc>Copyright &#xa9; 2026 Pearlpuppy. All rights reserved.</desc><metadata><rdf:RDF xmlns:rdf="http://www.w3.org" xmlns:dc="http://purl.org"><rdf:Description rdf:about=""><dc:title>visional logo</dc:title><dc:creator>Pierre Pearlpuppy</dc:creator><dc:rights>Copyright &#xa9; 2026 Pearlpuppy. All rights reserved.</dc:rights><dc:date>2026-03-20</dc:date><dc:format>image/svg+xml</dc:format></rdf:Description></rdf:RDF></metadata><g isolation="isolate"><g id="logo-visional"><g data-fc="#c13637"><path d="M604.07,260.13c-29.02-5.2-59.05-8.03-91.06-8.03s-63.69,2.95-92.71,8.34v72.92l92.97,162.52,90.79-162.38v-73.37Z" fill="currentcolor"/><path d="M367.11,347.51v-73.78c-82.21,25.8-134.72,72.15-134.72,125.04,0,75.14,108.33,137.07,247.05,145.66l-112.33-196.92Z" fill="currentcolor"/><path d="M657.27,273.2v74.17l-111.77,197.02c138.31-8.79,246.1-70.63,246.1-145.61,0-53.26-56.96-99.88-134.34-125.58Z" fill="currentcolor"/><path d="M165.34,769.56l-37.34-104.94h26.03l25.7,73.77h.32l26.03-73.77h26.19l-38.31,104.94h-28.61Z" fill="currentcolor"/><path d="M270.03,664.62v104.94h-25.38v-104.94h25.38Z" fill="currentcolor"/><path d="M314.31,743.69c1.4,2.45,3.26,4.44,5.58,5.95,2.32,1.52,5.04,2.65,8.16,3.38,3.12.73,6.36,1.1,9.7,1.1,2.26,0,4.69-.17,7.28-.51,2.59-.34,5.01-1,7.27-1.98,2.26-.98,4.15-2.33,5.66-4.04,1.51-1.71,2.26-3.89,2.26-6.54,0-2.84-1-5.14-2.99-6.91-2-1.76-4.61-3.23-7.84-4.41-3.23-1.18-6.9-2.2-10.99-3.09-4.1-.88-8.25-1.86-12.45-2.94-4.31-.98-8.52-2.18-12.61-3.6-4.1-1.42-7.76-3.26-10.99-5.51-3.23-2.25-5.85-5.07-7.84-8.45-2-3.38-2.99-7.47-2.99-12.27,0-5.39,1.27-10.07,3.8-14.03,2.53-3.97,5.85-7.28,9.94-9.92,4.09-2.65,8.73-4.6,13.9-5.88,5.17-1.27,10.35-1.91,15.52-1.91,6.03,0,11.83.61,17.38,1.84,5.55,1.23,10.48,3.21,14.79,5.95,4.31,2.74,7.73,6.24,10.26,10.51,2.53,4.26,3.8,9.43,3.8,15.51h-24.57c-.22-3.14-.95-5.73-2.18-7.79-1.24-2.06-2.89-3.68-4.93-4.85-2.05-1.18-4.39-2.01-7.03-2.5-2.64-.49-5.52-.73-8.65-.73-2.05,0-4.1.2-6.14.59-2.05.39-3.91,1.08-5.58,2.06-1.67.98-3.05,2.2-4.12,3.68-1.08,1.47-1.62,3.33-1.62,5.58,0,2.06.43,3.72,1.29,5,.86,1.27,2.56,2.45,5.09,3.53,2.53,1.08,6.03,2.15,10.51,3.23,4.47,1.08,10.32,2.45,17.54,4.12,2.16.39,5.15,1.1,8.97,2.13,3.83,1.03,7.63,2.67,11.4,4.92,3.77,2.26,7.03,5.27,9.78,9.04,2.75,3.77,4.12,8.6,4.12,14.48,0,4.8-1.03,9.26-3.07,13.37-2.05,4.11-5.09,7.67-9.13,10.65-4.04,2.99-9.05,5.32-15.04,6.98-5.98,1.66-12.91,2.5-20.77,2.5-6.36,0-12.53-.71-18.51-2.13-5.98-1.42-11.26-3.65-15.84-6.69-4.58-3.04-8.22-6.91-10.91-11.61-2.69-4.7-3.99-10.29-3.88-16.75h24.57c0,3.53.7,6.52,2.1,8.96Z" fill="currentcolor"/><path d="M427.94,664.62v104.94h-25.38v-104.94h25.38Z" fill="currentcolor"/><path d="M450.7,695.7c2.59-6.71,6.31-12.57,11.16-17.56,4.85-5,10.8-8.91,17.86-11.76,7.06-2.84,15.01-4.26,23.84-4.26s16.92,1.42,23.93,4.26c7,2.84,12.93,6.76,17.78,11.76,4.85,5,8.57,10.85,11.15,17.56,2.59,6.71,3.88,13.99,3.88,21.82s-1.29,14.77-3.88,21.38c-2.59,6.61-6.3,12.37-11.15,17.27-4.85,4.9-10.78,8.75-17.78,11.54-7.01,2.8-14.98,4.19-23.93,4.19s-16.79-1.39-23.84-4.19c-7.06-2.79-13.01-6.64-17.86-11.54-4.85-4.9-8.57-10.66-11.16-17.27-2.58-6.61-3.88-13.74-3.88-21.38s1.29-15.11,3.88-21.82ZM473.9,730.39c1.13,4.16,2.94,7.91,5.42,11.24,2.48,3.33,5.71,6,9.7,8.01,3.99,2.01,8.84,3.01,14.55,3.01s10.56-1.01,14.55-3.01c3.98-2.01,7.22-4.68,9.7-8.01,2.48-3.33,4.29-7.08,5.42-11.24,1.13-4.16,1.7-8.45,1.7-12.86s-.57-9.06-1.7-13.37c-1.13-4.31-2.94-8.16-5.42-11.54-2.48-3.38-5.71-6.07-9.7-8.08-3.99-2.01-8.84-3.01-14.55-3.01s-10.56,1.01-14.55,3.01c-3.99,2.01-7.22,4.7-9.7,8.08-2.48,3.38-4.28,7.23-5.42,11.54-1.13,4.31-1.7,8.77-1.7,13.37s.57,8.7,1.7,12.86Z" fill="currentcolor"/><path d="M604.07,664.62l48.18,70.39h.32v-70.39h23.76v104.94h-25.38l-48.01-70.25h-.32v70.25h-23.76v-104.94h25.22Z" fill="currentcolor"/><path d="M839.74,664.62v85.53h56.26v19.4h-81.64v-104.94h25.38Z" fill="currentcolor"/><path d="M760.17,664.62l37.35,104.94h-26.03l-25.71-73.78h-.32l-26.03,73.78h-26.19l38.31-104.94h28.61Z" fill="currentcolor"/></g></g></g></svg>