<?xml version="1.0" encoding="UTF-8"?><svg xmlns="http://www.w3.org/2000/svg" viewBox="0 0 1024 1024"><title>artwave logo</title><desc>Copyright &#xa9; 2026 Pearlpuppy. All rights reserved.</desc><metadata><rdf:RDF xmlns:rdf="http://www.w3.org" xmlns:dc="http://purl.org"><rdf:Description rdf:about=""><dc:title>artwave logo</dc:title><dc:creator>Pierre Pearlpuppy</dc:creator><dc:rights>Copyright &#xa9; 2026 Pearlpuppy. All rights reserved.</dc:rights><dc:date>2026-03-20</dc:date><dc:format>image/svg+xml</dc:format></rdf:Description></rdf:RDF></metadata><g isolation="isolate"><g id="logo-artwave"><g id="artwave"><path data-fc="#80cfb6" d="M457.97,502.05c-5.67.8-11.31,2.69-16.5,5.37-5.24,2.72-10.08,6.24-14.32,10.38-4.18,4.11-7.78,8.86-10.44,13.96-2.67,5.13-4.45,10.63-4.97,16.34-.63,5.78.03,11.27,1.67,16.15,1.67,5,4.37,9.45,7.82,13.16,3.49,3.74,7.68,6.7,12.42,8.71,4.76,2.04,9.98,3.09,15.46,2.9.23,0,.45,0,.66-.06h.71c.22-.03.45-.03.66-.06.23-.03.45-.06.71-.06,5.19-.62,10.19-2.29,14.78-4.94,4.6-2.66,8.83-6.18,12.49-10.44,3.68-4.23,6.78-9.14,9.19-14.52,2.38-5.37,4.12-11.15,4.97-17.17.85-6.24.63-12.05-.63-17.18-1.3-5.13-3.52-9.58-6.6-13.16-3.07-3.58-6.97-6.3-11.6-7.97-4.56-1.64-9.82-2.19-15.68-1.51-.05.03-.12.03-.19.03h-.23c-.08.06-.11.06-.18.06h-.22" fill="currentcolor"/><g data-fc="#009d73"><path d="M230.18,397.21l-.05.06h.05v-.06M742.73,259.87c-9.58,1.88-19.8,4.45-30.15,7.97-10.3,3.46-20.76,7.85-30.8,13.41-10.01,5.5-19.68,12.17-28.47,20.27-8.79,8.06-16.68,17.61-23.27,28.88-12.65,19.74-22.51,36.36-30.4,50.23-7.94,13.97-13.87,25.12-18.58,33.89-4.71,8.74-8.19,15.08-11.31,19.34-3.07,4.32-5.78,6.48-8.85,7.1-2.86.28-5.56-5.5-8.34-14.52-2.83-8.96-5.75-20.98-9.02-33.36-3.21-12.17-6.81-24.71-11.12-34.91-4.18-10.07-9.03-17.98-14.86-21.19-2.19-1.58-4.37-2.78-6.49-3.68-2.12-.9-4.18-1.45-6.27-1.82-2.04-.34-4.08-.43-6.12-.34-2.04.09-4.03.34-6.04.71-.32.12-.63.12-.93.22-.29.03-.63.09-.93.18-.29.09-.59.15-.88.22-.34.06-.63.15-.93.25-2.38.56-4.68,1.27-7.01,2.13-2.3.9-4.6,2.01-6.93,3.37-2.36,1.39-4.74,3.06-7.23,5.13-2.49,2.1-5.04,4.57-7.74,7.54-4.9,5.84-11.38,15.82-18.58,27.62-7.26,11.86-15.23,25.51-23.01,38.61-7.83,13.16-15.43,25.76-21.79,35.15-6.46,9.45-11.62,15.69-14.46,16.13h-.08c0,.06-.04.06-.04.06h-.19c-3.1.49-4.63-.86-5.67-4.01-1-3.15-1.44-8.03-2.36-14.58-.97-6.55-2.35-14.64-5.24-24.28-2.81-9.51-7.07-20.39-13.64-32.59-3.44-5.07-7.75-8.9-12.6-11.77-4.85-2.84-10.22-4.69-15.97-5.78-5.74-1.08-11.8-1.36-17.98-1.11-6.17.28-12.42,1.08-18.66,2.26-3.85.74-7.66,1.61-11.41,2.59-3.74.99-7.37,2.04-10.89,3.15-3.52,1.11-6.9,2.25-10.08,3.43-3.2,1.14-6.19,2.25-8.94,3.37-2.66,1.11-5.11,2.1-7.23,3.03-2.18.93-4.11,1.82-5.67,2.53-1.59.74-2.86,1.36-3.79,1.79-.93.43-1.44.68-1.62.8.18,0,2.7.74,6.62,2.22,3.94,1.52,9.34,3.8,15.25,6.92,5.93,3.12,12.42,7.1,18.46,11.99,6.08,4.94,11.68,10.81,15.86,17.67.56.86.37,2.22-.08,3.86-.51,1.61-1.33,3.49-2.26,5.56-.85,2.07-1.82,4.2-2.52,6.36-.66,2.13-1.11,4.23-.97,6.15.19,1.92.93,3.65,1.98,5.19,1.04,1.54,2.41,2.9,3.85,4.08,1.45,1.17,2.97,2.19,4.34,3,1.33.77,2.52,1.39,3.26,1.76,1,.74,1.74,8.46,2.93,19.65,1.25,11.31,2.97,26.26,6.07,41.21,3.15,15.26,7.72,30.52,14.58,41.86,6.92,11.52,16.23,19,28.6,18.13.08,0,.15,0,.23-.03h.22c.08,0,.15,0,.23-.03h.22c11.52-1.33,25.21-18.38,39.48-43.06,14.12-24.4,28.62-55.97,42.11-86.92,13.31-30.4,25.62-60.21,35.92-82.6,10.23-22.09,18.56-37.19,24.2-38.92.04,0,.11-.03.15-.03.03,0,.11-.03.14-.03.08,0,.12-.03.19-.06.05,0,.12,0,.15-.03,9.42-1.76,13.75,11.03,16.15,31.48,2.41,20.94,2.78,50.17,4.23,80.35,1.48,31.04,4.05,63.29,11.12,88.1,7.3,25.61,19.28,43.28,39.32,43.68.23.03.53.03.74.03.26,0,.49.03.74,0,.26,0,.49,0,.74-.03.26-.03.49-.03.74-.09,10.72-1.11,22.24-12.48,33.59-28.97,11.26-16.37,22.35-37.59,32.39-58.69,9.98-20.92,18.95-41.64,26.32-57.61,7.27-15.82,13.05-27.03,16.73-29.19,1.25-.93,3.26-2.35,5.59-4.14,2.33-1.85,5.08-4.02,7.78-6.49,2.75-2.44,5.49-5.19,7.86-8.03,2.41-2.84,4.45-5.84,5.82-8.87,1.38-3,2.04-6.02,2.3-8.93.29-2.9.18-5.68.06-8.34-.14-2.59-.29-5.07-.11-7.23.15-2.22.71-4.14,1.9-5.78,9.56-12.76,19.97-25.24,30.27-36.73,10.24-11.49,20.36-22.12,29.25-31.08,8.9-8.99,16.6-16.37,22.13-21.56,5.45-5.19,8.74-8.09,8.74-8.09-.03-.12-1.44-.18-4.03-.18s-6.27.06-10.91.37c-4.6.28-10.12.74-16.23,1.51-6.08.77-12.83,1.82-19.94,3.25" fill="currentcolor"/><path d="M383.47,671.97c-32.11,0-47.23-10.32-51.59-13.98H68v-7.91h267.11l1.16,1.24c.29.26,29.96,29.01,120.33-1.03,90.39-30.03,176.96-2.97,185.42-.2h313.97v7.91l-315.95-.23c-.83-.32-88.92-30.54-180.94.03-31.94,10.6-56.73,14.18-75.64,14.18Z" fill="currentcolor"/></g><g data-fc="#646464"><path d="M154.3,763.45c1.19,3.18-.66,5.81-4.05,5.81h-2.04c-3.37,0-7.04-2.47-8.08-5.5-1.03-3-4.67-5.47-8.08-5.47h-7.63c-3.41,0-7.04,2.47-8.09,5.47-1.07,3.03-4.66,5.5-8.08,5.5h-1.67c-3.41,0-5.22-2.63-4.03-5.81l15.68-42.51c1.19-3.21,4.93-5.81,8.37-5.81h3.63c3.41,0,7.17,2.6,8.39,5.81l15.68,42.51ZM128.69,748.37c3.44,0,5.3-2.66,4.22-5.87l-2.67-7.69c-1.11-3.21-2.89-3.21-4,0l-2.63,7.69c-1.11,3.21.77,5.87,4.16,5.87h.93Z" fill="currentcolor"/><path d="M286.48,764.35c2.12,2.69,1.05,4.91-2.41,4.91h-4.59c-3.42,0-7.86-2.26-9.87-5l-7.34-9.88c-2.04-2.75-5.19-4.98-6.97-4.98s-3.23,2.78-3.23,6.18v7.44c0,3.46-2.81,6.24-6.19,6.24h-1.51c-3.41,0-6.19-2.78-6.19-6.24v-41.7c0-3.4,2.78-6.18,6.19-6.18h11.01c3.41,0,8.85.06,12.12.19l2.33.37c2.3.37,4.45,1.14,6.44,2.35,2.04,1.21,3.68,2.78,4.87,4.7,1.19,1.91,1.77,4.36,1.77,7.23,0,4.01-.93,7.29-2.78,9.82-1.85,2.47-4.48,4.57-7.89,6.24l14.22,18.32ZM268.5,731.69c0-1.36-.29-2.5-.8-3.46-.6-.99-1.53-1.73-2.9-2.29-.96-.37-2.04-.62-3.29-.74-1.27-.06-2.7-.09-4.37-.09h0c-2.78,0-5.05,2.78-5.05,6.21v2.13c0,3.4.97,6.18,2.15,6.18s3.97-.03,6.24-.09l1.48-.22c1.48-.22,2.73-.71,3.77-1.52.97-.74,1.67-1.54,2.12-2.47.45-.93.66-2.1.66-3.64Z" fill="currentcolor"/><path d="M412.4,720.36c0,2.9-2.78,5.22-6.19,5.22h-4.48c-3.44,0-6.23,2.78-6.23,6.21v31.23c0,3.46-2.78,6.24-6.19,6.24h-1.56c-3.41,0-6.19-2.78-6.19-6.24v-31.23c0-3.43-2.78-6.21-6.18-6.21h-4.53c-3.41,0-6.19-2.32-6.19-5.22s2.78-5.22,6.19-5.22h35.36c3.41,0,6.19,2.35,6.19,5.22Z" fill="currentcolor"/><path d="M556.09,715.13c1.91,0,2.81,2.72,1.96,5.99l-10.94,42.1c-.85,3.31-3.38,6.03-5.61,6.03s-4.74-2.72-5.59-6.03l-8.31-32.9c-.85-3.31-2.22-3.31-3.03,0l-8.12,32.9c-.85,3.31-3.31,6.03-5.45,6.03s-4.67-2.72-5.56-5.99l-11.15-42.13c-.85-3.27.08-5.99,2.12-5.99s4.37,2.72,5.19,5.99l8.34,32.99c.85,3.27,2.22,3.27,3,0l8.23-32.99c.82-3.27,3.1-5.99,5.14-5.99s4.34,2.72,5.13,5.99l8.34,33.42c.8,3.28,2.18,3.28,3,0l8.31-33.42c.8-3.27,3.07-5.99,5-5.99Z" fill="currentcolor"/><path d="M680.89,763.39c1.16,3.25.37,5.87-1.73,5.87s-4.76-2.66-5.87-5.87l-1.18-3.33c-1.16-3.25-4.87-5.87-8.28-5.87h-10.96c-3.37,0-7.12,2.63-8.23,5.87l-1.19,3.33c-1.14,3.21-3.71,5.87-5.7,5.87s-2.7-2.63-1.56-5.87l15.46-42.44c1.14-3.21,4.26-5.81,6.89-5.81s5.75,2.6,6.91,5.81l15.45,42.44ZM661.58,747.97c3.42,0,5.3-2.63,4.11-5.84l-5.25-14.77c-1.11-3.21-3.01-3.21-4.15,0l-5.3,14.77c-1.16,3.21.7,5.84,4.11,5.84h6.48Z" fill="currentcolor"/><path d="M800.11,715.13c1.99,0,2.7,2.6,1.56,5.81l-15.46,42.44c-1.16,3.25-4.26,5.87-6.91,5.87s-5.74-2.63-6.89-5.87l-15.46-42.44c-1.15-3.21-.4-5.81,1.75-5.81s4.79,2.6,5.9,5.84l12.82,35.93c1.11,3.21,3,3.21,4.15,0l12.79-35.93c1.19-3.24,3.74-5.84,5.74-5.84Z" fill="currentcolor"/><path d="M921.78,766.04c0,1.76-2.78,3.21-6.19,3.21h-23.17c-3.44,0-6.23-2.78-6.23-6.24v-41.7c0-3.4,2.78-6.18,6.23-6.18h23.17c3.41,0,6.19,1.42,6.19,3.21s-2.78,3.18-6.19,3.18h-15.98c-3.4,0-6.18,2.78-6.18,6.21v2.41c0,3.4,2.78,6.18,6.18,6.18h15.98c3.41,0,6.19,1.48,6.19,3.21s-2.78,3.21-6.19,3.21h-15.98c-3.4,0-6.18,2.78-6.18,6.18v7.72c0,3.4,2.78,6.18,6.18,6.18h15.98c3.41,0,6.19,1.45,6.19,3.21Z" fill="currentcolor"/></g></g></g></g></svg>