<?xml version="1.0" encoding="UTF-8"?><svg xmlns="http://www.w3.org/2000/svg" viewBox="0 0 1024 1024"><title>kabkin logo</title><desc>Copyright &#xa9; 2026 Pearlpuppy. All rights reserved.</desc><metadata><rdf:RDF xmlns:rdf="http://www.w3.org" xmlns:dc="http://purl.org"><rdf:Description rdf:about=""><dc:title>kabkin logo</dc:title><dc:creator>Pierre Pearlpuppy</dc:creator><dc:rights>Copyright &#xa9; 2026 Pearlpuppy. All rights reserved.</dc:rights><dc:date>2026-03-20</dc:date><dc:format>image/svg+xml</dc:format></rdf:Description></rdf:RDF></metadata><g isolation="isolate"><g id="logo-kabkin"><g data-fc="#000"><path d="M269.52,582.38h-59.8c-4.72,0-10.6,3.29-13.07,7.3l-.4.64c-2.47,4.02-.64,7.3,4.08,7.3h40.65c4.72,0,6.27,3.09,3.44,6.87l-41,54.86c-2.82,3.78-1.27,6.87,3.44,6.87h5.72c4.72,0,11.02-2.99,14.01-6.64l57.74-70.58c2.99-3.65,1.57-6.64-3.15-6.64h-11.66Z"/><path d="M300.37,574.76c-3.14,0-7.74,3.29-10.21,7.3l-3.53,5.73c-2.47,4.02-1.93,7.3,1.22,7.3s7.74-3.29,10.21-7.3l3.53-5.73c2.47-4.02,1.93-7.3-1.22-7.3Z"/><path d="M314.67,574.76c-3.14,0-7.74,3.29-10.21,7.3l-3.53,5.73c-2.47,4.02-1.93,7.3,1.22,7.3s7.74-3.29,10.21-7.3l3.53-5.73c2.47-4.02,1.93-7.3-1.22-7.3Z"/><path d="M384.8,622.71c2.47-4.02.64-7.3-4.08-7.3h-36.76c-4.72,0-6.41-3.19-3.75-7.09l18-26.47c2.65-3.9.96-7.09-3.75-7.09h-11.58c-4.72,0-10.6,3.29-13.07,7.3l-47.35,76.87c-2.47,4.02-.64,7.3,4.08,7.3h5.72c4.72,0,10.75-3.19,13.4-7.09l14.55-21.39c2.65-3.9,8.68-7.09,13.4-7.09h37.74c4.72,0,10.6-3.29,13.07-7.3l.4-.64Z"/><path d="M468.69,615.41c-4.72,0-9.8,3.66-11.3,8.13l-6.46,19.31c-1.5,4.47-6.58,8.13-11.3,8.13h-32.27c-4.72,0-6.09-2.95-3.05-6.55l53.24-63.12c3.04-3.61,1.67-6.56-3.05-6.56h-12.23c-4.72,0-10.93,3.05-13.82,6.79l-60.16,77.9c-2.88,3.73-1.38,6.79,3.33,6.79h85.76c4.72,0,9.66-3.7,10.97-8.23l10.01-34.35c1.32-4.53-1.46-8.23-6.18-8.23h-3.51Z"/><path d="M594.57,574.76c-4.72,0-10.86,3.11-13.65,6.91l-57.06,77.65c-2.79,3.8-1.22,6.91,3.5,6.91h6.25c4.72,0,10.98-3.02,13.92-6.7l62.27-78.06c2.94-3.69,1.49-6.7-3.23-6.7h-12Z"/><path d="M564.92,582.06c2.47-4.02.64-7.3-4.08-7.3h-40.02c-4.72,0-10.6,3.29-13.07,7.3l-.4.64c-2.47,4.02-.64,7.3,4.08,7.3h40.02c4.72,0,10.6-3.29,13.07-7.3l.4-.64Z"/><path d="M549.26,607.47c2.47-4.02.64-7.3-4.08-7.3h-40.02c-4.72,0-10.6,3.29-13.07,7.3l-.4.64c-2.47,4.02-.64,7.3,4.08,7.3h40.02c4.72,0,10.6-3.29,13.07-7.3l.4-.64Z"/><path d="M697.77,607.79c4.72,0,10.6-3.29,13.07-7.3l.4-.64c2.47-4.02.64-7.3-4.08-7.3h-21.99c-4.72,0-6.77-3.41-4.55-7.57l1.4-2.64c2.21-4.17.16-7.57-4.55-7.57h-12.23c-4.72,0-10.19,3.51-12.16,7.79l-1.01,2.2c-1.97,4.29-7.44,7.79-12.16,7.79h-18.5c-4.72,0-10.6,3.29-13.07,7.3l-.4.64c-2.47,4.02-.64,7.3,4.08,7.3h20.88c4.72,0,7.52,2.29,6.24,5.08-1.29,2.8-6.2,5.08-10.91,5.08h-22.47c-4.72,0-10.6,3.29-13.07,7.3l-.4.64c-2.47,4.02-.64,7.3,4.08,7.3h24.85c4.72,0,6.96,3.51,4.99,7.79l-8.02,17.45c-1.97,4.28.28,7.79,4.99,7.79h5.72c4.72,0,10.39-3.41,12.6-7.57l9.5-17.89c2.21-4.16,7.88-7.57,12.6-7.57h18.53c4.72,0,10.6-3.29,13.07-7.3l.4-.64c2.47-4.02.64-7.3-4.08-7.3h-19.83c-4.72,0-7.36-2.29-5.88-5.08,1.48-2.8,6.56-5.08,11.27-5.08h20.69Z"/><path d="M708.97,635.62c-4.58,1.12-10.24,5.38-12.57,9.48l-7.77,13.67c-2.33,4.1-.54,6.34,3.98,4.98l109.97-33.16c4.52-1.36,10.23-5.76,12.71-9.78l3.53-5.73c2.47-4.02.75-6.39-3.84-5.27l-106.01,25.8Z"/><path d="M792.62,582.06c2.47-4.02.64-7.3-4.08-7.3h-39.21c-4.72,0-10.6,3.29-13.07,7.3l-.4.64c-2.47,4.02-.64,7.3,4.08,7.3h39.22c4.72,0,10.6-3.29,13.07-7.3l.4-.64Z"/><path d="M916.48,597.3c2.47-4.02,6.52-10.59,8.99-14.6l.4-.64c2.47-4.02.64-7.3-4.08-7.3h-60.03c-4.72,0-10.6,3.29-13.07,7.3l-20.74,33.67c-2.47,4.02-.64,7.3,4.08,7.3h1.17c4.72,0,10.81-3.15,13.54-6.99l13.53-19.05c2.73-3.85,8.83-6.99,13.54-6.99h9.85c4.72,0,6.75,3.4,4.51,7.55l-32.94,61.13c-2.24,4.15-.21,7.55,4.51,7.55h5.72c4.72,0,10.6-3.29,13.07-7.3l37.96-61.63Z"/><path d="M938.94,574.76c-3.14,0-7.74,3.29-10.21,7.3l-3.53,5.73c-2.47,4.02-1.92,7.3,1.22,7.3s7.74-3.29,10.21-7.3l3.53-5.73c2.47-4.02,1.92-7.3-1.22-7.3Z"/><path d="M953.23,574.76c-3.14,0-7.74,3.29-10.21,7.3l-3.53,5.73c-2.47,4.02-1.92,7.3,1.22,7.3s7.74-3.29,10.21-7.3l3.53-5.73c2.47-4.02,1.92-7.3-1.22-7.3Z"/><path d="M184.99,589.07c0-1.58-3.86-2.88-8.58-2.88h-26.56c-4.72,0-6.85-2.57-4.73-5.72,2.11-3.14-.02-5.72-4.73-5.72h-10.85c-4.72,0-10.16,2.57-12.1,5.72-1.94,3.14-7.38,5.72-12.1,5.72h-17.33c-4.72,0-10.6,3.29-13.07,7.3l-.39.64c-2.47,4.02-.64,7.3,4.08,7.3h17.33c4.72,0,6.55,3.29,4.08,7.3l-30.92,50.19c-2.47,4.02-.64,7.3,4.08,7.3h5.72c4.72,0,10.73-3.2,13.36-7.12l33.98-50.56c2.63-3.91,8.64-7.12,13.36-7.12h3.18c4.72,0,6.62,3.32,4.22,7.39l-29.45,50.02c-2.39,4.06-.49,7.39,4.22,7.39h5.72c4.72,0,10.7-3.22,13.29-7.16l39.48-59.96c2.59-3.94,4.72-8.46,4.72-10.04Z"/><path d="M596.05,382.18l.04-.07c-7.42,8.05-24.42,8.2-28.04,14.39-2.09,3.56.08,8.24,3.7,9.92,2.8,1.3,5.79.83,8.39-.55-7.49,9.96-16.75,20.63-25.81,26.77-6.76,4.58-12.2,4.09-18.37,2.4-9.89-6.64-16.19-16.62-16.19-27.79,0-10.27,5.32-19.53,13.86-26.12-10.68-4.94-18.64-13.35-21.64-23.35-2.99,10.01-10.96,18.41-21.64,23.35,8.54,6.59,13.86,15.86,13.86,26.12,0,11.17-6.29,21.15-16.19,27.79-6.17,1.69-11.61,2.18-18.37-2.4-9.06-6.14-18.31-16.81-25.8-26.77,2.6,1.38,5.59,1.85,8.39.55,3.62-1.68,5.78-6.36,3.7-9.92-3.62-6.18-20.62-6.34-28.04-14.39l39.43,109.29s18.54-14.57,44.65-14.57,44.65,14.57,44.65,14.57l39.43-109.29s-.01.03-.04.07Z"/><path d="M480.91,487.47c-4.94,0-8.95,4.01-8.95,8.95s4.01,8.95,8.95,8.95,8.95-4.01,8.95-8.95-4.01-8.95-8.95-8.95Z"/><path d="M543.09,487.47c-4.94,0-8.95,4.01-8.95,8.95s4.01,8.95,8.95,8.95,8.95-4.01,8.95-8.95-4.01-8.95-8.95-8.95Z"/><path d="M512,482.29c-6.37,0-11.54,5.17-11.54,11.54s5.17,11.54,11.54,11.54,11.54-5.17,11.54-11.54-5.17-11.54-11.54-11.54Z"/></g></g></g></svg>