<?xml version="1.0" encoding="UTF-8"?><svg xmlns="http://www.w3.org/2000/svg" viewBox="0 0 1024 1024"><title>princepink logo</title><desc>Copyright &#xa9; 2026 Pearlpuppy. All rights reserved.</desc><metadata><rdf:RDF xmlns:rdf="http://www.w3.org" xmlns:dc="http://purl.org"><rdf:Description rdf:about=""><dc:title>princepink logo</dc:title><dc:creator>Pierre Pearlpuppy</dc:creator><dc:rights>Copyright &#xa9; 2026 Pearlpuppy. All rights reserved.</dc:rights><dc:date>2026-03-20</dc:date><dc:format>image/svg+xml</dc:format></rdf:Description></rdf:RDF></metadata><g isolation="isolate"><g id="logo-princepink"><g data-fc="#ff69b4"><path d="M589.9,282.82c-12.76-10.71-31.19-9.81-47.33,8.68-1.34-19.75-11.61-30.98-24.9-33.43v-15.87h14.18v-11.08h-14.18v-10.19h-11.34v10.19h-14.19v11.08h14.19v15.87c-13.29,2.44-23.57,13.66-24.91,33.42-16.14-18.49-34.56-19.38-47.32-8.67-12.99,10.9-15.21,29.67,1.15,49.18,11.23,13.39,28.31,23.61,42.11,25.16-8.16,7.94-14.8,18.58-19.13,30.99,12.83-15.9,32.15-26.02,53.77-26.02s40.95,10.12,53.79,26.02c-4.33-12.41-10.96-23.04-19.14-30.98,13.81-1.56,30.88-11.76,42.12-25.17,16.35-19.5,14.13-38.27,1.14-49.17ZM570.92,335.79c-7.58,8.62-18.64,15.42-28.41,17.7-8.92-7.24-19.34-11.44-30.52-11.44s-21.58,4.2-30.5,11.44c-9.78-2.29-20.84-9.09-28.44-17.71-12.56-14.24-10.86-27.94-.88-35.92,9.8-7.82,23.94-7.17,36.34,6.34,1.17-16.43,11.23-24.78,23.48-24.78s22.3,8.36,23.48,24.8c12.41-13.52,26.54-14.17,36.34-6.34,9.99,7.97,11.7,21.68-.89,35.92Z" fill="currentcolor"/><path d="M304.07,400.77l-1.69-1.69c-4.32-8.03-5.2-14.61-1.96-14.61s6.79,1.39,7.86,3.09c1.08,1.71-.81,7.65-4.22,13.22h0Z" fill="currentcolor"/><path d="M300.13,405.82c-.61.93-4.79-2.23-9.27-7.02-4.48-4.79-7.26-10.86-6.17-13.49,1.07-2.63,4.61-5.66,7.86-6.75,3.24-1.08,5.01-.2,3.93,1.96-1.08,2.17-1.08,5.97,0,8.44,1.08,2.47,2.6,6.9,3.38,9.83.77,2.93.89,6.1.27,7.02Z" fill="currentcolor"/><path d="M313.06,405.54c-1.23.47-3.13-.16-4.22-1.4-1.08-1.24-1.2-4.78-.27-7.87.93-3.09,1.81-6.38,1.97-7.31.16-.93,1.92-.93,3.93,0,2.01.93,3.53,3.33,3.38,5.35-.16,2-.79,5.17-1.4,7.02-.62,1.85-2.15,3.76-3.38,4.22Z" fill="currentcolor"/><path d="M316.99,384.46c0,.62-1.89.62-4.21,0-2.32-.62-6.11-1.5-8.44-1.97-2.31-.45-3.58-2.23-2.81-3.93.78-1.7,2.92-2.96,4.78-2.81,1.87.16,5.02,1.92,7.03,3.93,2.01,2.02,3.65,4.16,3.65,4.78Z" fill="currentcolor"/><path d="M336.1,410.6c-2.47-2.01-5.13-7.7-5.9-12.65-.77-4.95-3.42-12.03-5.9-15.73-2.47-3.71-7.28-7.25-10.68-7.86-3.4-.62-8.2-1-10.67-.85-2.47.15-3.99-1.62-3.38-3.94.62-2.31,3.4-5.85,6.19-7.87,2.78-2,9.35-3.4,14.61-3.09,5.27.31,12.98,2.21,17.16,4.22,4.17,2.01,8.97,5.81,10.68,8.43,1.69,2.63,3.21,7.81,3.37,11.52.16,3.72-1.36,10.79-3.37,15.74-2.02,4.95-4.55,10.51-5.63,12.36-1.07,1.85-3.99,1.73-6.46-.28Z" fill="currentcolor"/><path d="M275.41,374.91c1.23-1.24-4.34-4.41-12.37-7.03-8.03-2.63-16.13-2.88-17.98-.55-1.85,2.31-3,6.48-2.53,9.26.45,2.79,1.34,7.59,1.97,10.68.61,3.09.61,8.28,0,11.53-.63,3.24-.37,7.04.56,8.43.93,1.39,4.22-.89,7.3-5.06,3.09-4.17,9.03-11.51,13.2-16.3,4.18-4.8,8.61-9.72,9.85-10.96Z" fill="currentcolor"/><path d="M279.34,401.32c1.55-2.47,5.72-1.83,9.27,1.41,3.56,3.24,8.75,6.28,11.52,6.75,2.8.46,7.47.46,10.41,0,2.92-.47,2.92,6.99,0,16.58-2.94,9.58-7.61,16.28-10.41,14.89-2.77-1.39-7.58-4.42-10.67-6.74-3.09-2.32-6.9-6.24-8.44-8.71-1.54-2.48-3.19-7.92-3.64-12.09-.47-4.18.41-9.61,1.96-12.09Z" fill="currentcolor"/><path d="M323.47,412.85c-2.02-3.55-6.19,1.37-9.28,10.96-3.09,9.58-1.19,15.65,4.22,13.49,5.4-2.17,10.47-5.58,11.24-7.59.77-2.02.52-5.17-.56-7.02-1.07-1.86-3.6-6.28-5.61-9.84Z" fill="currentcolor"/><path d="M238.8,473.27c4.17,2.47,4.42-3.99.56-14.33-3.87-10.35-8.68-23.63-10.67-29.51-2.01-5.87-5.18-12.58-7.03-14.9-1.85-2.32-6.28-4.97-9.85-5.9-3.54-.93-9.83-.17-13.97,1.69-4.13,1.85-6.65,5.39-5.61,7.86,1.03,2.48,3.78,6.02,6.1,7.88,2.31,1.85,5.6,5.64,7.3,8.43,1.7,2.78,1.2,5.69-1.12,6.46-2.31.78-5.1,4.44-6.18,8.15-1.09,3.71-.07,9.79,2.25,13.49,2.31,3.71,6.24,7.25,8.71,7.86,2.47.62,8.42.49,13.21-.28,4.79-.77,12.12.62,16.3,3.1Z" fill="currentcolor"/><path d="M293.39,473.83c5.18,1.37,13.26,3.79,19.13,5.72-.2-1.93-.16-3.8.27-5.43,1.26-4.9,3.97-12.09,6.31-16.85.84-8.86-3.59-14.89-10.66-13.75-7.79,1.25-16.76,1.5-19.95.56-3.18-.94-8.31-3.49-11.4-5.65-3.09-2.17-6.39-7.99-7.32-12.93-.91-4.95-.91-15.07,0-22.48.93-7.43-3.74-7.3-10.4.28-6.65,7.57-12.97,19.46-14.04,26.41-1.08,6.96.05,18.59,2.52,25.85,2.48,7.27,6.4,13.59,8.72,14.06,1.64.33,4.36,1.84,6.9,3.74,6.57-1.01,13.28-1.9,15.3-2.05,2.17-.16,8.74.98,14.61,2.52Z" fill="currentcolor"/><path d="M369.1,485.35c-2.17-4.18-6.6-9.36-9.83-11.53-3.25-2.17-3.01-5.58.56-7.59,3.54-2,5.96-7.07,5.33-11.24-.62-4.17-4.29-9.1-8.15-10.96-3.86-1.86-10.82-1.73-15.46.28-4.64,2-10.46,7.44-12.93,12.08-.23.43-.47.92-.71,1.42-.08.91-.21,1.83-.41,2.8-1.37,6.55-3.4,13.96-5.32,19.78.47.15.95.31,1.38.45,5.87,2.02,13.21,7.19,16.3,11.53,2.55,3.57,3.66,9.09,2.92,13.43,3.15,1.17,7.24,1.8,10.56,1.47,4.63-.47,10.96-3.88,14.04-7.59,3.1-3.71,3.86-10.15,1.7-14.33Z" fill="currentcolor"/><path d="M327.04,497.76c-3.09-4.34-10.42-9.52-16.3-11.53-.43-.14-.91-.31-1.37-.46-.2.58-.8.35-.86-.28-5.87-1.94-13.94-4.36-19.13-5.72-5.87-1.54-12.45-2.69-14.61-2.53-2.02.15-8.74,1.05-15.29,2.05-.43.07-.86.14-1.29.2-6.97,1.08-15.43,3.49-18.84,5.35-3.4,1.85-6.57,7.67-7.03,12.93-.47,5.25,2.45,11.82,6.46,14.61,4.02,2.77,11.61,4.17,16.87,3.09,5.26-1.08,11.95-2.72,14.89-3.65,2.94-.93,8.38-.18,12.09,1.68,3.71,1.86,10.54,6.29,15.17,9.84,4.64,3.56,12.86,4.7,18.27,2.53,5.41-2.16,11.35-7.59,13.21-12.08.32-.78.53-1.66.69-2.59.72-4.35-.38-9.86-2.94-13.43Z" fill="currentcolor"/><path d="M719.93,400.77l1.69-1.69c4.32-8.03,5.21-14.61,1.96-14.61s-6.79,1.39-7.88,3.09c-1.08,1.71.81,7.65,4.22,13.22h0Z" fill="currentcolor"/><path d="M723.85,405.82c.62.93,4.79-2.23,9.29-7.02,4.48-4.79,7.25-10.86,6.19-13.49-1.1-2.63-4.63-5.66-7.86-6.75-3.25-1.08-5.04-.2-3.95,1.96,1.08,2.17,1.08,5.97,0,8.44-1.08,2.47-2.59,6.9-3.36,9.83-.79,2.93-.91,6.1-.3,7.02Z" fill="currentcolor"/><path d="M710.94,405.54c1.23.47,3.13-.16,4.22-1.4,1.07-1.24,1.19-4.78.27-7.87-.92-3.09-1.81-6.38-1.98-7.31-.14-.93-1.92-.93-3.93,0-2.02.93-3.52,3.33-3.37,5.35.15,2,.77,5.17,1.39,7.02.62,1.85,2.14,3.76,3.38,4.22Z" fill="currentcolor"/><path d="M707,384.46c0,.62,1.91.62,4.21,0,2.33-.62,6.12-1.5,8.43-1.97,2.31-.45,3.59-2.23,2.8-3.93-.76-1.7-2.91-2.96-4.76-2.81-1.85.16-5.01,1.92-7.01,3.93-2.03,2.02-3.67,4.16-3.67,4.78Z" fill="currentcolor"/><path d="M687.89,410.6c2.48-2.01,5.13-7.7,5.9-12.65.77-4.95,3.43-12.03,5.9-15.73,2.48-3.71,7.28-7.25,10.68-7.86,3.41-.62,8.2-1,10.67-.85,2.49.15,4.01-1.62,3.38-3.94-.62-2.31-3.4-5.85-6.19-7.87-2.77-2-9.35-3.4-14.61-3.09-5.25.31-12.97,2.21-17.14,4.22-4.18,2.01-8.99,5.81-10.69,8.43-1.69,2.63-3.22,7.81-3.37,11.52-.15,3.72,1.37,10.79,3.37,15.74,2.02,4.95,4.55,10.51,5.63,12.36,1.08,1.85,3.98,1.73,6.46-.28Z" fill="currentcolor"/><path d="M748.6,374.91c-1.24-1.24,4.33-4.41,12.37-7.03,8.04-2.63,16.12-2.88,17.98-.55,1.85,2.31,3.01,6.48,2.54,9.26-.47,2.79-1.37,7.59-1.98,10.68-.62,3.09-.62,8.28,0,11.53.61,3.24.35,7.04-.57,8.43-.92,1.39-4.22-.89-7.31-5.06-3.09-4.17-9.02-11.51-13.21-16.3-4.17-4.8-8.6-9.72-9.83-10.96Z" fill="currentcolor"/><path d="M744.67,401.32c-1.56-2.47-5.73-1.83-9.29,1.41-3.56,3.24-8.74,6.28-11.53,6.75-2.76.46-7.44.46-10.4,0-2.92-.47-2.92,6.99,0,16.58,2.95,9.58,7.63,16.28,10.4,14.89,2.79-1.39,7.61-4.42,10.69-6.74,3.09-2.32,6.87-6.24,8.42-8.71,1.54-2.48,3.19-7.92,3.65-12.09.46-4.18-.42-9.61-1.95-12.09Z" fill="currentcolor"/><path d="M700.54,412.85c2-3.55,6.17,1.37,9.26,10.96,3.1,9.58,1.2,15.65-4.2,13.49-5.42-2.17-10.48-5.58-11.26-7.59-.76-2.02-.51-5.17.57-7.02,1.08-1.86,3.61-6.28,5.63-9.84Z" fill="currentcolor"/><path d="M785.2,473.27c-4.17,2.47-4.44-3.99-.56-14.33,3.86-10.35,8.66-23.63,10.68-29.51,2-5.87,5.16-12.58,7.01-14.9,1.87-2.32,6.29-4.97,9.84-5.9,3.56-.93,9.84-.17,13.98,1.69,4.12,1.85,6.66,5.39,5.6,7.86-1.03,2.48-3.78,6.02-6.09,7.88-2.33,1.85-5.6,5.64-7.32,8.43-1.69,2.78-1.18,5.69,1.14,6.46,2.31.78,5.1,4.44,6.19,8.15,1.08,3.71.07,9.79-2.26,13.49-2.31,3.71-6.24,7.25-8.7,7.86-2.46.62-8.42.49-13.21-.28-4.79-.77-12.13.62-16.3,3.1Z" fill="currentcolor"/><path d="M730.61,473.83c-5.18,1.37-13.25,3.79-19.13,5.72.2-1.93.16-3.8-.27-5.43-1.25-4.9-3.97-12.09-6.31-16.85-.85-8.86,3.57-14.89,10.64-13.75,7.8,1.25,16.78,1.5,19.97.56,3.18-.94,8.31-3.49,11.41-5.65,3.09-2.17,6.36-7.99,7.3-12.93.93-4.95.93-15.07,0-22.48-.93-7.43,3.75-7.3,10.4.28,6.65,7.57,12.97,19.46,14.05,26.41,1.08,6.96-.04,18.59-2.52,25.85-2.48,7.27-6.4,13.59-8.72,14.06-1.65.33-4.37,1.84-6.92,3.74-6.55-1.01-13.25-1.9-15.28-2.05-2.18-.16-8.74.98-14.62,2.52Z" fill="currentcolor"/><path d="M654.9,485.35c2.17-4.18,6.59-9.36,9.84-11.53,3.24-2.17,2.99-5.58-.57-7.59-3.56-2-5.94-7.07-5.33-11.24.61-4.17,4.28-9.1,8.14-10.96,3.87-1.86,10.83-1.73,15.46.28,4.64,2,10.46,7.44,12.94,12.08.22.43.46.92.7,1.42.09.91.22,1.83.42,2.8,1.37,6.55,3.4,13.96,5.32,19.78-.47.15-.95.31-1.38.45-5.87,2.02-13.21,7.19-16.3,11.53-2.54,3.57-3.65,9.09-2.95,13.43-3.14,1.17-7.23,1.8-10.54,1.47-4.64-.47-10.96-3.88-14.06-7.59-3.09-3.71-3.85-10.15-1.68-14.33Z" fill="currentcolor"/><path d="M696.94,497.76c3.11-4.34,10.44-9.52,16.31-11.53.43-.14.91-.31,1.37-.46.22.58.8.35.87-.28,5.87-1.94,13.94-4.36,19.13-5.72,5.86-1.54,12.45-2.69,14.61-2.53,2.03.15,8.74,1.05,15.31,2.05.42.07.85.14,1.29.2,6.96,1.08,15.42,3.49,18.83,5.35,3.4,1.85,6.55,7.67,7.02,12.93.46,5.25-2.46,11.82-6.47,14.61-4.03,2.77-11.61,4.17-16.87,3.09-5.25-1.08-11.95-2.72-14.89-3.65-2.94-.93-8.37-.18-12.07,1.68-3.71,1.86-10.54,6.29-15.19,9.84-4.63,3.56-12.86,4.7-18.27,2.53-5.4-2.16-11.34-7.59-13.21-12.08-.33-.78-.53-1.66-.68-2.59-.73-4.35.38-9.86,2.92-13.43Z" fill="currentcolor"/><path d="M319.51,577.58l-1.14-1.14c-2.92-5.42-3.52-9.86-1.32-9.86s4.58.94,5.31,2.08c.72,1.14-.55,5.16-2.85,8.92h0Z" fill="currentcolor"/><path d="M316.86,580.99c-.42.62-3.24-1.5-6.27-4.74-3.02-3.24-4.89-7.34-4.16-9.11.74-1.78,3.11-3.82,5.31-4.55,2.19-.72,3.38-.13,2.65,1.33-.73,1.46-.73,4.03,0,5.7.73,1.67,1.75,4.65,2.28,6.64.51,1.98.6,4.12.19,4.74Z" fill="currentcolor"/><path d="M325.58,580.8c-.82.31-2.11-.12-2.84-.95-.73-.83-.81-3.22-.19-5.31.63-2.08,1.23-4.3,1.33-4.92.12-.64,1.3-.64,2.65,0,1.37.62,2.39,2.25,2.28,3.6-.1,1.36-.53,3.49-.95,4.74-.41,1.26-1.44,2.54-2.28,2.85Z" fill="currentcolor"/><path d="M328.24,566.58c0,.41-1.27.41-2.85,0-1.56-.41-4.12-1.02-5.68-1.33-1.57-.3-2.42-1.5-1.9-2.65.52-1.14,1.97-2,3.22-1.9,1.24.1,3.39,1.3,4.74,2.66,1.36,1.35,2.47,2.81,2.47,3.22Z" fill="currentcolor"/><path d="M341.14,584.21c-1.67-1.35-3.47-5.2-3.99-8.53-.51-3.34-2.31-8.12-3.98-10.63-1.68-2.5-4.91-4.89-7.21-5.31-2.29-.42-5.54-.67-7.21-.58-1.66.11-2.7-1.09-2.28-2.65.42-1.56,2.3-3.95,4.18-5.31,1.89-1.35,6.31-2.3,9.86-2.08,3.56.2,8.76,1.48,11.57,2.84,2.82,1.35,6.06,3.92,7.22,5.69,1.14,1.77,2.17,5.27,2.27,7.78.11,2.5-.91,7.29-2.27,10.62-1.35,3.34-3.07,7.1-3.8,8.35-.72,1.25-2.69,1.16-4.35-.2Z" fill="currentcolor"/><path d="M300.17,560.13c.82-.83-2.94-2.97-8.35-4.74-5.43-1.77-10.89-1.94-12.15-.38-1.25,1.57-2.02,4.39-1.71,6.27.31,1.88.91,5.12,1.33,7.2.41,2.08.41,5.59,0,7.78-.42,2.2-.25,4.76.37,5.69.63.94,2.84-.59,4.94-3.41,2.08-2.82,6.1-7.77,8.91-11.01,2.82-3.24,5.81-6.56,6.65-7.4Z" fill="currentcolor"/><path d="M275.45,626.52c2.82,1.66,2.99-2.69.39-9.67-2.61-7-5.85-15.96-7.21-19.92-1.37-3.97-3.49-8.49-4.74-10.06-1.26-1.56-4.24-3.36-6.64-3.99-2.4-.62-6.65-.11-9.43,1.14-2.79,1.25-4.5,3.65-3.8,5.31.7,1.67,2.56,4.05,4.12,5.31,1.58,1.25,3.78,3.81,4.94,5.69,1.14,1.88.8,3.84-.77,4.36-1.57.52-3.44,2.99-4.17,5.5-.72,2.5-.04,6.6,1.52,9.1,1.56,2.51,4.21,4.89,5.88,5.31,1.66.43,5.68.33,8.92-.2,3.23-.51,8.18.43,11,2.1Z" fill="currentcolor"/><path d="M704.5,577.58l1.14-1.14c2.92-5.42,3.52-9.86,1.33-9.86s-4.59.94-5.31,2.08c-.73,1.14.54,5.16,2.84,8.92h0Z" fill="currentcolor"/><path d="M707.15,580.99c.41.62,3.22-1.5,6.25-4.74,3.03-3.24,4.91-7.34,4.17-9.11-.73-1.78-3.11-3.82-5.31-4.55-2.19-.72-3.38-.13-2.65,1.33.73,1.46.73,4.03,0,5.7-.73,1.67-1.76,4.65-2.27,6.64-.51,1.98-.62,4.12-.19,4.74Z" fill="currentcolor"/><path d="M698.42,580.8c.84.31,2.11-.12,2.86-.95.72-.83.81-3.22.18-5.31-.62-2.08-1.21-4.3-1.31-4.92-.11-.64-1.3-.64-2.68,0-1.35.62-2.35,2.25-2.25,3.6.08,1.36.51,3.49.92,4.74.43,1.26,1.46,2.54,2.29,2.85Z" fill="currentcolor"/><path d="M682.87,584.21c1.67-1.35,3.47-5.2,3.98-8.53.52-3.34,2.31-8.12,3.98-10.63,1.68-2.5,4.93-4.89,7.23-5.31,2.29-.42,5.52-.67,7.2-.58,1.66.11,2.68-1.09,2.27-2.65-.42-1.56-2.3-3.95-4.17-5.31-1.9-1.35-6.32-2.3-9.87-2.08-3.55.2-8.76,1.48-11.57,2.84-2.81,1.35-6.06,3.92-7.2,5.69-1.16,1.77-2.18,5.27-2.29,7.78-.09,2.5.92,7.29,2.29,10.62,1.34,3.34,3.06,7.1,3.79,8.35.73,1.25,2.68,1.16,4.36-.2Z" fill="currentcolor"/><path d="M723.85,560.13c-.84-.83,2.91-2.97,8.34-4.74,5.42-1.77,10.88-1.94,12.13-.38,1.26,1.57,2.03,4.39,1.72,6.27-.31,1.88-.92,5.12-1.34,7.2-.41,2.08-.41,5.59,0,7.78.42,2.2.26,4.76-.38,5.69-.62.94-2.84-.59-4.93-3.41-2.08-2.82-6.09-7.77-8.91-11.01-2.82-3.24-5.79-6.56-6.63-7.4Z" fill="currentcolor"/><path d="M721.17,577.95c-1.03-1.67-3.84-1.24-6.25.95-2.4,2.2-5.9,4.25-7.77,4.56-1.88.31-5.04.31-7.01,0-1.99-.31-1.99,4.72,0,11.19,1.98,6.47,5.13,10.99,7.01,10.06,1.87-.94,5.12-2.98,7.2-4.55,2.1-1.56,4.66-4.21,5.69-5.88,1.06-1.66,2.17-5.34,2.48-8.16.31-2.82-.28-6.49-1.34-8.16Z" fill="currentcolor"/><path d="M691.42,585.73c1.33-2.4,4.16.93,6.24,7.4,2.08,6.47.8,10.56-2.86,9.11-3.63-1.46-7.05-3.77-7.58-5.13-.51-1.35-.35-3.49.38-4.74.73-1.25,2.44-4.24,3.82-6.65Z" fill="currentcolor"/><path d="M748.54,626.52c-2.82,1.66-2.98-2.69-.38-9.67,2.61-7,5.86-15.96,7.21-19.92,1.34-3.97,3.48-8.49,4.72-10.06,1.27-1.56,4.25-3.36,6.66-3.99,2.38-.62,6.63-.11,9.42,1.14,2.79,1.25,4.49,3.65,3.79,5.31-.68,1.67-2.54,4.05-4.12,5.31-1.57,1.25-3.78,3.81-4.93,5.69-1.16,1.88-.81,3.84.76,4.36,1.57.52,3.44,2.99,4.17,5.5.73,2.5.05,6.6-1.52,9.1-1.57,2.51-4.21,4.89-5.87,5.31-1.68.43-5.68.33-8.92-.2-3.24-.51-8.19.43-11.01,2.1Z" fill="currentcolor"/><path d="M711.7,626.89c-3.49.92-8.93,2.56-12.9,3.86.12-1.31.09-2.57-.19-3.67-.85-3.31-2.68-8.16-4.26-11.37-.57-5.98,2.42-10.05,7.2-9.29,5.25.85,11.3,1.01,13.45.39,2.15-.64,5.62-2.36,7.7-3.82,2.08-1.46,4.32-5.38,4.93-8.72.62-3.34.62-10.17,0-15.18-.61-5,2.53-4.91,7.03.2,4.49,5.11,8.74,13.13,9.49,17.83.72,4.7-.04,12.55-1.72,17.45-1.65,4.9-4.32,9.17-5.87,9.49-1.11.22-2.95,1.24-4.66,2.52-4.44-.68-8.96-1.29-10.33-1.39-1.47-.1-5.9.67-9.87,1.7Z" fill="currentcolor"/><path d="M660.6,634.67c1.45-2.81,4.45-6.31,6.63-7.78,2.21-1.46,2.02-3.76-.37-5.12-2.41-1.35-4.03-4.77-3.61-7.58.42-2.82,2.9-6.15,5.51-7.4,2.6-1.25,7.29-1.16,10.42.19,3.14,1.35,7.07,5.02,8.72,8.15.16.3.33.63.5.95.07.62.13,1.25.28,1.89.92,4.42,2.27,9.43,3.57,13.35-.33.1-.65.21-.92.3-3.98,1.36-8.93,4.85-11.02,7.78-1.7,2.4-2.46,6.13-1.98,9.06-2.11.79-4.87,1.21-7.12.99-3.14-.31-7.39-2.62-9.5-5.12-2.08-2.5-2.6-6.86-1.12-9.68Z" fill="currentcolor"/><path d="M688.97,643.04c2.1-2.91,7.05-6.42,11-7.77.3-.1.62-.22.95-.32.12.39.53.24.57-.19,3.95-1.31,9.42-2.94,12.91-3.86,3.97-1.04,8.41-1.81,9.86-1.7,1.38.1,5.9.71,10.34,1.39.27.03.57.08.85.13,4.7.73,10.42,2.35,12.71,3.61,2.3,1.25,4.44,5.17,4.75,8.72.31,3.55-1.66,7.99-4.37,9.87-2.71,1.87-7.82,2.81-11.38,2.08-3.53-.74-8.05-1.85-10.06-2.47-1.98-.62-5.63-.12-8.15,1.14-2.5,1.24-7.11,4.24-10.23,6.64-3.14,2.4-8.69,3.17-12.35,1.7-3.64-1.46-7.66-5.13-8.91-8.16-.22-.53-.35-1.12-.46-1.75-.49-2.94.24-6.65,1.96-9.07Z" fill="currentcolor"/><path d="M277.59,733.13c11.3,12.06,32.4,34.61,32.4,34.61l-6.55,2.86s-18.27,7.95-32.23,14.03c21.89,4.18,81.69,15.57,96.84,18.45-7.53-13.59-30.31-54.78-32.16-58.11-26.3-5.06-45.84-9.14-58.29-11.84Z" fill="currentcolor"/><path d="M377.84,802.52c6.59-4.91,28.87-21.47,34.82-25.9-28.35-8.52-51.69-21.08-69.11-37.33,14.23,26.22,31.41,57.91,34.29,63.23Z" fill="currentcolor"/><path d="M720.55,770.6l-6.52-2.86s21.09-22.55,32.38-34.61c-12.44,2.69-31.97,6.77-58.29,11.84-1.85,3.33-24.63,44.52-32.16,58.11,15.15-2.88,74.94-14.27,96.84-18.45-13.96-6.08-32.24-14.03-32.24-14.03Z" fill="currentcolor"/><path d="M611.34,776.62c5.93,4.43,28.22,20.99,34.81,25.9,2.9-5.31,20.06-37.01,34.3-63.23-17.43,16.24-40.77,28.8-69.11,37.33Z" fill="currentcolor"/><path d="M508.89,750.11c.03-1.56-1.14-2.4-3.26-2.44-1.04,0-1.62.05-1.98.13l-.09,4.76,1.52.03c2.47.04,3.78-.95,3.8-2.48ZM418.03,734.11c-3.03-1.06-5.75,1.3-7.01,4.93-1.27,3.67-.5,7.13,2.45,8.16h.02c2.98,1.04,5.65-1.16,6.97-4.98,1.2-3.49.6-7.06-2.43-8.11ZM607.93,734.4c-.91.31-1.49.58-1.79.76l1.98,5.75c.41-.04.89-.17,1.51-.39,2.33-.8,3.38-2.48,2.71-4.45-.62-1.78-2.19-2.44-4.41-1.67ZM539.63,747.15h-.08c-.19,1.24-.43,2.82-.65,4.03l-.95,4.44,4.52-.3-1.57-4.27c-.41-1.2-.89-2.73-1.27-3.9ZM505.1,755.92l-1.6-.03-.09,5.8c.45.1,1.01.1,1.8.11,2.11.04,3.99-.76,4.02-2.92.04-2.08-1.81-2.93-4.14-2.96ZM455.18,743.34c-1.11-.19-1.76-.23-2.11-.2l-.92,5.58,1.81.3c2.29.39,3.83-.54,4.13-2.31.3-1.85-.81-3.02-2.91-3.37ZM658.55,675.49c-12.87,24.8-57.49,54.8-146.56,54.8s-133.69-30-146.55-54.8c-6.94,3.36-33.86,16.34-40.25,19.43,21.54,53.79,89.15,84.6,186.8,84.6s165.28-30.81,186.82-84.6c-6.39-3.09-33.3-16.07-40.26-19.43ZM354.35,708.54c-.73.05-2.25-.04-4.53-.28l-3.59-.6c.18-1.39.43-2.78.76-4.18.27-1.37.68-2.83,1.21-4.38.41-1.17,1.01-2.42,1.77-3.75.52-.92,1.14-1.79,1.87-2.63.45-.48.77-.79.98-.94.35-.26.93-.6,1.74-1.01.54-.23,1.18-.34,1.89-.31.77,0,1.37.05,1.76.16.3.1.74.33,1.31.7.33.23.58.48.77.73.44.62.75,1.22.93,1.8.04.6-.01,1.23-.18,1.88-.02.18-.33.84-.93,1.97.91-.26,1.66-.36,2.25-.32.62.11,1.1.23,1.43.38.32.23.6.44.78.62.56.54.81.79.77.73l.51,1.06c.2.48.3.96.33,1.42-.03.63-.05,1.12-.11,1.48-.32.77-.49,1.17-.54,1.2-.2.38-.45.75-.73,1.12-.13.16-.39.39-.81.69-.51.36-1.12.72-1.81,1.06-.96.45-2.1.8-3.47,1.07-1.34.19-2.8.29-4.36.31ZM371.6,729.9l1.98-5.15-4.68-3.63-4.37,3.29-3.8-2.96,17.6-12.39,4.81,3.73-7.58,20.2-3.95-3.08ZM395.29,743.68l3.3-7.15c1.06-2.25,2.34-4.92,3.71-7.61l-.05-.03c-1.81,2.02-3.9,4.24-5.71,6.02l-5.91,6-3.23-1.66,1.68-8.07c.51-2.48,1.25-5.37,2.03-8.02l-.05-.03c-1.36,2.42-2.91,5.19-4.2,7.42l-3.93,6.77-3.84-1.97,10.59-17.7,5.52,2.84-1.37,7.06c-.48,2.4-1.1,4.96-1.8,7.31l.12.06c1.57-1.87,3.43-3.94,5.11-5.69l5.06-5.08,5.43,2.8-8.45,18.81-4.01-2.07ZM425.18,743.7c-2.22,6.41-7.4,8.91-13.08,6.94h-.02c-5.75-2-7.65-7.55-5.72-13.08,2.02-5.83,7.28-8.89,13-6.91,5.96,2.08,7.68,7.67,5.82,13.05ZM433.11,756.78c-5.04-1.22-7.3-4.75-5.77-11.11l2.71-11.16,4.51,1.09-2.78,11.49c-.83,3.47.07,5.55,2.35,6.1,2.38.57,4.09-.77,4.95-4.34l2.78-11.49,4.51,1.09-2.71,11.23c-1.49,6.18-5.32,8.36-10.55,7.09ZM462.73,747.11c-.43,2.56-2.57,4.03-4.41,4.38l-.02.09c1.32.81,1.88,2.27,2.08,4.21.25,2.43.41,5.18.67,6.04l-4.7-.79c-.21-.62-.44-2.36-.6-4.96-.14-2.65-.91-3.46-2.8-3.81l-1.35-.22-1.33,7.99-4.55-.77,3.34-20.01c1.52-.02,3.72.16,6.19.57,3.02.5,5.04,1.31,6.29,2.73,1.08,1.17,1.51,2.69,1.2,4.56ZM488.4,751.19c-.06.64-.18,1.33-.38,2.08-.27,1-.76,2.11-1.43,3.32-.74,1.15-1.62,2.32-2.61,3.51-.43.6-1.48,1.69-3.16,3.27l-2.78,2.35c-.93-1.04-1.83-2.14-2.69-3.31-.87-1.09-1.71-2.36-2.55-3.76-.6-1.08-1.16-2.34-1.68-3.79-.37-.99-.62-2.04-.78-3.13-.07-.64-.11-1.09-.07-1.34.03-.45.16-1.11.36-1.98.17-.56.51-1.1,1-1.64.5-.6.91-1.01,1.25-1.24.28-.16.74-.35,1.4-.55.39-.1.74-.12,1.06-.1.76.06,1.41.22,1.97.46.49.36.93.81,1.32,1.36.12.13.41.8.89,1.99.39-.85.8-1.5,1.21-1.9.49-.41.9-.69,1.23-.86.39-.09.72-.16.98-.2.77-.06,1.12-.1,1.06-.1l1.12.29c.5.17.92.4,1.28.68.47.43.83.77,1.06,1.06.39.74.58,1.14.57,1.2.16.39.28.82.37,1.27.05.2.05.55.01,1.06ZM511.9,763.48c-1.51,1.16-4.04,1.79-8.13,1.73-2.28-.04-3.99-.23-5.03-.39l.35-20.2c1.22-.22,3.67-.4,6.02-.35,2.84.05,4.58.35,6.06,1.26,1.42.79,2.4,2.21,2.38,4.09-.03,1.81-1.14,3.47-3.44,4.32v.05c2.35.65,4.05,2.48,4.01,5.14-.04,1.89-.92,3.34-2.22,4.33ZM517,765.12l-.45-20.58,12.68-.28.08,3.82-8.04.18.1,4.27,7.57-.17.11,3.79-7.58.16.1,4.89,8.45-.19.08,3.81-13.1.29ZM545.34,763.91l-1.92-5.16-5.93.39-1.07,5.37-4.81.32,4.89-20.97,6.08-.41,7.77,20.12-5.01.34ZM560.15,762.75c-5.17.62-8.5-1.89-9.31-8.38l-1.38-11.4,4.6-.57,1.43,11.75c.43,3.54,2,5.16,4.35,4.88,2.42-.29,3.56-2.15,3.11-5.79l-1.42-11.73,4.6-.56,1.41,11.47c.76,6.31-2.06,9.69-7.39,10.35ZM593.01,748.75c-.38,1.31-.87,2.69-1.46,4.12-.24.7-.93,2.06-2.06,4.05l-1.98,3.07c-1.2-.71-2.37-1.5-3.53-2.36-1.15-.81-2.34-1.75-3.56-2.85-.89-.86-1.79-1.89-2.71-3.13-.65-.83-1.19-1.76-1.68-2.75-.27-.6-.41-1.02-.47-1.27-.09-.44-.18-1.1-.23-2,0-.59.16-1.2.49-1.86.3-.72.57-1.23.83-1.55.2-.24.61-.55,1.18-.94.33-.2.68-.33.97-.41.76-.16,1.42-.2,2.03-.14.55.2,1.12.5,1.65.91.15.1.63.66,1.43,1.65.11-.95.32-1.67.61-2.18.34-.54.64-.92.91-1.17.35-.2.65-.37.88-.49.72-.29,1.04-.41.99-.4l1.16-.06c.53.02,1,.11,1.41.28.59.27,1.03.5,1.33.7.58.59.89.91.89.98.27.33.51.7.73,1.11.11.17.22.51.33,1.02.13.62.22,1.32.24,2.09.04,1.03-.1,2.23-.38,3.6ZM616.49,739.67c-1.03,1.9-3.06,3.34-5.66,4.23-.57.2-1.1.36-1.53.41l2.4,6.99-4.36,1.5-6.6-19.21c1.27-.7,3.13-1.52,5.82-2.45,2.71-.93,4.85-1.08,6.52-.47,1.57.54,2.92,1.87,3.57,3.78.68,1.93.62,3.76-.16,5.22ZM633.97,742.38l-3.63-4.16-5.41,2.44.87,5.41-4.39,1.99-2.73-21.35,5.52-2.51,14.33,16.13-4.56,2.06ZM641.42,738.49l-10.25-17.86,4.02-2.31,10.25,17.87-4.02,2.31ZM658.43,727.4l-3.7-1.92c-1.47-.71-2.49-1.28-3.67-1.89l-.04.03c.35,1.2.57,2.38.87,3.93l.84,4-4.3,3.13-1.33-11.93-10.64-4.83,4.33-3.15,3.67,1.97c1.23.66,2.21,1.2,3.28,1.85l.05-.04c-.39-1.35-.61-2.34-.88-3.6l-.81-4.05,4.29-3.13,1.23,11.54,11.15,4.91-4.35,3.17ZM673.53,711.7c-1.38.12-2.88.13-4.53.05-1.23-.09-2.59-.32-4.08-.68-1.03-.24-2.06-.6-3.06-1.07-.57-.3-.96-.52-1.16-.68-.35-.28-.84-.74-1.45-1.39-.36-.46-.65-1.03-.82-1.74-.22-.74-.33-1.33-.33-1.73,0-.32.11-.81.3-1.46.14-.38.31-.69.51-.95.47-.59.95-1.06,1.46-1.39.57-.2,1.19-.33,1.87-.35.18-.02.89.09,2.14.35-.49-.8-.8-1.49-.92-2.06-.05-.63-.08-1.12-.03-1.5.14-.38.27-.68.37-.92.38-.68.54-1,.5-.94l.87-.79c.41-.32.84-.55,1.27-.69.62-.16,1.11-.26,1.46-.3.82.07,1.27.15,1.3.18.43.09.85.22,1.27.4.19.07.49.26.89.58.5.4,1,.88,1.53,1.46.68.78,1.34,1.79,1.98,3.04.55,1.24,1.06,2.61,1.5,4.1.27.7.58,2.17.99,4.43l.42,3.62c-1.38.21-2.79.35-4.25.43ZM378.4,713.54c-.97.79-2.19,1.81-3.17,2.57l-3.66,2.67,3.59,2.8,1.68-4.24c.49-1.17,1.14-2.63,1.64-3.76l-.07-.05ZM622.66,728.72c.27,1.23.6,2.79.81,3.99l.65,4.5,4.14-1.88-2.95-3.46c-.81-.97-1.79-2.25-2.57-3.19l-.08.03Z" fill="currentcolor"/><path d="M595.4,459.18c7.82,7.57,11.37,17.95,11.37,29.12,0,35.49-32.35,66.6-63.29,66.6-9.25,0-18.49-1.19-28.09-1.6,20.62-35.89,50.85-67,80.02-94.12Z" fill="currentcolor"/><path d="M631.94,503.3v61.14c0,107.1-116.17,147.07-117.34,147.46l-2.61.86-2.59-.86c-.76-.26-48.91-16.82-83.29-56.99,30.5-17.14,54.32-46,76.82-81.67,6.4,1.6,15.64,5.18,22.04,5.18h11.02c43.56,0,89.55-24.42,95.94-75.12Z" fill="currentcolor"/><path d="M401.14,613.76c-5.66-14.56-9.08-30.95-9.08-49.32v-136.06l116.77-48.66,3.16-1.32,112.72,46.97c-9.42,4.13-19.13,9.79-25.07,13.46-19.55-10.77-45.16-15.95-67.19-15.95-31.29,0-65.08,5.18-91.39,25.93-14.94,11.57-28.45,27.91-28.45,49.85,0,19.15,14.22,29.91,30.22,29.91,14.58,0,44.09-9.57,44.09-29.52,0-2.79.36-7.57-1.42-9.97-2.49,1.6-5.33,2.4-8.18,2.4-5.69,0-14.22-3.59-14.22-11.17,0-36.7,44.44-44.67,68.99-44.67,12.79,0,39.82,5.18,49.77,13.96-41.24,29.12-78.22,63.82-109.16,106.49-13.16,3.19-28.09,7.58-38.76,17.15l-1.78,3.19c3.2,0,6.4-2.79,9.6-3.59,6.04-2,12.44-2,18.49-2.39-12.28,16.88-37.57,37.89-59.13,43.31Z" fill="currentcolor"/><path d="M631.94,433.94v47.3c-2.25-14.1-9.29-27.23-20.55-34.04,6.42-5.46,13.37-9.53,20.55-13.26Z" fill="currentcolor"/><path d="M631.94,503.3v-22.06c.51,3.25.79,6.55.79,9.83,0,4.24-.3,8.3-.79,12.22Z" fill="currentcolor"/><path d="M631.94,428.38l-7.23-3.01c6.93-3.05,33.84-13.25,38.81-13.25,2.13,0,4.26,1.19,4.26,3.98l-2.49,3.19c-4.44,2.26-28.99,12.38-33.35,14.65v-5.56Z" fill="currentcolor"/><path d="M309.65,600.15c2.08,1.57,5.33,3.61,7.21,4.55.14.07.31.05.47.06,1.16-1.24,2.42-2.44,3.77-3.57,1-1.73,1.98-3.98,2.77-6.55,1.99-6.47,1.99-11.5,0-11.19-1.98.31-5.14.31-7.01,0-1.88-.31-5.38-2.36-7.78-4.56-2.4-2.19-5.22-2.62-6.26-.95-1.04,1.67-1.63,5.35-1.32,8.16.31,2.82,1.41,6.49,2.46,8.16,1.04,1.67,3.59,4.32,5.69,5.88Z" fill="currentcolor"/><path d="M305.95,635.66c0-1.9.1-3.76.28-5.56-2.84-.61-5.44-.98-6.48-.91-1.39.1-5.9.71-10.33,1.39-.28.03-.58.08-.86.13-4.7.73-10.42,2.35-12.72,3.61-2.29,1.25-4.43,5.17-4.74,8.72-.31,3.55,1.66,7.99,4.37,9.87,2.72,1.87,7.84,2.81,11.38,2.08,3.54-.74,8.07-1.85,10.05-2.47,1.99-.62,5.66-.12,8.15,1.14,1.86.93,4.89,2.82,7.6,4.72-4.17-6.05-6.69-13.59-6.69-22.72Z" fill="currentcolor"/><path d="M315.28,607.14c-2.74.11-5.1.01-6.28-.33-2.14-.64-5.6-2.36-7.7-3.82-2.08-1.46-4.3-5.38-4.93-8.72-.62-3.34-.62-10.17,0-15.18.63-5-2.53-4.91-7.02.2-4.48,5.11-8.75,13.13-9.49,17.83-.72,4.7.04,12.55,1.71,17.45,1.66,4.9,4.32,9.17,5.88,9.49,1.12.22,2.94,1.24,4.66,2.52,4.43-.68,8.95-1.29,10.33-1.39.79-.05,2.46.16,4.45.51,1.33-7.1,4.16-13.29,8.38-18.56Z" fill="currentcolor"/><path d="M336.39,592.36c-.73-1.26-2.44-4.23-3.79-6.63-1.35-2.4-4.17.93-6.26,7.4-.6,1.85-.89,3.48-.96,4.87,3.27-2.17,6.94-4.04,11.01-5.64Z" fill="currentcolor"/><path d="M401.14,613.76c-3.4.85-6.71,1.35-9.86,1.35-7.11,0-13.16-3.99-13.16-12.76,0-1.99,1.07-5.98,2.14-7.57-25.24,0-63.65,5.98-63.65,42.67,0,24.72,22.04,34.7,40.9,34.7,26.59,0,48.97-6.2,68.61-17.24-9.99-11.67-18.81-25.32-24.97-41.15ZM325.07,636.67c10.59-19.03,16.24-28.1,23.61-30.08,10.88-2.92,22,9.83,8.02,22.5,17.4,7.09,11.05,17.92,1.39,19.82-9.87,1.95-15.17-17.18-33.01-12.24Z" fill="currentcolor"/></g></g></g></svg>