<?xml version="1.0" encoding="UTF-8"?><svg xmlns="http://www.w3.org/2000/svg" viewBox="0 0 1024 1024"><title>igtbc logo</title><desc>Copyright &#xa9; 2026 Pearlpuppy. All rights reserved.</desc><metadata><rdf:RDF xmlns:rdf="http://www.w3.org" xmlns:dc="http://purl.org"><rdf:Description rdf:about=""><dc:title>igtbc logo</dc:title><dc:creator>Pierre Pearlpuppy</dc:creator><dc:rights>Copyright &#xa9; 2026 Pearlpuppy. All rights reserved.</dc:rights><dc:date>2026-03-20</dc:date><dc:format>image/svg+xml</dc:format></rdf:Description></rdf:RDF></metadata><g isolation="isolate"><g id="logo-igtbc"><g data-fc="#000"><polygon points="512.06 404.83 480.14 421.11 480.06 426.87 468.9 432.88 468.72 440.3 512.06 422.25 555.28 440.25 554.68 426.56 512.06 404.83"/><polygon points="512.06 393.75 554.29 417.64 553.66 405.39 542.67 395.84 541.05 327.41 528.37 308.17 506.54 336.03 506.54 344.06 501.51 349.82 491.98 340.79 481.19 357.6 480.29 411.71 512.06 393.75"/><polygon points="468.5 449.05 468.19 461.73 512.06 448.19 556.24 461.83 555.67 449.07 512.06 433.34 468.5 449.05"/><path d="M584.92,479.83l-27.67,8.15,22.53,39.66-10.3,8.15-15.44-46.74-12.01,3.62,10.08,30.25h-80l10.08-30.08-43.1-13.03,72.92-21.93,72.92,21.93Z"/><path d="M87.44,629.29h1.29l3.45,1.23c-3.26,10.94-11.44,19.48-20.98,24.67l-3.2-3.9c7.75-3.69,14.46-9.77,17.9-17.43h-15.93v-4.58h17.47ZM104.61,636.33c6.03-4.31,12-9.02,15.32-12.44l3.51,3.69c-3.81,3.42-9.72,8-15.93,12.17,4.92,5.13,11.26,8.54,18.27,10.46l-3.14,4.65c-9.35-3.14-17.35-8.88-22.83-17.77v14.69c0,3.21-.92,4.99-3.57,5.47-1.6.27-5.6.27-8.43.2-.25-1.5-.55-3.62-.8-5.06,2.09.14,5.23.14,6.15.07,1.05-.07,1.35-.61,1.35-1.64v-26.72h-18.7v-23.51h16.61c1.05-2.12,1.91-4.3,2.4-5.95l5.84.75c-.74,1.57-1.72,3.42-2.83,5.19h20.55v23.51h-18.58v3.28c1.23,3.35,2.83,6.36,4.8,8.95ZM80.92,610.43h32.18v-5.54h-32.18v5.54ZM80.92,619.79h32.18v-5.74h-32.18v5.74Z"/><path d="M152.63,610.63c.37-4.31.55-8.88.62-13.8h5.48c-.06,4.85-.31,9.5-.68,13.8h20.36c-.12,16.75-1.66,33.56-3.01,37.86-1.54,4.99-4,6.97-9.23,6.97-2.83,0-6.03-.07-8.86-.48v-5.88c2.65.34,5.72.48,8.06.48s3.69-.75,4.68-3.35c1.29-3.35,2.58-17.77,2.58-30h-15.2c-2.34,17.36-8.24,29.94-20.55,39.16l-3.94-4.51c11.32-7.93,16.86-19,19.07-34.65h-18.21v-5.6h18.83ZM172.07,596.28c2.34,3.35,3.94,6.63,5.48,10.46l-3.26,1.78c-1.42-3.83-3.14-7.24-5.35-10.53l3.14-1.71ZM180.56,593.55c2.28,3.42,4,6.63,5.48,10.53l-3.26,1.78c-1.42-3.83-3.2-7.24-5.35-10.53l3.14-1.78Z"/><path d="M239.11,623.07v6.29h-50.08v-6.29h50.08Z"/><path d="M259.45,655.74l-4.12-4.78c12.86-6.63,15.69-14.01,16-27.41h-24.36v-5.47h50.63v5.47h-20.73c-.37,14.69-3.75,24.26-17.41,32.19ZM289.66,601.54v5.47h-35.81v-5.47h35.81ZM291.44,597.58c2.46,2.67,4.43,5.47,6.28,8.68l-2.46,2.12c-1.79-3.21-3.82-6.15-6.15-8.68l2.34-2.12ZM296.55,592.11c2.52,2.6,4.43,5.4,6.34,8.68l-2.46,2.05c-1.79-3.21-3.82-6.08-6.21-8.61l2.34-2.12Z"/><path d="M327.2,614.87l-3.63,4.99c-3.38-3.35-10.77-9.29-15.87-12.3l3.45-4.92c5.29,3.42,12.24,8.75,16.06,12.23ZM350.88,615.01l3.57,4.65c-8.43,15.24-25.72,29.8-42.51,35.33l-2.77-5.88c16.43-4.65,33.53-18.79,41.71-34.1Z"/><path d="M378.27,619.59c4.49,2.8,10.34,7.11,14.4,10.53,3.75-6.22,6.34-13.05,7.57-20.03h-19.75c-4.49,8-10.4,15.92-16.18,20.91l-4.12-3.9c8.61-6.9,17.04-20.37,20.55-30.62l5.23,1.98c-.74,1.98-1.6,4.03-2.65,6.22h19.81l3.81,2.39c-4.3,22.01-15.93,40.66-33.9,48.73l-3.69-5.06c8.18-3.35,14.95-9.02,20.06-15.86-4.12-3.76-10.15-8.2-14.52-10.8l3.38-4.51Z"/><path d="M461.39,605.78c-1.29,24.47-9.78,40.32-28.55,49.28l-3.45-5.19c18.27-8.2,25.04-22.01,25.9-40.87h-32.61v17.09h-5.54v-22.83h40.05l4.18,2.53Z"/><path d="M518.89,623.07v6.29h-50.08v-6.29h50.08Z"/><path d="M569.64,617.13c-8.86,4.31-19.87,8.34-31.32,11.07v7.59c0,6.83,1.79,8.95,7.57,9.43,1.66.14,4.18.21,6.95.21,5.6,0,12.55-.41,17.66-1.3v9.77c-5.29.55-11.69.82-17.29.82-3.51,0-6.65-.14-8.98-.27-9.41-.68-14.83-6.22-14.83-15.17v-40.8h8.92v20.91c9.91-2.67,20.24-6.83,26.89-10.59l4.43,8.34ZM565.77,597.65c2.4,2.46,3.88,4.3,5.72,7.31l-3.57,3.21c-1.85-3.01-3.32-5.06-5.6-7.31l3.45-3.21ZM572.47,593.34c2.4,2.39,3.81,4.31,5.72,7.24l-3.51,3.21c-1.84-2.94-3.26-4.92-5.72-7.25l3.51-3.21Z"/><path d="M599.01,621.91l-4.06,7.93c-4.49-2.73-10.58-5.81-15.62-7.72l4.06-8.07c4.98,1.98,11.93,5.47,15.63,7.86ZM623.49,613.5l5.66,7.24c-8.68,15.1-25.9,29.05-42.27,34.92l-4.55-9.23c16.18-4.44,32.73-17.7,41.16-32.94ZM605.53,606.88l-4.12,7.79c-4.43-2.87-10.21-6.01-15.13-8.13l4.12-7.79c5.17,2.32,11.44,5.74,15.14,8.13ZM618.2,600.31c2.89,2.46,4.61,4.37,6.95,7.59l-3.88,3.9c-2.22-3.14-4.06-5.19-6.83-7.59l3.75-3.9ZM625.1,594.09c2.89,2.46,4.55,4.37,6.89,7.59l-3.82,3.9c-2.22-3.14-4.12-5.13-6.89-7.66l3.81-3.83Z"/><path d="M686.6,639.27l-5.78,7.24c-4.37-3.96-10.03-7.93-15.94-11.35v20.78h-8.92v-18.86c-5.41,3.96-11.08,7.31-16.55,9.64l-4.67-8.34c14.58-4.85,27.31-16.2,33.35-24.13h-29.41v-9.02h17.29v-9.02h8.92v9.02h11.93l5.48,4.85c-4,5.88-8.98,11.69-14.46,16.95,6.34,3.49,13.23,7.79,18.76,12.23Z"/><path d="M740.99,649.93l-7.94,6.01c-4-6.15-9.6-12.99-15.26-18.59-6.4,7.86-13.84,14.08-21.72,18.59l-5.66-7.93c16.18-8,28.42-23.78,32.05-36.84h-27.81v-8.75h33.04l6.09,3.83c-2.65,8.95-6.28,16.88-10.71,23.78,6.4,6.15,12.74,13.26,17.9,19.89Z"/><path d="M767.03,609.47c.31-4.1.43-8.41.43-13.05h8.74c-.06,4.51-.25,8.88-.55,13.05h19.93c-.12,16.88-1.48,34.17-2.95,38.75-1.78,5.33-4.43,7.72-10.52,7.72-2.77,0-6.03-.07-9.04-.41v-9.36c2.64.34,5.66.48,7.51.48s2.64-.62,3.45-2.19c1.42-2.87,2.4-16.27,2.4-26.11h-11.69c-2.34,16.2-7.94,28.71-20.61,37.59l-6.15-7.18c11.07-7.04,15.99-16.88,18.09-30.41h-16.86v-8.88h17.84Z"/><path d="M815.74,599.36v43.33c9.54-3.15,20.73-11.48,28.42-22.55l4.31,9.43c-8.18,10.94-20.98,20.37-35.13,25.83l-6.71-4.51v-51.53h9.11Z"/><path d="M862.3,617.67c2.03,3.62,4.37,9.5,5.54,13.53l-6.77,3.21c-.8-3.49-3.45-10.25-5.41-13.53l6.64-3.21ZM894.72,617.95c-2.27,17.5-12,31.92-25.9,38.07l-4.99-7.59c13.66-5.13,21.04-16.47,22.95-32.26l7.94,1.78ZM874.3,614.8c1.91,3.62,4.12,9.64,5.23,13.74l-6.89,3.21c-.68-3.62-3.14-10.46-4.98-13.94l6.65-3.01Z"/><path d="M923.02,621.91l-4.06,7.93c-4.49-2.73-10.58-5.81-15.62-7.72l4.06-8.07c4.98,1.98,11.93,5.47,15.63,7.86ZM947.51,613.5l5.66,7.24c-8.68,15.1-25.9,29.05-42.27,34.92l-4.55-9.23c16.18-4.44,32.73-17.7,41.16-32.94ZM929.54,606.88l-4.12,7.79c-4.43-2.87-10.21-6.01-15.13-8.13l4.12-7.79c5.17,2.32,11.44,5.74,15.14,8.13ZM942.22,600.31c2.89,2.46,4.61,4.37,6.95,7.59l-3.88,3.9c-2.22-3.14-4.06-5.19-6.83-7.59l3.75-3.9ZM949.11,594.09c2.89,2.46,4.55,4.37,6.89,7.59l-3.82,3.9c-2.22-3.14-4.12-5.13-6.89-7.66l3.81-3.83Z"/><path d="M134.65,706.33h-6.86v-30.63h6.86v30.63Z"/><path d="M140.54,687.03v-3.87h16.47v3.67l-11.69,15.56h12.37v3.95h-18.03v-3.71l11.61-15.59h-10.73Z"/><path d="M170.44,706.85c-5.98,0-7.58-3.79-7.58-7.94v-15.76h4.79v14.6c0,2.91.96,5.11,4.23,5.11,2.23,0,4.47-1.08,5.7-2.47v-17.23h4.83v16.51c0,2.55.2,4.62.68,6.42l-4.51.64c-.36-.96-.6-2.07-.72-2.91-1.75,1.72-4.51,3.03-7.42,3.03Z"/><path d="M201.83,682.72c3.59,0,5.35,1.47,6.18,3.11,1.95-1.84,5.15-3.11,8.06-3.11,5.94,0,7.54,3.75,7.54,7.9v15.71h-4.71v-14.48c0-2.87-1.04-5.18-4.35-5.18-1.8,0-4.23.91-5.62,2.35.24,1,.28,2.27.28,3.75v13.56h-4.63v-14.52c0-2.95-1-5.14-4.35-5.14-1.75,0-4.07,1-5.31,2.47v17.19h-4.79v-18.15c0-1.64-.16-3.39-.56-4.79l4.39-.6c.32.8.68,2.23.76,3.03,1.52-1.67,4.39-3.11,7.1-3.11Z"/><path d="M235.97,679.69h-4.98v-4.39h4.98v4.39ZM235.9,706.33h-4.83v-23.17h4.83v23.17Z"/><path d="M271.98,694.25h-4.79v-5.66h11.13v16.91c-2.23.76-5.5,1.35-8.89,1.35-12.68,0-15.88-7.58-15.88-15.47s3.03-16.23,15.8-16.23c2.35,0,5.02.36,6.7.72l-1.12,6.14c-1.52-.52-3.51-.84-5.43-.84-5.58,0-8.61,3.19-8.61,10.29,0,6.66,2.87,9.49,8.77,9.49.68,0,1.56-.04,2.31-.2v-6.5Z"/><path d="M303.29,706.01l-4.03.72c-.8-1.03-1.28-2.39-1.48-3.79-1.36,2.55-4.15,3.91-7.02,3.91-3.55,0-7.5-1.79-7.5-7.22s2.99-7.26,13.92-7.74v-1.56c0-2.35-.44-3.91-4.15-3.91-2.35,0-4.67.68-6.9,1.84l-1.04-3.99c2.11-1,5.38-1.84,8.5-1.84,6.1,0,8.1,2.55,8.1,7.86v9.01c0,2.95.52,5.43,1.59,6.7ZM287.73,699.51c0,2.83,2.35,3.43,3.95,3.43,2.83,0,5.03-1.99,5.5-4.27v-3.23c-7.26.4-9.45,1-9.45,4.07Z"/><path d="M321.25,682.84l-.24,4.27c-2.71,0-5.82.92-6.94,3.39v15.83h-4.79v-17.27c0-2.15-.16-4.27-.56-5.66l4.39-.6c.32.8.72,2.55.8,3.51,1.2-1.99,4.15-3.47,7.34-3.47Z"/><path d="M333.82,706.89c-6.02,0-9.09-4.39-9.09-11.69,0-6.82,2.51-12.68,9.77-12.68,2.55,0,5.03,1.12,6.42,2.55v-10.41l4.67-.72v24.45c0,2.91.12,5.38.96,7.42l-4.15.8c-.6-.96-.92-2.31-1.04-3.39-1.12,1.52-3.43,3.67-7.5,3.67h-.04ZM341.07,692.89c0-1.28-.04-2.55-.24-3.59-.92-1.28-2.83-2.75-5.46-2.75-4.31,0-5.74,3.63-5.74,8.58,0,4.35,1.44,7.74,5.23,7.74,3.27,0,5.27-2.19,5.98-3.79.16-.76.24-2.03.24-3.15v-3.03Z"/><path d="M363.99,702.94c2.35,0,4.91-.52,6.74-1.32l.88,3.83c-1.48.72-4.51,1.56-8.02,1.56-8.34,0-11.69-5.15-11.69-11.97s3.79-12.69,11.05-12.69c6.42,0,8.97,4.39,8.97,10.45v2.79h-15.24c-.04,4.99,2.75,7.34,7.26,7.34h.04ZM362.43,686.07c-3.39,0-5.38,3.03-5.62,6.1h10.73c-.04-3.75-1.36-6.1-5.07-6.1h-.04Z"/><path d="M382.22,682.8c.32.8.68,2.23.76,3.03,1.52-1.67,4.47-3.11,7.38-3.11,5.98,0,7.58,3.75,7.58,7.9v15.71h-4.79v-14.52c0-2.95-1-5.14-4.23-5.14-2.23,0-4.51,1.08-5.75,2.47v17.19h-4.79v-18.15c0-1.64-.16-3.39-.56-4.79l4.39-.6Z"/><path d="M422.24,706.33v-26.36h-8.69v-4.27h22.34v4.27h-8.74v26.36h-4.91Z"/><path d="M458.75,694.64c0,5.95-2.55,12.52-11.21,12.52s-11.17-6.58-11.17-12.56,2.55-12.29,11.17-12.29,11.21,6.5,11.21,12.29v.04ZM447.59,703.1c3.99,0,6.26-2.75,6.26-8.58s-2.27-8.26-6.3-8.26-6.26,2.59-6.26,8.26,2.23,8.58,6.26,8.58h.04Z"/><path d="M492.97,683.16h5.31l-7.5,23.17h-4.75l-5.9-17.23-5.82,17.23h-4.79l-7.46-23.17h5.3l4.87,17.43,5.43-16.99h4.82l5.75,16.99,4.75-17.43Z"/><path d="M513.63,702.94c2.36,0,4.91-.52,6.74-1.32l.88,3.83c-1.48.72-4.51,1.56-8.02,1.56-8.34,0-11.69-5.15-11.69-11.97s3.79-12.69,11.05-12.69c6.42,0,8.97,4.39,8.97,10.45v2.79h-15.24c-.04,4.99,2.75,7.34,7.26,7.34h.04ZM512.08,686.07c-3.39,0-5.38,3.03-5.62,6.1h10.73c-.04-3.75-1.36-6.1-5.07-6.1h-.04Z"/><path d="M540,682.84l-.24,4.27c-2.71,0-5.82.92-6.94,3.39v15.83h-4.79v-17.27c0-2.15-.16-4.27-.56-5.66l4.39-.6c.32.8.72,2.55.8,3.51,1.2-1.99,4.15-3.47,7.34-3.47Z"/><path d="M577.16,697.44c0,7.1-5.59,8.9-11.29,8.9h-10.13v-30.63h9.69c5.11,0,10.53,1.28,10.53,7.86,0,3.27-1.79,5.42-3.99,6.34,1.79.4,5.19,2.15,5.19,7.5v.04ZM569.46,684.71c0-2.75-1.84-3.55-4.94-3.55h-2.15v6.9h3.95c1.87-.2,3.15-1.36,3.15-3.31v-.04ZM562.36,700.67h3.15c2.75,0,4.71-.72,4.71-3.95,0-2.19-1.32-3.67-5.31-3.67h-2.55v7.62Z"/><path d="M590.62,706.85c-5.98,0-7.58-3.79-7.58-7.94v-15.76h4.79v14.6c0,2.91.96,5.11,4.23,5.11,2.23,0,4.47-1.08,5.7-2.47v-17.23h4.82v16.51c0,2.55.2,4.62.68,6.42l-4.51.64c-.36-.96-.6-2.07-.72-2.91-1.75,1.72-4.51,3.03-7.42,3.03Z"/><path d="M622.68,687.43c-1.36-.64-3.39-1.16-5.11-1.16-1.48,0-3.43.52-3.43,2.67,0,1.56,1.12,2.27,4.03,3.67,3.31,1.55,6.1,3.23,6.1,7.22,0,5.58-4.11,7.14-7.7,7.14-2.39,0-5.95-.6-7.98-1.4l1.08-4.07c1.92.84,4.63,1.44,6.42,1.44s3.43-.6,3.43-2.91c0-1.8-1.64-2.79-4.75-4.23-3.23-1.47-5.34-2.91-5.34-6.62,0-5.46,4.67-6.66,8.14-6.66,2.07,0,4.87.48,6.26,1.04l-1.16,3.87Z"/><path d="M635.15,679.69h-4.99v-4.39h4.99v4.39ZM635.07,706.33h-4.83v-23.17h4.83v23.17Z"/><path d="M646.45,682.8c.32.8.68,2.23.76,3.03,1.52-1.67,4.47-3.11,7.38-3.11,5.98,0,7.58,3.75,7.58,7.9v15.71h-4.79v-14.52c0-2.95-1-5.14-4.23-5.14-2.23,0-4.51,1.08-5.75,2.47v17.19h-4.79v-18.15c0-1.64-.16-3.39-.56-4.79l4.39-.6Z"/><path d="M680.51,702.94c2.36,0,4.91-.52,6.74-1.32l.88,3.83c-1.48.72-4.51,1.56-8.02,1.56-8.34,0-11.69-5.15-11.69-11.97s3.79-12.69,11.05-12.69c6.42,0,8.97,4.39,8.97,10.45v2.79h-15.24c-.04,4.99,2.75,7.34,7.26,7.34h.04ZM678.96,686.07c-3.39,0-5.38,3.03-5.62,6.1h10.73c-.04-3.75-1.36-6.1-5.07-6.1h-.04Z"/><path d="M707.31,687.43c-1.36-.64-3.39-1.16-5.11-1.16-1.48,0-3.43.52-3.43,2.67,0,1.56,1.12,2.27,4.03,3.67,3.31,1.55,6.1,3.23,6.1,7.22,0,5.58-4.11,7.14-7.7,7.14-2.39,0-5.95-.6-7.98-1.4l1.08-4.07c1.92.84,4.63,1.44,6.42,1.44s3.43-.6,3.43-2.91c0-1.8-1.64-2.79-4.75-4.23-3.23-1.47-5.34-2.91-5.34-6.62,0-5.46,4.67-6.66,8.14-6.66,2.07,0,4.87.48,6.26,1.04l-1.16,3.87Z"/><path d="M727.31,687.43c-1.36-.64-3.39-1.16-5.11-1.16-1.48,0-3.43.52-3.43,2.67,0,1.56,1.12,2.27,4.03,3.67,3.31,1.55,6.1,3.23,6.1,7.22,0,5.58-4.11,7.14-7.7,7.14-2.39,0-5.94-.6-7.98-1.4l1.08-4.07c1.92.84,4.63,1.44,6.42,1.44s3.43-.6,3.43-2.91c0-1.8-1.64-2.79-4.75-4.23-3.23-1.47-5.34-2.91-5.34-6.62,0-5.46,4.67-6.66,8.14-6.66,2.07,0,4.87.48,6.26,1.04l-1.16,3.87Z"/><path d="M744.97,691.34c0-8.06,3.03-16.19,15.79-16.19,2.35,0,5.02.36,6.7.72l-1.12,6.14c-1.52-.52-3.51-.84-5.42-.84-5.58,0-8.61,3.19-8.61,10.29,0,6.66,3.51,9.29,8.78,9.29,1.67,0,4.23-.32,5.74-.84l.68,6.26c-1.64.4-4.19.72-6.66.72-12.64,0-15.88-7.62-15.88-15.52v-.04Z"/><path d="M793.67,694.64c0,5.95-2.55,12.52-11.21,12.52s-11.17-6.58-11.17-12.56,2.55-12.29,11.17-12.29,11.21,6.5,11.21,12.29v.04ZM782.5,703.1c3.99,0,6.26-2.75,6.26-8.58s-2.27-8.26-6.3-8.26-6.26,2.59-6.26,8.26,2.23,8.58,6.26,8.58h.04Z"/><path d="M804.93,706.33h-4.83v-31.67l4.83-.72v32.39Z"/><path d="M817.22,706.33h-4.83v-31.67l4.83-.72v32.39Z"/><path d="M835.66,702.94c2.36,0,4.91-.52,6.74-1.32l.88,3.83c-1.48.72-4.51,1.56-8.02,1.56-8.34,0-11.69-5.15-11.69-11.97s3.79-12.69,11.05-12.69c6.42,0,8.97,4.39,8.97,10.45v2.79h-15.24c-.04,4.99,2.75,7.34,7.26,7.34h.04ZM834.11,686.07c-3.39,0-5.38,3.03-5.62,6.1h10.73c-.04-3.75-1.36-6.1-5.07-6.1h-.04Z"/><path d="M858.98,711.92c5.07,0,6.22-3.39,6.22-6.14v-2.51c-1.12,1.71-3.47,3.63-7.14,3.63-6.06,0-9.09-4.39-9.09-11.69,0-6.82,2.47-12.68,9.77-12.68,2.75,0,5.46,1.16,6.82,2.83,0-.6.2-1.64.32-2.19h4.31c-.16.92-.32,3.07-.32,4.39v18.79c0,7.3-5.66,9.49-10.89,9.49-2.95,0-6.1-.64-8.81-1.68l1-4.03c2.11,1,5.22,1.79,7.82,1.79ZM865.28,692.89c0-1.28-.04-2.55-.24-3.59-.92-1.28-2.83-2.75-5.46-2.75-4.31,0-5.7,3.63-5.7,8.58,0,4.35,1.4,7.74,5.19,7.74,3.27,0,5.26-2.19,5.98-3.79.16-.76.24-2.03.24-3.15v-3.03Z"/><path d="M888.27,702.94c2.36,0,4.91-.52,6.74-1.32l.88,3.83c-1.48.72-4.51,1.56-8.02,1.56-8.34,0-11.69-5.15-11.69-11.97s3.79-12.69,11.05-12.69c6.42,0,8.97,4.39,8.97,10.45v2.79h-15.24c-.04,4.99,2.75,7.34,7.26,7.34h.04ZM886.72,686.07c-3.39,0-5.38,3.03-5.62,6.1h10.73c-.04-3.75-1.36-6.1-5.07-6.1h-.04Z"/></g></g></g></svg>