<?xml version="1.0" encoding="UTF-8"?><svg xmlns="http://www.w3.org/2000/svg" viewBox="0 0 1024 1024"><title>enatsu logo</title><desc>Copyright &#xa9; 2026 Pearlpuppy. All rights reserved.</desc><metadata><rdf:RDF xmlns:rdf="http://www.w3.org" xmlns:dc="http://purl.org"><rdf:Description rdf:about=""><dc:title>enatsu logo</dc:title><dc:creator>Pierre Pearlpuppy</dc:creator><dc:rights>Copyright &#xa9; 2026 Pearlpuppy. All rights reserved.</dc:rights><dc:date>2026-03-20</dc:date><dc:format>image/svg+xml</dc:format></rdf:Description></rdf:RDF></metadata><g isolation="isolate"><g id="logo-enatsu"><g data-fc="#009d73"><path d="M360.13,287.74c0-12.39-.77-14.07-6.89-15.75-1.22-.3-3.82-.46-5.19-.46-.61,0-1.23-.3-1.23-.92,0-.92.77-1.22,2.45-1.22,6.87,0,16.51.46,17.28.46s10.39-.46,14.98-.46c1.69,0,2.45.3,2.45,1.22,0,.61-.62.92-1.23.92-1.08,0-1.99.16-3.83.46-4.12.77-5.34,3.37-5.65,8.72-.3,4.89-.3,9.48-.3,15.9v17.13c0,6.88-.16,7.18-1.99,8.26-9.78,5.2-23.54,6.88-32.42,6.88-11.63,0-33.33-1.53-50.3-16.36-9.33-8.11-18.2-24.47-18.2-43.58,0-24.46,11.93-41.74,25.54-50.31,13.76-8.56,28.9-9.63,40.67-9.63,9.63,0,20.49,1.98,23.39,2.6,3.22.76,8.56,1.38,12.39,1.53,1.53.15,1.84.76,1.84,1.38,0,2.14-1.08,6.42-1.08,21.71,0,2.45-.31,3.21-1.38,3.21-.77,0-.92-.92-1.07-2.29-.15-2.14-.92-6.42-3.21-10.09-3.83-5.81-16.21-12.38-35.94-12.38-9.64,0-21.1.92-32.73,10.09-8.87,7.03-15.15,20.95-15.15,38.84,0,21.56,10.86,37.16,16.21,42.36,12.09,11.77,26.01,16.36,40.06,16.36,5.5,0,13.46-.92,17.43-3.22,1.99-1.07,3.07-2.75,3.07-5.35v-25.99Z" fill="currentcolor"/><path d="M436.64,231c1.69-4.28,2.29-5.05,3.21-5.05,1.38,0,1.83,1.84,3.21,4.74,2.44,5.5,24.01,59.18,32.27,78.91,4.9,11.62,8.57,13.3,11.48,14.22,1.98.61,3.97.77,5.34.77.76,0,1.68.3,1.68,1.07s-1.51,1.07-3.05,1.07c-1.98,0-11.93,0-21.25-.3-2.6-.16-4.75-.16-4.75-.92,0-.61.31-.61.92-.92.76-.31,2.14-1.38,1.23-3.52l-12.09-29.82c-.31-.61-.46-.76-1.23-.76h-31.04c-.61,0-1.07.3-1.38,1.07l-7.65,20.8c-1.22,3.21-1.98,6.42-1.98,8.71,0,2.6,2.29,3.52,4.59,3.52h1.23c1.07,0,1.38.46,1.38,1.07,0,.77-.77,1.07-1.98,1.07-3.22,0-10.56-.46-12.09-.46-1.38,0-8.11.46-13.61.46-1.67,0-2.59-.3-2.59-1.07,0-.61.6-1.07,1.22-1.07.92,0,2.9-.16,3.97-.31,6.12-.76,8.73-5.35,11.33-11.93l31.65-81.36ZM451.63,285.14c.62,0,.62-.3.46-.92l-13.3-35.63c-.77-1.99-1.54-1.99-2.29,0l-12.54,35.63c-.15.61,0,.92.46.92h27.22Z" fill="currentcolor"/><path d="M528.05,289.26c0,19.11.31,26.92,2.75,29.21,2.14,2.14,7.34,3.06,17.89,3.06,7.04,0,13-.15,16.21-3.97,1.69-1.99,2.75-4.74,3.21-7.34.16-.92.61-1.68,1.38-1.68.62,0,.92.61.92,1.99s-.92,9.17-1.98,13c-.92,3.06-1.39,3.51-8.56,3.51-9.63,0-17.13-.15-23.39-.46-6.12-.15-10.71-.3-14.69-.3-.61,0-2.9,0-5.5.16-2.75.15-5.66.3-7.8.3-1.38,0-2.14-.3-2.14-1.07,0-.46.31-1.07,1.08-1.07,1.22,0,2.9-.31,4.12-.61,2.6-.61,2.91-3.06,3.52-6.88.77-5.36.77-15.6.77-28.14v-22.94c0-20.18,0-23.86-.3-27.98-.32-4.43-1.08-6.58-5.5-7.18-1.08-.16-3.37-.31-4.6-.31-.46,0-1.07-.61-1.07-1.07,0-.77.61-1.07,2.14-1.07,6.11,0,14.53.3,15.29.3.61,0,10.7-.3,14.84-.3,1.38,0,2.13.3,2.13,1.07,0,.46-.61.92-1.07.92-.92,0-2.9.15-4.44.3-3.97.76-4.73,2.75-5.03,7.34-.16,4.13-.16,7.8-.16,27.98v23.24Z" fill="currentcolor"/><path d="M596.2,266.02c0-20.18,0-23.86-.3-27.98-.32-4.43-1.08-6.58-5.5-7.18-1.08-.16-3.37-.31-4.6-.31-.46,0-1.07-.61-1.07-1.07,0-.77.61-1.07,2.14-1.07,6.11,0,14.83.3,15.59.3.92,0,29.06.15,32.11,0,2.6-.15,5.06-.61,6.12-.76.61-.15,1.22-.61,1.84-.61.46,0,.61.61.61,1.23,0,.92-.76,2.44-1.07,6.12-.16,1.22-.46,7.03-.77,8.56-.15.61-.61,1.38-1.23,1.38-.76,0-1.07-.61-1.07-1.68,0-.92-.15-3.06-.77-4.59-.92-2.14-2.28-3.06-9.62-3.98-2.3-.3-17.9-.46-19.43-.46-.6,0-.76.46-.76,1.38v35.32c0,.92,0,1.38.76,1.38,1.69,0,19.43,0,22.49-.3,3.21-.3,5.2-.46,6.57-1.84.92-.92,1.54-1.68,1.99-1.68s.76.3.76,1.07-.76,2.91-1.07,7.19c-.3,2.6-.61,7.49-.61,8.41,0,1.07-.31,2.45-1.23,2.45-.61,0-.92-.46-.92-1.23,0-1.22,0-2.6-.61-4.28-.46-1.84-1.69-3.36-6.88-3.97-3.67-.46-18.05-.61-20.34-.61-.76,0-.92.46-.92.92v10.86c0,4.44-.16,19.57,0,22.17.31,8.72,2.75,10.4,16.05,10.4,3.52,0,9.94,0,13.46-1.38,3.52-1.53,5.35-3.82,6.11-9.02.31-1.53.61-1.98,1.38-1.98s.92,1.07.92,1.98-1.07,9.79-1.84,12.54c-.92,3.36-2.29,3.36-7.49,3.36-10.09,0-17.9-.3-23.4-.46-5.65-.3-9.17-.3-11.16-.3-.31,0-2.9,0-5.81.16-2.59.15-5.66.3-7.8.3-1.38,0-2.14-.3-2.14-1.07,0-.46.31-1.07,1.08-1.07,1.22,0,2.9-.46,4.12-.61,2.6-.46,2.91-3.06,3.52-6.88.77-5.36.77-15.6.77-28.14v-22.94Z" fill="currentcolor"/><path d="M675.97,266.02c0-20.18,0-23.86-.31-27.98-.31-4.43-1.08-6.58-5.5-7.18-1.08-.16-3.36-.31-4.6-.31-.45,0-1.07-.61-1.07-1.07,0-.77.62-1.07,2.14-1.07,6.11,0,15.14.3,15.9.3,1.38,0,12.69-.3,16.82-.3,8.56,0,18.04.76,25.08,5.66,3.37,2.45,9.32,8.72,9.32,17.74,0,9.63-3.97,18.96-16.51,29.66,11.01,13.76,20.34,25.54,28.14,33.64,7.19,7.34,11.63,8.57,14.99,9.02,2.59.46,3.98.46,4.75.46s1.22.61,1.22,1.07c0,.77-.77,1.07-3.21,1.07h-8.42c-7.64,0-11.01-.76-14.37-2.6-5.81-3.06-10.7-9.33-18.36-19.11-5.65-7.03-11.62-15.45-14.52-18.97-.61-.61-.92-.76-1.84-.76l-17.12-.3c-.61,0-.92.3-.92,1.07v3.06c0,12.54,0,22.63.61,27.98.47,3.82,1.23,6.27,5.35,6.88,1.84.3,4.74.61,5.97.61.92,0,1.07.61,1.07,1.07,0,.61-.62,1.07-2.14,1.07-7.34,0-15.9-.46-16.52-.46-.15,0-9.17.46-13.29.46-1.39,0-2.16-.3-2.16-1.07,0-.46.32-1.07,1.08-1.07,1.23,0,2.91-.31,4.13-.61,2.6-.61,2.9-3.06,3.52-6.88.77-5.36.77-15.6.77-28.14v-22.94ZM687.58,277.03c0,.76.31,1.22.92,1.68,1.99,1.07,8.86,1.99,14.84,1.99,3.21,0,6.88-.15,10.09-2.29,4.59-3.06,8.11-9.94,8.11-19.88,0-16.21-8.87-25.54-23.25-25.54-3.97,0-8.26.46-9.62.77-.62.3-1.08.76-1.08,1.52v41.75Z" fill="currentcolor"/><path d="M797.89,288.96c0,12.54,0,22.78.61,28.14.46,3.82.92,6.27,4.9,6.88,1.98.3,4.88.61,6.11.61.76,0,1.08.61,1.08,1.07,0,.61-.62,1.07-2.15,1.07-7.49,0-16.2-.46-16.81-.46-.77,0-9.17.46-13.31.46-1.37,0-2.13-.3-2.13-1.07,0-.46.3-1.07,1.07-1.07,1.23,0,2.9-.31,4.13-.61,2.6-.61,3.06-3.06,3.52-6.88.61-5.36.76-15.6.76-28.14v-22.94c0-20.18,0-23.86-.3-27.98-.31-4.43-1.38-6.42-4.29-7.04-1.52-.3-3.2-.46-4.12-.46-.62,0-1.08-.61-1.08-1.07,0-.77.61-1.07,2.14-1.07,4.44,0,12.84.3,13.61.3.61,0,9.32-.3,13.45-.3,1.52,0,2.14.3,2.14,1.07,0,.46-.62,1.07-1.07,1.07-.92,0-1.83,0-3.37.31-3.67.76-4.44,2.6-4.74,7.18-.15,4.13-.15,7.8-.15,27.98v22.94Z" fill="currentcolor"/><path d="M840.94,266.02c0-20.18,0-23.86-.3-27.98-.31-4.43-1.07-6.58-5.5-7.18-1.07-.16-3.37-.31-4.59-.31-.47,0-1.07-.61-1.07-1.07,0-.77.6-1.07,2.13-1.07,6.12,0,14.83.3,15.59.3.92,0,29.06.15,32.12,0,2.6-.15,5.05-.61,6.11-.76.62-.15,1.23-.61,1.84-.61.46,0,.62.61.62,1.23,0,.92-.77,2.44-1.08,6.12-.15,1.22-.46,7.03-.76,8.56-.16.61-.62,1.38-1.23,1.38-.77,0-1.07-.61-1.07-1.68,0-.92-.16-3.06-.77-4.59-.92-2.14-2.29-3.06-9.63-3.98-2.29-.3-17.9-.46-19.42-.46-.61,0-.77.46-.77,1.38v35.32c0,.92,0,1.38.77,1.38,1.69,0,19.42,0,22.47-.3,3.22-.3,5.21-.46,6.58-1.84.92-.92,1.52-1.68,1.98-1.68s.77.3.77,1.07-.77,2.91-1.07,7.19c-.31,2.6-.62,7.49-.62,8.41,0,1.07-.3,2.45-1.22,2.45-.62,0-.92-.46-.92-1.23,0-1.22,0-2.6-.62-4.28-.46-1.84-1.68-3.36-6.88-3.97-3.67-.46-18.05-.61-20.34-.61-.76,0-.92.46-.92.92v10.86c0,4.44-.15,19.57,0,22.17.31,8.72,2.75,10.4,16.06,10.4,3.51,0,9.94,0,13.45-1.38,3.52-1.53,5.36-3.82,6.12-9.02.3-1.53.61-1.98,1.38-1.98s.92,1.07.92,1.98-1.08,9.79-1.83,12.54c-.92,3.36-2.29,3.36-7.5,3.36-10.09,0-17.89-.3-23.39-.46-5.66-.3-9.17-.3-11.17-.3-.3,0-2.9,0-5.8.16-2.6.15-5.66.3-7.81.3-1.37,0-2.13-.3-2.13-1.07,0-.46.3-1.07,1.07-1.07,1.23,0,2.9-.46,4.13-.61,2.6-.46,2.91-3.06,3.52-6.88.76-5.36.76-15.6.76-28.14v-22.94Z" fill="currentcolor"/><path d="M147.86,407.27c0-29.89,0-35.39-.41-41.68-.38-6.69-1.96-9.83-8.45-11.21-1.58-.39-4.92-.59-7.67-.59-2.16,0-3.34-.39-3.34-1.77s1.37-1.77,4.32-1.77c5.31,0,11.02.2,15.93.2,5.12.2,9.64.39,12.4.39,6.29,0,45.42,0,49.15-.2,3.73-.39,6.87-.79,8.45-1.18.98-.2,2.16-.79,3.15-.79s1.18.79,1.18,1.77c0,1.38-.98,3.73-1.58,12.78-.19,1.97-.59,10.62-.98,12.98-.19.99-.6,2.16-1.96,2.16s-1.77-.99-1.77-2.75c0-1.38-.19-4.72-1.18-7.08-1.38-3.54-3.34-5.9-13.17-7.08-3.34-.39-23.98-.78-27.92-.78-.99,0-1.38.59-1.38,1.97v49.74c0,1.38.19,2.16,1.38,2.16,4.32,0,26.93,0,31.46-.39,4.71-.39,7.67-.98,9.43-2.95,1.39-1.57,2.18-2.55,3.16-2.55.79,0,1.37.39,1.37,1.57s-.78,4.33-1.57,14.35c-.19,3.93-.78,11.8-.78,13.17,0,1.57,0,3.73-1.77,3.73-1.39,0-1.77-.78-1.77-1.77-.19-1.96-.19-4.52-.79-7.08-.98-3.93-3.73-6.88-11.01-7.66-3.73-.39-23.2-.59-27.93-.59-.98,0-1.17.78-1.17,1.97v15.53c0,6.68-.19,24.77,0,30.47.38,13.57,3.54,16.51,23.6,16.51,5.11,0,13.36,0,18.47-2.36,5.12-2.36,7.47-6.48,8.85-14.55.38-2.16.79-2.95,2.16-2.95,1.58,0,1.58,1.57,1.58,3.54,0,4.52-1.58,17.89-2.56,21.82-1.37,5.11-3.14,5.11-10.61,5.11-14.75,0-25.56-.39-34.02-.59-8.45-.39-14.55-.59-20.44-.59-2.18,0-6.5,0-11.22.2-4.52,0-9.62.39-13.56.39-2.56,0-3.94-.59-3.94-1.97,0-.98.79-1.57,3.15-1.57,2.95,0,5.31-.4,7.07-.78,3.95-.79,4.93-5.12,5.71-10.82.99-8.26.99-23.79.99-41.88v-34.6Z" fill="currentcolor"/><path d="M277.27,476.08c.38,12.98,2.55,16.91,5.89,18.09,2.95.98,6.29,1.18,9.05,1.18,1.96,0,2.95.78,2.95,1.77,0,1.38-1.57,1.77-3.94,1.77-11.2,0-19.26-.59-22.41-.59-1.57,0-9.82.59-18.68.59-2.37,0-3.94-.2-3.94-1.77,0-.99,1.18-1.77,2.76-1.77,2.35,0,5.5-.2,7.85-.78,4.52-1.18,5.12-5.71,5.31-20.25l1.58-99.09c0-3.34,1.17-5.7,2.94-5.7,2.17,0,4.52,2.55,7.47,5.5,2.18,2.16,28.12,28.7,53.29,53.28,11.8,11.6,34.8,35.2,37.36,37.55h.79l-1.77-74.31c-.2-10.22-1.77-13.17-5.91-14.75-2.55-.98-6.68-.98-9.03-.98-2.17,0-2.76-.79-2.76-1.77,0-1.38,1.77-1.57,4.33-1.57,9.05,0,18.28.39,22.02.39,1.97,0,8.46-.39,16.92-.39,2.36,0,3.92.2,3.92,1.57,0,.98-.98,1.77-2.94,1.77-1.77,0-3.15,0-5.31.59-4.72,1.38-6.09,4.33-6.29,13.77l-1.96,105.38c0,3.73-1.38,5.31-2.75,5.31-2.94,0-5.31-1.77-7.08-3.54-10.8-10.03-32.44-30.67-50.52-48.17-18.88-18.09-37.16-38.34-40.51-41.29h-.59l1.97,68.22Z" fill="currentcolor"/><path d="M440.66,456.82c-.98,0-1.18.19-1.58,1.18l-9.24,22.41c-1.77,4.13-2.56,8.26-2.56,10.22,0,2.95,1.58,4.72,6.89,4.72h2.55c2.17,0,2.55.78,2.55,1.77,0,1.38-.98,1.77-2.75,1.77-5.7,0-13.76-.59-19.26-.59-1.77,0-11.01.59-20.05.59-2.16,0-3.15-.39-3.15-1.77,0-.99.59-1.77,1.97-1.77,1.57,0,3.54-.2,5.11-.2,7.86-1.18,10.81-6.29,14.35-14.75l45.23-105.18c1.96-4.72,3.34-6.68,5.11-6.68,2.55,0,3.34,1.57,5.11,5.31,4.14,9.24,33.03,77.66,44.04,103.02,6.69,15.14,11.59,17.3,14.75,17.89,2.55.39,4.52.59,6.48.59,1.57,0,2.36.59,2.36,1.77,0,1.38-.99,1.77-7.48,1.77-6.09,0-18.67,0-33.22-.39-3.16-.2-5.12-.2-5.12-1.38,0-.99.39-1.57,2.17-1.77,1.18-.2,2.36-1.77,1.57-3.73l-13.36-33.62c-.4-.99-.98-1.18-1.77-1.18h-40.69ZM477.62,447.58c.78,0,.98-.4.78-.98l-16.31-42.47c-.2-.59-.39-1.57-.79-1.57-.59,0-.78.98-.98,1.57l-16.71,42.27c-.39.78,0,1.18.6,1.18h33.42Z" fill="currentcolor"/><path d="M576.06,382.7l-25.76.59c-10.03.2-14.15,1.38-16.71,5.12-1.77,2.36-2.55,4.52-2.94,5.7-.4,1.38-.79,2.16-1.96,2.16s-1.58-.98-1.58-2.75c0-2.75,3.35-18.88,3.73-20.25.4-2.16.98-3.15,1.96-3.15,1.39,0,3.16,1.38,7.48,1.97,5.11.59,11.59.79,17.3.79h70.2c5.5,0,9.24-.39,11.8-.79,2.75-.39,4.12-.78,4.72-.78,1.17,0,1.38.98,1.38,3.54,0,3.54-.39,15.93-.39,20.25-.19,1.77-.6,2.75-1.58,2.75-1.37,0-1.77-.78-1.96-3.34l-.19-1.77c-.39-4.33-4.92-9.44-20.46-9.63l-21.81-.4v67.63c0,15.34.19,28.51.98,35.78.59,4.72,1.57,7.87,6.69,8.65,2.36.39,6.29.59,8.84.59,1.97,0,2.75.98,2.75,1.77,0,1.18-1.38,1.77-3.34,1.77-11.41,0-23.01-.59-27.92-.59-3.93,0-15.72.59-22.61.59-2.15,0-3.33-.59-3.33-1.77,0-.79.58-1.77,2.75-1.77,2.55,0,4.72-.2,6.09-.59,3.53-.78,4.52-3.93,5.11-8.84.79-7.08.79-20.25.79-35.59v-67.63Z" fill="currentcolor"/><path d="M665.49,496.73c-2.75-1.18-3.34-1.97-3.34-5.7,0-9.05.79-19.47.99-22.22,0-2.55.78-4.33,2.16-4.33,1.58,0,1.77,1.57,1.77,2.75,0,2.16.59,5.7,1.58,8.65,3.73,12.39,16.7,16.52,27.52,16.52,14.93,0,23.98-9.43,23.98-21.23,0-7.27-1.77-14.55-17.1-23.59l-10.03-5.9c-20.45-11.99-27.13-23.2-27.13-37.95,0-20.45,19.65-33.62,43.65-33.62,11.2,0,20.05,1.57,24.58,2.76,1.57.39,2.35.98,2.35,2.16,0,2.16-.59,6.88-.59,20.05,0,3.54-.78,5.31-2.16,5.31-1.17,0-1.77-.99-1.77-2.95,0-1.57-.78-6.69-4.52-11.01-2.55-3.15-8.05-7.86-19.26-7.86-12.38,0-23.59,6.48-23.59,17.89,0,7.47,2.75,13.37,18.28,22.02l7.08,3.93c22.81,12.59,29.89,25.36,29.89,40.5,0,12.39-4.72,22.42-17.3,31.26-8.26,5.9-19.67,6.88-28.91,6.88-10.03,0-20.64-.98-28.12-4.33Z" fill="currentcolor"/><path d="M772.93,420.84c0-25.36.19-30.08-.19-35.39-.41-5.9-1.97-7.47-7.48-9.05-1.38-.39-4.32-.59-6.69-.59-1.96,0-2.94-.59-2.94-1.77s1.17-1.57,3.73-1.57c9.24,0,20.84.39,25.95.39,4.32,0,15.93-.39,22.22-.39,2.56,0,3.73.39,3.73,1.57s-.98,1.77-2.75,1.77c-1.96,0-2.94.19-5.11.59-4.52.79-5.9,3.15-6.29,9.05-.4,5.31-.4,10.03-.4,35.39v23.4c0,24.38,4.72,33.82,13.17,40.5,7.67,6.1,15.93,6.69,21.82,6.69,7.48,0,16.32-2.16,23.2-8.85,9.63-9.05,10.03-23.6,10.03-40.7v-21.04c0-25.36-.19-30.08-.39-35.39-.39-5.7-1.77-7.47-7.27-9.05-1.38-.39-4.32-.59-6.29-.59s-2.94-.59-2.94-1.77,1.17-1.57,3.54-1.57c8.84,0,20.45.39,20.64.39,1.96,0,13.57-.39,20.26-.39,2.36,0,3.53.39,3.53,1.57s-.98,1.77-2.94,1.77-2.96.19-5.11.59c-4.73.79-5.9,3.15-6.29,9.05-.2,5.31-.39,10.03-.39,35.39v17.89c0,18.68-1.96,38.34-16.51,50.33-12.19,10.22-25.37,12-36.58,12-9.03,0-26.93-.4-39.52-11.4-8.84-7.67-15.72-20.05-15.72-44.23v-24.58Z" fill="currentcolor"/><path d="M831.93,670.6h-35.68c-3.97,0-7.55,0-10.95-.15-3.41,0-6.6-.15-10.01-.3-2.09.6-2.27,2.56-1.14,3.78l3.78.61c10.01,1.65,9.63,3.63,4.16,17.81l-19.43,49.83c-15.16-2.3-27.96-10.78-27.96-30.74,0-17.23,10.97-37.46,24.56-47.58,12.47-9.37,27.21-16.17,49.49-16.17,18.3,0,24.35,6.2,20.95,20.1.57,1.21,3.96,1.34,4.71.15,1.88-5.89,5.66-14.66,8.89-20.09-4.36-1.51-16.25-4.84-32.3-4.84-26.24,0-47.57,6.2-65.72,18.89-19.45,13.59-27.18,31.72-27.18,46.38,0,21.9,15.69,35.89,42.68,38.73l-.6,1.55c-6.05,15.4-7.92,17.38-16.99,17.98l-6.6.45c-1.34.91-1.34,3.02.18,3.78,8.3-.31,14.73-.46,22.47-.46h22.27c7.19,0,14.92.15,22.28.15,7.55.15,14.74.15,20.95.31,4.93-4.08,11.35-15.56,13.03-19.95-.76-1.35-2.82-1.65-4.34-.9-11.88,14.79-19.45,15.71-40.21,15.71-16.05,0-19.64-1.07-20.95-3.18-1.78-2.83-.25-7.5,2.59-15.02,10.1-.59,24.52-3.46,36.13-6.69.76-.61.94-1.5.76-2.11-1.88-.91-2.26-2.56-1.51-4.53l5.1-13.03c12.43.05,16.72.66,16.72,8v4.23c.75,1.2,3.58,1.35,4.73.15.94-3.32,2.63-8.92,4.9-14.67,2.07-5.58,5.11-12.08,6.42-14.64-.36-1.22-3.96-1.37-4.73-.31l-3.01,4.53c-4.09,6.1-7.67,7.27-22.94,7.39,3.62-8.83,4.88-9.48,11.32-10.97l3.21-.76c1.7-.76,1.52-3.18.2-3.78-4.54.3-13.41.45-21.54.45-6.2,0-11.5-.1-17.47-.28l7.83-20.01c1.69-4.53,2.44-5.14,7.34-5.14h11.16c9.81,0,15.67.46,20.01,1.35,8.3,1.82,7.76,5.6,6.61,13.45.56,1.22,3.96,1.37,4.73.16,1.88-5.44,6.42-17.54,7.73-20.1-5.66.45-14.55.45-26.62.45ZM776.63,742.78l6.58-17.34c1.71-4.22,2.08-4.37,7.36-4.37h10.41l-4.17,10.46c-3.48,8.64-9.73,10.85-20.18,11.25ZM794.93,704.8c10.07,1.07,11.04,2.86,8.1,10.98h-10.75c-5.29,0-5.11-.15-3.4-4.38l2.71-6.94,3.35.35Z" fill="currentcolor"/><path d="M679.27,706.65c0,59.74,48.62,108.36,108.37,108.36s108.35-48.62,108.35-108.36-48.6-108.37-108.35-108.37-108.37,48.62-108.37,108.37ZM683.22,706.65c0-57.58,46.84-104.43,104.43-104.43s104.41,46.85,104.41,104.43-46.83,104.42-104.41,104.42-104.43-46.84-104.43-104.42Z" fill="currentcolor"/><path d="M689.13,706.65c0,54.32,44.19,98.52,98.52,98.52s98.51-44.2,98.51-98.52-44.2-98.52-98.51-98.52-98.52,44.2-98.52,98.52ZM697.01,706.65c0-49.97,40.66-90.63,90.64-90.63s90.65,40.66,90.65,90.63-40.68,90.64-90.65,90.64-90.64-40.66-90.64-90.64Z" fill="currentcolor"/></g></g></g></svg>