<?xml version="1.0" encoding="UTF-8"?><svg xmlns="http://www.w3.org/2000/svg" viewBox="0 0 1024 1024"><title>bigdata-stats logo</title><desc>Copyright &#xa9; 2026 Pearlpuppy. All rights reserved.</desc><metadata><rdf:RDF xmlns:rdf="http://www.w3.org" xmlns:dc="http://purl.org"><rdf:Description rdf:about=""><dc:title>bigdata-stats logo</dc:title><dc:creator>Pierre Pearlpuppy</dc:creator><dc:rights>Copyright &#xa9; 2026 Pearlpuppy. All rights reserved.</dc:rights><dc:date>2026-03-20</dc:date><dc:format>image/svg+xml</dc:format></rdf:Description></rdf:RDF></metadata><g isolation="isolate"><g id="logo-bigdata-stats"><g id="bigdata-stats"><g data-fc="#0995ce"><path d="M493.06,290.32c-89.12,0-161.63,72.51-161.63,161.63s72.51,161.63,161.63,161.63,161.63-72.51,161.63-161.63-72.51-161.63-161.63-161.63ZM493.06,593.38c-77.98,0-141.43-63.44-141.43-141.43s63.44-141.43,141.43-141.43,141.43,63.44,141.43,141.43-63.44,141.43-141.43,141.43Z" fill="currentcolor"/><path d="M493.06,252.44c-5.58,0-10.1,4.52-10.1,10.1s4.52,10.1,10.1,10.1c98.87,0,179.31,80.44,179.31,179.31,0,5.58,4.52,10.1,10.1,10.1s10.1-4.52,10.1-10.1c0-110.01-89.5-199.51-199.51-199.51Z" fill="currentcolor"/><path d="M541.24,376.59c-.78,6.28-1.95,13.73-3.51,22.35-3.13,17.32-7.67,38.3-13.65,62.96-2.23,9.17-3.95,15.19-5.15,18.07-1.21,2.89-2.43,4.32-3.68,4.32-.8,0-2.81-.93-6.02-2.8-3.21-1.86-6.2-4.02-8.97-6.45-2.23-1.95-3.75-3.81-4.55-5.6-.8-1.78-1.21-4.06-1.21-6.82,0-8.84,1.41-21.94,4.22-39.3,2.81-17.35,6.62-34.92,11.44-52.68.42-1.53.82-2.98,1.21-4.38-5.94-1.07-12.06-1.63-18.31-1.63-56.89,0-103.02,46.13-103.02,103.02s46.12,103.01,103.02,103.01,103.02-46.12,103.02-103.01c0-39.49-22.23-73.79-54.84-91.08ZM515.45,518.97c-3.17,3.32-7.25,4.99-12.25,4.99-4.46,0-8.12-1.38-10.98-4.14-2.86-2.76-4.28-6.37-4.28-10.83,0-4.94,1.67-9.06,5.02-12.35,3.35-3.28,7.61-4.92,12.79-4.92,4.01,0,7.42,1.42,10.23,4.26,2.81,2.84,4.22,6.25,4.22,10.22,0,5.19-1.59,9.45-4.75,12.77Z" fill="currentcolor"/></g><g data-fc="#000"><path d="M190.11,724.01c5.23,2.49,7.43,5.5,7.43,12.64,0,.09-.21,1.03-.27,1.2-2.89,15.56-17.26,17.63-27.92,17.63h-41.34l10.73-62.68h38.65c7.98,0,24.76,0,24.76,14.27,0,8.68-6.12,14.19-12.04,16.94ZM171.05,730.55h-21.05l-2.06,12.04h21.05c4.13,0,9.7-.69,9.7-7.48,0-4.64-5.02-4.56-7.63-4.56ZM175.04,705.87h-20.84l-1.99,11.78h20.84c3.78,0,9.77-.95,9.77-7.22,0-4.73-5.16-4.56-7.77-4.56Z"/><path d="M218.6,755.48h-17.26l7.91-46.51h17.26l-7.91,46.51ZM226.99,706.04h-17.26l2.27-13.24h17.26l-2.27,13.24Z"/><path d="M279.69,752.73c-2.61,15.39-13.48,18.83-24.62,18.83h-28.47l1.93-11.09h26.14c3.3,0,7.02-.78,7.98-5.42l-.07.43h-10.11c-4.06,0-8.6.09-12.59-1.12-7.01-2.15-12.79-8.25-12.79-17.8,0-4.82,1.79-10.58,4.13-14.36,6.95-11.18,18.64-13.24,29.16-13.24h26.75l-7.43,43.76ZM258.09,720.57c-7.84,0-13.76,4.9-13.76,15.39,0,2.15.48,4.3,1.99,5.59,2.89,2.41,8.8,2.58,12.17,2.58h5.98l4.06-23.56h-10.45Z"/><path d="M336.85,754.19c-4.47,1.12-9.22,1.29-13.82,1.29h-34.59l10.66-62.68h34.18c13.21,0,30.33,2.92,30.33,23.99s-11,33.27-26.75,37.4ZM330.79,705.53h-16.16l-6.33,37.23h16.16c11.9,0,17.13-3.78,19.6-18.65.41-2.32.69-4.82.69-7.14,0-10.83-7.02-11.43-13.96-11.43Z"/><path d="M422.59,726.59l-4.95,28.89h-38.79c-5.71,0-15.34-1.55-15.34-11.01,0-3.52.96-7.05,2.68-9.89,4.68-7.74,15.27-8.17,22.35-8.17h17.13c.07-.43.14-.95.14-1.38,0-5.33-7.84-4.81-10.59-4.81h-24.42l1.93-11.26h29.71c7.43,0,20.43,1.46,20.43,14.1,0,1.12-.07,2.32-.28,3.52ZM388.34,737.43c-2.96,0-7.63-.43-7.63,4.73,0,2.58,3.85,2.24,5.3,2.24h16.64l1.17-6.96h-15.48Z"/><path d="M466.88,719.89h-14.65l-2.82,16.85c-.14,1.03-.28,2.15-.28,3.27,0,1.03.07,2.15.69,2.93,1.93,2.32,11.21,1.55,12.86,1.55l-1.86,11.01h-14.03c-6.05,0-14.86-1.89-14.86-11.61,0-1.12.07-2.32.28-3.44l3.51-20.55h-9.84l1.86-10.92h9.84l2.75-16.16h16.51l-2.75,16.16h14.65l-1.86,10.92Z"/><path d="M525.16,726.59l-4.95,28.89h-38.79c-5.71,0-15.34-1.55-15.34-11.01,0-3.52.96-7.05,2.68-9.89,4.68-7.74,15.27-8.17,22.35-8.17h17.13c.07-.43.14-.95.14-1.38,0-5.33-7.84-4.81-10.59-4.81h-24.42l1.93-11.26h29.71c7.43,0,20.43,1.46,20.43,14.1,0,1.12-.07,2.32-.27,3.52ZM490.91,737.43c-2.96,0-7.64-.43-7.64,4.73,0,2.58,3.85,2.24,5.3,2.24h16.64l1.17-6.96h-15.47Z"/><path d="M565.92,737.94h-36.24l2.13-12.64h36.25l-2.13,12.64Z"/><path d="M641.12,705.79h-38.65c-4.19,0-11.55.52-11.55,7.82,0,4.21,4.88,4.47,7.29,4.47h20.02c7.84,0,21.59.34,21.59,13.93,0,1.46-.14,2.92-.41,4.3-3.1,17.02-18.02,19.17-29.71,19.17h-41.47l2.2-12.9h39.07c3.99,0,11.69-.17,11.69-7.22,0-1.38-.55-2.58-1.44-3.27-1.44-1.2-5.43-1.2-7.22-1.2h-17.81c-7.91,0-22.42-.77-22.42-14.36,0-1.38.21-2.75.41-4.13,3.03-17.37,17.81-19.6,29.71-19.6h40.92l-2.2,12.98Z"/><path d="M708.9,705.61h-23.45l-8.53,49.87h-18.16l8.53-49.87h-23.25l2.13-12.73h64.86l-2.13,12.73Z"/><path d="M747.22,755.48l-4.13-14.36h-29.37l-8.87,14.36h-19.05l42.16-62.68h17.95l21.11,62.68h-19.81ZM733.6,709.05l-11.83,19.09h17.54l-5.71-19.09Z"/><path d="M825.93,705.61h-23.45l-8.53,49.87h-18.16l8.53-49.87h-23.25l2.13-12.73h64.86l-2.13,12.73Z"/><path d="M893.8,705.79h-38.65c-4.19,0-11.55.52-11.55,7.82,0,4.21,4.88,4.47,7.29,4.47h20.01c7.84,0,21.6.34,21.6,13.93,0,1.46-.14,2.92-.41,4.3-3.09,17.02-18.02,19.17-29.71,19.17h-41.47l2.2-12.9h39.07c3.99,0,11.69-.17,11.69-7.22,0-1.38-.55-2.58-1.44-3.27-1.44-1.2-5.43-1.2-7.22-1.2h-17.81c-7.91,0-22.42-.77-22.42-14.36,0-1.38.21-2.75.41-4.13,3.03-17.37,17.81-19.6,29.71-19.6h40.92l-2.2,12.98Z"/></g></g></g></g></svg>