<?xml version="1.0" encoding="UTF-8"?><svg xmlns="http://www.w3.org/2000/svg" viewBox="0 0 1024 1024"><title>yokosuka-f logo</title><desc>Copyright &#xa9; 2026 Pearlpuppy. All rights reserved.</desc><metadata><rdf:RDF xmlns:rdf="http://www.w3.org" xmlns:dc="http://purl.org"><rdf:Description rdf:about=""><dc:title>yokosuka-f logo</dc:title><dc:creator>Pierre Pearlpuppy</dc:creator><dc:rights>Copyright &#xa9; 2026 Pearlpuppy. All rights reserved.</dc:rights><dc:date>2026-03-20</dc:date><dc:format>image/svg+xml</dc:format></rdf:Description></rdf:RDF></metadata><g isolation="isolate"><g id="logo-yokosuka-f"><g id="yokosuka-f"><g data-fc="#80c5d2"><path d="M388.86,508.6c7.44-16.35,28.66-58.61,33.02-61.66,3.13-2.21,29.26-9.11,46.29-15.5-9.52-8.1-14.94-15.44-18.63-20.19-2.07-2.67-4.18-4.99-6.13-6.94-7.01-2.03-26.02-7.71-25.77-9.42.21-1.47,14.94-1.78,23.69-1.82,4.34-2.48,11.03-5.09,20.06-5.12,14.21-.06,24.58,5.36,40.51,11.99,14.47-11.46,44.85-51.12,49.68-54.26,5.39-3.52,63.26-4.73,81.25-3.08,8.82.8,33.95,1.89,57.36,3.62l-26.85-66.35-148.77-61.62-151.49,62.4-61.62,148.77,62.25,146.22c2.08-10.09,19.49-54.59,25.16-67.04Z" fill="currentcolor"/></g><g data-fc="#2186a6"><path d="M702.02,377.13c-12.96,3.8-27.12,6.32-39.49,6.19-31.05-.34-65.06-8.01-65.06-8.01,0,0-6.85,31.47-16.75,43.19-3.94,4.67-8.67,9.84-13.17,14.62,1.43.87,2.9,1.76,4.33,2.64,12.12,7.34,75.68,8.2,85.8,20.94,6.07,7.66-33.87,21.66-39.24,33.27-2.25,6.07-35.77-19.36-58.1-23.16-13.78-2.33-19.63-1.44-30.01-3.94-23.65,6.73-30.17,16.42-61.6,20.25-19.55,2.38-31.89-1.58-31.89-1.58,0,0-14.33,22.54-28.43,41.85-13.05,17.85-38.28,50.22-43.42,53.68l.67.66,148.78,61.62,146.49-61.03,61.62-148.77-20.52-52.41Z" fill="currentcolor"/></g><g data-fc="#333"><path d="M494.95,754.09c-2.86,0-3.07,1.78-4.67,3.85-2.93-2.29-5.72-2.81-9.34-2.81-11.86,0-24.82,7.24-31.87,17.3-2.09,2.96-3.62,5.69-3.34,9.61-2.48,1.01-4.78,1.25-7.29,1.47-1.78-.24-3.57-.84-3.57-2.36,0-2.51,2.72-5.18,2.72-7.69,0-1.78-1.74-2.59-3-3.11,3.41-1.4,6.69-3.4,9.41-5.98,1.4-1.26,4.74-4.88,4.74-6.95,0-2.44-3.55-2.37-5.16-2.37-3.63,0-4.53,2.66-5.93,5.62-1.67,3.4-4.74,6.43-7.74,8.5-.98-.22-2.3-.22-3.34-.22-1.54,0-3.41.3-4.88.74l18.34-26.32c.14-.22,5.02-6.43,5.02-7.17,0-2.44-4.04-2.29-5.58-2.29-3.91,0-7.32,1.48-9.41,5.17-.63,1.18-1.26,2.44-2.02,3.62l-17.85,27.94c-2.16,3.4-5.23,7.54-8.51,9.83-.56-.22-1.12-.37-1.74-.37-1.21,0-2.46.43-3.66,1.05.43-6.63,15.74-23.16,15.74-24.04,0-2.22-6.13-2.59-7.67-2.59-2.93,0-4.95,2.59-6.41,5.03-4.32,7.1-16.39,22.77-24.76,22.77-1.04,0-2.51-.22-2.51-1.62,0-4.51,16.81-22.77,16.81-23.58,0-1.99-7.67-2.81-9.27-2.81-4.04,0-17.15,21.36-18.48,26.54l.07.51c-2.87,1.1-6.31,1.94-9.5,2.2-1.12-.12-2.2-.33-3.03-.72,3.7-2.44,7.18-7.03,7.18-11.91,0-4.29-3.07-7.61-5.86-10.42,2.23-1.11,6.2-3.62,6.2-6.58,0-2.44-3.07-2.89-4.81-2.89-4.18,0-11.5,2.37-11.5,7.84,0,.96.49,1.77,1.18,2.37-4.86,4.73-17.99,16.49-27.22,20.79,6.42-5.16,12.55-13.05,12.55-20.2,0-3.62-2.44-5.25-5.65-5.25-3.49,0-8.3,2.22-8.3,6.58,0,2.14,2.65,3.25,4.32,3.25-1.67,7.76-10.53,17-18.34,17-1.68,0-3.9-.59-3.9-2.81,0-6.95,9.34-15.67,14.29-19.37,1.39-1.04,2.86-1.78,4.25-2.74.35-.22,2.86-2.07,2.86-2.51,0-1.18-1.25-1.26-2.09-1.26-9.13,0-20.5,6.28-26.08,13.97-1.46,2-4.11,6.66-4.11,9.32,0,1.63-.07,2.44.49,3.99-2.64,1.08-5.07,1.28-7.78,1.51-1.89-.21-3.9-.78-3.9-2.4,0-2.51,2.72-5.18,2.72-7.69,0-1.78-1.74-2.59-3-3.11,3.42-1.4,6.7-3.4,9.41-5.98,1.39-1.26,4.74-4.88,4.74-6.95,0-2.44-3.55-2.37-5.16-2.37-3.63,0-4.53,2.66-5.93,5.62-1.67,3.4-4.74,6.43-7.74,8.5-.98-.22-2.3-.22-3.35-.22-1.53,0-3.42.3-4.88.74l18.34-26.32c.14-.22,5.02-6.43,5.02-7.17,0-2.44-4.05-2.29-5.58-2.29-3.91,0-7.32,1.48-9.41,5.17-.63,1.18-1.25,2.44-2.02,3.62l-17.85,27.94c-2.16,3.4-5.23,7.54-8.51,9.83-.56-.22-1.11-.37-1.74-.37-.09,0-.19.02-.28.03,5.54-5.09,10.32-11.98,10.32-18.28,0-3.62-2.44-5.25-5.65-5.25-3.48,0-8.3,2.22-8.3,6.58,0,2.14,2.65,3.25,4.32,3.25-1.67,7.76-10.53,17-18.34,17-1.67,0-3.91-.59-3.91-2.81,0-6.95,9.34-15.67,14.3-19.37,1.39-1.04,2.86-1.78,4.25-2.74.35-.22,2.86-2.07,2.86-2.51,0-1.18-1.26-1.26-2.09-1.26-9.13,0-20.5,6.28-26.08,13.97-1.46,2-4.11,6.66-4.11,9.32,0,1.63-.07,2.44.49,3.99-3.07,1.25-5.86,1.33-9.13,1.63l-.06.09c-2.18.07-4.33-.03-6.52-.32,2.86-4.36,5.93-8.65,8.58-13.16l18.97-32.08c.42-.74,1.53-1.78,1.53-2.59,0-1.85-6.14-2.73-7.6-2.73-1.81,0-6.35,6.35-7.39,7.76-3.62,5.1-7.53,9.98-11.78,14.56-7.18,7.69-26.08,24.98-36.4,24.98-.98,0-2.93.15-2.93-1.33,0-4.73,21.2-24.77,21.2-36.15,0-7.84-8.79-9.09-14.37-9.09-6.83,0-13.32,2.14-19.11,6.06-5.16,3.47-10.88,9.68-10.88,16.63,0,4.22,3.42,6.06,6.97,6.06,1.26,0,4.39-.15,4.74-1.77-1.33-.6-1.74-1.63-1.74-3.11,0-8.43,10.53-17.15,18.06-17.15,2.16,0,5.3.59,5.3,3.62,0,6.58-24.06,31.27-24.06,38.59,0,4.66,5.37,5.17,8.65,5.17,15.48,0,33.33-14.86,44.07-25.36-4.53,8.94-10.46,17.52-16.8,25.13-5.3,1.55-23.64,8.06-23.64,14.86,0,3.1,4.25,3.4,6.34,3.4,11.3,0,21.34-9.24,28.45-17.59,1.81.07,3.7.44,5.51.44,1.32,0,2.58-.15,3.9-.15l.03-.05c4.43-.22,8.84-1.17,13.03-2.46,2.79,2.29,6.62,2.66,9.97,2.66s6.56-.66,9.55-1.99c.3-.13.61-.29.91-.44l-1.33,2.28c3.76,0,9.27-1.41,12.48-3.47-.56.66-1.74,1.7-1.74,2.66s2.79.96,3.35.96c1.88,0,5.44.07,6.83-1.4,1.81-1.92,5.23-8.87,7.25-11.68,3.7.44,5.72,0,9.2-1.11-.77,1.7-3.55,7.62-3.55,9.24,0,3.86,4.35,5.26,10.92,4.86,6.57-.4,11.52-1.43,14.98-2.5,2.79,2.29,6.62,2.62,9.97,2.62s6.4-.66,9.35-1.93l-1.03,1.76c4.18-.52,8.37-1.49,12.2-3.26,3.14,2.66,8.44,3.4,12.34,3.4s7.74-.67,11.44-1.78c1.53.59,6.06,2.1,9.97,1.77,3.91-.32,7.47-2.21,9.8-3.29.84,2.73,5.44,3.16,7.67,3.16,8.65,0,17.01-7.48,23.29-12.94-1.46,2.29-3.9,5.76-3.9,8.65,0,1.94,1.11,3.86,5.71,4.14q4.6.28,5.87.28l2.46-2.74c.51-.25,1-.56,1.43-.84-.56.67-1.74,1.68-1.74,2.64s2.79.95,3.35.95c1.88,0,5.44.07,6.83-1.41,1.81-1.92,5.23-8.87,7.25-11.68,3.69.44,5.72,0,9.2-1.11-.77,1.7-3.56,7.62-3.56,9.24,0,3.65,3.11,4.46,10.12,4.83,7.01.38,10.78-1.1,13.43-2.03,1.81,1.77,5.37,2.18,7.74,2.18,9.41,0,17.85-6.3,24.26-13.03-1.05,1.7-4.12,5.28-4.12,7.8,0,4.73,10.39,3.79,13.18,3.79h.98l2.79-4.18c-1.6,0-6.35.67-6.35-1.84,0-5.99,14.57-20.39,17.22-24.31,0-2.59-6.13-2.8-7.88-2.8ZM326.22,783.66c-.9-2.44-2.44-3.4-4.67-4.14,5.72-3.62,11.85-8.05,16.32-13.38.42,1.7.56,3.33.56,5.1,0,7.17-5.93,11.75-12.2,12.42ZM460.22,782.55c-1.39,0-3-.29-3-2.22,0-8.36,17.5-19.59,24.69-19.59,1.81,0,3.41.52,5.02,1.48-5.37,6.5-17.78,20.33-26.71,20.33Z" fill="currentcolor"/><path d="M572.16,776.71c0,1.26,2.51,1.18,3.21,1.18,1.67,0,3.56-.37,4.53-1.92l4.67-7.54c.42-.74.91-1.48,1.25-2.29,0-2.37-9.69-3.18-11.09-3.33,5.65-8.06,11.02-16.26,16.32-24.54-9.34-3.11-19.53-5.1-29.36-5.1-6.28,0-18.2,1.55-19.87,9.53,0,.22-.07.37-.07.59,0,2.74,2.09,3.55,4.25,3.55.98,0,1.88-.3,2.65-.96.14-.59.07-1.18.14-1.77.42-3.77,7.67-4.14,10.25-4.14,5.79,0,11.3,1.48,16.87,2.88l-12.97,19.3c-2.93,0-15.9-.14-17.22,2.74l-1.88,4.07c-.07.45.28.82.56,1.11,4.6-.59,9.34-1.55,14.01-1.55-7.95,12.57-16.88,24.77-32.42,24.77-4.12,0-9-1.03-9.55-6.29-3.35,0-7.32,1.7-7.32,5.84,0,6.58,11.44,7.84,15.83,7.84,21.2,0,34.1-14.04,45.4-31.42,1.81.15,3.69.44,5.51.81-1.12,2-2.37,4.88-3.7,6.65Z" fill="currentcolor"/><path d="M896,762c0-5.4-5.66-6.81-9.77-6.81-10.89,0-26.53,7.48-26.53,20.95,0,2.22.63,4.37,2.1,6-3.78,1.05-7.75,1.9-11.73,1.98-5.57-.11-14.92-1.01-14.92-7.9,0-7.85,8.94-14.81,15.85-14.81,1.54,0,3.7.15,3.7,2.29,0,1.33-.49,1.85,1.26,1.85,2.72,0,6.01-1.85,6.01-5.11,0-4.59-6.7-5.26-9.85-5.26-11.94,0-29.54,8.51-29.54,23.17,0,1.26.56,2.52,1.12,3.63-3.05,1.23-6.31,1.95-9.6,2.11-1.96-.1-4.5-.5-4.5-2.04,0-4.07,14.03-18.21,14.03-22.58,0-3.33-3.35-3.85-5.8-3.85-10.96,0-22.27,9.77-30.09,17.25,1.33-2,11.73-16.51,11.73-16.66,0-1.78-5.72-1.48-6.84-1.48-3.63,0-6.01,3.62-7.61,6.59l-4.68,8.51c-3.58,6.56-9.29,13.3-16.78,14.18-1.66-.2-3.26-.73-3.26-2.19,0-6,14.59-20.51,17.25-24.43,0-2.59-6.14-2.89-7.89-2.89-2.86,0-3.07,1.78-4.68,3.85-2.93-2.3-5.73-2.81-9.36-2.81-11.87,0-24.86,7.26-31.91,17.32-2.09,2.96-3.63,5.7-3.35,9.62-2.43.99-4.69,1.25-7.16,1.46-1.41-.25-2.73-.87-2.73-2.42,0-4.07,11.03-22.65,13.69-26.87,4.12-3.04,14.03-11.1,14.03-16.73,0-2.81-2.37-4-4.75-4-2.65,0-5.03.96-7.12,2.66-8.8,7.03-21.85,32.42-26.11,43.01-3.61,2.05-7.88,4.16-12.08,4.47-2.84-.12-5.64-.61-7.99-2.47,6.08-3.11,19.48-11.4,19.48-19.62,0-5.4-5.66-6.81-9.78-6.81-10.89,0-26.53,7.48-26.53,20.95,0,2.22.63,4.37,2.09,6-3.85,1.07-7.9,1.93-11.96,1.99-3.22-.05-6.45-.39-9.11-2.51,6.07-3.11,19.48-11.4,19.48-19.62,0-5.4-5.66-6.81-9.78-6.81-10.89,0-26.53,7.48-26.53,20.95,0,2.22.63,4.37,2.09,6-3.45.96-7.05,1.75-10.67,1.95-2.42-.13-5.59-.56-5.59-2.1,0-3.4,11.31-13.55,11.31-16.73s-3.91-4.59-6.22-5.63l-6.07-2.66c.98-1.04,1.81-2.15,1.81-3.63,0-2.81-3.21-3.33-5.24-3.33-1.89,0-3.77.44-5.31,1.63-1.05.82-2.79,2.81-2.79,4.3,0,1.85.07,2.89,1.54,4.07-6.63,9.18-16.48,22.87-28.07,24.13l-2.79,4.81c15.57,0,27.3-13.92,35.75-26.13,1.12.51,4.96,2.14,4.96,3.55,0,2.96-10.89,12.07-10.89,17.32,0,4.45,8.18,5.14,12.99,5.24h0c.12.01.85-.09,4.26-.49,3.41-.4,10.78-1.67,15.85-3.19,4.2,2.83,12.63,3.75,17.97,3.59,5.34-.16,12.07-1.86,17.84-3.59,3.76,2.53,10.83,4.24,17.96,3.01,7.14-1.22,8.72-2.3,11.75-4.12.72,3.27,5.34,4.53,8.43,4.61,3.08.09,10.61-1.05,13.4-2.02,1.82,1.78,5.38,2.29,7.75,2.29,9.43,0,17.88-6.26,24.3-12.99-1.05,1.7-4.12,5.94-4.12,8.46,0,3.41,4.2,4.67,9.42,4.45,5.22-.21,10.57-2.38,12.5-3.62-.56.67-1.75,1.78-1.75,2.73,0,1.04,2.79,1,3.35,1,3.49,0,6.77-1.02,9.01-4.05,4.75-6.44,9.64-11.98,16.06-16.65,2.24-1.63,7.33-5.25,10.12-5.25.63,0,1.33,0,1.54.82-.56,2.96-12.5,14.36-12.5,19.47,0,4.7,8.39,5.78,12.29,5.53,3.9-.25,13.26-1.86,17.79-3.9,4.26,2.74,12.29,4.14,17.25,4.14,1.47,0,2.86-.11,4.26-.26l.05-.06c5.9-.34,11.92-2.65,17.53-4.33,4.4,2.96,11.31,2.7,16.41,2.7h1.33l2.79-3.94c-3.7,0-7.54.36-10.61-2.09,6.08-3.11,19.48-10.97,19.48-19.18ZM639.58,775.25c0-6.96,6.14-14.14,12.85-14.14,1.47,0,3.56.37,3.56,2.37,0,5.63-10.61,12.51-14.94,14.43-.91-1.04-.91-1.56-1.47-2.66ZM675.38,775.25c0-6.96,6.14-14.14,12.85-14.14,1.47,0,3.56.37,3.56,2.37,0,5.63-10.61,12.51-14.94,14.43-.91-1.04-.91-1.56-1.47-2.66ZM734.88,783.02c-1.4,0-3-.3-3-2.22,0-8.36,17.53-19.62,24.72-19.62,1.81,0,3.42.52,5.03,1.48-5.38,6.51-17.8,20.35-26.74,20.35ZM873.24,777.91c-.91-1.04-.91-1.56-1.47-2.66,0-6.96,6.14-14.14,12.85-14.14,1.47,0,3.56.37,3.56,2.37,0,5.63-10.61,12.51-14.94,14.43Z" fill="currentcolor"/></g></g></g></g></svg>