<?xml version="1.0" encoding="UTF-8"?><svg xmlns="http://www.w3.org/2000/svg" viewBox="0 0 1024 1024"><title>takamatsu-ib logo</title><desc>Copyright &#xa9; 2026 Pearlpuppy. All rights reserved.</desc><metadata><rdf:RDF xmlns:rdf="http://www.w3.org" xmlns:dc="http://purl.org"><rdf:Description rdf:about=""><dc:title>takamatsu-ib logo</dc:title><dc:creator>Pierre Pearlpuppy</dc:creator><dc:rights>Copyright &#xa9; 2026 Pearlpuppy. All rights reserved.</dc:rights><dc:date>2026-03-20</dc:date><dc:format>image/svg+xml</dc:format></rdf:Description></rdf:RDF></metadata><g isolation="isolate"><g id="logo-takamatsu-ib"><g id="takamatsu-ib"><g data-fc="#833c0c"><path d="M946.11,553.18h-484.39c-5.44,0-9.89,4.45-9.89,9.89v49.43c0,5.44,4.45,9.89,9.89,9.89h484.39c5.44,0,9.89-4.45,9.89-9.89v-49.43c0-5.44-4.45-9.89-9.89-9.89ZM583.26,567.78c2.08-.06,3.74.12,5.87-.12,2.85-.3,5.52-.59,9.08-.95,1.07-.12,1.96-.36,2.79-.53.89-.18,1.72-.42,2.85-.36,4.51.18,5.46,5.64-.12,5.99-1.96.12-3.44.18-5.4.3-3.5.24-5.4.53-8.07.83-2.67.3-4.45.59-7,.53-3.8-.06-4.75-5.52,0-5.69ZM512.51,576.32c-3.8,4.45-8.84,9.14-14.89,11.39-.89.36-1.78.36-2.49.06-2.25,9.19-6.82,16.37-16.25,22.07-5.16,3.08-9.37-2.85-3.97-5.58,8.78-4.39,12.81-11.15,14.12-18.51.3-1.78.3-3.91,0-5.4-.71-3.68,5.99-4.98,6.82-.59.12.59.12,1.48.12,2.43,3.56-1.72,7.95-4.86,10.14-7.89,1.01-1.36,1.19-2.08-1.07-1.96-7.47.3-17.02,1.6-19.69,1.96-3.2.42-4.8.89-8.13.77-3.86-.12-4.57-6.29.42-6.17,2.55.06,5.34-.3,7.83-.47,2.61-.18,12.52-1.13,22.07-1.66,6.64-.36,9.19,4.63,4.98,9.55ZM556.55,568.79c-.77,1.6-1.07,2.67-2.91,5.16-1.66,2.2-3.26,4.27-4.86,6.23.24.24.42.53.53.89.47,1.3.47,1.84.3,5.87-.24,4.63-.18,13.64,0,20.05.06,2.79-1.6,3.8-3.14,3.98-1.54.18-3.2-.95-3.14-3.56.06-6.35.71-14.18.47-19.81,0-.59-.06-1.13-.12-1.66-4.63,4.86-9.55,8.9-15.78,12.69-5.52,3.38-8.6-2.73-4.51-4.74,9.55-4.69,19.04-13.88,24.91-23.08.59-.95,1.72-3.56,2.14-4.69,1.25-3.5,8.19-1.72,6.11,2.67ZM612.44,582.55c-3.62-.06-6.82-.24-10.2,0-.65.06-1.31.06-2.02.12.65,1.25.59,3.03.42,4.57-.83,8.48-8.25,18.75-19.46,23.13-5.75,2.25-6.94-4.33-2.79-5.64,9.43-2.96,15.42-11.68,15.96-17.74.06-.89-.06-1.84-.71-2.73-.24-.3-.3-.59-.42-.89-3.62.42-7,.89-9.61,1.19-3.38.36-5.46,1.01-7.36,1.13-3.92.18-4.63-5.64-.06-5.99,2.14-.18,4.86-.12,7.47-.42,4.51-.47,14.47-1.6,20.64-2.13,3.62-.3,5.58-.89,8.42-.47,2.67.35,3.68,1.25,3.62,2.96-.06,1.48-1.36,2.91-3.92,2.91ZM612.15,569.74c-.53-1.07-2.85-3.74-3.86-4.51-2.61-1.9.42-4.8,2.85-3.2,1.36.89,3.92,3.08,4.86,4.74,1.66,2.91-2.49,5.64-3.86,2.97ZM620.1,567.24c-.95-1.07-2.97-3.62-4.03-4.33-2.67-1.78.24-4.8,2.73-3.32,1.42.89,4.03,2.97,5.04,4.57,1.78,2.85-1.72,5.34-3.74,3.08ZM674.37,576.32c-3.8,4.45-8.84,9.14-14.89,11.39-.89.36-1.78.36-2.49.06-2.25,9.19-6.82,16.37-16.25,22.07-5.16,3.08-9.37-2.85-3.98-5.58,8.78-4.39,12.81-11.15,14.12-18.51.3-1.78.3-3.91,0-5.4-.71-3.68,5.99-4.98,6.82-.59.12.59.12,1.48.12,2.43,3.56-1.72,7.95-4.86,10.14-7.89,1.01-1.36,1.19-2.08-1.07-1.96-7.47.3-17.02,1.6-19.69,1.96-3.2.42-4.81.89-8.13.77-3.86-.12-4.57-6.29.42-6.17,2.55.06,5.34-.3,7.83-.47,2.61-.18,12.52-1.13,22.07-1.66,6.64-.36,9.19,4.63,4.98,9.55ZM951.06,612.5c0,2.72-2.22,4.94-4.94,4.94h-247.14c-2.72,0-4.94-2.22-4.94-4.94v-49.43c0-2.72,2.22-4.94,4.94-4.94h247.14c2.72,0,4.94,2.22,4.94,4.94v49.43Z" fill="currentcolor"/><polygon points="704.44 609.58 710.79 609.58 710.79 590.65 721.75 590.65 721.75 584.67 710.79 584.67 710.79 571.22 723.37 571.22 723.37 565.24 704.44 565.24 704.44 609.58" fill="currentcolor"/><path d="M745.36,565.24l-9.9,44.34h6.35l1.87-9.53h8.66l1.87,9.53h6.35l-9.9-44.34h-5.29ZM744.8,594.08l3.11-16.07h.12l3.11,16.07h-6.35Z" fill="currentcolor"/><path d="M793.12,567.8c-1.87-1.95-4.3-2.93-7.29-2.93-1.54,0-2.94.26-4.2.78-1.27.52-2.36,1.24-3.27,2.15-.91.91-1.62,1.99-2.12,3.24-.5,1.25-.75,2.6-.75,4.05v24.41c0,2.04.32,3.71.97,5.01.64,1.31,1.46,2.38,2.46,3.21,1,.83,2.12,1.41,3.36,1.74,1.25.33,2.47.5,3.67.5,1.41,0,2.73-.28,3.95-.84s2.29-1.32,3.21-2.27c.91-.95,1.63-2.04,2.15-3.27.52-1.22.78-2.52.78-3.89v-2.74h-6.35v2.18c0,.87-.13,1.6-.37,2.18-.25.58-.56,1.04-.93,1.37-.42.33-.86.57-1.34.72-.48.15-.92.22-1.34.22-1.45,0-2.46-.44-3.02-1.31-.56-.87-.84-1.95-.84-3.24v-22.67c0-1.49.26-2.73.78-3.71.52-.98,1.57-1.46,3.14-1.46,1.2,0,2.16.46,2.86,1.37.71.91,1.06,1.99,1.06,3.24v2.12h6.35v-2.49c0-1.54-.26-2.96-.78-4.27-.52-1.31-1.24-2.44-2.15-3.39Z" fill="currentcolor"/><polygon points="811.27 571.22 818.62 571.22 818.62 609.58 824.97 609.58 824.97 571.22 832.32 571.22 832.32 565.24 811.27 565.24 811.27 571.22" fill="currentcolor"/><path d="M865.64,567.55c-1.04-.87-2.19-1.54-3.46-1.99-1.27-.46-2.54-.68-3.83-.68s-2.56.23-3.83.68c-1.27.46-2.4,1.12-3.39,1.99-1.04.91-1.87,2.06-2.49,3.43s-.93,2.95-.93,4.73v23.42c0,1.87.31,3.47.93,4.8.62,1.33,1.45,2.43,2.49,3.3,1,.91,2.13,1.6,3.39,2.06,1.27.46,2.54.68,3.83.68s2.56-.23,3.83-.68c1.27-.46,2.42-1.14,3.46-2.06,1-.87,1.81-1.97,2.43-3.3.62-1.33.93-2.93.93-4.8v-23.42c0-1.78-.31-3.36-.93-4.73s-1.43-2.51-2.43-3.43ZM862.65,599.12c0,1.54-.43,2.67-1.28,3.39-.85.73-1.86,1.09-3.02,1.09s-2.17-.36-3.02-1.09c-.85-.73-1.28-1.86-1.28-3.39v-23.42c0-1.54.42-2.67,1.28-3.39.85-.73,1.86-1.09,3.02-1.09s2.17.36,3.02,1.09c.85.73,1.28,1.86,1.28,3.39v23.42Z" fill="currentcolor"/><path d="M906.42,584.92c.81-1.83,1.21-4.05,1.21-6.66,0-8.68-3.74-13.02-11.21-13.02h-10.21v44.34h6.35v-18.93h3.8l5.92,18.93h6.73l-6.85-20.24c2.03-1.12,3.46-2.59,4.27-4.42ZM901.09,581.09c-.12.85-.35,1.57-.69,2.15-.37.58-.89,1.03-1.56,1.34-.66.31-1.56.47-2.68.47h-3.61v-13.83h3.3c2.2,0,3.7.58,4.48,1.74.37.62.62,1.36.75,2.21.12.85.19,1.84.19,2.96s-.06,2.11-.19,2.96Z" fill="currentcolor"/><polygon points="933.73 582.87 933.6 582.87 928.5 565.24 921.77 565.24 930.49 590.84 930.49 609.58 936.84 609.58 936.84 590.84 945.56 565.24 938.83 565.24 933.73 582.87" fill="currentcolor"/></g><g data-fc="#548235"><path d="M454.45,434.1c1.7,4.19,2.62,4.98,6.94,4.98,3.93,0,10.22-1.05,17.03-2.75,1.31-7.07,2.1-14.93,2.1-19.25,0-2.88-.79-4.19-3.54-5.37-1.18-.39-1.44-.79-1.44-1.18,0-2.36,4.32-5.24,7.86-5.24,5.76,0,12.31,4.58,12.31,8.51,0,.92-.26,1.57-.92,2.88-.52,1.05-.65,1.57-1.31,3.01,5.11,4.45,8.51,6.03,12.97,6.03,3.67,0,5.89,2.1,5.89,5.76,0,6.42-7.07,11.13-24.62,16.24-4.19,20.57-9.17,40.21-14.15,54.62-4.58,12.97-6.94,16.51-11.13,16.51-3.93,0-7.34-5.24-7.34-11.27,0-2.49.26-3.27,3.27-7.86,5.11-7.99,12.84-30.26,17.16-49.51-6.55,1.44-10.48,1.97-13.49,1.97-5.89,0-10.22-4.19-10.22-9.82,0-2.62.79-5.37,2.23-8.25.13-.26.26-.26.39,0ZM499.51,429.91c-1.83-2.36-5.5-6.94-6.55-8.25-1.83,8.51-2.1,9.95-2.49,11.92,4.19-1.31,5.37-1.83,9.04-3.67ZM503.18,485.58c1.7,11,8.25,16.64,19.65,16.64,5.24,0,10.35-.79,16.24-2.62,3.41-1.05,4.45-1.18,5.89-1.18,4.85,0,8.78,3.54,8.78,8.12,0,6.55-8.51,10.48-22.66,10.48-9.95,0-17.03-2.36-22.14-7.07-4.58-4.45-7.21-10.87-7.21-17.81,0-2.49.13-3.8.92-6.55.13-.26.52-.26.52,0ZM506.72,454.27c7.73-8.91,17.94-14.02,27.77-14.02,8.38,0,14.8,4.32,14.8,10.09,0,3.8-2.36,6.02-6.68,6.02-5.76.13-7.73.79-20.83,6.16-.39.13-.65-.26-.39-.52,2.62-2.23,5.11-4.19,7.2-6.02,3.01-2.49,3.67-3.41,3.67-3.93,0-.92-1.96-1.44-5.37-1.44-6.29,0-12.18,1.18-19.91,4.06-.26.13-.52-.13-.26-.39Z" fill="currentcolor"/><path d="M598.67,418.78c-.66,0-.92-.13-.92-.78s.52-2.23,1.31-3.54c2.1-3.54,4.85-5.24,8.51-5.24,5.5,0,8.51,4.06,8.51,11.92,0,5.5-1.18,13.36-3.27,22.27,5.11-1.31,8.12-1.83,11.27-1.83,11.4,0,17.29,9.43,17.29,27.24,0,15.59-4.32,28.95-12.05,37.72-5.24,5.89-12.57,9.69-18.47,9.69-4.19,0-6.68-2.36-7.99-7.47-.13-.52-1.57-7.07-4.58-20.57-5.63,12.44-10.22,18.08-14.8,18.08-3.67,0-6.42-4.32-6.42-9.96,0-2.88.66-4.06,4.19-7.47,6.55-6.03,12.57-17.03,17.29-30.78-4.32,1.7-6.02,2.1-8.12,2.1-6.55,0-12.18-7.34-12.18-15.46,0-1.31.13-2.1.92-3.4.13-.26.26-.26.39,0,3.8,4.45,6.68,6.02,11.26,6.02,3.27,0,6.55-.52,10.61-1.7,1.83-7.6,2.75-14.67,2.75-20.83,0-4.85-.79-6.03-3.93-6.03h-1.57ZM599.98,484.79c1.31,3.01,3.01,6.29,5.11,9.3,2.49,3.93,4.32,5.5,6.55,5.5,9.04,0,17.03-17.03,17.03-36.15,0-9.82-1.7-14.15-5.5-14.15-2.49,0-7.86,1.83-12.31,4.32-3.93,13.88-6.55,21.74-10.87,31.17ZM663.64,436.59c12.44,0,24.1,11.53,24.1,23.71,0,7.86-5.11,14.28-11.53,14.28-1.96,0-3.27-.79-4.58-2.62q-2.88-4.32-15.19-8.38c-.26-.13-.26-.52,0-.52,12.97-.39,16.63-1.57,16.63-5.24,0-3.27-1.7-7.07-4.45-10.35-3.54-4.06-7.2-5.89-11.53-5.89-2.23,0-3.8.26-7.34,1.44-.26,0-.39-.13-.26-.39,4.98-4.45,8.78-6.02,14.15-6.02Z" fill="currentcolor"/><path d="M768.93,444.84c1.31,0,2.49-.13,3.8-.13,3.27,0,5.76,2.36,5.76,5.76,0,6.02-10.09,11.79-26.98,15.46.92,8.91,1.18,10.61,3.14,19.91,17.03,5.37,28.95,15.33,28.95,23.97,0,3.93-2.23,6.55-5.76,6.55-2.23,0-3.67-.92-5.89-3.93-6.55-8.25-9.17-10.61-15.72-13.88.13,1.7.26,4.06.26,4.85,0,11.53-8.12,18.47-21.87,18.47-9.69,0-15.59-3.01-17.03-8.78-.65-2.23-.79-2.62-2.62-3.8-2.88-1.7-4.06-3.93-4.06-7.34,0-9.69,12.44-17.95,27.11-17.95,1.83,0,3.01.13,5.24.39-.79-7.21-1.05-11.53-1.31-17.03-4.06.52-6.81.78-10.09.78-13.62,0-20.43-5.37-22.92-17.94,0-.26.26-.52.52-.26,3.93,5.37,8.91,7.73,16.9,7.73,4.98,0,10.09-.65,15.32-1.7,0-5.63.13-9.56.52-14.67-6.42,0-9.43-.66-13.1-2.75-4.71-2.62-7.07-6.02-8.25-11.53,0-.26.26-.52.52-.26,2.75,3.14,6.03,4.45,11.27,4.45,3.14,0,6.02-.39,10.09-1.31.26-4.72.66-8.25.66-12.31,0-7.2-2.62-10.22-9.3-11-.26,0-.39-.13-.26-.39,2.1-3.14,4.98-4.58,8.78-4.58,7.2,0,13.88,5.76,13.88,11.79,0,1.83-.26,2.49-1.7,6.81-.66,1.97-1.05,3.54-1.83,7.07,2.36-.92,3.41-1.44,4.98-2.23,3.01-1.57,3.8-1.83,5.5-1.83,3.41,0,5.76,2.23,5.76,5.37,0,4.19-4.98,7.86-13.75,10.48,5.76,4.19,9.82,5.76,13.49,5.76ZM736.06,494.36c-10.09,0-16.5,3.54-16.5,8.91,0,4.45,4.58,7.46,11.66,7.46,8.38,0,12.97-4.19,12.97-11.79,0-.92-.13-2.49-.26-3.67-3.14-.79-4.98-.92-7.86-.92ZM750.99,454.14c5.63-1.44,8.38-2.49,12.18-4.45-3.01-3.41-5.63-6.29-8.78-10.35-1.05.26-1.7.39-2.75.65-.52,4.85-.66,7.73-.66,11.53v2.62Z" fill="currentcolor"/><path d="M804.15,446.81c1.96,2.75,3.4,3.8,5.24,3.8,2.62,0,2.88-.13,18.47-8.91,19.26-10.74,35.63-16.24,48.99-16.24,9.82,0,17.81,3.27,24.36,9.69,7.2,7.07,11.4,17.29,11.4,27.77,0,26.33-23.84,43.88-59.6,43.88-2.62,0-4.45-.13-8.25-.39-.52-.13-.52-.65-.13-.79,33.14-4.71,51.87-21.09,51.87-45.32,0-17.03-8.38-27.77-21.61-27.77-10.87,0-20.17,4.98-39.43,21.48-10.35,8.91-13.49,10.74-18.86,10.74-7.2,0-13.88-6.42-13.88-13.49,0-1.44.26-2.36.92-4.45.13-.26.39-.26.52,0Z" fill="currentcolor"/><path d="M404.17,502.4c-9.75-21.15-30.96-29.18-49.51-31-18.56-1.82-38.55-16.34-48.94-27.51-10.38-11.17-31.5-32.85-66.66-32.85s-56.28,21.68-66.66,32.85c-10.38,11.17-30.38,25.69-48.94,27.51-18.56,1.82-39.77,9.85-49.51,31-12.45,27-4.04,52.63,12.91,67.95,28.74,25.98,67,2.48,87.85-9.44,20.85-11.93,41.73-15.87,64.35-15.19,22.62-.68,43.49,3.27,64.35,15.19,20.85,11.93,59.12,35.43,87.85,9.44,16.95-15.32,25.35-40.95,12.91-67.95ZM187.61,516.33c-7.27-10.58-14.54-21.16-21.81-31.74-2.04-2.87-.89-9.82,4.14-12.72,5.02-2.91,11.62-.43,13.08,2.78,5.53,11.59,11.05,23.17,16.58,34.76,1.47,3.21.09,7.04-2.92,8.78-3.02,1.73-7.02,1.02-9.07-1.86ZM209.37,540.18c-4.6,2.66-10.49,1.08-13.15-3.52s-1.08-10.49,3.52-13.15c4.6-2.66,10.49-1.08,13.15,3.52,2.66,4.6,1.08,10.49-3.52,13.15ZM239.06,537.43c-6.65,0-12.03-5.39-12.03-12.03s5.39-12.03,12.03-12.03,12.03,5.39,12.03,12.03-5.39,12.03-12.03,12.03ZM251.49,450.02c-1.26,16-2.52,31.99-3.78,47.99-.41,4.4-4.3,7.67-8.65,7.68-4.35,0-8.24-3.28-8.65-7.68-1.26-16-2.52-31.99-3.78-47.99-.41-4.39,5.17-11.19,12.43-11.18,7.26,0,12.84,6.8,12.43,11.18ZM281.9,536.66c-2.66,4.6-8.55,6.18-13.15,3.52-4.6-2.66-6.18-8.55-3.52-13.15,2.66-4.6,8.55-6.18,13.15-3.52,4.6,2.66,6.18,8.55,3.52,13.15ZM312.33,484.6c-7.27,10.58-14.54,21.16-21.81,31.74-2.04,2.88-6.05,3.6-9.07,1.86-3.01-1.75-4.4-5.57-2.92-8.78,5.53-11.59,11.05-23.17,16.58-34.76,1.47-3.2,8.06-5.68,13.08-2.78,5.03,2.9,6.18,9.85,4.14,12.72Z" fill="currentcolor" fill-rule="evenodd"/></g></g></g></g></svg>