<?xml version="1.0" encoding="UTF-8"?><svg xmlns="http://www.w3.org/2000/svg" viewBox="0 0 1024 1024"><title>insclub logo</title><desc>Copyright &#xa9; 2026 Pearlpuppy. All rights reserved.</desc><metadata><rdf:RDF xmlns:rdf="http://www.w3.org" xmlns:dc="http://purl.org"><rdf:Description rdf:about=""><dc:title>insclub logo</dc:title><dc:creator>Pierre Pearlpuppy</dc:creator><dc:rights>Copyright &#xa9; 2026 Pearlpuppy. All rights reserved.</dc:rights><dc:date>2026-03-20</dc:date><dc:format>image/svg+xml</dc:format></rdf:Description></rdf:RDF></metadata><g isolation="isolate"><g id="logo-insclub"><g id="insclub"><g data-fc="#df1030"><polygon points="443.38 299.19 413.01 299.19 413.01 209.56 394.65 209.56 394.65 315.53 443.38 315.53 443.38 299.19" fill="currentcolor"/><path d="M485.41,317.01c8.64,0,16.74-2.02,21.87-4.18l-3.38-14.85c-4.86,2.03-11.47,3.24-16.87,3.24-14.31-.13-17.28-10.53-17.28-19.71v-2.02h38.47v-12.69c0-19.3-6.48-34.29-25.24-34.29-20.79,0-31.18,16.6-31.18,43.33s9.72,41.17,33.61,41.17ZM481.35,247.36c7.97,0,9.99,6.88,9.99,18.36h-21.2c.4-10.4,4.19-18.36,11.2-18.36Z" fill="currentcolor"/><path d="M526.74,296.36c0,14.17,7.69,19.98,19.84,19.98l9.59-1.08v-13.77h-4.32c-5.94,0-7.29-2.97-7.29-11.2v-40.09h12.96v-14.44h-12.96v-20.92l-17.82,4.59v16.33h-10.4v14.44h10.4v46.17Z" fill="currentcolor"/><path d="M587.5,204.3l-15.79-.94c-.81,8.78-3.24,21.19-5.94,30.51l12.55.67c3.37-7.83,7.56-20.92,9.18-30.24Z" fill="currentcolor"/><path d="M609.78,301.76c-4.59,0-11.34-1.89-16.61-4.18l-3.64,15.79c5.81,2.16,14.44,3.78,21.46,3.78,11.61,0,24.43-5.8,24.43-24.7,0-12.96-7.42-18.76-16.61-25.38-7.83-5.53-9.85-8.1-9.85-12.42,0-5.94,3.91-7.42,7.83-7.42s9.18,1.35,13.23,2.97l3.91-15.12c-4.59-1.48-11.74-2.43-17.55-2.43-10.26,0-25.11,3.37-25.11,23.08,0,12.42,5.81,17.28,14.44,23.35,8.64,6.21,11.88,9.18,11.88,13.9,0,6.34-2.97,8.77-7.83,8.77Z" fill="currentcolor"/><path d="M476.93,445.98h30.54v-18.05h-35.44v-14.85h26.16v-57.2h-71.21v57.2h24.98v14.85h-31.73v18.05h27.84c-7.42,16.03-19.74,30.71-31.55,39.49v-94.83c3.88-12.49,7.09-24.97,9.45-36.96l-19.74-4.22c-4.39,28.35-13.33,57.88-27,82.35l10.8,18.56c2.36-3.88,4.55-7.93,6.75-12.15v70.37h19.75v-22.78l12.99,15.69c7.76-7.43,15.69-17.55,22.45-28.86v35.77h20.08v-38.3c7.09,12.15,15.36,23.12,23.29,31.22l13.84-16.54c-11.64-8.94-24.3-23.46-32.23-38.81ZM446.05,394.86v-20.76h32.4v20.76h-32.4Z" fill="currentcolor"/><path d="M624.52,402.96v-6.08c3.21,2.7,6.24,5.06,9.45,7.26l9.79-18.56c-12.65-7.59-25.31-18.73-36.62-35.77h-15.52c-8.94,14.85-19.57,25.82-30.71,33.07,1.69-8.78,3.21-17.21,4.56-25.65l-9.96-3.04h-36.11v154.23h18.39v-136.01h5.74c-1.35,13.16-3.38,27.67-5.74,42.35,6.08,14.01,7.59,21.94,7.59,30.37s-.34,13.33-2.7,13.84c-1.18.17-3.38.17-4.89-.17l3.04,17.89c4.22.34,10.29.17,13.16-.84,5.57-1.86,8.44-8.94,9.62-17.55v.51h25.31c-2.53,13.5-10.97,24.64-31.56,34.09l11.65,15.52c16.53-8.77,26.49-18.56,32.4-29.19,7.59,13.67,18.06,23.29,30.37,29.19l11.81-16.03c-14-5.4-25.82-16.37-32.4-33.58h25.48v-47.75h-27.84v-8.1h15.69ZM589.93,443.12h-8.27v-16.37h8.27v16.37ZM589.93,411.05h-26.32v27.17c-1.18-7.59-3.71-15.86-8.44-26.83,1.35-6.92,2.87-13.67,4.05-20.25l6.41,12.83c3.71-2.36,7.26-5.06,10.63-7.93v6.92h13.67v8.1ZM617.94,426.75v16.37h-9.11v-16.37h9.11ZM586.21,386.42c4.56-4.89,8.78-10.46,13.16-17.04,4.56,6.58,9.28,12.15,13.84,17.04h-27Z" fill="currentcolor"/><path d="M652.62,155.39h-281.25c-34.17,0-61.88,27.7-61.88,61.88v281.25c0,34.17,27.7,61.88,61.88,61.88h281.25c34.17,0,61.87-27.7,61.87-61.88V217.27c0-34.17-27.7-61.88-61.87-61.88ZM692,498.52c0,21.71-17.66,39.38-39.38,39.38h-281.25c-21.71,0-39.37-17.66-39.37-39.38V217.27c0-21.71,17.66-39.38,39.37-39.38h281.25c21.71,0,39.38,17.66,39.38,39.38v281.25Z" fill="currentcolor"/></g><g data-fc="#2e3190"><path d="M171.21,785.76c-4.84,8.44-8.21,13.57-14.52,22.02l-4.69-4.14c13.2-28.8,22.44-57.94,28.6-90.71l15.98,6.29c1.91.66,2.64,1.66,2.64,3.14,0,1.99-1.03,3.14-3.67,3.81-3.23,11.09-5.87,18.87-9.53,28.31v112.89h-14.81v-81.61ZM249.82,799.01c8.36,15.73,21.12,27.81,40.04,38.24-4.4,8.44-4.98,9.77-8.65,18.87-15.54-10.93-25.81-26.32-33.29-49.16v60.42h-14.81v-44.69c-10.12,14.73-23.03,25.99-40.33,35.09l-3.23-6.62c15.98-13.41,28.16-29.63,39.01-52.15h-28.3l-6.16,1.33v-10.6l6.16,1.32h32.85v-18.54h-28.6v-51.81h74.06v51.81h-30.65v18.54h34.32l6.16-1.32v10.6l-6.16-1.33h-32.41ZM263.01,764.58v-35.92h-43.41v35.92h43.41Z" fill="currentcolor"/><path d="M351.86,719.38c-5.87,23.67-9.24,32.61-18.77,50.98,6.16,7.95,8.95,12.25,11.14,17.38,2.49,6.13,3.82,12.58,3.82,19.2,0,9.6-2.94,18.37-7.19,22.18-3.23,2.81-8.65,4.3-15.54,4.3h-3.08v-8.61h2.2c6.45,0,9.24-5.13,9.24-17.22s-2.05-21.19-8.95-36.25c4.69-17.55,7.19-28.31,9.83-44.03h-14.81v140.04h-13.78v-147.99h45.9ZM372.54,765.9l-6.31,1.32v-8.28c-6.89,5.79-11,8.61-20.09,13.57l-3.22-5.79c17.45-16.06,31.38-35.26,39.3-53.8l14.37,2.98c1.17.17,2.2,1.33,2.2,2.32,0,1.32-1.17,2.32-3.66,3.64l-.15.16c12.91,15.56,24.34,23.84,42.53,30.79-3.81,7.78-4.25,8.94-7.04,17.05-6.89-3.81-10.41-6.29-15.25-10.43v7.78l-6.01-1.32h-12.47v14.07h31.24v41.22h-31.53c8.36,13.91,22.88,24.5,41.06,29.97-3.81,7.45-4.4,8.6-7.48,16.55-18.77-7.61-29.33-18.71-36.95-38.4-6.16,19.7-23.9,33.44-50.45,39.06l-1.76-6.29c22.29-8.44,35.34-22.02,39.74-40.89h-27.13v-41.22h29.92v-14.07h-10.85ZM366.53,787.25v26.65h15.4c.73-6.95,1.17-15.89,1.32-26.65h-16.72ZM391.61,728.16l-.44.66c-6.16,10.76-13.49,19.86-22.58,28.31l3.96.83h36.66l3.37-.83c-8.36-7.94-14.81-17.05-20.82-29.46l-.15.5ZM396.73,787.25c-.29,12.08-.58,21.35-1.17,26.65h18.62v-26.65h-17.45Z" fill="currentcolor"/><path d="M666.08,817.22c11.73,12.42,34.76,22.85,59.54,27.15-3.52,8.61-3.96,9.93-6.6,17.71-23.32-5.13-42.38-18.05-55.14-37.25v43.7h-14.96v-36.09c-14.96,14.57-35.78,25.33-59.4,30.63l-1.76-6.46c21.27-8.94,39.59-22.34,54.26-39.4h-45.6l-6.16,1.33v-10.59l6.16,1.32h52.5v-13.9h-20.53v-65.88h17.45c1.18-7.45,1.62-11.09,2.2-16.55l14.22,2.81c2.79.66,3.66,1.33,3.66,2.82,0,1.65-1.03,2.48-3.66,3.31-2.2,3.15-3.52,4.97-6.01,7.61h28.16v65.88h-20.53v13.9h53.08l6.16-1.32v10.59l-6.16-1.33h-50.89ZM624.29,771.36c-6.01,7.12-11.29,11.75-23.02,20.36-.44,2.98-1.47,4.47-3.08,4.47-1.03,0-2.06-.99-2.49-2.48l-6.01-16.22c9.82-2.82,18.33-6.29,31.82-12.75l2.79,6.62ZM612.12,755.14c-4.25-7.62-8.51-13.41-19.66-26.32l4.55-5.63c9.68,2.98,16.57,7.28,25.66,15.89l-10.55,16.06ZM670.48,757.79v-20.36h-28.15v20.36h28.15ZM670.48,787.42v-21.68h-28.15v21.68h28.15ZM688.52,747.36c7.34-8.94,12.03-15.73,17.9-26.65l12.75,10.92c1.03.99,1.62,1.82,1.62,2.65,0,1.82-1.62,2.65-5.13,2.81-9.24,8.11-14.96,12.08-23.32,16.22l-3.81-5.96ZM711.69,796.19c-7.48-9.76-13.64-16.55-23.03-25.16l3.52-6.62c11.73,3.31,20.09,7.78,30.51,15.73l-11,16.05Z" fill="currentcolor"/><path d="M801.16,743.55c-3.23,13.24-7.63,25-13.06,35.59h19.07l6.01-1.33v10.59l-6.01-1.32h-66.88l-6.16,1.32v-10.59l6.16,1.33h14.22c-1.02-10.43-3.08-22.18-6.59-35.59h-3.37l-6.16,1.32v-10.59l6.16,1.32h21.85v-20.53h15.4c2.05,0,3.08.66,3.08,2.32,0,1.16-.44,1.82-2.35,3.48v14.73h22.44l6.16-1.32v10.59l-6.16-1.32h-3.81ZM790.17,860.92v-8.11h-31.38v9.27h-15.11v-59.93h61.59v58.76h-15.1ZM753.94,743.55c6.74,8.28,11.58,16.88,15.54,27.97l-11.88,7.62h22.44c2.64-14.07,4.1-24,5.13-35.59h-31.23ZM790.17,844.86v-34.76h-31.38v34.76h31.38ZM872,720.71c-4.55,17.55-11.3,34.6-22.59,57.11,16.42,13.74,22.59,25.16,22.59,41.88,0,10.43-2.94,19.37-7.78,23.84-3.96,3.81-9.25,5.46-17.31,5.46h-8.66v-9.27h5.73c4.39,0,7.47-1.82,9.09-5.13,1.76-3.81,2.64-8.61,2.64-14.73,0-10.43-2.79-20.03-8.21-28.97-1.76-3.15-3.96-6.12-8.22-11.09,5.13-16.05,8.35-29.3,12.91-51.15h-19.35v139.38h-15.25v-147.33h54.41Z" fill="currentcolor"/><path d="M485.48,720.84c0-1.49-1.02-2.81-2.64-3.14l-16.72-4.62c-7.04,36.17-15.4,62.77-28.6,90.52l5.23,4.12c6.6-8.59,10.43-12.71,13.68-22.46v83.35h16.22v-115.06c3.24-10.08,5.61-16.19,9.57-29.07,2.64-.66,3.26-1.82,3.26-3.63Z" fill="currentcolor"/><path d="M563.46,719.42h-71.35v87.57h71.35v-87.57ZM547.25,800.5h-38.92v-22.7h38.92v22.7ZM547.25,771.31h-38.92v-19.46h38.92v19.46ZM547.25,745.36h-38.92v-19.46h38.92v19.46Z" fill="currentcolor"/><path d="M509.32,832.82c-9.33,12.39-19.09,21.31-32.22,29.4l1.41,6.11c15.51-4.13,25.6-8.92,36.89-17.84,3.8,0,5.1-.99,5.1-3.63,0-1.49-.22-1.82-1.95-3.8l-9.22-10.24Z" fill="currentcolor"/><polygon points="573.89 819.96 482.42 819.96 479.14 820.27 479.14 831.5 482.42 829.69 573.89 829.69 579.68 831.5 579.68 820.27 573.89 819.96" fill="currentcolor"/><path d="M536.78,842.41c11.72,8.09,20.28,15.52,30.05,25.93l9.11-16.68c-10.2-7.11-20.18-11.56-36.56-16.19l-2.6,6.94Z" fill="currentcolor"/></g></g></g></g></svg>