<?xml version="1.0" encoding="UTF-8"?><svg xmlns="http://www.w3.org/2000/svg" viewBox="0 0 1024 1024"><title>rosyposy-symbol logo</title><desc>Copyright &#xa9; 2026 Pearlpuppy. All rights reserved.</desc><metadata><rdf:RDF xmlns:rdf="http://www.w3.org" xmlns:dc="http://purl.org"><rdf:Description rdf:about=""><dc:title>rosyposy-symbol logo</dc:title><dc:creator>Pierre Pearlpuppy</dc:creator><dc:rights>Copyright &#xa9; 2026 Pearlpuppy. All rights reserved.</dc:rights><dc:date>2026-03-20</dc:date><dc:format>image/svg+xml</dc:format></rdf:Description></rdf:RDF></metadata><g isolation="isolate"><g id="logo-rosyposy-symbol"><g id="rosyposy-symbol"><g data-fc="#040000"><path d="M831.15,465.68c-24.12-18.36-52.71-27.66-84.99-27.66s-62.43,6.91-90.59,20.61c-3.06-5.49-7.01-10.6-11.9-15.29h-.03c-12.66-12.05-27.98-18.13-45.62-18.13-11.71,0-24.7,4.41-39.72,13.42-17.21,10.23-26.41,21.06-28.13,33.11-.37,2.7.82,5.43,3.11,6.93l3.1,2.08c2.81,1.88,6.62,1.45,9.05-.91l19.43-19.07c6.52-5.17,13.33-7.87,20.32-7.87,12.82,0,22.92,4.15,30.84,12.62,3.42,3.64,5.91,7.7,7.84,12.05-5.78,4.15-11.47,8.56-17.05,13.36-22.92,19.64-40.76,42.1-53.89,66.86-17.84-2.02-32.23-10.38-43.84-25.47-12.34-16.4-18.58-36.38-18.58-59.35s11.34-44,34.69-61.6c.07,0,69.11-44.37,69.11-44.37,27.27-20.49,40.86-44.74,40.86-72.31,0-25.44-9.65-44.97-27.6-58.92,13.32-7.87,21.32-11.14,25.55-12.25,2.5-.57,4.48-2.5,5.17-5,.17-.63.24-1.28.24-1.88,0-1.88-.72-3.72-2.08-5.06l-3.1-3.1c-1.54-1.54-3.65-2.25-5.81-2.05-7.39.77-15.18,3.27-23.12,7.42,0,0-10.82,6.08-16.29,9.18-23.42-10.94-53.05-16.63-88.57-16.63-60.96,0-117.61,18.02-168.37,53.64-56.68,40.28-85.43,90.79-85.43,150.11,0,54.72,23.62,97.95,69.7,128.99-15.92,8.98-29.95,13.79-41.6,13.79-10.29,0-25.71-2.98-45.85-8.9-21.79-6.4-38.1-9.49-49.86-9.49-1.44,0-2.89.46-4.08,1.28l-19.04,13.22c-1.99,1.39-3.14,3.72-3.04,6.17.46,11.88,10.35,20.61,29.41,25.92,11.56,3.24,23.98,4.86,36.88,4.86,6.99,0,16.76-1.22,29.87-3.7,12.08-2.3,21.23-3.44,27.23-3.44,10.23,0,25.89,1.17,46.53,3.52,21.45,2.42,37.21,3.61,48.12,3.61,75.01,0,90.29-6.54,95.73-13.62.95-1.25,1.45-2.79,1.45-4.32,0-.91-.16-1.79-.53-2.67-.91-2.33-3.01-4.01-5.53-4.41l-58.64-9.24c-17.18-3.44-31.74-8.9-43.58-16.09,23.92-21.66,48.02-51.51,71.73-89.74.03-.03,63.87-105.4,63.87-105.4,23.82-35.36,49.74-62.76,76.93-81.98,10.79,11.48,16.36,26.89,16.36,47.44,0,23.28-10.74,43.12-32.83,60.72-.04,0-66.14,45.96-66.14,45.96-25.78,21.94-38.59,48.35-38.59,78.82,0,26.12,8.8,48.61,26.17,66.86,17.14,17.99,38.69,27.23,64,27.57-3.31,9.12-6.17,18.48-8.31,28.08h-14.17c-28.51,0-52.36,5.34-70.83,15.8-23.88,13.25-36.01,34.02-36.01,61.68,0,18.96,8.33,35.33,24.74,48.66,14.92,12.31,32.02,18.56,50.78,18.56.7,0,1.39-.11,2.09-.31l20.04-6.14c2.27-.71,4.04-2.47,4.73-4.75.68-2.25.23-4.72-1.25-6.57l-2.05-2.53c-1.39-1.76-3.48-2.76-5.71-2.7-19.74.34-33.74-1.37-41.63-4.97-11.61-4.83-16.91-14.3-16.91-29.85,0-19.1,5.93-34.71,18.14-47.55,11.91-12.71,26.56-18.25,44.68-17,0,0,12.22.8,20.29,1.31-.34,8.16-.94,21.57-.94,21.57,0,36.9,7.92,68.59,22.92,94.94-27.34,22.34-58.24,34.02-92.21,34.02-30.5,0-59.49-10.26-86.18-30.44-28.18-21.69-41.91-46.56-41.91-76.01,0-15.8,5.57-19.39,7.96-20.61,2.09-.51,22.34-5.69,22.34-5.69,6.37-1.79,17.04-7.45,17.04-25.13,0-15.95-9.18-25.13-25.2-25.13-28.33,0-42.69,27.29-42.69,81.04,0,36.61,11.44,67.94,33.94,93.09,22.73,25.44,52.8,38.32,89.38,38.32,51.32,0,95.04-15.44,130.27-45.57,9.55,12.53,21.08,23.39,35.33,31.41,16.78,9.38,34.72,14.16,53.37,14.16s33.67-4.41,45.82-13.16c13.97-10.74,20.95-25.44,20.95-43.83,0-38.63-21.62-73.76-63.8-104.6,39.07-66.2,49.22-83.11,50.55-85.1,20-31.49,41.37-59.49,63.63-83.4,1.29-1.36,1.92-3.13,1.92-4.86,0-1.85-.68-3.67-2.09-5.09l-2.03-2.05c-2.54-2.5-6.55-2.79-9.39-.62-43.69,33.2-85.16,90.11-123.28,168.81-20.22-11.23-43.62-19.64-69.88-25.16.64-12.25,2.8-24.19,6.18-35.79,17.95-3.92,34.92-11.51,50.7-22.8,27.26-19.1,41.12-43.38,41.12-72.11,0-4.09-.4-8.07-1.12-11.91,20.54-10.2,42.47-15.58,65.66-15.58,28.03,0,51.82,9.21,70.71,27.37,19.06,18.33,28.33,40.9,28.33,69.01,0,18.87-5.43,35.42-16.13,49.15-11.74,14.41-26.21,21.49-44.2,21.49-24.53,0-24.53-8.59-24.53-11.45,0-1.17.29-4.21,2.02-11.11,1.66-6.59,2.46-11.06,2.46-14.1,0-5.4-2.25-17.96-23.18-17.96-7.46,0-14.1,2.93-19.24,8.44-5.03,5.46-7.59,11.91-7.59,19.22,0,16.88,8.78,30.04,26.17,39.2,13.16,6.74,28.27,10.12,44.92,10.12,27.81,0,52.53-10.69,73.42-31.69,20.86-21.01,31.44-45.62,31.44-73.14,0-32.01-13.73-58.67-40.85-79.22ZM370.08,565.17c-19.8-.4-37.45-1.48-52.7-3.3,7.75-3.33,14.2-6.82,19.44-10.52,11.33,5.54,22.38,10.01,33.26,13.81ZM466.99,338c-.1.11-.16.23-.21.34l-60.77,101.93c-21.43,35.59-43.67,63.16-66.17,82.69-18.79-14.98-32.63-30.96-40.68-47.67-8.77-18.16-13.19-41.22-13.19-68.45,0-48.07,20.31-90.45,60.4-125.89,38.63-34.68,83.11-52.25,132.17-52.25,31.62,0,56.81,5.77,75.84,16.43-32.97,25.1-62.46,56.08-87.39,92.86ZM643.68,675.91c13.74,10.23,25.64,22.03,34.66,35.93,11.75,17.91,17.71,35.79,17.71,53.1,0,9.81-3.05,17.11-9.34,22.2-6.75,5.49-15.22,8.16-25.84,8.16s-23.92-5.88-38.71-17.48c-13.59-10.66-23.37-21.18-29.56-31.32,18.79-21.23,35.87-44.97,51.08-70.58ZM624.79,662.92c-15.14,25.92-29.58,46.64-43.15,62.02-10.4-22.09-16.12-50-17-83.26,21.82,4.21,41.97,11.34,60.15,21.23ZM610.17,542.32c-7.83,6.82-17.42,11.45-28.61,13.87,8.12-16.06,19.06-31.38,33.22-45.71,4.32-4.38,8.73-8.44,13.25-12.25-.14,19.27-5.94,33.71-17.85,44.09Z" fill="currentcolor"/></g><g data-fc="#e62488"><path d="M808.1,206.4c-11.6,0-27.22,2.36-41.71,14.5-20.14,17.06-22.33,39.4-22.33,51.39,0,17.4,5.63,34.62,17.61,47.53,16.32,17.4,36.11,19.04,46.43,19.04,11.82,0,27.43-2.36,41.76-14.53,20.12-17.22,22.14-39.71,22.14-51.36,0-35.93-23.41-66.57-63.9-66.57ZM817.79,290.82s-34.96-17.57-34.96-35.76,19.97-32.32,34.96-6.57c14.78-25.75,34.96-11.63,34.96,6.57s-34.96,35.76-34.96,35.76Z" fill="currentcolor"/></g></g></g></g></svg>