<?xml version="1.0" encoding="UTF-8"?><svg xmlns="http://www.w3.org/2000/svg" viewBox="0 0 1024 1024"><title>rush logo</title><desc>Copyright &#xa9; 2026 Pearlpuppy. All rights reserved.</desc><metadata><rdf:RDF xmlns:rdf="http://www.w3.org" xmlns:dc="http://purl.org"><rdf:Description rdf:about=""><dc:title>rush logo</dc:title><dc:creator>Pierre Pearlpuppy</dc:creator><dc:rights>Copyright &#xa9; 2026 Pearlpuppy. All rights reserved.</dc:rights><dc:date>2026-03-20</dc:date><dc:format>image/svg+xml</dc:format></rdf:Description></rdf:RDF></metadata><g isolation="isolate"><g id="logo-rush"><g data-fc="#eb1c24"><path d="M433.57,471.68h13.2v14.9h.38c6.22-14.52,17.92-16.79,29.05-17.54v13.96c-9.24.75-17.17,4.15-22.26,10.18-4.53,5.66-7.17,13.01-7.17,21.31v60.36h-13.2v-103.17Z" fill="currentcolor"/><path d="M580.12,574.85h-12.45v-16.03h-.38c-3.77,7.74-13.77,18.49-33.01,18.49-20.37,0-30.93-9.81-35.46-15.47-7.35-9.05-9.05-22.26-9.05-33.19v-56.96h13.2v56.77c0,13.02,2.83,21.5,7.35,27.16,7.17,8.11,16.79,9.81,23.95,9.81s15.28-1.7,21.88-8.3c6.04-6.03,10.75-12.82,10.75-30.93v-54.51h13.2v103.17Z" fill="currentcolor"/><path d="M610.48,544.29c.38,19.61,13.77,21.12,18.48,21.12,12.45,0,19.24-7.35,19.24-18.48,0-14.15-12.82-17.35-20.56-20.56-10.56-3.59-27.35-9.25-27.35-28.67,0-14.52,10.37-28.67,29.42-28.67,15.47,0,28.29,11.88,28.1,28.1h-13.2c-.94-12.64-9.62-16.22-15.47-16.22-10.56,0-15.66,8.49-15.66,15.47,0,10.94,10.94,14.71,18.49,17.17,12.07,3.96,29.42,10.56,29.42,31.87.19,17.73-10.56,31.87-32.44,31.87-14.33,0-32.25-9.81-31.69-33.01h13.2Z" fill="currentcolor"/><path d="M677.62,435.28h13.2v49.61h.38c3.96-6.22,14.14-15.84,31.69-15.84,12.64,0,23.2,3.21,32.63,12.64,7.73,7.54,12.82,19.43,12.82,36.4v56.77h-13.2v-56.77c0-13.39-4.15-22.82-9.81-28.29-7.17-6.98-16.6-8.87-22.44-8.87s-15.28,1.89-22.45,8.87c-5.66,5.47-9.81,14.9-9.62,28.29v56.77h-13.2v-139.57Z" fill="currentcolor"/><path d="M432.03,645.94c1.54-9.94,9.79-14.41,16.41-14.41s14.8,4.47,16.49,14.41h-32.9ZM470.41,650.8c.23-4.08-.38-8.78-3.24-13.33-3.01-5.24-9.56-10.71-18.8-10.79-12.25.23-21.88,10.25-21.88,22.19s10.17,22.04,21.96,22.04c9.71,0,17.8-6.4,20.73-14.8h-5.7c-1.93,5.24-7.4,9.79-15.1,9.94-8.24,0-15.95-7.01-16.34-15.26h38.37Z" fill="currentcolor"/><path d="M478.65,627.76h5.39v5.39h.15c1.62-2.54,5.78-6.47,12.94-6.47,5.16,0,9.48,1.31,13.33,5.16,3.16,3.08,5.24,7.94,5.24,14.87v23.19h-5.39v-23.19c0-5.47-1.7-9.32-4.01-11.56-2.93-2.85-6.78-3.62-9.17-3.62s-6.24.77-9.17,3.62c-2.31,2.24-4.01,6.09-3.93,11.56v23.19h-5.39v-42.15Z" fill="currentcolor"/><path d="M530.58,632.61h-8.86v-4.86h8.86v-14.87h5.39v14.87h10.09v4.86h-10.09v37.29h-5.39v-37.29Z" fill="currentcolor"/><path d="M555.24,645.94c1.54-9.94,9.79-14.41,16.41-14.41s14.8,4.47,16.49,14.41h-32.9ZM593.61,650.8c.23-4.08-.39-8.78-3.24-13.33-3-5.24-9.56-10.71-18.8-10.79-12.25.23-21.88,10.25-21.88,22.19s10.17,22.04,21.96,22.04c9.71,0,17.8-6.4,20.73-14.8h-5.7c-1.93,5.24-7.4,9.79-15.1,9.94-8.24,0-15.95-7.01-16.33-15.26h38.37Z" fill="currentcolor"/><path d="M601.86,627.76h5.39v6.09h.15c2.54-5.93,7.32-6.86,11.87-7.17v5.7c-3.78.31-7.01,1.69-9.09,4.16-1.85,2.31-2.93,5.32-2.93,8.71v24.66h-5.39v-42.15Z" fill="currentcolor"/><path d="M629.98,632.61h-8.86v-4.86h8.86v-14.87h5.39v14.87h10.09v4.86h-10.09v37.29h-5.39v-37.29Z" fill="currentcolor"/><path d="M654.79,648.95c0-10.71,8.01-17.41,17.26-17.41,9.71,0,16.87,8.09,16.87,17.34,0,9.86-7.78,17.18-16.87,17.18-10.32,0-17.26-7.71-17.26-17.11ZM694.02,627.76h-5.39v7.4h-.15c-4.47-7.01-11.87-8.47-16.41-8.47-13.79,0-22.65,10.79-22.65,22.04,0,12.1,9.4,22.19,22.65,22.19,4.39,0,11.79-1.46,16.41-8.4h.15v7.4h5.39v-42.15Z" fill="currentcolor"/><path d="M703.8,627.76h5.39v42.15h-5.39v-42.15ZM703.8,612.88h5.39v9.71h-5.39v-9.71Z" fill="currentcolor"/><path d="M719.21,627.76h5.39v5.39h.15c1.62-2.54,5.78-6.47,12.95-6.47,5.16,0,9.48,1.31,13.33,5.16,3.16,3.08,5.24,7.94,5.24,14.87v23.19h-5.39v-23.19c0-5.47-1.69-9.32-4.01-11.56-2.93-2.85-6.78-3.62-9.17-3.62s-6.24.77-9.17,3.62c-2.31,2.24-4.01,6.09-3.93,11.56v23.19h-5.39v-42.15Z" fill="currentcolor"/><path d="M771.69,632.61h-.15v-.15l.15.15ZM771.69,627.76h-5.39v42.15h5.39v-24.43c0-4.62.85-6.86,1.93-8.78,1.77-3.01,5.01-5.16,9.56-5.16s7.78,2.16,9.55,5.16c1.08,1.93,1.93,4.16,1.93,8.78v24.43h5.39v-24.43c0-4.62.85-6.86,1.93-8.78,1.77-3.01,5.01-5.16,9.56-5.16s7.78,2.16,9.56,5.16c1.08,1.93,1.93,4.16,1.93,8.78v24.43h5.39v-25.04c0-14.33-10.4-18.18-16.87-18.18-3.55,0-11.02,1.62-14.18,8.09-3.16-6.47-10.63-8.09-14.18-8.09-3.93,0-9.09,1.77-11.48,5.93v-4.86Z" fill="currentcolor"/><path d="M841.96,645.94c1.54-9.94,9.79-14.41,16.41-14.41s14.8,4.47,16.49,14.41h-32.9ZM880.33,650.8c.23-4.08-.39-8.78-3.24-13.33-3-5.24-9.55-10.71-18.8-10.79-12.25.23-21.88,10.25-21.88,22.19s10.17,22.04,21.96,22.04c9.71,0,17.8-6.4,20.73-14.8h-5.7c-1.93,5.24-7.4,9.79-15.1,9.94-8.25,0-15.95-7.01-16.34-15.26h38.37Z" fill="currentcolor"/><path d="M888.58,627.76h5.39v5.39h.15c1.62-2.54,5.78-6.47,12.94-6.47,5.16,0,9.48,1.31,13.33,5.16,3.16,3.08,5.24,7.94,5.24,14.87v23.19h-5.39v-23.19c0-5.47-1.7-9.32-4.01-11.56-2.93-2.85-6.78-3.62-9.17-3.62s-6.24.77-9.17,3.62c-2.31,2.24-4.01,6.09-3.93,11.56v23.19h-5.39v-42.15Z" fill="currentcolor"/><path d="M940.51,632.61h-8.86v-4.86h8.86v-14.87h5.39v14.87h10.09v4.86h-10.09v37.29h-5.39v-37.29Z" fill="currentcolor"/><path d="M249.3,657.31c-80.24,0-145.31-65.06-145.31-145.31s65.07-145.31,145.31-145.31,145.32,65.05,145.32,145.31h0c0-90.2-73.12-163.31-163.31-163.31s-163.31,73.11-163.31,163.31,73.11,163.31,163.31,163.31,160.46-70.37,163.18-158.18c-2.71,77.87-66.65,140.17-145.18,140.17Z" fill="currentcolor"/><path d="M294.96,611.64c-55.03,0-99.64-44.61-99.64-99.64s44.61-99.64,99.64-99.64,99.66,44.61,99.66,99.64h0c0-59.82-48.5-108.31-108.32-108.31s-108.32,48.49-108.32,108.31,48.5,108.31,108.32,108.31,105.51-45.74,108.19-103.17c-2.67,52.65-46.22,94.51-99.53,94.51Z" fill="currentcolor"/><path d="M325.49,581.12c-38.17,0-69.11-30.95-69.11-69.12s30.94-69.12,69.11-69.12,69.13,30.95,69.13,69.12h0c0-50.98-41.34-92.33-92.32-92.33s-92.32,41.34-92.32,92.33,41.34,92.31,92.32,92.31,90.93-40,92.26-89.82c-1.31,37.02-31.73,66.64-69.06,66.64Z" fill="currentcolor"/><path d="M394.62,512c0,24.48-19.84,44.32-44.33,44.32s-44.33-19.84-44.33-44.32,19.85-44.33,44.33-44.33,44.33,19.84,44.33,44.33Z" fill="currentcolor"/></g></g></g></svg>