<?xml version="1.0" encoding="UTF-8"?><svg xmlns="http://www.w3.org/2000/svg" viewBox="0 0 1024 1024"><title>epicure logo</title><desc>Copyright &#xa9; 2026 Pearlpuppy. All rights reserved.</desc><metadata><rdf:RDF xmlns:rdf="http://www.w3.org" xmlns:dc="http://purl.org"><rdf:Description rdf:about=""><dc:title>epicure logo</dc:title><dc:creator>Pierre Pearlpuppy</dc:creator><dc:rights>Copyright &#xa9; 2026 Pearlpuppy. All rights reserved.</dc:rights><dc:date>2026-03-20</dc:date><dc:format>image/svg+xml</dc:format></rdf:Description></rdf:RDF></metadata><g isolation="isolate"><g id="logo-epicure"><g id="epicure"><g data-fc="#e02229"><path d="M84.46,597.32c-4.22,0-8.42-1.61-11.63-4.81-6.44-6.43-6.44-16.85,0-23.27l7.77-7.79c-8.2-12.61-12.6-27.33-12.6-42.73,0-21.01,8.2-40.75,23.03-55.6,14.85-14.83,34.59-23.01,55.6-23.01s40.73,8.18,55.58,23.01c6.43,6.42,6.43,16.82,0,23.27l-74.14,74.11c5.77,2.57,12.05,3.92,18.56,3.92,12.2,0,23.68-4.75,32.33-13.38,8.63-8.65,13.38-20.13,13.38-32.33,0-9.08,7.36-16.48,16.46-16.48s16.44,7.4,16.44,16.48c0,20.98-8.18,40.71-23.03,55.58-14.85,14.85-34.59,23.03-55.58,23.03-15.4,0-30.14-4.4-42.75-12.62l-7.79,7.81c-3.22,3.2-7.42,4.81-11.62,4.81h0ZM146.62,473c-12.22,0-23.7,4.75-32.33,13.4-8.65,8.63-13.4,20.09-13.4,32.33,0,6.48,1.34,12.79,3.92,18.54l60.35-60.37c-5.75-2.55-12.03-3.89-18.54-3.89h0Z" fill="currentcolor"/></g><g data-fc="#000"><path d="M243.97,443.14c0,9.08-7.38,16.44-16.46,16.44s-16.44-7.36-16.44-16.44,7.36-16.46,16.44-16.46,16.46,7.38,16.46,16.46Z" fill-rule="evenodd"/><path d="M282.21,481.25h53.31v8.81h-43.58v35.02h42.14v8.83h-42.14v35.94h43.58v8.81h-53.31v-97.41Z"/><path d="M380,481.25h27.11c13.44,0,19.76,2.1,25.15,5.67,7.24,4.85,12.11,13.16,12.11,23.41s-4.87,18.56-12.11,23.45c-5.38,3.53-11.71,5.65-25.15,5.65h-17.36v39.22h-9.75v-97.41ZM389.75,530.63h14.07c10.4,0,13.95,0,19.48-2.51,7.65-3.57,11.32-10.4,11.32-17.79s-3.67-14.2-11.32-17.76c-5.53-2.51-9.08-2.51-19.48-2.51h-14.07v40.57Z"/><path d="M485.26,481.25h9.75v97.41h-9.75v-97.41Z"/><path d="M635.35,553.13c-10.4,19.09-29.23,27.27-44.89,27.27-27.25,0-50.95-21.48-50.95-50.31s23.05-50.42,50.8-50.42c25.03,0,40.81,17.52,44.64,26.6h-10.93c-10.67-15.91-27.92-17.76-33.83-17.76-22.76,0-40.93,20.01-40.93,41.73,0,22.78,20.01,41.34,41.05,41.34,4.87,0,20.8-.67,34.1-18.44h10.93Z"/><path d="M687.68,481.25v60.68c0,7.1,1.06,13.56,3.3,17.64,5.91,10.93,15.52,11.99,20.13,11.99s14.22-1.06,20.13-11.99c2.24-4.08,3.3-10.54,3.3-17.64v-60.68h9.73v60.68c0,8.18-1.3,15.15-3.67,20.27-6.73,14.62-20.41,18.19-29.49,18.19s-22.76-3.57-29.49-18.19c-2.37-5.12-3.69-12.09-3.69-20.27v-60.68h9.75Z"/><path d="M793.14,481.25h24.76c13.03,0,19.48,1.57,23.96,3.67,10.91,5.14,17.38,15.83,17.38,27.78,0,14.09-10.14,28.43-28.96,29.63l27.51,36.32h-12.26l-33.04-44.1c12.38,0,16.6-.12,20.95-1.45,10.67-3.04,16.05-11.99,16.05-20.66,0-7.65-4.34-15.54-10.67-18.7-5.77-3.04-10.79-3.69-18.95-3.69h-16.99v88.6h-9.75v-97.41Z"/><path d="M902.69,481.25h53.31v8.81h-43.56v35.02h42.13v8.83h-42.13v35.94h43.56v8.81h-53.31v-97.41Z"/></g></g></g></g></svg>