<?xml version="1.0" encoding="UTF-8"?><svg xmlns="http://www.w3.org/2000/svg" viewBox="0 0 1024 1024"><title>kurotama logo</title><desc>Copyright &#xa9; 2026 Pearlpuppy. All rights reserved.</desc><metadata><rdf:RDF xmlns:rdf="http://www.w3.org" xmlns:dc="http://purl.org"><rdf:Description rdf:about=""><dc:title>kurotama logo</dc:title><dc:creator>Pierre Pearlpuppy</dc:creator><dc:rights>Copyright &#xa9; 2026 Pearlpuppy. All rights reserved.</dc:rights><dc:date>2026-03-20</dc:date><dc:format>image/svg+xml</dc:format></rdf:Description></rdf:RDF></metadata><g isolation="isolate"><g id="logo-kurotama"><g data-fc="#000"><path d="M603.31,407.3c-12.44,46.45-58.68,56.52-108.79,43.09-50.11-13.42-85.14-45.26-72.67-91.69,12.43-46.43,104.76-57.29,123.99-99.87-5.96,44.95,69.9,102.06,57.47,148.47Z" fill-rule="evenodd"/><path d="M323.76,739.71c-.99-1.78-2.14-3.6-3.29-5.17l2.66-1.25c2.45,3.29,5.06,7.72,6.05,10.59l-2.82,1.36c-.26-.84-.68-1.83-1.2-2.87l-5.69.31v22.34h-3.19v-22.18c-2.97.1-5.69.26-7.83.31-.05.42-.36.57-.73.68l-.94-3.91h3.86c1.15-1.36,2.4-2.93,3.6-4.6-1.62-2.34-4.44-5.37-6.94-7.57l1.77-2.29c.52.41,1.05.89,1.57,1.41,1.83-3.08,3.96-7.31,5.17-10.33l3.8,1.61c-.2.31-.52.42-1.1.42-1.46,3.03-3.86,7.3-5.84,10.23,1.36,1.35,2.56,2.71,3.4,3.91,2.35-3.5,4.59-7.2,6.21-10.23l3.7,1.77c-.21.26-.62.42-1.2.42-2.71,4.44-6.99,10.64-10.75,15.18l9.71-.15ZM314.05,747.59c-.1.31-.41.52-.99.52-.73,4.44-1.93,9.45-3.55,12.52-.68-.47-1.83-.99-2.61-1.36,1.51-2.92,2.66-7.93,3.34-12.68l3.8.99ZM325.27,757.71c-.47-2.82-1.93-7.14-3.45-10.38l2.71-.89c1.57,3.29,3.08,7.46,3.65,10.28l-2.92.99ZM342.91,757.92c0,2.98.52,3.34,2.71,3.34h3.54c2.3,0,3.24-.31,3.45-1.41.15-.68.36-2.4.41-4.59.78.68,2.04,1.25,3.14,1.61-.21,6.74-1.41,7.51-6.63,7.51h-4.49c-5.48,0-5.48-2.5-5.48-7.04v-7.57h-6.68v3.5h-3.24v-21.92l4.23.31c-.06.31-.32.57-.99.68v14.19h6.68v-19.98c-3.96.57-8.14,1.04-11.95,1.35-.16-.78-.62-2.03-1.05-2.87,4.18-.36,8.72-.89,13-1.57v-6.88l4.33.26c-.06.36-.32.62-.99.73v5.27c3.55-.68,6.68-1.46,8.92-2.35l2.98,2.77q-.16.15-.99.15c-2.77.99-6.63,1.88-10.9,2.61v20.5h7.04v-15.18l4.28.31c-.06.31-.37.57-1.05.68v20.35h-3.24v-2.92h-7.04v8.14Z"/><path d="M374.55,721.86v8.04h5.38v33.5h-2.77v-2.4h-12.63v3.19h-2.66v-34.28h4.95v-8.04h-6.73v-2.93h21.92v2.93h-7.46ZM377.17,744.56c-.21.05-.47.05-.73.05h-1.88c-1.93,0-2.5-.47-2.5-2.97v-8.82h-2.71v3.34c0,3.24-.57,7.88-3.02,11.17-.42-.41-1.26-.99-1.78-1.25v3.49h12.63v-5.01ZM367.2,732.82h-2.66v13.2c2.24-3.13,2.66-6.99,2.66-9.91v-3.29ZM364.53,758.13h12.63v-5.79h-12.63v5.79ZM369.33,721.86v8.04h2.71v-8.04h-2.71ZM376.01,742.42c.63,0,.73-.16.78-1.78.11.11.21.16.37.26v-8.09h-2.98v8.82c0,.68.1.78.52.78h1.3ZM400.44,758.8c0,2.5.26,2.5,1.57,2.5h1.93c2.24,0,2.24-.15,2.4-5.53.68.57,1.78,1.09,2.66,1.35-.16,5.33-.36,7-4.8,7h-2.87c-4.02,0-4.02-2.14-4.02-5.74v-9.03h-5.17c-.47,5.43-2.56,11.49-8.97,15.71-.41-.68-1.51-1.93-2.14-2.4,5.79-3.75,7.51-8.71,7.99-13.31h-6.83v-3.13h6.99v-7.62h-3.03v-2.19c-1.26,1.57-2.56,2.92-3.96,4.02-.42-.78-1.47-2.03-2.09-2.56,2.45-1.88,4.65-4.49,6.47-7.72-1.46-1.15-3.44-2.61-5.06-3.65l1.62-2.35c1.51.94,3.39,2.19,4.85,3.18.83-1.87,1.57-3.96,2.09-6.16h-6.06v-3.03h7.46l.57-.1,1.98.89c-.05.21-.26.47-.41.57-1.31,6.37-3.76,11.85-6.79,16.02h15.97c-3.71-4.6-6.16-11.17-7.46-18.58l2.71-.52c.36,1.88.78,3.7,1.3,5.43,1.47-1.1,3.08-2.45,4.12-3.5l2.29,2.66c-.1.15-.36.26-.57.26-.1,0-.26-.06-.36-.11-1.2.99-3.08,2.29-4.65,3.29.47,1.2.94,2.4,1.52,3.5,1.72-1.1,3.65-2.5,4.9-3.55l2.35,2.61c-.21.21-.57.31-.99.21-1.2.89-3.29,2.08-5.01,3.03,1.72,2.82,3.81,5.06,6.37,6.52-.73.57-1.77,1.78-2.29,2.66-1.26-.84-2.45-1.88-3.5-3.08v2.24h-3.08v7.62h7.41v3.13h-7.41v9.45ZM392.3,746.23h5.01v-7.62h-5.01v7.62Z"/><path d="M459.91,741.38c-.15.26-.47.36-.78.41-2.03,2.3-5.27,5.01-8.45,6.94v2.14h11.06v3.08h-11.06v7.46c0,3.49-1.36,3.7-8.71,3.7-.16-.94-.57-2.14-.99-3.03,2.56.05,4.91.05,5.58.05.62-.05.83-.2.83-.78v-7.41h-10.75v-3.08h10.75v-4.02l1.2.06c1.78-1.1,3.6-2.56,5.07-4.02h-8.98c-2.5,2.35-5.16,4.49-7.93,6.32-.42-.47-1.1-1.2-1.72-1.77v16.23h-2.93v-2.61h-14.19v3.29h-2.87v-34.33h5.63v-8.04h-7.41v-3.03h23.49v3.03h-7.62v8.04h5.9v16.54c1.72-1.1,3.39-2.29,5.01-3.65h-1.15v-2.92h4.38c1.62-1.57,3.19-3.29,4.65-5.06h-11.79v-3.09h8.29v-6.26h-7.09v-3.03h7.09v-6.05l4.17.26c-.05.37-.31.57-.99.68v5.11h6.73v3.03h-6.73v6.26h2.71c2.97-4.02,5.53-8.5,7.51-13.15l3.91,1.36c-.26.42-.73.52-1.26.47-1.77,3.96-3.96,7.78-6.37,11.32h7.57v3.09h-9.81c-1.36,1.77-2.77,3.44-4.28,5.06h9.13l.57-.21,2.61,1.62ZM421.14,733.08h-3.24v16.54h14.19v-4.9c-.31.15-.68.21-1.15.21h-1.93c-1.98,0-2.56-.52-2.56-2.98v-8.87h-3.13v3.24c0,3.28-.68,7.93-3.55,11.27-.36-.47-1.31-1.15-1.77-1.41,2.66-3.08,3.13-6.94,3.13-9.97v-3.13ZM417.91,758.13h14.19v-5.63h-14.19v5.63ZM423.34,721.97v8.04h3.13v-8.04h-3.13ZM430.54,742.68c.62,0,.73-.2.83-1.98.2.16.47.31.73.47v-8.09h-3.44v8.82c0,.68.1.78.57.78h1.31Z"/><path d="M476.51,755.52c-1.31,3.6-3.6,7.46-6.52,9.65l-3.08-1.56c2.71-1.93,5.06-5.43,6.31-8.92l3.29.84ZM514.13,749.88v3.08h-47.07v-3.08h21.61v-4.8h-17.07v-2.92h17.07v-4.12h-15.81v-19.62h35.69v19.62h-16.39v4.12h18.01v2.92h-18.01v4.8h21.97ZM476.25,721.29v5.53h12.42v-5.53h-12.42ZM476.25,735.16h12.42v-5.63h-12.42v5.63ZM483.35,764.71c-.06-2.19-.42-5.84-.99-8.67l3.18-.26c.68,2.76,1.2,6.36,1.2,8.45l-3.39.47ZM505.06,726.82v-5.53h-12.89v5.53h12.89ZM505.06,735.16v-5.63h-12.89v5.63h12.89ZM496.08,764.65c-.47-2.19-1.72-5.79-2.92-8.5l3.29-.68c1.2,2.66,2.5,6.21,3.03,8.41l-3.4.78ZM510.95,765.02c-1.36-2.4-4.33-6.26-6.94-9.08l3.18-1.2c2.61,2.66,5.74,6.42,7.15,8.92l-3.39,1.36Z"/><path d="M550.26,727.97c-4.44,1.56-10.33,2.56-16.02,2.97-2.19,11.95-5.38,23.85-9.55,32.61l-3.75-1.41c4.28-8.4,7.41-19.2,9.45-31.04-1.04.05-8.04.1-9.6.05l-.05-3.55c.84.05,1.93.05,3.13.05.47,0,5.69,0,7.05-.05.52-3.34,1.04-6.99,1.35-10.17l5.38.52c-.05.57-.78.99-1.52,1.04-.31,2.3-.83,5.12-1.3,8.3,5.11-.47,10.28-1.36,14.61-2.92l.83,3.6ZM564.14,762.72c-1.57.06-3.18.11-4.8.11-4.91,0-9.55-.36-12.37-1.15-3.7-1.04-5.84-3.76-5.79-7.2.05-2.29,1.04-4.91,3.23-7.57l3.13,1.36c-1.82,2.14-2.71,4.17-2.71,5.79,0,4.12,3.96,5.17,13.46,5.17,1.93,0,3.91-.05,5.84-.21v3.7ZM543.79,737.57c5.37-1.72,12.79-2.82,18.94-2.66v3.54c-5.9-.15-12.73.68-18.06,2.35l-.89-3.24Z"/><path d="M571.41,724.63c3.24.2,7.57.2,11.12.2,2.35,0,5.01-.05,7.2-.1-.05-2.5-.1-5.43-.1-7.25l5.27.26c-.05.62-.52.94-1.41,1.1-.05.83,0,4.85,0,5.74,6.11-.31,12.15-.84,17.32-2.03l.47,3.44c-5.12,1.15-11.17,1.67-17.79,1.99.05,3.13.1,6.36.21,9.6,5.06-.31,10.48-.99,14.71-2.03l.42,3.39c-4.39.94-9.87,1.57-15.08,1.83l.41,8.71c4.8,1.56,9.92,4.28,15.34,8.14l-2.29,3.19c-4.7-3.71-9.13-6.21-12.94-7.67,0,.83.05,1.77.05,2.45-.05,4.96-3.03,7.83-9.34,7.83-6.63,0-11.48-2.71-11.48-7.62s5.69-7.78,11.53-7.78c1.73,0,3.55.15,5.48.62-.05-2.24-.15-4.96-.21-7.78-1.67.05-3.54.1-5.06.1-8.92,0-11.43-1.41-11.43-4.44,0-1.98,1.52-3.6,4.86-5.74l2.5,1.62c-2.35,1.3-3.6,2.45-3.6,3.49,0,1.57,2.45,1.88,9.08,1.88,1.15,0,2.35,0,3.5-.05l-.31-9.66c-2.24.1-4.86.1-7.2.1-3.34,0-8.09,0-11.22-.1v-3.44ZM590.72,751.81c-2.09-.57-4.02-.83-5.85-.83-3.96,0-7.99,1.62-7.99,4.75s3.65,4.6,8.2,4.6c4.12,0,5.69-1.83,5.69-5.48l-.05-3.03Z"/><path d="M619.03,727.76c3.91,0,7.46-.05,10.28-.62.05-1.36.31-7.88.31-9.39l5.17.47c-.06.57-.52.89-1.41.99-.21,2.24-.32,4.86-.42,7.36l2.14.73c-.89,1.72-1.67,4.44-2.45,6.99,0,.68-.05,1.41-.05,2.09,5.37-4.7,11.89-7.62,17.48-7.62,7.88,0,11.74,5.38,11.74,15.14,0,3.34-.42,6.47-1.36,9.23,1.56,1.36,3.29,3.08,4.54,4.54l-2.4,3.08c-.94-1.15-2.5-2.77-3.92-4.07-2.03,3.54-5.11,6.05-10.43,6.05-4.91,0-8.45-3.08-8.45-7.14,0-4.33,3.8-7.3,8.55-7.3,3.29,0,6.21,1.09,8.82,2.76.68-2.08.94-4.54.94-7.2,0-7.05-2.77-11.59-8.5-11.59-4.86,0-11.54,2.82-17.12,8.04,0,3.39-.05,20.09,0,23.85h-3.6c.06-4.6.11-15.66.16-22.13h-.05c-1.31,3.03-4.39,8.35-8.82,13.15l-2.19-3.23c4.65-4.7,8.46-10.7,11.06-17.12l.16-4.12c-1.93.31-5.64.57-10.18.57v-3.49ZM656.18,754.16c-2.4-1.88-5.16-2.98-7.77-2.98-2.93,0-5.53,1.72-5.53,4.12,0,2.66,2.56,4.33,5.53,4.33,4.64,0,6.83-3.28,7.77-5.48Z"/><path d="M711.57,735.32c-4.7,1.57-10.33,2.61-15.65,3.18,1.56,2.87,4.59,6.68,8.4,8.15l-2.09,3.08-2.92-1.57c-1.26-.47-3.65-.83-6.11-.83-.73,0-1.46.05-2.19.11l-.73-2.87c.58-.05,1.26-.05,1.88-.05,1.36,0,2.72.05,3.71.21-1.41-1.52-2.87-3.65-3.86-5.79-6.79.62-15.86.62-21.5.52v-3.24c3.24.05,7.67.05,10.7.05,2.72,0,6.11-.15,9.6-.41-.52-1.62-1.25-3.91-1.93-6.78-2.08.15-4.44.31-10.28.31-1.82,0-3.65-.06-5.06-.11v-3.23c2.5.1,4.96.15,6.99.15,2.56,0,5.12,0,7.67-.21-.47-2.4-.94-5.11-1.36-8.09h5.43c0,.63-.52.99-1.36,1.2.26,2.24.62,4.49,1.04,6.57,4.91-.52,9.66-1.51,13.42-3.03l.73,3.19c-3.6,1.41-8.61,2.45-13.51,2.98.68,2.77,1.3,5.06,1.93,6.73,5.42-.57,11.32-1.67,16.33-3.45l.73,3.24ZM702.65,763.09c-2.5.15-5.43.31-9.5.31s-16.91,0-16.91-8.66c.05-2.77,2.29-5.43,5.32-7.67l2.45,2.24c-2.56,1.88-4.02,3.71-4.07,5.38,0,5.37,9.18,5.37,12.47,5.37,3.5,0,7.15-.21,10.33-.42l-.1,3.45ZM705.15,717.53c2.19,1.93,4.85,5.17,6.11,7.3l-2.14,1.52c-1.15-2.19-3.81-5.32-5.9-7.36l1.93-1.46ZM711.1,714.87c2.19,1.93,4.86,5.16,6.11,7.36l-2.13,1.51c-1.2-2.19-3.81-5.37-5.95-7.35l1.98-1.51Z"/><path d="M140.03,644.59c-6.42.8-9.5,4.14-9.5,9.76.8,6.16,3.88,9.38,9.5,9.38,6.02,0,9.11-3.35,9.11-10.04,0-5.62-3.08-8.71-9.11-9.1Z"/><path d="M182.33,655.03c-1.61,1.06-2.27,1.87-2.27,2.8,0,.8.66,2.01,2,3.62,0,1.2-.94,1.87-2.81,1.87-4.82-1.07-7.9-6.43-9.1-16.6.13-1.75,1.47-2.68,3.88-2.68v-3.35h-22.76c3.21,17.93,11.51,27.44,24.9,28.51,7.23,0,10.84-3.88,10.84-11.64-.27-1.61-1.74-2.54-4.68-2.54Z"/><path d="M84.74,634.01h84.61c7.23.4,10.84,2.82,10.84,7.23h3.08v-21.28h-3.08c0,6.55-3.74,9.76-11.24,9.76h-34v-13.38h23.7c7.36.4,11.12,2.68,11.12,6.69h2.94v-20.08h-2.94c0,6.16-3.88,9.23-11.38,9.23h-23.44v-12.18c27.32-.68,40.96-5.36,40.96-14.07v-32.79h-97.59v32.79c.27,8.57,13.79,13.26,40.29,14.07v12.18h-24.23c-7.49-.13-11.11-3.08-11.11-8.97h-3.21v20.76h3.21c.8-4.42,4.55-6.97,11.11-7.64h24.23v13.38h-33.87c-7.23-.13-10.84-3.48-10.84-10.04h-3.48v23.16h3.48c.8-5.09,4.42-8.04,10.84-8.84ZM134.94,557.43h23.3v14.86h-23.3v-14.86ZM134.94,576.98h23.3v8.16c0,5.62-7.76,8.97-23.3,10.04v-18.2ZM94.91,557.43h23.7v14.86h-23.7v-14.86ZM94.91,585.15v-8.16h23.7v18.47c-14.72-.8-22.62-4.15-23.7-10.31Z"/><path d="M78.98,643.79c2.81.53,4.28,2.14,4.28,4.68-2.14,10.71-4.55,16.2-7.23,16.2-.54-2.41-2.01-4.02-4.42-4.55-2.42.8-3.62,2.54-3.62,5.22,1.08,2.94,4.42,4.42,10.31,4.42,11.38-.94,19.27-10.58,23.56-29.06-7.76.27-15.39.54-22.89.54v2.55Z"/><path d="M114.72,644.45c-6.43.8-9.5,4.02-9.5,9.64.67,6.16,3.88,9.37,9.5,9.37s8.97-3.35,8.97-10.04c0-5.63-3.08-8.71-8.97-8.97Z"/><path d="M224.25,651.02c0-1.61.68-4.42,2.14-8.71,4.69-13.79,10.45-34.4,17.27-61.99h24.63c4.28,0,6.56,1.48,6.83,4.16h3.07v-13.26h-3.07c-.27,2.82-2.55,4.16-6.83,4.16h-23.56c3.08-12.59,4.82-19.69,5.09-21.03l-1.34-.66-25.3,2.4v2.54c3.47.54,5.21,2.42,5.21,5.62,0,.8-.8,4.56-2.27,11.12h-13.66c-4.42,0-6.69-1.34-6.96-4.16h-3.08v13.26h3.08c.27-2.68,2.54-4.16,6.96-4.16h12.58c-6.96,29.19-13.25,50.48-18.87,64.13-2.41,5.76-5.09,9.1-8.3,10.04v3.08h29.45v-3.35c-2.14,0-3.08-1.07-3.08-3.21Z"/><path d="M258.8,595.59c-3.88,0-5.89-1.34-6.16-4.15h-3.08v13.26h3.08c.27-2.68,2.28-4.02,6.29-4.28,9.77-.4,16.46-.68,20.22-.68,1.33,0,2.01.4,2.01,1.08,0,.26-.8.94-2.28,2.28-2.94,2.54-5.48,4.82-7.76,6.69l4.28,4.82c7.5-4.02,14.33-6.16,20.35-6.16,4.83,0,7.23-2.27,7.23-6.83s-2.28-6.69-6.83-6.69c-4.01,0-10.31.13-19.14.4-8.83.27-15,.27-18.21.27Z"/><path d="M305.52,648.2c-2.68-1.34-4.95-2.14-6.97-2.14-1.74,0-4.15,1.07-7.36,3.08-3.35,2.14-8.71,3.22-15.93,3.22-12.19,0-18.21-4.68-18.21-14.19,0-3.75,1.2-7.64,3.75-11.92l-5.89-3.74c-11.38,7.76-17,14.72-17,21.15s3.61,10.58,10.97,12.72c5.09,1.47,14.46,2.27,28.12,2.27,21.96,0,33.07-1.74,33.07-5.35,0-1.74-1.61-3.48-4.55-5.09Z"/><path d="M387.87,616.74l-.27-16.6h19.68c4.02,0,6.3,1.34,6.56,4.02h2.94v-12.71h-2.94c-.27,2.68-2.54,4.02-6.56,4.02h-19.68l-.4-16.2h12.98c4.02,0,6.29,1.33,6.56,4.01h2.94v-12.71h-2.94c-.27,2.67-2.55,4.01-6.56,4.01h-12.98c-.13-5.09-.4-11.25-.67-18.48l-2.01-.8-20.08,2.41v2.81c2.68.4,4.15,2.54,4.28,6.42,0,3.22.13,5.76.27,7.63h-30.25c-4.29,0-6.43-1.34-6.69-4.01h-2.94v12.71h2.94c.26-2.68,2.4-4.01,6.69-4.01h30.25l.4,16.2h-37.49c-4.28,0-6.42-1.34-6.69-4.02h-2.95v12.71h2.95c.26-2.68,2.4-4.02,6.69-4.02h37.62l.27,13.12c-2.68-.27-5.09-.4-7.36-.4-22.5,0-33.61,8.03-33.61,23.83s9.38,23.29,28.25,23.29c8.97,0,16.21-1.74,21.56-5.22,6.15-4.02,9.37-9.9,9.37-17.93v-4.68c-.13-2.42-.13-3.88-.13-4.69,6.69,5.36,12.05,12.98,16.2,22.63.67,1.88,2.01,2.68,4.02,2.68,2.28,0,4.96-1.07,8.04-3.22,2.94-2.14,4.42-3.88,4.42-5.22,0-1.61-.54-3.21-1.61-4.82-7.22-10.45-17.53-17.94-31.05-22.76ZM367.38,651.28c-2.14,2.68-4.95,4.02-8.57,4.02-7.76,0-11.64-6.3-11.64-19.01,0-4.96,1.34-9.38,4.15-13.12,2.68-3.75,5.9-5.62,9.78-5.62,2.4,0,5.35.54,8.83,1.47,0,6.16.13,14.19.13,23.96,0,3.21-.94,6.02-2.68,8.3Z"/><path d="M486.07,634.15l2.68,1.61,14.45-5.89,1.07-2.54c-2.68-11.92-13.12-22.22-31.33-30.79h-2.14l-2.94,2.67v2.01c4.29,3.35,8.03,7.9,11.12,13.79,2.13,4.42,4.55,10.84,7.09,19.15Z"/><path d="M630.32,553.95l-2.27-.8c-8.04,1.47-15.8,2.28-23.43,2.54v4.28c1.87,0,3.34.54,4.68,1.61.8.8,1.34,1.61,1.34,2.28,0,2.54-2.14,7.23-6.3,13.92-4.95,7.77-10.31,14.33-16.2,19.41-7.5,6.56-14.6,9.78-21.42,9.78-1.47,0-2.15-.54-2.15-1.74,0-3.48-1.73-5.22-4.95-5.22-3.61,0-5.35,1.74-5.35,5.09,0,1.87.8,3.48,2.68,4.68,1.87,1.35,4.15,1.88,6.82,1.88,10.31,0,19.82-2.14,28.66-6.7v49.8c0,1.61-.54,2.95-1.34,4.02-.94,1.07-1.87,1.6-2.94,1.6h-4.16v2.95h35.35v-2.95h-4.15c-1.07,0-2.14-.53-3.08-1.6-.94-1.07-1.34-2.41-1.34-4.02v-60.77c10.84-10.19,17.4-23.43,19.54-40.04Z"/><path d="M743.46,648.87h-33.74v-73.64h27.44c4.01,0,6.29,1.35,6.56,4.02h2.94v-12.72h-2.94c-.27,2.68-2.55,4.02-6.56,4.02h-73.64c-4.28,0-6.42-1.34-6.69-4.02h-2.94v12.72h2.94c.27-2.68,2.41-4.02,6.69-4.02h27.85v73.64h-32.93c-4.28,0-6.42-1.34-6.69-4.02h-2.94v12.72h2.94c.27-2.68,2.41-4.02,6.69-4.02h85.02c4.02,0,6.29,1.35,6.56,4.02h2.94v-12.72h-2.94c-.27,2.68-2.54,4.02-6.56,4.02Z"/><path d="M810.02,614.2l1.87.94,12.99-2.54,1.47-1.34c-1.6-7.23-4.54-13.38-8.56-18.61-2.94-3.48-7.1-7.36-12.72-11.52h-1.34l-2.68,1.61v1.21c3.21,4.02,5.35,8.7,6.69,14.33.8,5.35,1.47,10.57,2.28,15.93Z"/><path d="M788.87,623.57l14.32-2.54,1.07-1.74c-2.01-7.37-4.56-12.99-7.63-17-1.74-2.14-5.36-5.49-10.98-10.03h-1.61l-2.81,1.74-.13,1.2c4.28,5.09,6.42,14.19,6.42,27.04l1.34,1.34Z"/><path d="M829.16,591.84v3.48c2.94,0,4.55,2.14,4.55,6.16,0,13.93-3.88,26.51-11.64,37.62-8.71,12.31-19.55,18.48-32.67,18.48-2.01,0-2.94-.68-2.94-2.28,0-3.21-1.87-4.96-5.35-4.96-1.47,0-2.68.54-3.75,1.47-1.07,1.08-1.61,2.42-1.61,3.75,0,4.41,4.28,6.69,12.85,6.69,21.69,0,38.16-7.76,49.27-23.29,9.38-13.12,14.19-30.26,14.19-51.41l-2.28-.67c-6.16,2.41-13.12,4.02-20.62,4.95Z"/><path d="M933.51,597.99c-8.97-5.49-19.41-9.11-31.19-10.97v-19.95c0-1.47.67-2.94,2.28-4.42,1.34-1.34,2.68-2.01,3.88-2.01h2.68v-2.94h-36.01v2.94h2.68c1.07,0,2.41.67,4.02,2.01,1.34,1.47,2.15,2.94,2.15,4.42v85.28c0,1.6-.81,2.94-2.15,4.28-1.61,1.34-2.94,2.14-4.02,2.14h-2.68v2.94h36.01v-2.94h-2.68c-1.2,0-2.54-.8-3.88-2.14-1.61-1.34-2.28-2.68-2.28-4.28v-59.04c8.57,2.28,15.93,7.1,22.22,14.32,5.36,6.42,9.37,13.93,11.78,22.49l2.14,1.2,16.06-4.95,1.47-2.41c-4.55-10.71-12.05-19.42-22.49-25.98Z"/><path d="M549.56,555.84c-14.84,0-16.51-2.38-9.09-12.98-7.42,10.6-9.09,8.22-9.09-12.98,0,21.2-1.66,23.58-9.09,12.98,7.43,10.6,5.75,12.98-9.08,12.98,14.84,0,16.51,2.38,9.08,12.98,6.43-9.18,8.54-8.62,8.99,5.48h-50.84c1.87-8.3,2.94-14.99,3.35-20.21l-2.28-1.61c-6.29,1.61-13.65,2.82-22.08,3.89v3.75c3.08,0,4.68,1.2,4.68,3.48,0,9.64-1.2,18.34-3.61,25.84-2.81,8.57-6.3,12.72-10.31,12.72-1.6,0-2.28-.54-2.28-1.61,0-2.94-1.74-4.41-5.09-4.41s-4.96,1.74-4.96,4.95c0,1.74.81,3.08,2.55,4.16,1.61,1.06,3.48,1.61,5.35,1.61,14.46,0,25.71-9.24,33.74-27.85h37.21c-.27,23.17-5.35,41.9-15.53,56.23-10.71,15-24.9,22.49-42.7,22.49-2.14,0-4.02-.54-5.36-1.34-1.47-.8-2.14-1.61-2.14-2.54,0-1.21-.54-2.28-1.6-3.35-1.08-.94-2.42-1.47-3.75-1.47-1.61,0-2.81.54-3.88,1.61-1.07,1.07-1.61,2.4-1.61,4.02,0,2.54,1.87,4.55,5.62,6.02,3.08,1.07,6.83,1.74,11.24,1.74,21.16,0,38.56-6.02,52.22-18.07,17.13-15.26,25.84-38.55,25.84-70.02h-3.59c.45-14.09,2.56-14.66,8.99-5.48-7.42-10.6-5.76-12.98,9.09-12.98Z"/><path d="M564.37,545.4c-7.61,0-11.57-5.23-11.57-15.3,0,10.06-3.96,15.3-11.57,15.3,7.61,0,11.57,5.24,11.57,15.3,0-10.06,3.96-15.3,11.57-15.3Z"/></g></g></g></svg>