<?xml version="1.0" encoding="UTF-8"?>
<svg id="emb-min" xmlns="http://www.w3.org/2000/svg" baseProfile="tiny" version="1.2" viewBox="0 0 512 512">
  <!-- (c) Pierre Pearlpuppy  -->
  <path d="M59.8,337.8c-24.2,88.6,31,142.4,120,115.1-32.8-2.2-62.3-14-84.4-36.1-20.9-20.9-32.5-48.4-35.6-79Z" fill="#c93"/>
  <path d="M452.2,174.2c24.2-88.6-31-142.4-120-115,32.8,2.2,62.3,14,84.4,36.1,20.9,20.9,32.5,48.3,35.6,78.9Z" fill="#c93"/>
  <path d="M291.7,179.3c-2.9-1.4-8.1-2.1-15.7-2.1h-11.6s-16.5,79.1-16.5,79.1h11.1c7.9,0,13.6-.5,17.2-1.7,5.7-2.1,9.8-5.9,12.3-11.6,6.5-14.6,9.8-31.3,9.8-50.3s-2.2-11.1-6.7-13.4Z" fill="#c93"/>
  <path d="M430.1,280.9c43.1-120-77.3-239.6-198.8-197.3C92.6,4.1,2,93.5,81.9,231.1c-43,120.1,77.3,239.6,198.8,197.3,138.8,79.5,229.4-9.9,149.5-147.5ZM246.4,264.1l-14.7,70.7h22.2l-1.3,7.7h-83.2l1.5-7.7h18.9l32.3-157.4h-16.9l1.8-7.7h72.7c42,0,63,14.1,63,42.2s-32.1,52.2-96.3,52.2Z" fill="#c93"/>
</svg>